<?xml version="1.0" encoding="UTF-8" standalone="no"?>
<!DOCTYPE svg PUBLIC "-//W3C//DTD SVG 1.1//EN"
 "http://www.w3.org/Graphics/SVG/1.1/DTD/svg11.dtd">
<!-- Generated by graphviz version 2.38.0 (20140413.2041)
 -->
<!-- Title: osdk&#45;core/api/src/dji_gimbal.cpp Pages: 1 -->
<svg width="1460pt" height="431pt"
 viewBox="0.00 0.00 1459.50 431.00" xmlns="http://www.w3.org/2000/svg" xmlns:xlink="http://www.w3.org/1999/xlink">
<g id="graph0" class="graph" transform="scale(1 1) rotate(0) translate(4 427)">
<title>osdk&#45;core/api/src/dji_gimbal.cpp</title>
<polygon fill="white" stroke="none" points="-4,4 -4,-427 1455.5,-427 1455.5,4 -4,4"/>
<!-- Node1 -->
<g id="node1" class="node"><title>Node1</title>
<polygon fill="#bfbfbf" stroke="black" points="247,-392.5 247,-422.5 351,-422.5 351,-392.5 247,-392.5"/>
<text text-anchor="start" x="255" y="-410.5" font-family="Helvetica,sans-Serif" font-size="10.00">osdk&#45;core/api/src/dji</text>
<text text-anchor="middle" x="299" y="-399.5" font-family="Helvetica,sans-Serif" font-size="10.00">_gimbal.cpp</text>
</g>
<!-- Node2 -->
<g id="node2" class="node"><title>Node2</title>
<g id="a_node2"><a xlink:href="dji__gimbal_8hpp.html" target="_top" xlink:title="Gimbal API for OSDK library. ">
<polygon fill="white" stroke="black" points="142.5,-224.5 142.5,-243.5 221.5,-243.5 221.5,-224.5 142.5,-224.5"/>
<text text-anchor="middle" x="182" y="-231.5" font-family="Helvetica,sans-Serif" font-size="10.00">dji_gimbal.hpp</text>
</a>
</g>
</g>
<!-- Node1&#45;&gt;Node2 -->
<g id="edge1" class="edge"><title>Node1&#45;&gt;Node2</title>
<path fill="none" stroke="midnightblue" d="M285.108,-392.309C266.499,-372.76 233.248,-335.875 211,-300 201.75,-285.085 193.838,-266.712 188.626,-253.309"/>
<polygon fill="midnightblue" stroke="midnightblue" points="191.842,-251.919 185.051,-243.787 185.289,-254.379 191.842,-251.919"/>
</g>
<!-- Node8 -->
<g id="node8" class="node"><title>Node8</title>
<g id="a_node8"><a xlink:href="dji__vehicle_8hpp.html" target="_top" xlink:title="Vehicle API for DJI onboardSDK library. ">
<polygon fill="white" stroke="black" points="595.5,-336.5 595.5,-355.5 676.5,-355.5 676.5,-336.5 595.5,-336.5"/>
<text text-anchor="middle" x="636" y="-343.5" font-family="Helvetica,sans-Serif" font-size="10.00">dji_vehicle.hpp</text>
</a>
</g>
</g>
<!-- Node1&#45;&gt;Node8 -->
<g id="edge9" class="edge"><title>Node1&#45;&gt;Node8</title>
<path fill="none" stroke="midnightblue" d="M351.286,-397.268C415.033,-386.013 522.046,-367.119 585.139,-355.98"/>
<polygon fill="midnightblue" stroke="midnightblue" points="586.014,-359.38 595.253,-354.194 584.797,-352.486 586.014,-359.38"/>
</g>
<!-- Node3 -->
<g id="node3" class="node"><title>Node3</title>
<g id="a_node3"><a xlink:href="dji__command_8hpp.html" target="_top" xlink:title="All DJI OSDK OpenProtocol Command IDs. ">
<polygon fill="white" stroke="black" points="229.5,-112.5 229.5,-131.5 322.5,-131.5 322.5,-112.5 229.5,-112.5"/>
<text text-anchor="middle" x="276" y="-119.5" font-family="Helvetica,sans-Serif" font-size="10.00">dji_command.hpp</text>
</a>
</g>
</g>
<!-- Node2&#45;&gt;Node3 -->
<g id="edge2" class="edge"><title>Node2&#45;&gt;Node3</title>
<path fill="none" stroke="midnightblue" d="M182.396,-224.089C183.415,-210.638 187.049,-184.924 200,-168 210.855,-153.815 227.566,-143.222 242.558,-135.889"/>
<polygon fill="midnightblue" stroke="midnightblue" points="244.442,-138.876 252.082,-131.536 241.532,-132.51 244.442,-138.876"/>
</g>
<!-- Node6 -->
<g id="node6" class="node"><title>Node6</title>
<g id="a_node6"><a xlink:href="dji__type_8hpp.html" target="_top" xlink:title="Data type and Data Structure definitions for use throughout DJI OSDK. ">
<polygon fill="white" stroke="black" points="479.5,-112.5 479.5,-131.5 548.5,-131.5 548.5,-112.5 479.5,-112.5"/>
<text text-anchor="middle" x="514" y="-119.5" font-family="Helvetica,sans-Serif" font-size="10.00">dji_type.hpp</text>
</a>
</g>
</g>
<!-- Node2&#45;&gt;Node6 -->
<g id="edge6" class="edge"><title>Node2&#45;&gt;Node6</title>
<path fill="none" stroke="midnightblue" d="M190.993,-224.238C206.145,-210.017 238.318,-182.086 271,-168 336.292,-139.858 418.876,-129.294 469.007,-125.343"/>
<polygon fill="midnightblue" stroke="midnightblue" points="469.477,-128.818 479.194,-124.596 468.965,-121.836 469.477,-128.818"/>
</g>
<!-- Node4 -->
<g id="node4" class="node"><title>Node4</title>
<g id="a_node4"><a xlink:href="dji__error_8hpp.html" target="_top" xlink:title="All DJI OSDK OpenProtocol ACK Error Codes. ">
<polygon fill="white" stroke="black" points="209,-56.5 209,-75.5 279,-75.5 279,-56.5 209,-56.5"/>
<text text-anchor="middle" x="244" y="-63.5" font-family="Helvetica,sans-Serif" font-size="10.00">dji_error.hpp</text>
</a>
</g>
</g>
<!-- Node3&#45;&gt;Node4 -->
<g id="edge3" class="edge"><title>Node3&#45;&gt;Node4</title>
<path fill="none" stroke="midnightblue" d="M270.716,-112.083C266.289,-104.613 259.837,-93.7244 254.382,-84.5199"/>
<polygon fill="midnightblue" stroke="midnightblue" points="257.295,-82.5697 249.186,-75.7511 251.273,-86.1383 257.295,-82.5697"/>
</g>
<!-- Node5 -->
<g id="node5" class="node"><title>Node5</title>
<polygon fill="white" stroke="#bfbfbf" points="250.5,-0.5 250.5,-19.5 299.5,-19.5 299.5,-0.5 250.5,-0.5"/>
<text text-anchor="middle" x="275" y="-7.5" font-family="Helvetica,sans-Serif" font-size="10.00">stdint.h</text>
</g>
<!-- Node3&#45;&gt;Node5 -->
<g id="edge5" class="edge"><title>Node3&#45;&gt;Node5</title>
<path fill="none" stroke="midnightblue" d="M279.46,-112.207C283.943,-99.7493 290.863,-76.2246 288,-56 286.732,-47.0425 284.111,-37.372 281.552,-29.2998"/>
<polygon fill="midnightblue" stroke="midnightblue" points="284.861,-28.1569 278.344,-19.8034 278.229,-30.3976 284.861,-28.1569"/>
</g>
<!-- Node4&#45;&gt;Node5 -->
<g id="edge4" class="edge"><title>Node4&#45;&gt;Node5</title>
<path fill="none" stroke="midnightblue" d="M249.119,-56.083C253.408,-48.6127 259.658,-37.7244 264.942,-28.5199"/>
<polygon fill="midnightblue" stroke="midnightblue" points="268.033,-30.1662 269.976,-19.7511 261.962,-26.6811 268.033,-30.1662"/>
</g>
<!-- Node6&#45;&gt;Node5 -->
<g id="edge8" class="edge"><title>Node6&#45;&gt;Node5</title>
<path fill="none" stroke="midnightblue" d="M495.246,-112.368C453.361,-93.0908 352.031,-46.4536 302.788,-23.7894"/>
<polygon fill="midnightblue" stroke="midnightblue" points="304.214,-20.593 293.667,-19.5914 301.288,-26.9518 304.214,-20.593"/>
</g>
<!-- Node7 -->
<g id="node7" class="node"><title>Node7</title>
<polygon fill="white" stroke="#bfbfbf" points="492.5,-56.5 492.5,-75.5 535.5,-75.5 535.5,-56.5 492.5,-56.5"/>
<text text-anchor="middle" x="514" y="-63.5" font-family="Helvetica,sans-Serif" font-size="10.00">cstdio</text>
</g>
<!-- Node6&#45;&gt;Node7 -->
<g id="edge7" class="edge"><title>Node6&#45;&gt;Node7</title>
<path fill="none" stroke="midnightblue" d="M514,-112.083C514,-105.006 514,-94.8611 514,-85.9865"/>
<polygon fill="midnightblue" stroke="midnightblue" points="517.5,-85.751 514,-75.7511 510.5,-85.7511 517.5,-85.751"/>
</g>
<!-- Node8&#45;&gt;Node2 -->
<g id="edge34" class="edge"><title>Node8&#45;&gt;Node2</title>
<path fill="none" stroke="midnightblue" d="M595.36,-344.127C506.777,-341.633 299.328,-332.406 238,-300 217.69,-289.268 201.527,-267.877 191.886,-252.565"/>
<polygon fill="midnightblue" stroke="midnightblue" points="194.641,-250.35 186.514,-243.553 188.628,-253.935 194.641,-250.35"/>
</g>
<!-- Node8&#45;&gt;Node3 -->
<g id="edge20" class="edge"><title>Node8&#45;&gt;Node3</title>
<path fill="none" stroke="midnightblue" d="M595.449,-344.035C520.151,-341.48 362.518,-332.317 320,-300 276.744,-267.122 282.125,-241.182 271,-188 267.774,-172.577 269.535,-154.705 271.814,-141.61"/>
<polygon fill="midnightblue" stroke="midnightblue" points="275.304,-142.005 273.837,-131.512 268.44,-140.63 275.304,-142.005"/>
</g>
<!-- Node8&#45;&gt;Node6 -->
<g id="edge59" class="edge"><title>Node8&#45;&gt;Node6</title>
<path fill="none" stroke="midnightblue" d="M595.262,-344.295C527.805,-342.172 397.493,-333.697 369,-300 317.946,-239.621 433.946,-166.129 488.084,-136.418"/>
<polygon fill="midnightblue" stroke="midnightblue" points="489.973,-139.376 497.117,-131.552 486.654,-133.213 489.973,-139.376"/>
</g>
<!-- Node9 -->
<g id="node9" class="node"><title>Node9</title>
<polygon fill="white" stroke="#bfbfbf" points="56,-112.5 56,-131.5 102,-131.5 102,-112.5 56,-112.5"/>
<text text-anchor="middle" x="79" y="-119.5" font-family="Helvetica,sans-Serif" font-size="10.00">cstdint</text>
</g>
<!-- Node8&#45;&gt;Node9 -->
<g id="edge10" class="edge"><title>Node8&#45;&gt;Node9</title>
<path fill="none" stroke="midnightblue" d="M595.304,-344.695C495.371,-343.38 240.559,-336.445 165,-300 102.716,-269.958 82.881,-252.125 57,-188 50.5416,-171.998 58.4342,-153.296 66.5059,-140.071"/>
<polygon fill="midnightblue" stroke="midnightblue" points="69.5689,-141.787 72.2123,-131.527 63.7478,-137.899 69.5689,-141.787"/>
</g>
<!-- Node10 -->
<g id="node10" class="node"><title>Node10</title>
<g id="a_node10"><a xlink:href="dji__broadcast_8hpp.html" target="_top" xlink:title="Broadcast Telemetry API for DJI onboardSDK library. ">
<polygon fill="white" stroke="black" points="965.5,-224.5 965.5,-243.5 1058.5,-243.5 1058.5,-224.5 965.5,-224.5"/>
<text text-anchor="middle" x="1012" y="-231.5" font-family="Helvetica,sans-Serif" font-size="10.00">dji_broadcast.hpp</text>
</a>
</g>
</g>
<!-- Node8&#45;&gt;Node10 -->
<g id="edge11" class="edge"><title>Node8&#45;&gt;Node10</title>
<path fill="none" stroke="midnightblue" d="M676.685,-345.292C760.008,-345.047 946.172,-339.917 993,-300 1006.26,-288.695 1010.54,-268.692 1011.78,-253.852"/>
<polygon fill="midnightblue" stroke="midnightblue" points="1015.29,-253.89 1012.25,-243.74 1008.29,-253.569 1015.29,-253.89"/>
</g>
<!-- Node12 -->
<g id="node12" class="node"><title>Node12</title>
<g id="a_node12"><a xlink:href="dji__vehicle__callback_8hpp.html" target="_top" xlink:title="Type definition for new Vehicle&#45;style callbacks. ">
<polygon fill="white" stroke="black" points="1142,-112.5 1142,-131.5 1264,-131.5 1264,-112.5 1142,-112.5"/>
<text text-anchor="middle" x="1203" y="-119.5" font-family="Helvetica,sans-Serif" font-size="10.00">dji_vehicle_callback.hpp</text>
</a>
</g>
</g>
<!-- Node8&#45;&gt;Node12 -->
<g id="edge60" class="edge"><title>Node8&#45;&gt;Node12</title>
<path fill="none" stroke="midnightblue" d="M676.8,-343.65C788.239,-339.633 1091.89,-326.362 1128,-300 1155.04,-280.262 1185.76,-182.769 1197.78,-141.502"/>
<polygon fill="midnightblue" stroke="midnightblue" points="1201.21,-142.251 1200.6,-131.673 1194.48,-140.32 1201.21,-142.251"/>
</g>
<!-- Node13 -->
<g id="node13" class="node"><title>Node13</title>
<polygon fill="white" stroke="#bfbfbf" points="1102.5,-56.5 1102.5,-75.5 1213.5,-75.5 1213.5,-56.5 1102.5,-56.5"/>
<text text-anchor="middle" x="1158" y="-63.5" font-family="Helvetica,sans-Serif" font-size="10.00">dji_open_protocol.hpp</text>
</g>
<!-- Node8&#45;&gt;Node13 -->
<g id="edge51" class="edge"><title>Node8&#45;&gt;Node13</title>
<path fill="none" stroke="midnightblue" d="M676.754,-344.282C792.348,-341.153 1114,-324.413 1114,-235 1114,-235 1114,-235 1114,-177 1114,-142.04 1133.4,-105.013 1146.43,-84.0745"/>
<polygon fill="midnightblue" stroke="midnightblue" points="1149.39,-85.9487 1151.88,-75.6515 1143.51,-82.1462 1149.39,-85.9487"/>
</g>
<!-- Node14 -->
<g id="node14" class="node"><title>Node14</title>
<g id="a_node14"><a xlink:href="dji__camera_8hpp.html" target="_top" xlink:title="Camera/Gimbal API for DJI onboardSDK library. ">
<polygon fill="white" stroke="black" points="280.5,-168.5 280.5,-187.5 363.5,-187.5 363.5,-168.5 280.5,-168.5"/>
<text text-anchor="middle" x="322" y="-175.5" font-family="Helvetica,sans-Serif" font-size="10.00">dji_camera.hpp</text>
</a>
</g>
</g>
<!-- Node8&#45;&gt;Node14 -->
<g id="edge16" class="edge"><title>Node8&#45;&gt;Node14</title>
<path fill="none" stroke="midnightblue" d="M595.427,-344.779C521.928,-343.468 371.098,-336.301 336,-300 309.633,-272.729 313.343,-224.269 317.925,-197.702"/>
<polygon fill="midnightblue" stroke="midnightblue" points="321.381,-198.267 319.858,-187.783 314.51,-196.929 321.381,-198.267"/>
</g>
<!-- Node15 -->
<g id="node15" class="node"><title>Node15</title>
<polygon fill="white" stroke="#bfbfbf" points="378,-280.5 378,-299.5 490,-299.5 490,-280.5 378,-280.5"/>
<text text-anchor="middle" x="434" y="-287.5" font-family="Helvetica,sans-Serif" font-size="10.00">dji_circular_buffer.hpp</text>
</g>
<!-- Node8&#45;&gt;Node15 -->
<g id="edge19" class="edge"><title>Node8&#45;&gt;Node15</title>
<path fill="none" stroke="midnightblue" d="M603.992,-336.444C569.271,-327.162 513.712,-312.309 475.623,-302.127"/>
<polygon fill="midnightblue" stroke="midnightblue" points="476.422,-298.718 465.858,-299.516 474.615,-305.48 476.422,-298.718"/>
</g>
<!-- Node16 -->
<g id="node16" class="node"><title>Node16</title>
<g id="a_node16"><a xlink:href="dji__control_8hpp.html" target="_top" xlink:title="Control API for DJI OSDK library. ">
<polygon fill="white" stroke="black" points="904,-280.5 904,-299.5 984,-299.5 984,-280.5 904,-280.5"/>
<text text-anchor="middle" x="944" y="-287.5" font-family="Helvetica,sans-Serif" font-size="10.00">dji_control.hpp</text>
</a>
</g>
</g>
<!-- Node8&#45;&gt;Node16 -->
<g id="edge21" class="edge"><title>Node8&#45;&gt;Node16</title>
<path fill="none" stroke="midnightblue" d="M676.843,-338.029C725.903,-329.627 810.974,-314.971 893.806,-300.2"/>
<polygon fill="midnightblue" stroke="midnightblue" points="894.665,-303.602 903.894,-298.399 893.435,-296.711 894.665,-303.602"/>
</g>
<!-- Node19 -->
<g id="node19" class="node"><title>Node19</title>
<g id="a_node19"><a xlink:href="dji__version_8hpp.html" target="_top" xlink:title="Drone/SDK Version definition for DJI onboardSDK library. ">
<polygon fill="white" stroke="black" points="66,-168.5 66,-187.5 148,-187.5 148,-168.5 66,-168.5"/>
<text text-anchor="middle" x="107" y="-175.5" font-family="Helvetica,sans-Serif" font-size="10.00">dji_version.hpp</text>
</a>
</g>
</g>
<!-- Node8&#45;&gt;Node19 -->
<g id="edge61" class="edge"><title>Node8&#45;&gt;Node19</title>
<path fill="none" stroke="midnightblue" d="M595.227,-343.338C502.941,-339.151 280.68,-326.553 211,-300 171.121,-284.804 159.311,-277.6 133,-244 122.239,-230.258 115.369,-211.478 111.411,-197.638"/>
<polygon fill="midnightblue" stroke="midnightblue" points="114.753,-196.581 108.843,-187.788 107.979,-198.348 114.753,-196.581"/>
</g>
<!-- Node21 -->
<g id="node21" class="node"><title>Node21</title>
<polygon fill="white" stroke="#bfbfbf" points="788,-280.5 788,-299.5 886,-299.5 886,-280.5 788,-280.5"/>
<text text-anchor="middle" x="837" y="-287.5" font-family="Helvetica,sans-Serif" font-size="10.00">dji_hard_driver.hpp</text>
</g>
<!-- Node8&#45;&gt;Node21 -->
<g id="edge35" class="edge"><title>Node8&#45;&gt;Node21</title>
<path fill="none" stroke="midnightblue" d="M667.849,-336.444C702.398,-327.162 757.682,-312.309 795.583,-302.127"/>
<polygon fill="midnightblue" stroke="midnightblue" points="796.551,-305.491 805.3,-299.516 794.734,-298.731 796.551,-305.491"/>
</g>
<!-- Node22 -->
<g id="node22" class="node"><title>Node22</title>
<g id="a_node22"><a xlink:href="dji__hardware__sync_8hpp.html" target="_top" xlink:title="Hardware Sync API for DJI OSDK. ">
<polygon fill="white" stroke="black" points="508,-280.5 508,-299.5 624,-299.5 624,-280.5 508,-280.5"/>
<text text-anchor="middle" x="566" y="-287.5" font-family="Helvetica,sans-Serif" font-size="10.00">dji_hardware_sync.hpp</text>
</a>
</g>
</g>
<!-- Node8&#45;&gt;Node22 -->
<g id="edge36" class="edge"><title>Node8&#45;&gt;Node22</title>
<path fill="none" stroke="midnightblue" d="M624.753,-336.324C614.203,-328.185 598.199,-315.839 585.558,-306.087"/>
<polygon fill="midnightblue" stroke="midnightblue" points="587.507,-303.171 577.451,-299.834 583.231,-308.713 587.507,-303.171"/>
</g>
<!-- Node23 -->
<g id="node23" class="node"><title>Node23</title>
<g id="a_node23"><a xlink:href="dji__mfio_8hpp.html" target="_top" xlink:title="MFIO API for DJI OSDK library. ">
<polygon fill="white" stroke="black" points="1180.5,-224.5 1180.5,-243.5 1249.5,-243.5 1249.5,-224.5 1180.5,-224.5"/>
<text text-anchor="middle" x="1215" y="-231.5" font-family="Helvetica,sans-Serif" font-size="10.00">dji_mfio.hpp</text>
</a>
</g>
</g>
<!-- Node8&#45;&gt;Node23 -->
<g id="edge38" class="edge"><title>Node8&#45;&gt;Node23</title>
<path fill="none" stroke="midnightblue" d="M676.66,-343.451C793.321,-338.743 1123.51,-323.474 1166,-300 1185.08,-289.46 1198.95,-268.03 1206.97,-252.656"/>
<polygon fill="midnightblue" stroke="midnightblue" points="1210.15,-254.124 1211.39,-243.602 1203.86,-251.054 1210.15,-254.124"/>
</g>
<!-- Node24 -->
<g id="node24" class="node"><title>Node24</title>
<g id="a_node24"><a xlink:href="dji__mission__manager_8hpp.html" target="_top" xlink:title="Mission&#45;Manager API for DJI OSDK library. ">
<polygon fill="white" stroke="black" points="642.5,-280.5 642.5,-299.5 769.5,-299.5 769.5,-280.5 642.5,-280.5"/>
<text text-anchor="middle" x="706" y="-287.5" font-family="Helvetica,sans-Serif" font-size="10.00">dji_mission_manager.hpp</text>
</a>
</g>
</g>
<!-- Node8&#45;&gt;Node24 -->
<g id="edge40" class="edge"><title>Node8&#45;&gt;Node24</title>
<path fill="none" stroke="midnightblue" d="M647.247,-336.324C657.797,-328.185 673.801,-315.839 686.442,-306.087"/>
<polygon fill="midnightblue" stroke="midnightblue" points="688.769,-308.713 694.549,-299.834 684.493,-303.171 688.769,-308.713"/>
</g>
<!-- Node28 -->
<g id="node28" class="node"><title>Node28</title>
<g id="a_node28"><a xlink:href="dji__mobile__communication_8hpp.html" target="_top" xlink:title="Implementation of DJI Mobile&#45;Onboard SDK Communication (MOC) ">
<polygon fill="white" stroke="black" points="1218,-168.5 1218,-187.5 1368,-187.5 1368,-168.5 1218,-168.5"/>
<text text-anchor="middle" x="1293" y="-175.5" font-family="Helvetica,sans-Serif" font-size="10.00">dji_mobile_communication.hpp</text>
</a>
</g>
</g>
<!-- Node8&#45;&gt;Node28 -->
<g id="edge49" class="edge"><title>Node8&#45;&gt;Node28</title>
<path fill="none" stroke="midnightblue" d="M676.584,-344.835C788.188,-343.892 1097.6,-337.84 1191,-300 1227.29,-285.299 1234.32,-274.396 1259,-244 1270.64,-229.66 1280,-210.706 1285.94,-196.969"/>
<polygon fill="midnightblue" stroke="midnightblue" points="1289.2,-198.222 1289.78,-187.643 1282.73,-195.553 1289.2,-198.222"/>
</g>
<!-- Node29 -->
<g id="node29" class="node"><title>Node29</title>
<g id="a_node29"><a xlink:href="dji__status_8hpp.html" target="_top" xlink:title="Status information for DJI Vehicle. ">
<polygon fill="white" stroke="black" points="65.5,-56.5 65.5,-75.5 142.5,-75.5 142.5,-56.5 65.5,-56.5"/>
<text text-anchor="middle" x="104" y="-63.5" font-family="Helvetica,sans-Serif" font-size="10.00">dji_status.hpp</text>
</a>
</g>
</g>
<!-- Node8&#45;&gt;Node29 -->
<g id="edge52" class="edge"><title>Node8&#45;&gt;Node29</title>
<path fill="none" stroke="midnightblue" d="M595.129,-343.48C489.982,-339.241 212.195,-325.862 124,-300 64.2904,-282.491 0,-297.224 0,-235 0,-235 0,-235 0,-177 0,-132.223 46.0644,-98.3249 76.8789,-80.658"/>
<polygon fill="midnightblue" stroke="midnightblue" points="78.8109,-83.5898 85.8846,-75.7022 75.4361,-77.457 78.8109,-83.5898"/>
</g>
<!-- Node30 -->
<g id="node30" class="node"><title>Node30</title>
<g id="a_node30"><a xlink:href="dji__subscription_8hpp.html" target="_top" xlink:title="Telemetry Subscription API for DJI OSDK library. ">
<polygon fill="white" stroke="black" points="1348.5,-224.5 1348.5,-243.5 1451.5,-243.5 1451.5,-224.5 1348.5,-224.5"/>
<text text-anchor="middle" x="1400" y="-231.5" font-family="Helvetica,sans-Serif" font-size="10.00">dji_subscription.hpp</text>
</a>
</g>
</g>
<!-- Node8&#45;&gt;Node30 -->
<g id="edge54" class="edge"><title>Node8&#45;&gt;Node30</title>
<path fill="none" stroke="midnightblue" d="M676.684,-344.184C833.382,-340.847 1390.41,-327.11 1416,-300 1428.04,-287.244 1420.32,-266.934 1411.96,-252.412"/>
<polygon fill="midnightblue" stroke="midnightblue" points="1414.85,-250.445 1406.57,-243.843 1408.93,-254.171 1414.85,-250.445"/>
</g>
<!-- Node31 -->
<g id="node31" class="node"><title>Node31</title>
<polygon fill="white" stroke="#bfbfbf" points="1287,-280.5 1287,-299.5 1407,-299.5 1407,-280.5 1287,-280.5"/>
<text text-anchor="middle" x="1347" y="-287.5" font-family="Helvetica,sans-Serif" font-size="10.00">dji_thread_manager.hpp</text>
</g>
<!-- Node8&#45;&gt;Node31 -->
<g id="edge58" class="edge"><title>Node8&#45;&gt;Node31</title>
<path fill="none" stroke="midnightblue" d="M676.675,-342.841C777.704,-337.323 1048.15,-321.602 1273,-300 1274.27,-299.878 1275.55,-299.752 1276.84,-299.623"/>
<polygon fill="midnightblue" stroke="midnightblue" points="1277.27,-303.097 1286.85,-298.573 1276.54,-296.135 1277.27,-303.097"/>
</g>
<!-- Node11 -->
<g id="node11" class="node"><title>Node11</title>
<g id="a_node11"><a xlink:href="dji__telemetry_8hpp.html" target="_top" xlink:title="Enumeration of all telemetry data types, structures and maps. ">
<polygon fill="white" stroke="black" points="956.5,-168.5 956.5,-187.5 1047.5,-187.5 1047.5,-168.5 956.5,-168.5"/>
<text text-anchor="middle" x="1002" y="-175.5" font-family="Helvetica,sans-Serif" font-size="10.00">dji_telemetry.hpp</text>
</a>
</g>
</g>
<!-- Node10&#45;&gt;Node11 -->
<g id="edge12" class="edge"><title>Node10&#45;&gt;Node11</title>
<path fill="none" stroke="midnightblue" d="M1010.35,-224.083C1009.02,-216.927 1007.12,-206.635 1005.46,-197.691"/>
<polygon fill="midnightblue" stroke="midnightblue" points="1008.88,-196.947 1003.62,-187.751 1002,-198.221 1008.88,-196.947"/>
</g>
<!-- Node10&#45;&gt;Node12 -->
<g id="edge14" class="edge"><title>Node10&#45;&gt;Node12</title>
<path fill="none" stroke="midnightblue" d="M1026.99,-224.368C1060.04,-205.332 1139.42,-159.615 1179.3,-136.65"/>
<polygon fill="midnightblue" stroke="midnightblue" points="1181.16,-139.615 1188.08,-131.591 1177.67,-133.549 1181.16,-139.615"/>
</g>
<!-- Node11&#45;&gt;Node6 -->
<g id="edge13" class="edge"><title>Node11&#45;&gt;Node6</title>
<path fill="none" stroke="midnightblue" d="M956.09,-171.92C862.649,-161.58 651.395,-138.204 558.851,-127.963"/>
<polygon fill="midnightblue" stroke="midnightblue" points="559.018,-124.46 548.694,-126.839 558.248,-131.418 559.018,-124.46"/>
</g>
<!-- Node12&#45;&gt;Node13 -->
<g id="edge15" class="edge"><title>Node12&#45;&gt;Node13</title>
<path fill="none" stroke="midnightblue" d="M1195.57,-112.083C1189.15,-104.377 1179.69,-93.0333 1171.88,-83.6531"/>
<polygon fill="midnightblue" stroke="midnightblue" points="1174.38,-81.1927 1165.29,-75.7511 1169.01,-85.674 1174.38,-81.1927"/>
</g>
<!-- Node14&#45;&gt;Node3 -->
<g id="edge17" class="edge"><title>Node14&#45;&gt;Node3</title>
<path fill="none" stroke="midnightblue" d="M314.404,-168.083C307.773,-160.298 297.979,-148.801 289.942,-139.367"/>
<polygon fill="midnightblue" stroke="midnightblue" points="292.604,-137.094 283.455,-131.751 287.275,-141.633 292.604,-137.094"/>
</g>
<!-- Node14&#45;&gt;Node6 -->
<g id="edge18" class="edge"><title>Node14&#45;&gt;Node6</title>
<path fill="none" stroke="midnightblue" d="M352.423,-168.444C385.285,-159.201 437.785,-144.436 473.974,-134.257"/>
<polygon fill="midnightblue" stroke="midnightblue" points="475.04,-137.593 483.719,-131.516 473.145,-130.855 475.04,-137.593"/>
</g>
<!-- Node16&#45;&gt;Node6 -->
<g id="edge32" class="edge"><title>Node16&#45;&gt;Node6</title>
<path fill="none" stroke="midnightblue" d="M926.423,-280.389C911.618,-272.48 890.579,-259.633 876,-244 849.531,-215.618 865.074,-189.85 833,-168 789.294,-138.226 636.091,-127.885 559.009,-124.513"/>
<polygon fill="midnightblue" stroke="midnightblue" points="558.794,-121.001 548.657,-124.082 558.503,-127.995 558.794,-121.001"/>
</g>
<!-- Node16&#45;&gt;Node12 -->
<g id="edge33" class="edge"><title>Node16&#45;&gt;Node12</title>
<path fill="none" stroke="midnightblue" d="M940.963,-280.394C933.878,-258.599 918.895,-200.646 947,-168 970.523,-140.676 1064.43,-129.93 1131.68,-125.712"/>
<polygon fill="midnightblue" stroke="midnightblue" points="1132.04,-129.197 1141.81,-125.113 1131.62,-122.21 1132.04,-129.197"/>
</g>
<!-- Node16&#45;&gt;Node13 -->
<g id="edge31" class="edge"><title>Node16&#45;&gt;Node13</title>
<path fill="none" stroke="midnightblue" d="M939.62,-280.39C929.458,-259.077 906.986,-203.055 932,-168 969.347,-115.663 1040.23,-90.0037 1092.69,-77.7154"/>
<polygon fill="midnightblue" stroke="midnightblue" points="1093.6,-81.0996 1102.59,-75.5025 1092.07,-74.2681 1093.6,-81.0996"/>
</g>
<!-- Node17 -->
<g id="node17" class="node"><title>Node17</title>
<g id="a_node17"><a xlink:href="dji__ack_8hpp.html" target="_top" xlink:title="All DJI OSDK ACK parsing. ">
<polygon fill="white" stroke="black" points="512,-224.5 512,-243.5 578,-243.5 578,-224.5 512,-224.5"/>
<text text-anchor="middle" x="545" y="-231.5" font-family="Helvetica,sans-Serif" font-size="10.00">dji_ack.hpp</text>
</a>
</g>
</g>
<!-- Node16&#45;&gt;Node17 -->
<g id="edge22" class="edge"><title>Node16&#45;&gt;Node17</title>
<path fill="none" stroke="midnightblue" d="M903.919,-281.457C900.904,-280.945 897.906,-280.453 895,-280 836.779,-270.917 668.434,-250.076 588.337,-240.276"/>
<polygon fill="midnightblue" stroke="midnightblue" points="588.451,-236.764 578.1,-239.025 587.602,-243.712 588.451,-236.764"/>
</g>
<!-- Node17&#45;&gt;Node3 -->
<g id="edge23" class="edge"><title>Node17&#45;&gt;Node3</title>
<path fill="none" stroke="midnightblue" d="M523.892,-224.368C476.553,-205.01 361.749,-158.065 306.586,-135.507"/>
<polygon fill="midnightblue" stroke="midnightblue" points="307.591,-132.137 297.01,-131.591 304.941,-138.616 307.591,-132.137"/>
</g>
<!-- Node17&#45;&gt;Node6 -->
<g id="edge26" class="edge"><title>Node17&#45;&gt;Node6</title>
<path fill="none" stroke="midnightblue" d="M545.533,-224.361C546.051,-211.69 546.027,-187.461 540,-168 536.969,-158.212 531.51,-148.253 526.375,-140.2"/>
<polygon fill="midnightblue" stroke="midnightblue" points="529.16,-138.071 520.659,-131.748 523.361,-141.992 529.16,-138.071"/>
</g>
<!-- Node18 -->
<g id="node18" class="node"><title>Node18</title>
<g id="a_node18"><a xlink:href="dji__mission__type_8hpp_source.html" target="_top" xlink:title="dji_mission_type.hpp">
<polygon fill="white" stroke="black" points="588,-168.5 588,-187.5 696,-187.5 696,-168.5 588,-168.5"/>
<text text-anchor="middle" x="642" y="-175.5" font-family="Helvetica,sans-Serif" font-size="10.00">dji_mission_type.hpp</text>
</a>
</g>
</g>
<!-- Node17&#45;&gt;Node18 -->
<g id="edge24" class="edge"><title>Node17&#45;&gt;Node18</title>
<path fill="none" stroke="midnightblue" d="M560.585,-224.324C575.999,-215.743 599.812,-202.486 617.71,-192.522"/>
<polygon fill="midnightblue" stroke="midnightblue" points="619.419,-195.577 626.454,-187.655 616.014,-189.461 619.419,-195.577"/>
</g>
<!-- Node17&#45;&gt;Node19 -->
<g id="edge27" class="edge"><title>Node17&#45;&gt;Node19</title>
<path fill="none" stroke="midnightblue" d="M511.719,-228.897C435.693,-219.524 248.859,-196.49 158.114,-185.302"/>
<polygon fill="midnightblue" stroke="midnightblue" points="158.416,-181.813 148.063,-184.063 157.559,-188.76 158.416,-181.813"/>
</g>
<!-- Node20 -->
<g id="node20" class="node"><title>Node20</title>
<polygon fill="white" stroke="#bfbfbf" points="496.5,-168.5 496.5,-187.5 531.5,-187.5 531.5,-168.5 496.5,-168.5"/>
<text text-anchor="middle" x="514" y="-175.5" font-family="Helvetica,sans-Serif" font-size="10.00">map</text>
</g>
<!-- Node17&#45;&gt;Node20 -->
<g id="edge30" class="edge"><title>Node17&#45;&gt;Node20</title>
<path fill="none" stroke="midnightblue" d="M539.881,-224.083C535.592,-216.613 529.342,-205.724 524.058,-196.52"/>
<polygon fill="midnightblue" stroke="midnightblue" points="527.038,-194.681 519.024,-187.751 520.967,-198.166 527.038,-194.681"/>
</g>
<!-- Node18&#45;&gt;Node6 -->
<g id="edge25" class="edge"><title>Node18&#45;&gt;Node6</title>
<path fill="none" stroke="midnightblue" d="M621.718,-168.444C600.653,-159.557 567.483,-145.563 543.514,-135.451"/>
<polygon fill="midnightblue" stroke="midnightblue" points="544.761,-132.179 534.187,-131.516 542.04,-138.628 544.761,-132.179"/>
</g>
<!-- Node19&#45;&gt;Node3 -->
<g id="edge28" class="edge"><title>Node19&#45;&gt;Node3</title>
<path fill="none" stroke="midnightblue" d="M133.779,-168.444C162.333,-159.32 207.733,-144.813 239.537,-134.651"/>
<polygon fill="midnightblue" stroke="midnightblue" points="240.886,-137.894 249.347,-131.516 238.756,-131.226 240.886,-137.894"/>
</g>
<!-- Node19&#45;&gt;Node9 -->
<g id="edge29" class="edge"><title>Node19&#45;&gt;Node9</title>
<path fill="none" stroke="midnightblue" d="M102.376,-168.083C98.5437,-160.691 92.9758,-149.953 88.2354,-140.811"/>
<polygon fill="midnightblue" stroke="midnightblue" points="91.248,-139.018 83.5376,-131.751 85.0337,-142.24 91.248,-139.018"/>
</g>
<!-- Node22&#45;&gt;Node6 -->
<g id="edge37" class="edge"><title>Node22&#45;&gt;Node6</title>
<path fill="none" stroke="midnightblue" d="M547.946,-280.409C533.733,-272.755 514.468,-260.255 503,-244 483.101,-215.795 477.786,-201.266 487,-168 489.792,-157.921 495.509,-147.832 500.967,-139.769"/>
<polygon fill="midnightblue" stroke="midnightblue" points="503.825,-141.79 506.849,-131.636 498.153,-137.688 503.825,-141.79"/>
</g>
<!-- Node23&#45;&gt;Node12 -->
<g id="edge39" class="edge"><title>Node23&#45;&gt;Node12</title>
<path fill="none" stroke="midnightblue" d="M1213.75,-224.386C1212.45,-215.338 1210.43,-200.688 1209,-188 1207.25,-172.496 1205.65,-154.869 1204.54,-141.886"/>
<polygon fill="midnightblue" stroke="midnightblue" points="1208.02,-141.517 1203.7,-131.843 1201.05,-142.099 1208.02,-141.517"/>
</g>
<!-- Node25 -->
<g id="node25" class="node"><title>Node25</title>
<g id="a_node25"><a xlink:href="dji__hotpoint_8hpp.html" target="_top" xlink:title="Implementation of HotPoint (Point of Interest) Missions for DJI OSDK. ">
<polygon fill="white" stroke="black" points="738.5,-224.5 738.5,-243.5 823.5,-243.5 823.5,-224.5 738.5,-224.5"/>
<text text-anchor="middle" x="781" y="-231.5" font-family="Helvetica,sans-Serif" font-size="10.00">dji_hotpoint.hpp</text>
</a>
</g>
</g>
<!-- Node24&#45;&gt;Node25 -->
<g id="edge41" class="edge"><title>Node24&#45;&gt;Node25</title>
<path fill="none" stroke="midnightblue" d="M718.05,-280.324C729.463,-272.107 746.831,-259.602 760.435,-249.807"/>
<polygon fill="midnightblue" stroke="midnightblue" points="762.66,-252.517 768.731,-243.834 758.57,-246.837 762.66,-252.517"/>
</g>
<!-- Node27 -->
<g id="node27" class="node"><title>Node27</title>
<g id="a_node27"><a xlink:href="dji__waypoint_8hpp.html" target="_top" xlink:title="Implementation of GPS Waypoint Missions for DJI OSDK. ">
<polygon fill="white" stroke="black" points="631.5,-224.5 631.5,-243.5 720.5,-243.5 720.5,-224.5 631.5,-224.5"/>
<text text-anchor="middle" x="676" y="-231.5" font-family="Helvetica,sans-Serif" font-size="10.00">dji_waypoint.hpp</text>
</a>
</g>
</g>
<!-- Node24&#45;&gt;Node27 -->
<g id="edge47" class="edge"><title>Node24&#45;&gt;Node27</title>
<path fill="none" stroke="midnightblue" d="M701.046,-280.083C696.896,-272.613 690.847,-261.724 685.733,-252.52"/>
<polygon fill="midnightblue" stroke="midnightblue" points="688.778,-250.793 680.862,-243.751 682.659,-254.192 688.778,-250.793"/>
</g>
<!-- Node25&#45;&gt;Node11 -->
<g id="edge46" class="edge"><title>Node25&#45;&gt;Node11</title>
<path fill="none" stroke="midnightblue" d="M816.018,-224.444C854.248,-215.102 915.567,-200.119 957.257,-189.933"/>
<polygon fill="midnightblue" stroke="midnightblue" points="958.262,-193.29 967.146,-187.516 956.601,-186.49 958.262,-193.29"/>
</g>
<!-- Node26 -->
<g id="node26" class="node"><title>Node26</title>
<g id="a_node26"><a xlink:href="dji__mission__base_8hpp.html" target="_top" xlink:title="Mission&#45;Base abstract class for DJI OSDK library. ">
<polygon fill="white" stroke="black" points="714,-168.5 714,-187.5 824,-187.5 824,-168.5 714,-168.5"/>
<text text-anchor="middle" x="769" y="-175.5" font-family="Helvetica,sans-Serif" font-size="10.00">dji_mission_base.hpp</text>
</a>
</g>
</g>
<!-- Node25&#45;&gt;Node26 -->
<g id="edge42" class="edge"><title>Node25&#45;&gt;Node26</title>
<path fill="none" stroke="midnightblue" d="M779.018,-224.083C777.428,-216.927 775.141,-206.635 773.154,-197.691"/>
<polygon fill="midnightblue" stroke="midnightblue" points="776.531,-196.754 770.945,-187.751 769.697,-198.272 776.531,-196.754"/>
</g>
<!-- Node26&#45;&gt;Node3 -->
<g id="edge43" class="edge"><title>Node26&#45;&gt;Node3</title>
<path fill="none" stroke="midnightblue" d="M713.858,-169.12C710.863,-168.731 707.896,-168.355 705,-168 571.882,-151.664 415.062,-136.161 332.851,-128.321"/>
<polygon fill="midnightblue" stroke="midnightblue" points="333.006,-124.82 322.72,-127.357 332.343,-131.788 333.006,-124.82"/>
</g>
<!-- Node26&#45;&gt;Node6 -->
<g id="edge44" class="edge"><title>Node26&#45;&gt;Node6</title>
<path fill="none" stroke="midnightblue" d="M728.594,-168.444C682.313,-158.643 606.703,-142.631 558.695,-132.465"/>
<polygon fill="midnightblue" stroke="midnightblue" points="559.398,-129.036 548.89,-130.388 557.948,-135.884 559.398,-129.036"/>
</g>
<!-- Node26&#45;&gt;Node12 -->
<g id="edge45" class="edge"><title>Node26&#45;&gt;Node12</title>
<path fill="none" stroke="midnightblue" d="M824.407,-170.106C902.771,-160.356 1046,-142.535 1132.05,-131.828"/>
<polygon fill="midnightblue" stroke="midnightblue" points="1132.5,-135.299 1141.99,-130.591 1131.64,-128.353 1132.5,-135.299"/>
</g>
<!-- Node27&#45;&gt;Node26 -->
<g id="edge48" class="edge"><title>Node27&#45;&gt;Node26</title>
<path fill="none" stroke="midnightblue" d="M690.942,-224.324C705.585,-215.822 728.134,-202.729 745.238,-192.797"/>
<polygon fill="midnightblue" stroke="midnightblue" points="747.205,-195.703 754.095,-187.655 743.69,-189.649 747.205,-195.703"/>
</g>
<!-- Node28&#45;&gt;Node12 -->
<g id="edge50" class="edge"><title>Node28&#45;&gt;Node12</title>
<path fill="none" stroke="midnightblue" d="M1278.54,-168.324C1264.5,-159.9 1242.95,-146.971 1226.46,-137.074"/>
<polygon fill="midnightblue" stroke="midnightblue" points="1227.8,-133.798 1217.42,-131.655 1224.2,-139.801 1227.8,-133.798"/>
</g>
<!-- Node29&#45;&gt;Node5 -->
<g id="edge53" class="edge"><title>Node29&#45;&gt;Node5</title>
<path fill="none" stroke="midnightblue" d="M131.095,-56.4435C160.668,-47.1049 208.096,-32.1276 240.354,-21.9409"/>
<polygon fill="midnightblue" stroke="midnightblue" points="241.77,-25.164 250.252,-18.8151 239.662,-18.4889 241.77,-25.164"/>
</g>
<!-- Node30&#45;&gt;Node11 -->
<g id="edge56" class="edge"><title>Node30&#45;&gt;Node11</title>
<path fill="none" stroke="midnightblue" d="M1348.38,-225.996C1273.39,-215.822 1134.91,-197.032 1057.7,-186.557"/>
<polygon fill="midnightblue" stroke="midnightblue" points="1058.06,-183.074 1047.68,-185.198 1057.12,-190.011 1058.06,-183.074"/>
</g>
<!-- Node30&#45;&gt;Node12 -->
<g id="edge57" class="edge"><title>Node30&#45;&gt;Node12</title>
<path fill="none" stroke="midnightblue" d="M1399.46,-224.452C1398.12,-210.54 1393.41,-183.044 1377,-168 1349.26,-142.575 1309.04,-131.118 1274.26,-126.112"/>
<polygon fill="midnightblue" stroke="midnightblue" points="1274.5,-122.614 1264.13,-124.81 1273.61,-129.557 1274.5,-122.614"/>
</g>
<!-- Node30&#45;&gt;Node13 -->
<g id="edge55" class="edge"><title>Node30&#45;&gt;Node13</title>
<path fill="none" stroke="midnightblue" d="M1402.29,-224.11C1405.19,-210.688 1408.55,-185.011 1397,-168 1358.16,-110.778 1279.94,-85.8643 1223.55,-75.0877"/>
<polygon fill="midnightblue" stroke="midnightblue" points="1224.11,-71.6314 1213.64,-73.2955 1222.86,-78.5196 1224.11,-71.6314"/>
</g>
</g>
</svg>
