<?xml version="1.0" encoding="UTF-8" standalone="no"?>
<!DOCTYPE svg PUBLIC "-//W3C//DTD SVG 1.1//EN"
 "http://www.w3.org/Graphics/SVG/1.1/DTD/svg11.dtd">
<!-- Generated by graphviz version 2.38.0 (20140413.2041)
 -->
<!-- Title: osdk&#45;core/api/src/dji_mfio.cpp Pages: 1 -->
<svg width="1457pt" height="431pt"
 viewBox="0.00 0.00 1457.06 431.00" xmlns="http://www.w3.org/2000/svg" xmlns:xlink="http://www.w3.org/1999/xlink">
<g id="graph0" class="graph" transform="scale(1 1) rotate(0) translate(4 427)">
<title>osdk&#45;core/api/src/dji_mfio.cpp</title>
<polygon fill="white" stroke="none" points="-4,4 -4,-427 1453.06,-427 1453.06,4 -4,4"/>
<!-- Node1 -->
<g id="node1" class="node"><title>Node1</title>
<polygon fill="#bfbfbf" stroke="black" points="930,-392.5 930,-422.5 1034,-422.5 1034,-392.5 930,-392.5"/>
<text text-anchor="start" x="938" y="-410.5" font-family="Helvetica,sans-Serif" font-size="10.00">osdk&#45;core/api/src/dji</text>
<text text-anchor="middle" x="982" y="-399.5" font-family="Helvetica,sans-Serif" font-size="10.00">_mfio.cpp</text>
</g>
<!-- Node2 -->
<g id="node2" class="node"><title>Node2</title>
<g id="a_node2"><a xlink:href="dji__mfio_8hpp.html" target="_top" xlink:title="MFIO API for DJI OSDK library. ">
<polygon fill="white" stroke="black" points="1379.5,-280.5 1379.5,-299.5 1448.5,-299.5 1448.5,-280.5 1379.5,-280.5"/>
<text text-anchor="middle" x="1414" y="-287.5" font-family="Helvetica,sans-Serif" font-size="10.00">dji_mfio.hpp</text>
</a>
</g>
</g>
<!-- Node1&#45;&gt;Node2 -->
<g id="edge1" class="edge"><title>Node1&#45;&gt;Node2</title>
<path fill="none" stroke="midnightblue" d="M1034.11,-392.568C1120.66,-369.427 1292.38,-323.516 1371.85,-302.27"/>
<polygon fill="midnightblue" stroke="midnightblue" points="1373.22,-305.526 1381.97,-299.562 1371.41,-298.764 1373.22,-305.526"/>
</g>
<!-- Node5 -->
<g id="node5" class="node"><title>Node5</title>
<g id="a_node5"><a xlink:href="dji__vehicle_8hpp.html" target="_top" xlink:title="Vehicle API for DJI onboardSDK library. ">
<polygon fill="white" stroke="black" points="754.5,-336.5 754.5,-355.5 835.5,-355.5 835.5,-336.5 754.5,-336.5"/>
<text text-anchor="middle" x="795" y="-343.5" font-family="Helvetica,sans-Serif" font-size="10.00">dji_vehicle.hpp</text>
</a>
</g>
</g>
<!-- Node1&#45;&gt;Node5 -->
<g id="edge4" class="edge"><title>Node1&#45;&gt;Node5</title>
<path fill="none" stroke="midnightblue" d="M937.684,-392.399C905.371,-382.118 862.102,-368.351 831.714,-358.682"/>
<polygon fill="midnightblue" stroke="midnightblue" points="832.528,-355.268 821.937,-355.571 830.405,-361.938 832.528,-355.268"/>
</g>
<!-- Node3 -->
<g id="node3" class="node"><title>Node3</title>
<g id="a_node3"><a xlink:href="dji__vehicle__callback_8hpp.html" target="_top" xlink:title="Type definition for new Vehicle&#45;style callbacks. ">
<polygon fill="white" stroke="black" points="1163,-112.5 1163,-131.5 1285,-131.5 1285,-112.5 1163,-112.5"/>
<text text-anchor="middle" x="1224" y="-119.5" font-family="Helvetica,sans-Serif" font-size="10.00">dji_vehicle_callback.hpp</text>
</a>
</g>
</g>
<!-- Node2&#45;&gt;Node3 -->
<g id="edge2" class="edge"><title>Node2&#45;&gt;Node3</title>
<path fill="none" stroke="midnightblue" d="M1423.79,-280.221C1436.9,-267.377 1457.16,-242.934 1445,-224 1411.26,-171.486 1342.69,-145.936 1290.83,-133.723"/>
<polygon fill="midnightblue" stroke="midnightblue" points="1291.55,-130.297 1281.03,-131.524 1290.02,-137.128 1291.55,-130.297"/>
</g>
<!-- Node4 -->
<g id="node4" class="node"><title>Node4</title>
<polygon fill="white" stroke="#bfbfbf" points="1123.5,-56.5 1123.5,-75.5 1234.5,-75.5 1234.5,-56.5 1123.5,-56.5"/>
<text text-anchor="middle" x="1179" y="-63.5" font-family="Helvetica,sans-Serif" font-size="10.00">dji_open_protocol.hpp</text>
</g>
<!-- Node3&#45;&gt;Node4 -->
<g id="edge3" class="edge"><title>Node3&#45;&gt;Node4</title>
<path fill="none" stroke="midnightblue" d="M1216.57,-112.083C1210.15,-104.377 1200.69,-93.0333 1192.88,-83.6531"/>
<polygon fill="midnightblue" stroke="midnightblue" points="1195.38,-81.1927 1186.29,-75.7511 1190.01,-85.674 1195.38,-81.1927"/>
</g>
<!-- Node5&#45;&gt;Node2 -->
<g id="edge39" class="edge"><title>Node5&#45;&gt;Node2</title>
<path fill="none" stroke="midnightblue" d="M835.621,-343.548C928.375,-339.864 1162.98,-328.448 1369.37,-299.897"/>
<polygon fill="midnightblue" stroke="midnightblue" points="1370.06,-303.333 1379.48,-298.48 1369.09,-296.401 1370.06,-303.333"/>
</g>
<!-- Node5&#45;&gt;Node3 -->
<g id="edge60" class="edge"><title>Node5&#45;&gt;Node3</title>
<path fill="none" stroke="midnightblue" d="M835.512,-343.659C910.783,-340.465 1068.6,-330.264 1113,-300 1145.07,-278.143 1135.59,-257.01 1156,-224 1174.62,-193.888 1197.98,-159.948 1211.91,-140.077"/>
<polygon fill="midnightblue" stroke="midnightblue" points="1214.87,-141.957 1217.76,-131.765 1209.14,-137.926 1214.87,-141.957"/>
</g>
<!-- Node5&#45;&gt;Node4 -->
<g id="edge51" class="edge"><title>Node5&#45;&gt;Node4</title>
<path fill="none" stroke="midnightblue" d="M835.785,-341.285C896.436,-335.137 1006.82,-321.363 1040,-300 1065.5,-283.58 1062.86,-269.676 1079,-244 1088.55,-228.818 1145.96,-126.179 1169.23,-84.5194"/>
<polygon fill="midnightblue" stroke="midnightblue" points="1172.42,-85.9791 1174.24,-75.5414 1166.31,-82.5674 1172.42,-85.9791"/>
</g>
<!-- Node6 -->
<g id="node6" class="node"><title>Node6</title>
<polygon fill="white" stroke="#bfbfbf" points="56,-112.5 56,-131.5 102,-131.5 102,-112.5 56,-112.5"/>
<text text-anchor="middle" x="79" y="-119.5" font-family="Helvetica,sans-Serif" font-size="10.00">cstdint</text>
</g>
<!-- Node5&#45;&gt;Node6 -->
<g id="edge5" class="edge"><title>Node5&#45;&gt;Node6</title>
<path fill="none" stroke="midnightblue" d="M754.046,-344.186C618.915,-341.226 192.74,-329.614 139,-300 84.9678,-270.225 76.1714,-246.639 57,-188 51.6972,-171.781 59.2154,-153.363 66.8678,-140.284"/>
<polygon fill="midnightblue" stroke="midnightblue" points="69.8461,-142.123 72.2822,-131.812 63.9478,-138.353 69.8461,-142.123"/>
</g>
<!-- Node7 -->
<g id="node7" class="node"><title>Node7</title>
<g id="a_node7"><a xlink:href="dji__broadcast_8hpp.html" target="_top" xlink:title="Broadcast Telemetry API for DJI onboardSDK library. ">
<polygon fill="white" stroke="black" points="977.5,-224.5 977.5,-243.5 1070.5,-243.5 1070.5,-224.5 977.5,-224.5"/>
<text text-anchor="middle" x="1024" y="-231.5" font-family="Helvetica,sans-Serif" font-size="10.00">dji_broadcast.hpp</text>
</a>
</g>
</g>
<!-- Node5&#45;&gt;Node7 -->
<g id="edge6" class="edge"><title>Node5&#45;&gt;Node7</title>
<path fill="none" stroke="midnightblue" d="M835.749,-342.745C894.193,-338.581 997.395,-327.453 1021,-300 1031.8,-287.441 1031.21,-267.945 1028.74,-253.579"/>
<polygon fill="midnightblue" stroke="midnightblue" points="1032.16,-252.835 1026.64,-243.793 1025.32,-254.305 1032.16,-252.835"/>
</g>
<!-- Node9 -->
<g id="node9" class="node"><title>Node9</title>
<g id="a_node9"><a xlink:href="dji__type_8hpp.html" target="_top" xlink:title="Data type and Data Structure definitions for use throughout DJI OSDK. ">
<polygon fill="white" stroke="black" points="503.5,-112.5 503.5,-131.5 572.5,-131.5 572.5,-112.5 503.5,-112.5"/>
<text text-anchor="middle" x="538" y="-119.5" font-family="Helvetica,sans-Serif" font-size="10.00">dji_type.hpp</text>
</a>
</g>
</g>
<!-- Node5&#45;&gt;Node9 -->
<g id="edge59" class="edge"><title>Node5&#45;&gt;Node9</title>
<path fill="none" stroke="midnightblue" d="M754.006,-345.708C694.071,-345.267 580.185,-338.77 493,-300 457.226,-284.092 441.709,-279.407 425,-244 402.798,-196.954 468.471,-155.95 508.863,-135.96"/>
<polygon fill="midnightblue" stroke="midnightblue" points="510.526,-139.044 518.031,-131.565 507.501,-132.731 510.526,-139.044"/>
</g>
<!-- Node12 -->
<g id="node12" class="node"><title>Node12</title>
<g id="a_node12"><a xlink:href="dji__camera_8hpp.html" target="_top" xlink:title="Camera/Gimbal API for DJI onboardSDK library. ">
<polygon fill="white" stroke="black" points="301.5,-168.5 301.5,-187.5 384.5,-187.5 384.5,-168.5 301.5,-168.5"/>
<text text-anchor="middle" x="343" y="-175.5" font-family="Helvetica,sans-Serif" font-size="10.00">dji_camera.hpp</text>
</a>
</g>
</g>
<!-- Node5&#45;&gt;Node12 -->
<g id="edge12" class="edge"><title>Node5&#45;&gt;Node12</title>
<path fill="none" stroke="midnightblue" d="M754.319,-345.583C663.59,-346.089 448.244,-342.634 392,-300 359.444,-275.322 348.441,-225.409 344.78,-198.031"/>
<polygon fill="midnightblue" stroke="midnightblue" points="348.226,-197.357 343.619,-187.817 341.271,-198.148 348.226,-197.357"/>
</g>
<!-- Node13 -->
<g id="node13" class="node"><title>Node13</title>
<g id="a_node13"><a xlink:href="dji__command_8hpp.html" target="_top" xlink:title="All DJI OSDK OpenProtocol Command IDs. ">
<polygon fill="white" stroke="black" points="247.5,-112.5 247.5,-131.5 340.5,-131.5 340.5,-112.5 247.5,-112.5"/>
<text text-anchor="middle" x="294" y="-119.5" font-family="Helvetica,sans-Serif" font-size="10.00">dji_command.hpp</text>
</a>
</g>
</g>
<!-- Node5&#45;&gt;Node13 -->
<g id="edge19" class="edge"><title>Node5&#45;&gt;Node13</title>
<path fill="none" stroke="midnightblue" d="M754.439,-343.978C656.697,-341.047 410.635,-330.748 335,-300 261.183,-269.991 229.518,-259.819 195,-188 182.342,-161.663 214.249,-144.535 245.142,-134.509"/>
<polygon fill="midnightblue" stroke="midnightblue" points="246.522,-137.748 255.079,-131.5 244.494,-131.048 246.522,-137.748"/>
</g>
<!-- Node15 -->
<g id="node15" class="node"><title>Node15</title>
<polygon fill="white" stroke="#bfbfbf" points="502,-280.5 502,-299.5 614,-299.5 614,-280.5 502,-280.5"/>
<text text-anchor="middle" x="558" y="-287.5" font-family="Helvetica,sans-Serif" font-size="10.00">dji_circular_buffer.hpp</text>
</g>
<!-- Node5&#45;&gt;Node15 -->
<g id="edge18" class="edge"><title>Node5&#45;&gt;Node15</title>
<path fill="none" stroke="midnightblue" d="M757.447,-336.444C716.189,-327.043 649.856,-311.929 605.134,-301.739"/>
<polygon fill="midnightblue" stroke="midnightblue" points="605.905,-298.326 595.378,-299.516 604.35,-305.151 605.905,-298.326"/>
</g>
<!-- Node16 -->
<g id="node16" class="node"><title>Node16</title>
<g id="a_node16"><a xlink:href="dji__control_8hpp.html" target="_top" xlink:title="Control API for DJI OSDK library. ">
<polygon fill="white" stroke="black" points="816,-280.5 816,-299.5 896,-299.5 896,-280.5 816,-280.5"/>
<text text-anchor="middle" x="856" y="-287.5" font-family="Helvetica,sans-Serif" font-size="10.00">dji_control.hpp</text>
</a>
</g>
</g>
<!-- Node5&#45;&gt;Node16 -->
<g id="edge20" class="edge"><title>Node5&#45;&gt;Node16</title>
<path fill="none" stroke="midnightblue" d="M804.801,-336.324C813.818,-328.341 827.406,-316.313 838.318,-306.653"/>
<polygon fill="midnightblue" stroke="midnightblue" points="840.853,-309.083 846.021,-299.834 836.213,-303.842 840.853,-309.083"/>
</g>
<!-- Node19 -->
<g id="node19" class="node"><title>Node19</title>
<g id="a_node19"><a xlink:href="dji__version_8hpp.html" target="_top" xlink:title="Drone/SDK Version definition for DJI onboardSDK library. ">
<polygon fill="white" stroke="black" points="66,-168.5 66,-187.5 148,-187.5 148,-168.5 66,-168.5"/>
<text text-anchor="middle" x="107" y="-175.5" font-family="Helvetica,sans-Serif" font-size="10.00">dji_version.hpp</text>
</a>
</g>
</g>
<!-- Node5&#45;&gt;Node19 -->
<g id="edge61" class="edge"><title>Node5&#45;&gt;Node19</title>
<path fill="none" stroke="midnightblue" d="M754.313,-344.495C622.131,-342.528 210.507,-333.727 162,-300 127.531,-276.034 114.277,-225.019 109.492,-197.506"/>
<polygon fill="midnightblue" stroke="midnightblue" points="112.948,-196.954 107.963,-187.605 106.03,-198.022 112.948,-196.954"/>
</g>
<!-- Node21 -->
<g id="node21" class="node"><title>Node21</title>
<g id="a_node21"><a xlink:href="dji__gimbal_8hpp.html" target="_top" xlink:title="Gimbal API for OSDK library. ">
<polygon fill="white" stroke="black" points="204.5,-168.5 204.5,-187.5 283.5,-187.5 283.5,-168.5 204.5,-168.5"/>
<text text-anchor="middle" x="244" y="-175.5" font-family="Helvetica,sans-Serif" font-size="10.00">dji_gimbal.hpp</text>
</a>
</g>
</g>
<!-- Node5&#45;&gt;Node21 -->
<g id="edge33" class="edge"><title>Node5&#45;&gt;Node21</title>
<path fill="none" stroke="midnightblue" d="M754.287,-344.026C661.609,-341.277 437.698,-331.485 370,-300 318.857,-276.214 275.524,-223.129 255.645,-195.868"/>
<polygon fill="midnightblue" stroke="midnightblue" points="258.476,-193.809 249.825,-187.692 252.773,-197.869 258.476,-193.809"/>
</g>
<!-- Node22 -->
<g id="node22" class="node"><title>Node22</title>
<polygon fill="white" stroke="#bfbfbf" points="914,-280.5 914,-299.5 1012,-299.5 1012,-280.5 914,-280.5"/>
<text text-anchor="middle" x="963" y="-287.5" font-family="Helvetica,sans-Serif" font-size="10.00">dji_hard_driver.hpp</text>
</g>
<!-- Node5&#45;&gt;Node22 -->
<g id="edge36" class="edge"><title>Node5&#45;&gt;Node22</title>
<path fill="none" stroke="midnightblue" d="M821.62,-336.444C850.006,-327.32 895.137,-312.813 926.753,-302.651"/>
<polygon fill="midnightblue" stroke="midnightblue" points="928.055,-305.909 936.504,-299.516 925.913,-299.244 928.055,-305.909"/>
</g>
<!-- Node23 -->
<g id="node23" class="node"><title>Node23</title>
<g id="a_node23"><a xlink:href="dji__hardware__sync_8hpp.html" target="_top" xlink:title="Hardware Sync API for DJI OSDK. ">
<polygon fill="white" stroke="black" points="434,-224.5 434,-243.5 550,-243.5 550,-224.5 434,-224.5"/>
<text text-anchor="middle" x="492" y="-231.5" font-family="Helvetica,sans-Serif" font-size="10.00">dji_hardware_sync.hpp</text>
</a>
</g>
</g>
<!-- Node5&#45;&gt;Node23 -->
<g id="edge37" class="edge"><title>Node5&#45;&gt;Node23</title>
<path fill="none" stroke="midnightblue" d="M765.216,-336.5C737.719,-328.302 695.972,-314.961 661,-300 643.453,-292.494 640.521,-287.567 623,-280 592.56,-266.854 556.907,-254.814 530.487,-246.503"/>
<polygon fill="midnightblue" stroke="midnightblue" points="531.432,-243.132 520.844,-243.506 529.355,-249.816 531.432,-243.132"/>
</g>
<!-- Node24 -->
<g id="node24" class="node"><title>Node24</title>
<g id="a_node24"><a xlink:href="dji__mission__manager_8hpp.html" target="_top" xlink:title="Mission&#45;Manager API for DJI OSDK library. ">
<polygon fill="white" stroke="black" points="670.5,-280.5 670.5,-299.5 797.5,-299.5 797.5,-280.5 670.5,-280.5"/>
<text text-anchor="middle" x="734" y="-287.5" font-family="Helvetica,sans-Serif" font-size="10.00">dji_mission_manager.hpp</text>
</a>
</g>
</g>
<!-- Node5&#45;&gt;Node24 -->
<g id="edge40" class="edge"><title>Node5&#45;&gt;Node24</title>
<path fill="none" stroke="midnightblue" d="M785.199,-336.324C776.182,-328.341 762.594,-316.313 751.682,-306.653"/>
<polygon fill="midnightblue" stroke="midnightblue" points="753.787,-303.842 743.979,-299.834 749.147,-309.083 753.787,-303.842"/>
</g>
<!-- Node28 -->
<g id="node28" class="node"><title>Node28</title>
<g id="a_node28"><a xlink:href="dji__mobile__communication_8hpp.html" target="_top" xlink:title="Implementation of DJI Mobile&#45;Onboard SDK Communication (MOC) ">
<polygon fill="white" stroke="black" points="1165,-224.5 1165,-243.5 1315,-243.5 1315,-224.5 1165,-224.5"/>
<text text-anchor="middle" x="1240" y="-231.5" font-family="Helvetica,sans-Serif" font-size="10.00">dji_mobile_communication.hpp</text>
</a>
</g>
</g>
<!-- Node5&#45;&gt;Node28 -->
<g id="edge49" class="edge"><title>Node5&#45;&gt;Node28</title>
<path fill="none" stroke="midnightblue" d="M835.769,-342.416C916.635,-336.874 1094.41,-322.489 1151,-300 1179.47,-288.687 1207.14,-266.103 1223.87,-250.77"/>
<polygon fill="midnightblue" stroke="midnightblue" points="1226.7,-252.916 1231.57,-243.51 1221.9,-247.822 1226.7,-252.916"/>
</g>
<!-- Node29 -->
<g id="node29" class="node"><title>Node29</title>
<g id="a_node29"><a xlink:href="dji__status_8hpp.html" target="_top" xlink:title="Status information for DJI Vehicle. ">
<polygon fill="white" stroke="black" points="7.5,-56.5 7.5,-75.5 84.5,-75.5 84.5,-56.5 7.5,-56.5"/>
<text text-anchor="middle" x="46" y="-63.5" font-family="Helvetica,sans-Serif" font-size="10.00">dji_status.hpp</text>
</a>
</g>
</g>
<!-- Node5&#45;&gt;Node29 -->
<g id="edge52" class="edge"><title>Node5&#45;&gt;Node29</title>
<path fill="none" stroke="midnightblue" d="M754.42,-344.895C625.713,-344.165 227.956,-338.75 106,-300 53.3314,-283.265 0,-290.263 0,-235 0,-235 0,-235 0,-177 0,-141.817 20.2776,-104.863 33.9065,-83.9988"/>
<polygon fill="midnightblue" stroke="midnightblue" points="36.8814,-85.8481 39.6039,-75.609 31.0905,-81.9156 36.8814,-85.8481"/>
</g>
<!-- Node30 -->
<g id="node30" class="node"><title>Node30</title>
<g id="a_node30"><a xlink:href="dji__subscription_8hpp.html" target="_top" xlink:title="Telemetry Subscription API for DJI OSDK library. ">
<polygon fill="white" stroke="black" points="1333.5,-224.5 1333.5,-243.5 1436.5,-243.5 1436.5,-224.5 1333.5,-224.5"/>
<text text-anchor="middle" x="1385" y="-231.5" font-family="Helvetica,sans-Serif" font-size="10.00">dji_subscription.hpp</text>
</a>
</g>
</g>
<!-- Node5&#45;&gt;Node30 -->
<g id="edge54" class="edge"><title>Node5&#45;&gt;Node30</title>
<path fill="none" stroke="midnightblue" d="M835.594,-343.91C906.944,-341.198 1059.03,-331.852 1183,-300 1205.78,-294.147 1209.8,-287.773 1232,-280 1268.86,-267.094 1311.55,-254.749 1342.46,-246.264"/>
<polygon fill="midnightblue" stroke="midnightblue" points="1343.73,-249.544 1352.46,-243.54 1341.89,-242.79 1343.73,-249.544"/>
</g>
<!-- Node31 -->
<g id="node31" class="node"><title>Node31</title>
<polygon fill="white" stroke="#bfbfbf" points="1241,-280.5 1241,-299.5 1361,-299.5 1361,-280.5 1241,-280.5"/>
<text text-anchor="middle" x="1301" y="-287.5" font-family="Helvetica,sans-Serif" font-size="10.00">dji_thread_manager.hpp</text>
</g>
<!-- Node5&#45;&gt;Node31 -->
<g id="edge58" class="edge"><title>Node5&#45;&gt;Node31</title>
<path fill="none" stroke="midnightblue" d="M835.525,-341.014C912.067,-333.433 1083.13,-316.24 1227,-300 1228.27,-299.857 1229.54,-299.712 1230.83,-299.565"/>
<polygon fill="midnightblue" stroke="midnightblue" points="1231.3,-303.033 1240.83,-298.405 1230.5,-296.08 1231.3,-303.033"/>
</g>
<!-- Node7&#45;&gt;Node3 -->
<g id="edge11" class="edge"><title>Node7&#45;&gt;Node3</title>
<path fill="none" stroke="midnightblue" d="M1039.69,-224.368C1074.38,-205.292 1157.78,-159.422 1199.44,-136.505"/>
<polygon fill="midnightblue" stroke="midnightblue" points="1201.3,-139.477 1208.38,-131.591 1197.93,-133.344 1201.3,-139.477"/>
</g>
<!-- Node8 -->
<g id="node8" class="node"><title>Node8</title>
<g id="a_node8"><a xlink:href="dji__telemetry_8hpp.html" target="_top" xlink:title="Enumeration of all telemetry data types, structures and maps. ">
<polygon fill="white" stroke="black" points="977.5,-168.5 977.5,-187.5 1068.5,-187.5 1068.5,-168.5 977.5,-168.5"/>
<text text-anchor="middle" x="1023" y="-175.5" font-family="Helvetica,sans-Serif" font-size="10.00">dji_telemetry.hpp</text>
</a>
</g>
</g>
<!-- Node7&#45;&gt;Node8 -->
<g id="edge7" class="edge"><title>Node7&#45;&gt;Node8</title>
<path fill="none" stroke="midnightblue" d="M1023.83,-224.083C1023.7,-217.006 1023.52,-206.861 1023.35,-197.986"/>
<polygon fill="midnightblue" stroke="midnightblue" points="1026.85,-197.685 1023.16,-187.751 1019.85,-197.814 1026.85,-197.685"/>
</g>
<!-- Node8&#45;&gt;Node9 -->
<g id="edge8" class="edge"><title>Node8&#45;&gt;Node9</title>
<path fill="none" stroke="midnightblue" d="M977.372,-171.92C884.619,-161.593 675.063,-138.261 582.913,-128.001"/>
<polygon fill="midnightblue" stroke="midnightblue" points="583.121,-124.502 572.796,-126.874 582.347,-131.459 583.121,-124.502"/>
</g>
<!-- Node10 -->
<g id="node10" class="node"><title>Node10</title>
<polygon fill="white" stroke="#bfbfbf" points="516.5,-56.5 516.5,-75.5 559.5,-75.5 559.5,-56.5 516.5,-56.5"/>
<text text-anchor="middle" x="538" y="-63.5" font-family="Helvetica,sans-Serif" font-size="10.00">cstdio</text>
</g>
<!-- Node9&#45;&gt;Node10 -->
<g id="edge9" class="edge"><title>Node9&#45;&gt;Node10</title>
<path fill="none" stroke="midnightblue" d="M538,-112.083C538,-105.006 538,-94.8611 538,-85.9865"/>
<polygon fill="midnightblue" stroke="midnightblue" points="541.5,-85.751 538,-75.7511 534.5,-85.7511 541.5,-85.751"/>
</g>
<!-- Node11 -->
<g id="node11" class="node"><title>Node11</title>
<polygon fill="white" stroke="#bfbfbf" points="269.5,-0.5 269.5,-19.5 318.5,-19.5 318.5,-0.5 269.5,-0.5"/>
<text text-anchor="middle" x="294" y="-7.5" font-family="Helvetica,sans-Serif" font-size="10.00">stdint.h</text>
</g>
<!-- Node9&#45;&gt;Node11 -->
<g id="edge10" class="edge"><title>Node9&#45;&gt;Node11</title>
<path fill="none" stroke="midnightblue" d="M518.854,-112.368C476.092,-93.0908 372.643,-46.4536 322.369,-23.7894"/>
<polygon fill="midnightblue" stroke="midnightblue" points="323.612,-20.5106 313.057,-19.5914 320.735,-26.8921 323.612,-20.5106"/>
</g>
<!-- Node12&#45;&gt;Node9 -->
<g id="edge17" class="edge"><title>Node12&#45;&gt;Node9</title>
<path fill="none" stroke="midnightblue" d="M373.898,-168.444C407.274,-159.201 460.594,-144.436 497.349,-134.257"/>
<polygon fill="midnightblue" stroke="midnightblue" points="498.543,-137.558 507.246,-131.516 496.675,-130.812 498.543,-137.558"/>
</g>
<!-- Node12&#45;&gt;Node13 -->
<g id="edge13" class="edge"><title>Node12&#45;&gt;Node13</title>
<path fill="none" stroke="midnightblue" d="M334.909,-168.083C327.845,-160.298 317.412,-148.801 308.851,-139.367"/>
<polygon fill="midnightblue" stroke="midnightblue" points="311.253,-136.805 301.941,-131.751 306.069,-141.509 311.253,-136.805"/>
</g>
<!-- Node13&#45;&gt;Node11 -->
<g id="edge16" class="edge"><title>Node13&#45;&gt;Node11</title>
<path fill="none" stroke="midnightblue" d="M297.344,-112.197C300.554,-103.24 305.176,-88.8827 307,-76 309.243,-60.1544 305.213,-42.3436 301.063,-29.3784"/>
<polygon fill="midnightblue" stroke="midnightblue" points="304.306,-28.0481 297.685,-19.7769 297.703,-30.3717 304.306,-28.0481"/>
</g>
<!-- Node14 -->
<g id="node14" class="node"><title>Node14</title>
<g id="a_node14"><a xlink:href="dji__error_8hpp.html" target="_top" xlink:title="All DJI OSDK OpenProtocol ACK Error Codes. ">
<polygon fill="white" stroke="black" points="228,-56.5 228,-75.5 298,-75.5 298,-56.5 228,-56.5"/>
<text text-anchor="middle" x="263" y="-63.5" font-family="Helvetica,sans-Serif" font-size="10.00">dji_error.hpp</text>
</a>
</g>
</g>
<!-- Node13&#45;&gt;Node14 -->
<g id="edge14" class="edge"><title>Node13&#45;&gt;Node14</title>
<path fill="none" stroke="midnightblue" d="M288.881,-112.083C284.592,-104.613 278.342,-93.7244 273.058,-84.5199"/>
<polygon fill="midnightblue" stroke="midnightblue" points="276.038,-82.6811 268.024,-75.7511 269.967,-86.1662 276.038,-82.6811"/>
</g>
<!-- Node14&#45;&gt;Node11 -->
<g id="edge15" class="edge"><title>Node14&#45;&gt;Node11</title>
<path fill="none" stroke="midnightblue" d="M268.119,-56.083C272.408,-48.6127 278.658,-37.7244 283.942,-28.5199"/>
<polygon fill="midnightblue" stroke="midnightblue" points="287.033,-30.1662 288.976,-19.7511 280.962,-26.6811 287.033,-30.1662"/>
</g>
<!-- Node16&#45;&gt;Node3 -->
<g id="edge32" class="edge"><title>Node16&#45;&gt;Node3</title>
<path fill="none" stroke="midnightblue" d="M873.841,-280.445C888.868,-272.571 910.218,-259.744 925,-244 951.564,-215.707 936.301,-190.39 968,-168 997.083,-147.458 1087.59,-135.142 1152.74,-128.716"/>
<polygon fill="midnightblue" stroke="midnightblue" points="1153.34,-132.174 1162.96,-127.735 1152.68,-125.206 1153.34,-132.174"/>
</g>
<!-- Node16&#45;&gt;Node4 -->
<g id="edge30" class="edge"><title>Node16&#45;&gt;Node4</title>
<path fill="none" stroke="midnightblue" d="M861.66,-280.34C877.98,-255.568 925.338,-185.102 947,-168 1004.9,-122.289 1086.67,-93.0876 1136.08,-78.4059"/>
<polygon fill="midnightblue" stroke="midnightblue" points="1137.18,-81.7292 1145.81,-75.5776 1135.23,-75.0073 1137.18,-81.7292"/>
</g>
<!-- Node16&#45;&gt;Node9 -->
<g id="edge31" class="edge"><title>Node16&#45;&gt;Node9</title>
<path fill="none" stroke="midnightblue" d="M859.186,-280.352C866.636,-258.46 882.495,-200.297 854,-168 819.089,-128.431 661.231,-122.831 582.679,-122.557"/>
<polygon fill="midnightblue" stroke="midnightblue" points="582.599,-119.057 572.596,-122.55 582.594,-126.057 582.599,-119.057"/>
</g>
<!-- Node17 -->
<g id="node17" class="node"><title>Node17</title>
<g id="a_node17"><a xlink:href="dji__ack_8hpp.html" target="_top" xlink:title="All DJI OSDK ACK parsing. ">
<polygon fill="white" stroke="black" points="568,-224.5 568,-243.5 634,-243.5 634,-224.5 568,-224.5"/>
<text text-anchor="middle" x="601" y="-231.5" font-family="Helvetica,sans-Serif" font-size="10.00">dji_ack.hpp</text>
</a>
</g>
</g>
<!-- Node16&#45;&gt;Node17 -->
<g id="edge21" class="edge"><title>Node16&#45;&gt;Node17</title>
<path fill="none" stroke="midnightblue" d="M815.95,-280.575C775.224,-271.999 710.017,-258.247 644.158,-244.242"/>
<polygon fill="midnightblue" stroke="midnightblue" points="644.523,-240.741 634.013,-242.084 643.066,-247.588 644.523,-240.741"/>
</g>
<!-- Node17&#45;&gt;Node9 -->
<g id="edge25" class="edge"><title>Node17&#45;&gt;Node9</title>
<path fill="none" stroke="midnightblue" d="M596.056,-224.368C585.706,-206.296 561.583,-164.176 547.912,-140.307"/>
<polygon fill="midnightblue" stroke="midnightblue" points="550.928,-138.53 542.921,-131.591 544.853,-142.008 550.928,-138.53"/>
</g>
<!-- Node17&#45;&gt;Node13 -->
<g id="edge22" class="edge"><title>Node17&#45;&gt;Node13</title>
<path fill="none" stroke="midnightblue" d="M577.166,-224.46C522.984,-205.047 390.429,-157.551 327.813,-135.115"/>
<polygon fill="midnightblue" stroke="midnightblue" points="328.625,-131.689 318.031,-131.61 326.264,-138.278 328.625,-131.689"/>
</g>
<!-- Node18 -->
<g id="node18" class="node"><title>Node18</title>
<g id="a_node18"><a xlink:href="dji__mission__type_8hpp_source.html" target="_top" xlink:title="dji_mission_type.hpp">
<polygon fill="white" stroke="black" points="609,-168.5 609,-187.5 717,-187.5 717,-168.5 609,-168.5"/>
<text text-anchor="middle" x="663" y="-175.5" font-family="Helvetica,sans-Serif" font-size="10.00">dji_mission_type.hpp</text>
</a>
</g>
</g>
<!-- Node17&#45;&gt;Node18 -->
<g id="edge23" class="edge"><title>Node17&#45;&gt;Node18</title>
<path fill="none" stroke="midnightblue" d="M610.961,-224.324C620.127,-216.341 633.937,-204.313 645.028,-194.653"/>
<polygon fill="midnightblue" stroke="midnightblue" points="647.615,-197.041 652.857,-187.834 643.018,-191.762 647.615,-197.041"/>
</g>
<!-- Node17&#45;&gt;Node19 -->
<g id="edge26" class="edge"><title>Node17&#45;&gt;Node19</title>
<path fill="none" stroke="midnightblue" d="M567.592,-225.487C564.694,-224.943 561.8,-224.437 559,-224 398.378,-198.929 356.751,-204.27 195,-188 183.182,-186.811 170.472,-185.519 158.488,-184.295"/>
<polygon fill="midnightblue" stroke="midnightblue" points="158.489,-180.777 148.185,-183.241 157.776,-187.74 158.489,-180.777"/>
</g>
<!-- Node20 -->
<g id="node20" class="node"><title>Node20</title>
<polygon fill="white" stroke="#bfbfbf" points="517.5,-168.5 517.5,-187.5 552.5,-187.5 552.5,-168.5 517.5,-168.5"/>
<text text-anchor="middle" x="535" y="-175.5" font-family="Helvetica,sans-Serif" font-size="10.00">map</text>
</g>
<!-- Node17&#45;&gt;Node20 -->
<g id="edge29" class="edge"><title>Node17&#45;&gt;Node20</title>
<path fill="none" stroke="midnightblue" d="M590.396,-224.324C580.544,-216.263 565.649,-204.077 553.785,-194.369"/>
<polygon fill="midnightblue" stroke="midnightblue" points="555.753,-191.457 545.797,-187.834 551.32,-196.875 555.753,-191.457"/>
</g>
<!-- Node18&#45;&gt;Node9 -->
<g id="edge24" class="edge"><title>Node18&#45;&gt;Node9</title>
<path fill="none" stroke="midnightblue" d="M643.193,-168.444C622.713,-159.596 590.517,-145.687 567.135,-135.586"/>
<polygon fill="midnightblue" stroke="midnightblue" points="568.282,-132.269 557.714,-131.516 565.506,-138.695 568.282,-132.269"/>
</g>
<!-- Node19&#45;&gt;Node6 -->
<g id="edge28" class="edge"><title>Node19&#45;&gt;Node6</title>
<path fill="none" stroke="midnightblue" d="M102.376,-168.083C98.5437,-160.691 92.9758,-149.953 88.2354,-140.811"/>
<polygon fill="midnightblue" stroke="midnightblue" points="91.248,-139.018 83.5376,-131.751 85.0337,-142.24 91.248,-139.018"/>
</g>
<!-- Node19&#45;&gt;Node13 -->
<g id="edge27" class="edge"><title>Node19&#45;&gt;Node13</title>
<path fill="none" stroke="midnightblue" d="M136.631,-168.444C168.5,-159.241 219.333,-144.562 254.564,-134.388"/>
<polygon fill="midnightblue" stroke="midnightblue" points="255.872,-137.653 264.508,-131.516 253.929,-130.928 255.872,-137.653"/>
</g>
<!-- Node21&#45;&gt;Node9 -->
<g id="edge35" class="edge"><title>Node21&#45;&gt;Node9</title>
<path fill="none" stroke="midnightblue" d="M283.55,-169.57C286.409,-169.037 289.249,-168.51 292,-168 362.346,-154.971 444.053,-140.071 493.351,-131.106"/>
<polygon fill="midnightblue" stroke="midnightblue" points="494.15,-134.518 503.363,-129.286 492.898,-127.631 494.15,-134.518"/>
</g>
<!-- Node21&#45;&gt;Node13 -->
<g id="edge34" class="edge"><title>Node21&#45;&gt;Node13</title>
<path fill="none" stroke="midnightblue" d="M252.256,-168.083C259.465,-160.298 270.11,-148.801 278.846,-139.367"/>
<polygon fill="midnightblue" stroke="midnightblue" points="281.671,-141.467 285.897,-131.751 276.535,-136.711 281.671,-141.467"/>
</g>
<!-- Node23&#45;&gt;Node9 -->
<g id="edge38" class="edge"><title>Node23&#45;&gt;Node9</title>
<path fill="none" stroke="midnightblue" d="M493.165,-224.277C495.086,-211.503 499.572,-187.146 508,-168 512.343,-158.135 518.823,-148.068 524.651,-139.965"/>
<polygon fill="midnightblue" stroke="midnightblue" points="527.601,-141.864 530.805,-131.765 522.003,-137.663 527.601,-141.864"/>
</g>
<!-- Node25 -->
<g id="node25" class="node"><title>Node25</title>
<g id="a_node25"><a xlink:href="dji__hotpoint_8hpp.html" target="_top" xlink:title="Implementation of HotPoint (Point of Interest) Missions for DJI OSDK. ">
<polygon fill="white" stroke="black" points="759.5,-224.5 759.5,-243.5 844.5,-243.5 844.5,-224.5 759.5,-224.5"/>
<text text-anchor="middle" x="802" y="-231.5" font-family="Helvetica,sans-Serif" font-size="10.00">dji_hotpoint.hpp</text>
</a>
</g>
</g>
<!-- Node24&#45;&gt;Node25 -->
<g id="edge41" class="edge"><title>Node24&#45;&gt;Node25</title>
<path fill="none" stroke="midnightblue" d="M744.925,-280.324C755.175,-272.185 770.721,-259.839 783.001,-250.087"/>
<polygon fill="midnightblue" stroke="midnightblue" points="785.221,-252.794 790.876,-243.834 780.868,-247.312 785.221,-252.794"/>
</g>
<!-- Node27 -->
<g id="node27" class="node"><title>Node27</title>
<g id="a_node27"><a xlink:href="dji__waypoint_8hpp.html" target="_top" xlink:title="Implementation of GPS Waypoint Missions for DJI OSDK. ">
<polygon fill="white" stroke="black" points="652.5,-224.5 652.5,-243.5 741.5,-243.5 741.5,-224.5 652.5,-224.5"/>
<text text-anchor="middle" x="697" y="-231.5" font-family="Helvetica,sans-Serif" font-size="10.00">dji_waypoint.hpp</text>
</a>
</g>
</g>
<!-- Node24&#45;&gt;Node27 -->
<g id="edge47" class="edge"><title>Node24&#45;&gt;Node27</title>
<path fill="none" stroke="midnightblue" d="M727.89,-280.083C722.718,-272.534 715.154,-261.495 708.806,-252.23"/>
<polygon fill="midnightblue" stroke="midnightblue" points="711.536,-250.022 702.996,-243.751 705.761,-253.979 711.536,-250.022"/>
</g>
<!-- Node25&#45;&gt;Node8 -->
<g id="edge46" class="edge"><title>Node25&#45;&gt;Node8</title>
<path fill="none" stroke="midnightblue" d="M837.018,-224.444C875.248,-215.102 936.567,-200.119 978.257,-189.933"/>
<polygon fill="midnightblue" stroke="midnightblue" points="979.262,-193.29 988.146,-187.516 977.601,-186.49 979.262,-193.29"/>
</g>
<!-- Node26 -->
<g id="node26" class="node"><title>Node26</title>
<g id="a_node26"><a xlink:href="dji__mission__base_8hpp.html" target="_top" xlink:title="Mission&#45;Base abstract class for DJI OSDK library. ">
<polygon fill="white" stroke="black" points="735,-168.5 735,-187.5 845,-187.5 845,-168.5 735,-168.5"/>
<text text-anchor="middle" x="790" y="-175.5" font-family="Helvetica,sans-Serif" font-size="10.00">dji_mission_base.hpp</text>
</a>
</g>
</g>
<!-- Node25&#45;&gt;Node26 -->
<g id="edge42" class="edge"><title>Node25&#45;&gt;Node26</title>
<path fill="none" stroke="midnightblue" d="M800.018,-224.083C798.428,-216.927 796.141,-206.635 794.154,-197.691"/>
<polygon fill="midnightblue" stroke="midnightblue" points="797.531,-196.754 791.945,-187.751 790.697,-198.272 797.531,-196.754"/>
</g>
<!-- Node26&#45;&gt;Node3 -->
<g id="edge45" class="edge"><title>Node26&#45;&gt;Node3</title>
<path fill="none" stroke="midnightblue" d="M845.407,-170.106C923.771,-160.356 1067,-142.535 1153.05,-131.828"/>
<polygon fill="midnightblue" stroke="midnightblue" points="1153.5,-135.299 1162.99,-130.591 1152.64,-128.353 1153.5,-135.299"/>
</g>
<!-- Node26&#45;&gt;Node9 -->
<g id="edge44" class="edge"><title>Node26&#45;&gt;Node9</title>
<path fill="none" stroke="midnightblue" d="M750.07,-168.444C704.558,-158.691 630.346,-142.789 582.871,-132.615"/>
<polygon fill="midnightblue" stroke="midnightblue" points="583.385,-129.146 572.874,-130.473 581.919,-135.991 583.385,-129.146"/>
</g>
<!-- Node26&#45;&gt;Node13 -->
<g id="edge43" class="edge"><title>Node26&#45;&gt;Node13</title>
<path fill="none" stroke="midnightblue" d="M734.859,-169.118C731.863,-168.729 728.896,-168.354 726,-168 591.776,-151.577 433.614,-136.081 350.918,-128.272"/>
<polygon fill="midnightblue" stroke="midnightblue" points="351.013,-124.766 340.729,-127.313 350.357,-131.735 351.013,-124.766"/>
</g>
<!-- Node27&#45;&gt;Node26 -->
<g id="edge48" class="edge"><title>Node27&#45;&gt;Node26</title>
<path fill="none" stroke="midnightblue" d="M711.942,-224.324C726.585,-215.822 749.134,-202.729 766.238,-192.797"/>
<polygon fill="midnightblue" stroke="midnightblue" points="768.205,-195.703 775.095,-187.655 764.69,-189.649 768.205,-195.703"/>
</g>
<!-- Node28&#45;&gt;Node3 -->
<g id="edge50" class="edge"><title>Node28&#45;&gt;Node3</title>
<path fill="none" stroke="midnightblue" d="M1238.74,-224.368C1236.16,-206.617 1230.21,-165.666 1226.71,-141.597"/>
<polygon fill="midnightblue" stroke="midnightblue" points="1230.15,-140.983 1225.25,-131.591 1223.23,-141.991 1230.15,-140.983"/>
</g>
<!-- Node29&#45;&gt;Node11 -->
<g id="edge53" class="edge"><title>Node29&#45;&gt;Node11</title>
<path fill="none" stroke="midnightblue" d="M84.75,-56.5625C132.751,-46.1107 213.786,-28.466 259.654,-18.4786"/>
<polygon fill="midnightblue" stroke="midnightblue" points="260.402,-21.8978 269.428,-16.3503 258.912,-15.0581 260.402,-21.8978"/>
</g>
<!-- Node30&#45;&gt;Node3 -->
<g id="edge57" class="edge"><title>Node30&#45;&gt;Node3</title>
<path fill="none" stroke="midnightblue" d="M1366.08,-224.47C1348.39,-216.154 1321.54,-202.648 1300,-188 1277.95,-173.007 1255.01,-152.613 1240.18,-138.692"/>
<polygon fill="midnightblue" stroke="midnightblue" points="1242.49,-136.058 1232.83,-131.699 1237.66,-141.129 1242.49,-136.058"/>
</g>
<!-- Node30&#45;&gt;Node4 -->
<g id="edge55" class="edge"><title>Node30&#45;&gt;Node4</title>
<path fill="none" stroke="midnightblue" d="M1380.71,-224.387C1369.45,-202.575 1336.91,-144.587 1294,-112 1273.55,-96.47 1247.06,-85.6214 1224.66,-78.4732"/>
<polygon fill="midnightblue" stroke="midnightblue" points="1225.6,-75.1018 1215.02,-75.5397 1223.57,-81.7987 1225.6,-75.1018"/>
</g>
<!-- Node30&#45;&gt;Node8 -->
<g id="edge56" class="edge"><title>Node30&#45;&gt;Node8</title>
<path fill="none" stroke="midnightblue" d="M1333.13,-225.263C1265.73,-215.208 1148.46,-197.715 1079.05,-187.362"/>
<polygon fill="midnightblue" stroke="midnightblue" points="1079.16,-183.839 1068.76,-185.826 1078.13,-190.763 1079.16,-183.839"/>
</g>
</g>
</svg>
