<?xml version="1.0" encoding="UTF-8" standalone="no"?>
<!DOCTYPE svg PUBLIC "-//W3C//DTD SVG 1.1//EN"
 "http://www.w3.org/Graphics/SVG/1.1/DTD/svg11.dtd">
<!-- Generated by graphviz version 2.38.0 (20140413.2041)
 -->
<!-- Title: osdk&#45;core/api/src/dji_mobile_communication.cpp Pages: 1 -->
<svg width="1608pt" height="431pt"
 viewBox="0.00 0.00 1608.35 431.00" xmlns="http://www.w3.org/2000/svg" xmlns:xlink="http://www.w3.org/1999/xlink">
<g id="graph0" class="graph" transform="scale(1 1) rotate(0) translate(4 427)">
<title>osdk&#45;core/api/src/dji_mobile_communication.cpp</title>
<polygon fill="white" stroke="none" points="-4,4 -4,-427 1604.35,-427 1604.35,4 -4,4"/>
<!-- Node1 -->
<g id="node1" class="node"><title>Node1</title>
<polygon fill="#bfbfbf" stroke="black" points="1071.35,-392.5 1071.35,-422.5 1211.35,-422.5 1211.35,-392.5 1071.35,-392.5"/>
<text text-anchor="start" x="1079.35" y="-410.5" font-family="Helvetica,sans-Serif" font-size="10.00">osdk&#45;core/api/src/dji</text>
<text text-anchor="middle" x="1141.35" y="-399.5" font-family="Helvetica,sans-Serif" font-size="10.00">_mobile_communication.cpp</text>
</g>
<!-- Node2 -->
<g id="node2" class="node"><title>Node2</title>
<g id="a_node2"><a xlink:href="dji__mobile__communication_8hpp.html" target="_top" xlink:title="Implementation of DJI Mobile&#45;Onboard SDK Communication (MOC) ">
<polygon fill="white" stroke="black" points="1450.35,-280.5 1450.35,-299.5 1600.35,-299.5 1600.35,-280.5 1450.35,-280.5"/>
<text text-anchor="middle" x="1525.35" y="-287.5" font-family="Helvetica,sans-Serif" font-size="10.00">dji_mobile_communication.hpp</text>
</a>
</g>
</g>
<!-- Node1&#45;&gt;Node2 -->
<g id="edge1" class="edge"><title>Node1&#45;&gt;Node2</title>
<path fill="none" stroke="midnightblue" d="M1188.05,-392.453C1264.83,-369.361 1416.25,-323.817 1487.1,-302.505"/>
<polygon fill="midnightblue" stroke="midnightblue" points="1488.38,-305.774 1496.95,-299.542 1486.37,-299.071 1488.38,-305.774"/>
</g>
<!-- Node5 -->
<g id="node5" class="node"><title>Node5</title>
<g id="a_node5"><a xlink:href="dji__vehicle_8hpp.html" target="_top" xlink:title="Vehicle API for DJI onboardSDK library. ">
<polygon fill="white" stroke="black" points="937.851,-336.5 937.851,-355.5 1018.85,-355.5 1018.85,-336.5 937.851,-336.5"/>
<text text-anchor="middle" x="978.351" y="-343.5" font-family="Helvetica,sans-Serif" font-size="10.00">dji_vehicle.hpp</text>
</a>
</g>
</g>
<!-- Node1&#45;&gt;Node5 -->
<g id="edge4" class="edge"><title>Node1&#45;&gt;Node5</title>
<path fill="none" stroke="midnightblue" d="M1102.72,-392.399C1075.01,-382.283 1038.05,-368.791 1011.63,-359.149"/>
<polygon fill="midnightblue" stroke="midnightblue" points="1012.66,-355.799 1002.07,-355.658 1010.26,-362.375 1012.66,-355.799"/>
</g>
<!-- Node3 -->
<g id="node3" class="node"><title>Node3</title>
<g id="a_node3"><a xlink:href="dji__vehicle__callback_8hpp.html" target="_top" xlink:title="Type definition for new Vehicle&#45;style callbacks. ">
<polygon fill="white" stroke="black" points="1160.35,-112.5 1160.35,-131.5 1282.35,-131.5 1282.35,-112.5 1160.35,-112.5"/>
<text text-anchor="middle" x="1221.35" y="-119.5" font-family="Helvetica,sans-Serif" font-size="10.00">dji_vehicle_callback.hpp</text>
</a>
</g>
</g>
<!-- Node2&#45;&gt;Node3 -->
<g id="edge2" class="edge"><title>Node2&#45;&gt;Node3</title>
<path fill="none" stroke="midnightblue" d="M1509.43,-280.309C1459.57,-253.08 1306.13,-169.292 1245.94,-136.426"/>
<polygon fill="midnightblue" stroke="midnightblue" points="1247.56,-133.326 1237.11,-131.605 1244.21,-139.47 1247.56,-133.326"/>
</g>
<!-- Node4 -->
<g id="node4" class="node"><title>Node4</title>
<polygon fill="white" stroke="#bfbfbf" points="1120.85,-56.5 1120.85,-75.5 1231.85,-75.5 1231.85,-56.5 1120.85,-56.5"/>
<text text-anchor="middle" x="1176.35" y="-63.5" font-family="Helvetica,sans-Serif" font-size="10.00">dji_open_protocol.hpp</text>
</g>
<!-- Node3&#45;&gt;Node4 -->
<g id="edge3" class="edge"><title>Node3&#45;&gt;Node4</title>
<path fill="none" stroke="midnightblue" d="M1213.92,-112.083C1207.5,-104.377 1198.05,-93.0333 1190.23,-83.6531"/>
<polygon fill="midnightblue" stroke="midnightblue" points="1192.73,-81.1927 1183.64,-75.7511 1187.36,-85.674 1192.73,-81.1927"/>
</g>
<!-- Node5&#45;&gt;Node2 -->
<g id="edge50" class="edge"><title>Node5&#45;&gt;Node2</title>
<path fill="none" stroke="midnightblue" d="M1019.1,-341.036C1099.1,-333.244 1282.31,-315.356 1436.35,-300 1437.47,-299.888 1438.6,-299.776 1439.73,-299.662"/>
<polygon fill="midnightblue" stroke="midnightblue" points="1440.49,-303.105 1450.09,-298.626 1439.79,-296.139 1440.49,-303.105"/>
</g>
<!-- Node5&#45;&gt;Node3 -->
<g id="edge60" class="edge"><title>Node5&#45;&gt;Node3</title>
<path fill="none" stroke="midnightblue" d="M1018.96,-343.916C1056.2,-340.861 1110.81,-330.913 1146.35,-300 1171.61,-278.031 1203.34,-181.804 1215.88,-141.189"/>
<polygon fill="midnightblue" stroke="midnightblue" points="1219.26,-142.107 1218.83,-131.52 1212.57,-140.065 1219.26,-142.107"/>
</g>
<!-- Node5&#45;&gt;Node4 -->
<g id="edge51" class="edge"><title>Node5&#45;&gt;Node4</title>
<path fill="none" stroke="midnightblue" d="M1018.63,-336.498C1042.72,-329.797 1072.73,-318.427 1094.35,-300 1119.82,-278.291 1132.35,-268.463 1132.35,-235 1132.35,-235 1132.35,-235 1132.35,-177 1132.35,-142.04 1151.75,-105.013 1164.78,-84.0745"/>
<polygon fill="midnightblue" stroke="midnightblue" points="1167.74,-85.9487 1170.23,-75.6515 1161.86,-82.1462 1167.74,-85.9487"/>
</g>
<!-- Node6 -->
<g id="node6" class="node"><title>Node6</title>
<polygon fill="white" stroke="#bfbfbf" points="60.3513,-112.5 60.3513,-131.5 106.351,-131.5 106.351,-112.5 60.3513,-112.5"/>
<text text-anchor="middle" x="83.3513" y="-119.5" font-family="Helvetica,sans-Serif" font-size="10.00">cstdint</text>
</g>
<!-- Node5&#45;&gt;Node6 -->
<g id="edge5" class="edge"><title>Node5&#45;&gt;Node6</title>
<path fill="none" stroke="midnightblue" d="M937.639,-345.248C788,-345.795 268.925,-344.377 110.351,-300 59.7964,-285.852 33.2711,-289.07 6.35127,-244 -16.8909,-205.088 31.8517,-160.335 61.9595,-137.722"/>
<polygon fill="midnightblue" stroke="midnightblue" points="64.2133,-140.411 70.2437,-131.699 60.0971,-134.749 64.2133,-140.411"/>
</g>
<!-- Node7 -->
<g id="node7" class="node"><title>Node7</title>
<g id="a_node7"><a xlink:href="dji__broadcast_8hpp.html" target="_top" xlink:title="Broadcast Telemetry API for DJI onboardSDK library. ">
<polygon fill="white" stroke="black" points="972.851,-224.5 972.851,-243.5 1065.85,-243.5 1065.85,-224.5 972.851,-224.5"/>
<text text-anchor="middle" x="1019.35" y="-231.5" font-family="Helvetica,sans-Serif" font-size="10.00">dji_broadcast.hpp</text>
</a>
</g>
</g>
<!-- Node5&#45;&gt;Node7 -->
<g id="edge6" class="edge"><title>Node5&#45;&gt;Node7</title>
<path fill="none" stroke="midnightblue" d="M971.819,-336.22C963.125,-323.374 949.887,-298.928 959.351,-280 966.08,-266.543 978.958,-256.067 991.063,-248.621"/>
<polygon fill="midnightblue" stroke="midnightblue" points="993.084,-251.498 1000.05,-243.52 989.63,-245.41 993.084,-251.498"/>
</g>
<!-- Node9 -->
<g id="node9" class="node"><title>Node9</title>
<g id="a_node9"><a xlink:href="dji__type_8hpp.html" target="_top" xlink:title="Data type and Data Structure definitions for use throughout DJI OSDK. ">
<polygon fill="white" stroke="black" points="398.851,-112.5 398.851,-131.5 467.851,-131.5 467.851,-112.5 398.851,-112.5"/>
<text text-anchor="middle" x="433.351" y="-119.5" font-family="Helvetica,sans-Serif" font-size="10.00">dji_type.hpp</text>
</a>
</g>
</g>
<!-- Node5&#45;&gt;Node9 -->
<g id="edge59" class="edge"><title>Node5&#45;&gt;Node9</title>
<path fill="none" stroke="midnightblue" d="M937.7,-343.835C820.287,-340.174 482.235,-327.478 375.351,-300 259.395,-270.19 195.062,-288.733 130.351,-188 125.547,-180.521 124.546,-174.731 130.351,-168 163.151,-129.97 312.474,-123.561 388.535,-122.815"/>
<polygon fill="midnightblue" stroke="midnightblue" points="388.786,-126.313 398.762,-122.744 388.738,-119.313 388.786,-126.313"/>
</g>
<!-- Node12 -->
<g id="node12" class="node"><title>Node12</title>
<g id="a_node12"><a xlink:href="dji__camera_8hpp.html" target="_top" xlink:title="Camera/Gimbal API for DJI onboardSDK library. ">
<polygon fill="white" stroke="black" points="630.851,-168.5 630.851,-187.5 713.851,-187.5 713.851,-168.5 630.851,-168.5"/>
<text text-anchor="middle" x="672.351" y="-175.5" font-family="Helvetica,sans-Serif" font-size="10.00">dji_camera.hpp</text>
</a>
</g>
</g>
<!-- Node5&#45;&gt;Node12 -->
<g id="edge12" class="edge"><title>Node5&#45;&gt;Node12</title>
<path fill="none" stroke="midnightblue" d="M937.8,-343.543C894.697,-340.353 825.918,-330.439 775.351,-300 732.178,-274.011 698.176,-223.506 682.237,-196.702"/>
<polygon fill="midnightblue" stroke="midnightblue" points="685.064,-194.599 677.032,-187.69 679.003,-198.1 685.064,-194.599"/>
</g>
<!-- Node13 -->
<g id="node13" class="node"><title>Node13</title>
<g id="a_node13"><a xlink:href="dji__command_8hpp.html" target="_top" xlink:title="All DJI OSDK OpenProtocol Command IDs. ">
<polygon fill="white" stroke="black" points="572.851,-112.5 572.851,-131.5 665.851,-131.5 665.851,-112.5 572.851,-112.5"/>
<text text-anchor="middle" x="619.351" y="-119.5" font-family="Helvetica,sans-Serif" font-size="10.00">dji_command.hpp</text>
</a>
</g>
</g>
<!-- Node5&#45;&gt;Node13 -->
<g id="edge19" class="edge"><title>Node5&#45;&gt;Node13</title>
<path fill="none" stroke="midnightblue" d="M1019.24,-336.921C1039.82,-330.567 1062.96,-319.402 1075.35,-300 1108.27,-248.439 1088.79,-199.507 1036.35,-168 977.048,-132.368 776.023,-124.84 676.347,-123.326"/>
<polygon fill="midnightblue" stroke="midnightblue" points="676.203,-119.824 666.156,-123.187 676.108,-126.823 676.203,-119.824"/>
</g>
<!-- Node15 -->
<g id="node15" class="node"><title>Node15</title>
<polygon fill="white" stroke="#bfbfbf" points="594.351,-280.5 594.351,-299.5 706.351,-299.5 706.351,-280.5 594.351,-280.5"/>
<text text-anchor="middle" x="650.351" y="-287.5" font-family="Helvetica,sans-Serif" font-size="10.00">dji_circular_buffer.hpp</text>
</g>
<!-- Node5&#45;&gt;Node15 -->
<g id="edge18" class="edge"><title>Node5&#45;&gt;Node15</title>
<path fill="none" stroke="midnightblue" d="M937.803,-338.324C881.231,-329.011 778.142,-312.039 712.019,-301.153"/>
<polygon fill="midnightblue" stroke="midnightblue" points="712.575,-297.697 702.139,-299.526 711.438,-304.604 712.575,-297.697"/>
</g>
<!-- Node16 -->
<g id="node16" class="node"><title>Node16</title>
<g id="a_node16"><a xlink:href="dji__control_8hpp.html" target="_top" xlink:title="Control API for DJI OSDK library. ">
<polygon fill="white" stroke="black" points="496.351,-280.5 496.351,-299.5 576.351,-299.5 576.351,-280.5 496.351,-280.5"/>
<text text-anchor="middle" x="536.351" y="-287.5" font-family="Helvetica,sans-Serif" font-size="10.00">dji_control.hpp</text>
</a>
</g>
</g>
<!-- Node5&#45;&gt;Node16 -->
<g id="edge20" class="edge"><title>Node5&#45;&gt;Node16</title>
<path fill="none" stroke="midnightblue" d="M937.782,-341.268C868.098,-334.659 720.974,-319.839 586.497,-300.081"/>
<polygon fill="midnightblue" stroke="midnightblue" points="586.831,-296.593 576.426,-298.589 585.805,-303.517 586.831,-296.593"/>
</g>
<!-- Node19 -->
<g id="node19" class="node"><title>Node19</title>
<g id="a_node19"><a xlink:href="dji__version_8hpp.html" target="_top" xlink:title="Drone/SDK Version definition for DJI onboardSDK library. ">
<polygon fill="white" stroke="black" points="139.351,-168.5 139.351,-187.5 221.351,-187.5 221.351,-168.5 139.351,-168.5"/>
<text text-anchor="middle" x="180.351" y="-175.5" font-family="Helvetica,sans-Serif" font-size="10.00">dji_version.hpp</text>
</a>
</g>
</g>
<!-- Node5&#45;&gt;Node19 -->
<g id="edge61" class="edge"><title>Node5&#45;&gt;Node19</title>
<path fill="none" stroke="midnightblue" d="M937.549,-343.501C828.288,-339.185 530.965,-325.391 436.351,-300 344.567,-275.369 245.423,-218.939 202.372,-192.781"/>
<polygon fill="midnightblue" stroke="midnightblue" points="204.181,-189.784 193.827,-187.537 200.519,-195.75 204.181,-189.784"/>
</g>
<!-- Node21 -->
<g id="node21" class="node"><title>Node21</title>
<g id="a_node21"><a xlink:href="dji__gimbal_8hpp.html" target="_top" xlink:title="Gimbal API for OSDK library. ">
<polygon fill="white" stroke="black" points="239.851,-168.5 239.851,-187.5 318.851,-187.5 318.851,-168.5 239.851,-168.5"/>
<text text-anchor="middle" x="279.351" y="-175.5" font-family="Helvetica,sans-Serif" font-size="10.00">dji_gimbal.hpp</text>
</a>
</g>
</g>
<!-- Node5&#45;&gt;Node21 -->
<g id="edge33" class="edge"><title>Node5&#45;&gt;Node21</title>
<path fill="none" stroke="midnightblue" d="M937.607,-343.532C835.507,-339.492 570.932,-326.694 487.351,-300 411.408,-275.746 333.108,-220.417 298.163,-193.817"/>
<polygon fill="midnightblue" stroke="midnightblue" points="300.298,-191.044 290.241,-187.71 296.024,-196.588 300.298,-191.044"/>
</g>
<!-- Node22 -->
<g id="node22" class="node"><title>Node22</title>
<polygon fill="white" stroke="#bfbfbf" points="968.351,-280.5 968.351,-299.5 1066.35,-299.5 1066.35,-280.5 968.351,-280.5"/>
<text text-anchor="middle" x="1017.35" y="-287.5" font-family="Helvetica,sans-Serif" font-size="10.00">dji_hard_driver.hpp</text>
</g>
<!-- Node5&#45;&gt;Node22 -->
<g id="edge36" class="edge"><title>Node5&#45;&gt;Node22</title>
<path fill="none" stroke="midnightblue" d="M984.791,-336.083C990.3,-328.455 998.382,-317.264 1005.12,-307.941"/>
<polygon fill="midnightblue" stroke="midnightblue" points="1008.01,-309.907 1011.03,-299.751 1002.34,-305.809 1008.01,-309.907"/>
</g>
<!-- Node23 -->
<g id="node23" class="node"><title>Node23</title>
<g id="a_node23"><a xlink:href="dji__hardware__sync_8hpp.html" target="_top" xlink:title="Hardware Sync API for DJI OSDK. ">
<polygon fill="white" stroke="black" points="15.3513,-224.5 15.3513,-243.5 131.351,-243.5 131.351,-224.5 15.3513,-224.5"/>
<text text-anchor="middle" x="73.3513" y="-231.5" font-family="Helvetica,sans-Serif" font-size="10.00">dji_hardware_sync.hpp</text>
</a>
</g>
</g>
<!-- Node5&#45;&gt;Node23 -->
<g id="edge37" class="edge"><title>Node5&#45;&gt;Node23</title>
<path fill="none" stroke="midnightblue" d="M937.661,-344.391C780.589,-341.824 218.857,-330.573 145.351,-300 120.687,-289.741 98.9442,-267.24 85.9723,-251.606"/>
<polygon fill="midnightblue" stroke="midnightblue" points="88.677,-249.384 79.7052,-243.749 83.2045,-253.749 88.677,-249.384"/>
</g>
<!-- Node24 -->
<g id="node24" class="node"><title>Node24</title>
<g id="a_node24"><a xlink:href="dji__mfio_8hpp.html" target="_top" xlink:title="MFIO API for DJI OSDK library. ">
<polygon fill="white" stroke="black" points="1198.85,-224.5 1198.85,-243.5 1267.85,-243.5 1267.85,-224.5 1198.85,-224.5"/>
<text text-anchor="middle" x="1233.35" y="-231.5" font-family="Helvetica,sans-Serif" font-size="10.00">dji_mfio.hpp</text>
</a>
</g>
</g>
<!-- Node5&#45;&gt;Node24 -->
<g id="edge39" class="edge"><title>Node5&#45;&gt;Node24</title>
<path fill="none" stroke="midnightblue" d="M1019.06,-344.316C1063.05,-341.809 1133.65,-332.494 1184.35,-300 1202.33,-288.476 1216.16,-267.906 1224.47,-252.986"/>
<polygon fill="midnightblue" stroke="midnightblue" points="1227.78,-254.221 1229.33,-243.741 1221.58,-250.966 1227.78,-254.221"/>
</g>
<!-- Node25 -->
<g id="node25" class="node"><title>Node25</title>
<g id="a_node25"><a xlink:href="dji__mission__manager_8hpp.html" target="_top" xlink:title="Mission&#45;Manager API for DJI OSDK library. ">
<polygon fill="white" stroke="black" points="784.851,-280.5 784.851,-299.5 911.851,-299.5 911.851,-280.5 784.851,-280.5"/>
<text text-anchor="middle" x="848.351" y="-287.5" font-family="Helvetica,sans-Serif" font-size="10.00">dji_mission_manager.hpp</text>
</a>
</g>
</g>
<!-- Node5&#45;&gt;Node25 -->
<g id="edge41" class="edge"><title>Node5&#45;&gt;Node25</title>
<path fill="none" stroke="midnightblue" d="M957.752,-336.444C936.358,-327.557 902.67,-313.563 878.327,-303.451"/>
<polygon fill="midnightblue" stroke="midnightblue" points="879.431,-300.12 868.854,-299.516 876.746,-306.585 879.431,-300.12"/>
</g>
<!-- Node29 -->
<g id="node29" class="node"><title>Node29</title>
<g id="a_node29"><a xlink:href="dji__status_8hpp.html" target="_top" xlink:title="Status information for DJI Vehicle. ">
<polygon fill="white" stroke="black" points="1338.85,-56.5 1338.85,-75.5 1415.85,-75.5 1415.85,-56.5 1338.85,-56.5"/>
<text text-anchor="middle" x="1377.35" y="-63.5" font-family="Helvetica,sans-Serif" font-size="10.00">dji_status.hpp</text>
</a>
</g>
</g>
<!-- Node5&#45;&gt;Node29 -->
<g id="edge52" class="edge"><title>Node5&#45;&gt;Node29</title>
<path fill="none" stroke="midnightblue" d="M1019.13,-343.239C1119.81,-338.535 1374.2,-324.349 1403.35,-300 1426.45,-280.704 1422.35,-265.098 1422.35,-235 1422.35,-235 1422.35,-235 1422.35,-177 1422.35,-141.93 1402.51,-104.939 1389.18,-84.037"/>
<polygon fill="midnightblue" stroke="midnightblue" points="1392.05,-82.031 1383.61,-75.6305 1386.22,-85.8991 1392.05,-82.031"/>
</g>
<!-- Node30 -->
<g id="node30" class="node"><title>Node30</title>
<g id="a_node30"><a xlink:href="dji__subscription_8hpp.html" target="_top" xlink:title="Telemetry Subscription API for DJI OSDK library. ">
<polygon fill="white" stroke="black" points="1285.85,-224.5 1285.85,-243.5 1388.85,-243.5 1388.85,-224.5 1285.85,-224.5"/>
<text text-anchor="middle" x="1337.35" y="-231.5" font-family="Helvetica,sans-Serif" font-size="10.00">dji_subscription.hpp</text>
</a>
</g>
</g>
<!-- Node5&#45;&gt;Node30 -->
<g id="edge54" class="edge"><title>Node5&#45;&gt;Node30</title>
<path fill="none" stroke="midnightblue" d="M1018.88,-340.562C1065.71,-334.649 1144.63,-322.25 1209.35,-300 1248.22,-286.636 1290.14,-263.512 1315.04,-248.751"/>
<polygon fill="midnightblue" stroke="midnightblue" points="1316.94,-251.693 1323.71,-243.541 1313.33,-245.693 1316.94,-251.693"/>
</g>
<!-- Node31 -->
<g id="node31" class="node"><title>Node31</title>
<polygon fill="white" stroke="#bfbfbf" points="1274.35,-280.5 1274.35,-299.5 1394.35,-299.5 1394.35,-280.5 1274.35,-280.5"/>
<text text-anchor="middle" x="1334.35" y="-287.5" font-family="Helvetica,sans-Serif" font-size="10.00">dji_thread_manager.hpp</text>
</g>
<!-- Node5&#45;&gt;Node31 -->
<g id="edge58" class="edge"><title>Node5&#45;&gt;Node31</title>
<path fill="none" stroke="midnightblue" d="M1019.19,-338.806C1080.07,-329.571 1195.25,-312.099 1268.23,-301.029"/>
<polygon fill="midnightblue" stroke="midnightblue" points="1268.88,-304.471 1278.24,-299.511 1267.83,-297.55 1268.88,-304.471"/>
</g>
<!-- Node7&#45;&gt;Node3 -->
<g id="edge11" class="edge"><title>Node7&#45;&gt;Node3</title>
<path fill="none" stroke="midnightblue" d="M1035.2,-224.368C1070.23,-205.292 1154.47,-159.422 1196.55,-136.505"/>
<polygon fill="midnightblue" stroke="midnightblue" points="1198.47,-139.448 1205.57,-131.591 1195.12,-133.3 1198.47,-139.448"/>
</g>
<!-- Node8 -->
<g id="node8" class="node"><title>Node8</title>
<g id="a_node8"><a xlink:href="dji__telemetry_8hpp.html" target="_top" xlink:title="Enumeration of all telemetry data types, structures and maps. ">
<polygon fill="white" stroke="black" points="936.851,-168.5 936.851,-187.5 1027.85,-187.5 1027.85,-168.5 936.851,-168.5"/>
<text text-anchor="middle" x="982.351" y="-175.5" font-family="Helvetica,sans-Serif" font-size="10.00">dji_telemetry.hpp</text>
</a>
</g>
</g>
<!-- Node7&#45;&gt;Node8 -->
<g id="edge7" class="edge"><title>Node7&#45;&gt;Node8</title>
<path fill="none" stroke="midnightblue" d="M1013.24,-224.083C1008.07,-216.534 1000.51,-205.495 994.157,-196.23"/>
<polygon fill="midnightblue" stroke="midnightblue" points="996.887,-194.022 988.347,-187.751 991.112,-197.979 996.887,-194.022"/>
</g>
<!-- Node8&#45;&gt;Node9 -->
<g id="edge8" class="edge"><title>Node8&#45;&gt;Node9</title>
<path fill="none" stroke="midnightblue" d="M936.769,-169.284C933.586,-168.824 930.423,-168.391 927.351,-168 762.138,-146.985 564.628,-132.04 477.898,-125.987"/>
<polygon fill="midnightblue" stroke="midnightblue" points="478.098,-122.493 467.88,-125.294 477.615,-129.476 478.098,-122.493"/>
</g>
<!-- Node10 -->
<g id="node10" class="node"><title>Node10</title>
<polygon fill="white" stroke="#bfbfbf" points="411.851,-56.5 411.851,-75.5 454.851,-75.5 454.851,-56.5 411.851,-56.5"/>
<text text-anchor="middle" x="433.351" y="-63.5" font-family="Helvetica,sans-Serif" font-size="10.00">cstdio</text>
</g>
<!-- Node9&#45;&gt;Node10 -->
<g id="edge9" class="edge"><title>Node9&#45;&gt;Node10</title>
<path fill="none" stroke="midnightblue" d="M433.351,-112.083C433.351,-105.006 433.351,-94.8611 433.351,-85.9865"/>
<polygon fill="midnightblue" stroke="midnightblue" points="436.851,-85.751 433.351,-75.7511 429.851,-85.7511 436.851,-85.751"/>
</g>
<!-- Node11 -->
<g id="node11" class="node"><title>Node11</title>
<polygon fill="white" stroke="#bfbfbf" points="593.851,-0.5 593.851,-19.5 642.851,-19.5 642.851,-0.5 593.851,-0.5"/>
<text text-anchor="middle" x="618.351" y="-7.5" font-family="Helvetica,sans-Serif" font-size="10.00">stdint.h</text>
</g>
<!-- Node9&#45;&gt;Node11 -->
<g id="edge10" class="edge"><title>Node9&#45;&gt;Node11</title>
<path fill="none" stroke="midnightblue" d="M447.868,-112.368C479.749,-93.4121 556.123,-48.0006 594.903,-24.9424"/>
<polygon fill="midnightblue" stroke="midnightblue" points="597.095,-27.7106 603.902,-19.5914 593.518,-21.6938 597.095,-27.7106"/>
</g>
<!-- Node12&#45;&gt;Node9 -->
<g id="edge17" class="edge"><title>Node12&#45;&gt;Node9</title>
<path fill="none" stroke="midnightblue" d="M634.481,-168.444C591.897,-158.822 522.82,-143.215 477.736,-133.028"/>
<polygon fill="midnightblue" stroke="midnightblue" points="478.466,-129.605 467.94,-130.815 476.923,-136.433 478.466,-129.605"/>
</g>
<!-- Node12&#45;&gt;Node13 -->
<g id="edge13" class="edge"><title>Node12&#45;&gt;Node13</title>
<path fill="none" stroke="midnightblue" d="M663.599,-168.083C655.882,-160.22 644.447,-148.569 635.135,-139.081"/>
<polygon fill="midnightblue" stroke="midnightblue" points="637.443,-136.436 627.94,-131.751 632.447,-141.34 637.443,-136.436"/>
</g>
<!-- Node13&#45;&gt;Node11 -->
<g id="edge16" class="edge"><title>Node13&#45;&gt;Node11</title>
<path fill="none" stroke="midnightblue" d="M616.007,-112.197C612.797,-103.24 608.175,-88.8827 606.351,-76 604.115,-60.1995 607.849,-42.3849 611.727,-29.4067"/>
<polygon fill="midnightblue" stroke="midnightblue" points="615.089,-30.386 614.891,-19.793 608.44,-28.1978 615.089,-30.386"/>
</g>
<!-- Node14 -->
<g id="node14" class="node"><title>Node14</title>
<g id="a_node14"><a xlink:href="dji__error_8hpp.html" target="_top" xlink:title="All DJI OSDK OpenProtocol ACK Error Codes. ">
<polygon fill="white" stroke="black" points="615.351,-56.5 615.351,-75.5 685.351,-75.5 685.351,-56.5 615.351,-56.5"/>
<text text-anchor="middle" x="650.351" y="-63.5" font-family="Helvetica,sans-Serif" font-size="10.00">dji_error.hpp</text>
</a>
</g>
</g>
<!-- Node13&#45;&gt;Node14 -->
<g id="edge14" class="edge"><title>Node13&#45;&gt;Node14</title>
<path fill="none" stroke="midnightblue" d="M624.47,-112.083C628.759,-104.613 635.009,-93.7244 640.294,-84.5199"/>
<polygon fill="midnightblue" stroke="midnightblue" points="643.384,-86.1662 645.328,-75.7511 637.313,-82.6811 643.384,-86.1662"/>
</g>
<!-- Node14&#45;&gt;Node11 -->
<g id="edge15" class="edge"><title>Node14&#45;&gt;Node11</title>
<path fill="none" stroke="midnightblue" d="M645.067,-56.083C640.64,-48.6127 634.188,-37.7244 628.733,-28.5199"/>
<polygon fill="midnightblue" stroke="midnightblue" points="631.646,-26.5697 623.537,-19.7511 625.624,-30.1383 631.646,-26.5697"/>
</g>
<!-- Node16&#45;&gt;Node3 -->
<g id="edge32" class="edge"><title>Node16&#45;&gt;Node3</title>
<path fill="none" stroke="midnightblue" d="M550.544,-280.434C588.998,-257.687 699.046,-195.622 799.351,-168 919.489,-134.917 1065.07,-125.906 1150.05,-123.6"/>
<polygon fill="midnightblue" stroke="midnightblue" points="1150.19,-127.097 1160.1,-123.351 1150.02,-120.099 1150.19,-127.097"/>
</g>
<!-- Node16&#45;&gt;Node4 -->
<g id="edge30" class="edge"><title>Node16&#45;&gt;Node4</title>
<path fill="none" stroke="midnightblue" d="M552.56,-280.361C593.166,-258.981 702.913,-202.818 799.351,-168 913.482,-126.794 1052.42,-93.8145 1125.61,-77.7158"/>
<polygon fill="midnightblue" stroke="midnightblue" points="1126.46,-81.1108 1135.49,-75.5571 1124.97,-74.272 1126.46,-81.1108"/>
</g>
<!-- Node16&#45;&gt;Node9 -->
<g id="edge31" class="edge"><title>Node16&#45;&gt;Node9</title>
<path fill="none" stroke="midnightblue" d="M512.356,-280.442C478.683,-266.901 419.092,-236.932 397.351,-188 389.631,-170.623 402.737,-151.706 415.246,-138.785"/>
<polygon fill="midnightblue" stroke="midnightblue" points="417.965,-141.027 422.765,-131.582 413.123,-135.972 417.965,-141.027"/>
</g>
<!-- Node17 -->
<g id="node17" class="node"><title>Node17</title>
<g id="a_node17"><a xlink:href="dji__ack_8hpp.html" target="_top" xlink:title="All DJI OSDK ACK parsing. ">
<polygon fill="white" stroke="black" points="468.351,-224.5 468.351,-243.5 534.351,-243.5 534.351,-224.5 468.351,-224.5"/>
<text text-anchor="middle" x="501.351" y="-231.5" font-family="Helvetica,sans-Serif" font-size="10.00">dji_ack.hpp</text>
</a>
</g>
</g>
<!-- Node16&#45;&gt;Node17 -->
<g id="edge21" class="edge"><title>Node16&#45;&gt;Node17</title>
<path fill="none" stroke="midnightblue" d="M530.572,-280.083C525.679,-272.534 518.524,-261.495 512.519,-252.23"/>
<polygon fill="midnightblue" stroke="midnightblue" points="515.399,-250.239 507.023,-243.751 509.525,-254.046 515.399,-250.239"/>
</g>
<!-- Node17&#45;&gt;Node9 -->
<g id="edge25" class="edge"><title>Node17&#45;&gt;Node9</title>
<path fill="none" stroke="midnightblue" d="M468.266,-227.148C446.036,-221.311 418.337,-209.906 404.351,-188 394.439,-172.475 405.903,-152.992 417.209,-139.423"/>
<polygon fill="midnightblue" stroke="midnightblue" points="419.954,-141.605 424.036,-131.828 414.748,-136.925 419.954,-141.605"/>
</g>
<!-- Node17&#45;&gt;Node13 -->
<g id="edge22" class="edge"><title>Node17&#45;&gt;Node13</title>
<path fill="none" stroke="midnightblue" d="M509.899,-224.454C522.514,-211.898 546.94,-187.812 568.351,-168 579.185,-157.976 591.598,-147.012 601.466,-138.416"/>
<polygon fill="midnightblue" stroke="midnightblue" points="603.804,-141.021 609.065,-131.825 599.217,-135.733 603.804,-141.021"/>
</g>
<!-- Node18 -->
<g id="node18" class="node"><title>Node18</title>
<g id="a_node18"><a xlink:href="dji__mission__type_8hpp_source.html" target="_top" xlink:title="dji_mission_type.hpp">
<polygon fill="white" stroke="black" points="413.351,-168.5 413.351,-187.5 521.351,-187.5 521.351,-168.5 413.351,-168.5"/>
<text text-anchor="middle" x="467.351" y="-175.5" font-family="Helvetica,sans-Serif" font-size="10.00">dji_mission_type.hpp</text>
</a>
</g>
</g>
<!-- Node17&#45;&gt;Node18 -->
<g id="edge23" class="edge"><title>Node17&#45;&gt;Node18</title>
<path fill="none" stroke="midnightblue" d="M495.737,-224.083C490.984,-216.534 484.033,-205.495 478.2,-196.23"/>
<polygon fill="midnightblue" stroke="midnightblue" points="481.151,-194.349 472.861,-187.751 475.228,-198.078 481.151,-194.349"/>
</g>
<!-- Node17&#45;&gt;Node19 -->
<g id="edge26" class="edge"><title>Node17&#45;&gt;Node19</title>
<path fill="none" stroke="midnightblue" d="M467.95,-227.603C418.57,-219.592 322.914,-203.948 231.516,-188.184"/>
<polygon fill="midnightblue" stroke="midnightblue" points="231.994,-184.715 221.544,-186.46 230.802,-191.612 231.994,-184.715"/>
</g>
<!-- Node20 -->
<g id="node20" class="node"><title>Node20</title>
<polygon fill="white" stroke="#bfbfbf" points="577.851,-168.5 577.851,-187.5 612.851,-187.5 612.851,-168.5 577.851,-168.5"/>
<text text-anchor="middle" x="595.351" y="-175.5" font-family="Helvetica,sans-Serif" font-size="10.00">map</text>
</g>
<!-- Node17&#45;&gt;Node20 -->
<g id="edge29" class="edge"><title>Node17&#45;&gt;Node20</title>
<path fill="none" stroke="midnightblue" d="M516.454,-224.324C531.255,-215.822 554.046,-202.729 571.333,-192.797"/>
<polygon fill="midnightblue" stroke="midnightblue" points="573.358,-195.671 580.286,-187.655 569.872,-189.601 573.358,-195.671"/>
</g>
<!-- Node18&#45;&gt;Node9 -->
<g id="edge24" class="edge"><title>Node18&#45;&gt;Node9</title>
<path fill="none" stroke="midnightblue" d="M461.737,-168.083C456.984,-160.534 450.033,-149.495 444.2,-140.23"/>
<polygon fill="midnightblue" stroke="midnightblue" points="447.151,-138.349 438.861,-131.751 441.228,-142.078 447.151,-138.349"/>
</g>
<!-- Node19&#45;&gt;Node6 -->
<g id="edge28" class="edge"><title>Node19&#45;&gt;Node6</title>
<path fill="none" stroke="midnightblue" d="M164.767,-168.324C149.352,-159.743 125.539,-146.486 107.642,-136.522"/>
<polygon fill="midnightblue" stroke="midnightblue" points="109.337,-133.461 98.8973,-131.655 105.932,-139.577 109.337,-133.461"/>
</g>
<!-- Node19&#45;&gt;Node13 -->
<g id="edge27" class="edge"><title>Node19&#45;&gt;Node13</title>
<path fill="none" stroke="midnightblue" d="M221.518,-169.378C224.504,-168.89 227.472,-168.425 230.351,-168 348.061,-150.615 486.64,-135.968 562.536,-128.441"/>
<polygon fill="midnightblue" stroke="midnightblue" points="563.213,-131.892 572.821,-127.427 562.526,-124.925 563.213,-131.892"/>
</g>
<!-- Node21&#45;&gt;Node9 -->
<g id="edge35" class="edge"><title>Node21&#45;&gt;Node9</title>
<path fill="none" stroke="midnightblue" d="M303.753,-168.444C329.548,-159.399 370.428,-145.064 399.369,-134.916"/>
<polygon fill="midnightblue" stroke="midnightblue" points="400.785,-138.128 409.064,-131.516 398.469,-131.523 400.785,-138.128"/>
</g>
<!-- Node21&#45;&gt;Node13 -->
<g id="edge34" class="edge"><title>Node21&#45;&gt;Node13</title>
<path fill="none" stroke="midnightblue" d="M319.019,-170.7C379.085,-161.16 493.403,-143.004 562.365,-132.051"/>
<polygon fill="midnightblue" stroke="midnightblue" points="563.286,-135.448 572.613,-130.423 562.188,-128.535 563.286,-135.448"/>
</g>
<!-- Node23&#45;&gt;Node9 -->
<g id="edge38" class="edge"><title>Node23&#45;&gt;Node9</title>
<path fill="none" stroke="midnightblue" d="M73.8354,-224.215C75.1299,-209.96 79.8848,-181.984 97.3513,-168 141.321,-132.797 307.373,-125.079 388.37,-123.426"/>
<polygon fill="midnightblue" stroke="midnightblue" points="388.812,-126.918 398.746,-123.237 388.685,-119.919 388.812,-126.918"/>
</g>
<!-- Node24&#45;&gt;Node3 -->
<g id="edge40" class="edge"><title>Node24&#45;&gt;Node3</title>
<path fill="none" stroke="midnightblue" d="M1232.41,-224.368C1230.47,-206.617 1226.01,-165.666 1223.38,-141.597"/>
<polygon fill="midnightblue" stroke="midnightblue" points="1226.85,-141.153 1222.29,-131.591 1219.89,-141.912 1226.85,-141.153"/>
</g>
<!-- Node26 -->
<g id="node26" class="node"><title>Node26</title>
<g id="a_node26"><a xlink:href="dji__hotpoint_8hpp.html" target="_top" xlink:title="Implementation of HotPoint (Point of Interest) Missions for DJI OSDK. ">
<polygon fill="white" stroke="black" points="869.851,-224.5 869.851,-243.5 954.851,-243.5 954.851,-224.5 869.851,-224.5"/>
<text text-anchor="middle" x="912.351" y="-231.5" font-family="Helvetica,sans-Serif" font-size="10.00">dji_hotpoint.hpp</text>
</a>
</g>
</g>
<!-- Node25&#45;&gt;Node26 -->
<g id="edge42" class="edge"><title>Node25&#45;&gt;Node26</title>
<path fill="none" stroke="midnightblue" d="M858.634,-280.324C868.188,-272.263 882.631,-260.077 894.136,-250.369"/>
<polygon fill="midnightblue" stroke="midnightblue" points="896.496,-252.958 901.881,-243.834 891.981,-247.608 896.496,-252.958"/>
</g>
<!-- Node28 -->
<g id="node28" class="node"><title>Node28</title>
<g id="a_node28"><a xlink:href="dji__waypoint_8hpp.html" target="_top" xlink:title="Implementation of GPS Waypoint Missions for DJI OSDK. ">
<polygon fill="white" stroke="black" points="762.851,-224.5 762.851,-243.5 851.851,-243.5 851.851,-224.5 762.851,-224.5"/>
<text text-anchor="middle" x="807.351" y="-231.5" font-family="Helvetica,sans-Serif" font-size="10.00">dji_waypoint.hpp</text>
</a>
</g>
</g>
<!-- Node25&#45;&gt;Node28 -->
<g id="edge48" class="edge"><title>Node25&#45;&gt;Node28</title>
<path fill="none" stroke="midnightblue" d="M841.581,-280.083C835.79,-272.455 827.293,-261.264 820.214,-251.941"/>
<polygon fill="midnightblue" stroke="midnightblue" points="822.83,-249.599 813.996,-243.751 817.255,-253.832 822.83,-249.599"/>
</g>
<!-- Node26&#45;&gt;Node8 -->
<g id="edge47" class="edge"><title>Node26&#45;&gt;Node8</title>
<path fill="none" stroke="midnightblue" d="M923.598,-224.324C934.149,-216.185 950.152,-203.839 962.793,-194.087"/>
<polygon fill="midnightblue" stroke="midnightblue" points="965.12,-196.713 970.9,-187.834 960.844,-191.171 965.12,-196.713"/>
</g>
<!-- Node27 -->
<g id="node27" class="node"><title>Node27</title>
<g id="a_node27"><a xlink:href="dji__mission__base_8hpp.html" target="_top" xlink:title="Mission&#45;Base abstract class for DJI OSDK library. ">
<polygon fill="white" stroke="black" points="808.351,-168.5 808.351,-187.5 918.351,-187.5 918.351,-168.5 808.351,-168.5"/>
<text text-anchor="middle" x="863.351" y="-175.5" font-family="Helvetica,sans-Serif" font-size="10.00">dji_mission_base.hpp</text>
</a>
</g>
</g>
<!-- Node26&#45;&gt;Node27 -->
<g id="edge43" class="edge"><title>Node26&#45;&gt;Node27</title>
<path fill="none" stroke="midnightblue" d="M904.26,-224.083C897.196,-216.298 886.764,-204.801 878.202,-195.367"/>
<polygon fill="midnightblue" stroke="midnightblue" points="880.604,-192.805 871.292,-187.751 875.42,-197.509 880.604,-192.805"/>
</g>
<!-- Node27&#45;&gt;Node3 -->
<g id="edge46" class="edge"><title>Node27&#45;&gt;Node3</title>
<path fill="none" stroke="midnightblue" d="M918.504,-168.681C982.121,-159.085 1086.67,-143.315 1154.77,-133.044"/>
<polygon fill="midnightblue" stroke="midnightblue" points="1155.59,-136.459 1164.95,-131.507 1154.54,-129.538 1155.59,-136.459"/>
</g>
<!-- Node27&#45;&gt;Node9 -->
<g id="edge45" class="edge"><title>Node27&#45;&gt;Node9</title>
<path fill="none" stroke="midnightblue" d="M808.017,-170.051C721.835,-159.228 557.242,-138.558 478.069,-128.616"/>
<polygon fill="midnightblue" stroke="midnightblue" points="478.294,-125.117 467.936,-127.343 477.422,-132.062 478.294,-125.117"/>
</g>
<!-- Node27&#45;&gt;Node13 -->
<g id="edge44" class="edge"><title>Node27&#45;&gt;Node13</title>
<path fill="none" stroke="midnightblue" d="M824.689,-168.444C782.213,-159.043 713.92,-143.929 667.877,-133.739"/>
<polygon fill="midnightblue" stroke="midnightblue" points="668.353,-130.26 657.833,-131.516 666.84,-137.095 668.353,-130.26"/>
</g>
<!-- Node28&#45;&gt;Node27 -->
<g id="edge49" class="edge"><title>Node28&#45;&gt;Node27</title>
<path fill="none" stroke="midnightblue" d="M816.349,-224.324C824.546,-216.42 836.857,-204.548 846.823,-194.938"/>
<polygon fill="midnightblue" stroke="midnightblue" points="849.421,-197.295 854.19,-187.834 844.562,-192.256 849.421,-197.295"/>
</g>
<!-- Node29&#45;&gt;Node11 -->
<g id="edge53" class="edge"><title>Node29&#45;&gt;Node11</title>
<path fill="none" stroke="midnightblue" d="M1338.67,-62.2479C1207.17,-52.8919 778.577,-22.3995 653.139,-13.475"/>
<polygon fill="midnightblue" stroke="midnightblue" points="653.182,-9.9693 642.959,-12.7507 652.685,-16.9517 653.182,-9.9693"/>
</g>
<!-- Node30&#45;&gt;Node3 -->
<g id="edge57" class="edge"><title>Node30&#45;&gt;Node3</title>
<path fill="none" stroke="midnightblue" d="M1328.25,-224.368C1308.77,-205.894 1262.79,-162.293 1237.95,-138.744"/>
<polygon fill="midnightblue" stroke="midnightblue" points="1240.08,-135.933 1230.41,-131.591 1235.26,-141.012 1240.08,-135.933"/>
</g>
<!-- Node30&#45;&gt;Node4 -->
<g id="edge55" class="edge"><title>Node30&#45;&gt;Node4</title>
<path fill="none" stroke="midnightblue" d="M1336.46,-224.404C1333.77,-202.634 1323.77,-144.735 1291.35,-112 1275.27,-95.759 1252.63,-85.2407 1231.7,-78.4954"/>
<polygon fill="midnightblue" stroke="midnightblue" points="1232.49,-75.0803 1221.91,-75.5667 1230.49,-81.7866 1232.49,-75.0803"/>
</g>
<!-- Node30&#45;&gt;Node8 -->
<g id="edge56" class="edge"><title>Node30&#45;&gt;Node8</title>
<path fill="none" stroke="midnightblue" d="M1285.73,-225.148C1219.79,-215.118 1106.1,-197.824 1038.19,-187.494"/>
<polygon fill="midnightblue" stroke="midnightblue" points="1038.52,-184.004 1028.11,-185.961 1037.47,-190.925 1038.52,-184.004"/>
</g>
</g>
</svg>
