<?xml version="1.0" encoding="UTF-8" standalone="no"?>
<!DOCTYPE svg PUBLIC "-//W3C//DTD SVG 1.1//EN"
 "http://www.w3.org/Graphics/SVG/1.1/DTD/svg11.dtd">
<!-- Generated by graphviz version 2.38.0 (20140413.2041)
 -->
<!-- Title: osdk&#45;core/api/src/dji_hotpoint.cpp Pages: 1 -->
<svg width="1464pt" height="431pt"
 viewBox="0.00 0.00 1464.12 431.00" xmlns="http://www.w3.org/2000/svg" xmlns:xlink="http://www.w3.org/1999/xlink">
<g id="graph0" class="graph" transform="scale(1 1) rotate(0) translate(4 427)">
<title>osdk&#45;core/api/src/dji_hotpoint.cpp</title>
<polygon fill="white" stroke="none" points="-4,4 -4,-427 1460.12,-427 1460.12,4 -4,4"/>
<!-- Node1 -->
<g id="node1" class="node"><title>Node1</title>
<polygon fill="#bfbfbf" stroke="black" points="957.119,-392.5 957.119,-422.5 1061.12,-422.5 1061.12,-392.5 957.119,-392.5"/>
<text text-anchor="start" x="965.119" y="-410.5" font-family="Helvetica,sans-Serif" font-size="10.00">osdk&#45;core/api/src/dji</text>
<text text-anchor="middle" x="1009.12" y="-399.5" font-family="Helvetica,sans-Serif" font-size="10.00">_hotpoint.cpp</text>
</g>
<!-- Node2 -->
<g id="node2" class="node"><title>Node2</title>
<g id="a_node2"><a xlink:href="dji__hotpoint_8hpp.html" target="_top" xlink:title="Implementation of HotPoint (Point of Interest) Missions for DJI OSDK. ">
<polygon fill="white" stroke="black" points="982.619,-224.5 982.619,-243.5 1067.62,-243.5 1067.62,-224.5 982.619,-224.5"/>
<text text-anchor="middle" x="1025.12" y="-231.5" font-family="Helvetica,sans-Serif" font-size="10.00">dji_hotpoint.hpp</text>
</a>
</g>
</g>
<!-- Node1&#45;&gt;Node2 -->
<g id="edge1" class="edge"><title>Node1&#45;&gt;Node2</title>
<path fill="none" stroke="midnightblue" d="M1022.75,-392.477C1040.23,-373.4 1069.68,-337.345 1081.12,-300 1083.72,-291.501 1084.96,-288.016 1081.12,-280 1074.87,-266.954 1062.78,-256.492 1051.44,-248.951"/>
<polygon fill="midnightblue" stroke="midnightblue" points="1052.97,-245.787 1042.62,-243.535 1049.31,-251.752 1052.97,-245.787"/>
</g>
<!-- Node12 -->
<g id="node12" class="node"><title>Node12</title>
<g id="a_node12"><a xlink:href="dji__mission__manager_8hpp.html" target="_top" xlink:title="Mission&#45;Manager API for DJI OSDK library. ">
<polygon fill="white" stroke="black" points="945.619,-280.5 945.619,-299.5 1072.62,-299.5 1072.62,-280.5 945.619,-280.5"/>
<text text-anchor="middle" x="1009.12" y="-287.5" font-family="Helvetica,sans-Serif" font-size="10.00">dji_mission_manager.hpp</text>
</a>
</g>
</g>
<!-- Node1&#45;&gt;Node12 -->
<g id="edge14" class="edge"><title>Node1&#45;&gt;Node12</title>
<path fill="none" stroke="midnightblue" d="M1009.12,-392.337C1009.12,-371.622 1009.12,-333.016 1009.12,-309.899"/>
<polygon fill="midnightblue" stroke="midnightblue" points="1012.62,-309.669 1009.12,-299.669 1005.62,-309.669 1012.62,-309.669"/>
</g>
<!-- Node14 -->
<g id="node14" class="node"><title>Node14</title>
<g id="a_node14"><a xlink:href="dji__vehicle_8hpp.html" target="_top" xlink:title="Vehicle API for DJI onboardSDK library. ">
<polygon fill="white" stroke="black" points="662.619,-336.5 662.619,-355.5 743.619,-355.5 743.619,-336.5 662.619,-336.5"/>
<text text-anchor="middle" x="703.119" y="-343.5" font-family="Helvetica,sans-Serif" font-size="10.00">dji_vehicle.hpp</text>
</a>
</g>
</g>
<!-- Node1&#45;&gt;Node14 -->
<g id="edge18" class="edge"><title>Node1&#45;&gt;Node14</title>
<path fill="none" stroke="midnightblue" d="M956.864,-396.339C900.138,-385.309 810.153,-367.812 753.98,-356.89"/>
<polygon fill="midnightblue" stroke="midnightblue" points="754.384,-353.403 743.9,-354.93 753.048,-360.274 754.384,-353.403"/>
</g>
<!-- Node3 -->
<g id="node3" class="node"><title>Node3</title>
<g id="a_node3"><a xlink:href="dji__mission__base_8hpp.html" target="_top" xlink:title="Mission&#45;Base abstract class for DJI OSDK library. ">
<polygon fill="white" stroke="black" points="966.119,-168.5 966.119,-187.5 1076.12,-187.5 1076.12,-168.5 966.119,-168.5"/>
<text text-anchor="middle" x="1021.12" y="-175.5" font-family="Helvetica,sans-Serif" font-size="10.00">dji_mission_base.hpp</text>
</a>
</g>
</g>
<!-- Node2&#45;&gt;Node3 -->
<g id="edge2" class="edge"><title>Node2&#45;&gt;Node3</title>
<path fill="none" stroke="midnightblue" d="M1024.46,-224.083C1023.93,-217.006 1023.18,-206.861 1022.53,-197.986"/>
<polygon fill="midnightblue" stroke="midnightblue" points="1026,-197.465 1021.77,-187.751 1019.02,-197.982 1026,-197.465"/>
</g>
<!-- Node11 -->
<g id="node11" class="node"><title>Node11</title>
<g id="a_node11"><a xlink:href="dji__telemetry_8hpp.html" target="_top" xlink:title="Enumeration of all telemetry data types, structures and maps. ">
<polygon fill="white" stroke="black" points="639.619,-168.5 639.619,-187.5 730.619,-187.5 730.619,-168.5 639.619,-168.5"/>
<text text-anchor="middle" x="685.119" y="-175.5" font-family="Helvetica,sans-Serif" font-size="10.00">dji_telemetry.hpp</text>
</a>
</g>
</g>
<!-- Node2&#45;&gt;Node11 -->
<g id="edge12" class="edge"><title>Node2&#45;&gt;Node11</title>
<path fill="none" stroke="midnightblue" d="M982.563,-225.568C979.368,-225.03 976.193,-224.502 973.119,-224 872.417,-207.541 844.678,-204.807 740.74,-188.243"/>
<polygon fill="midnightblue" stroke="midnightblue" points="741.205,-184.774 730.778,-186.651 740.1,-191.686 741.205,-184.774"/>
</g>
<!-- Node4 -->
<g id="node4" class="node"><title>Node4</title>
<g id="a_node4"><a xlink:href="dji__command_8hpp.html" target="_top" xlink:title="All DJI OSDK OpenProtocol Command IDs. ">
<polygon fill="white" stroke="black" points="974.619,-112.5 974.619,-131.5 1067.62,-131.5 1067.62,-112.5 974.619,-112.5"/>
<text text-anchor="middle" x="1021.12" y="-119.5" font-family="Helvetica,sans-Serif" font-size="10.00">dji_command.hpp</text>
</a>
</g>
</g>
<!-- Node3&#45;&gt;Node4 -->
<g id="edge3" class="edge"><title>Node3&#45;&gt;Node4</title>
<path fill="none" stroke="midnightblue" d="M1021.12,-168.083C1021.12,-161.006 1021.12,-150.861 1021.12,-141.986"/>
<polygon fill="midnightblue" stroke="midnightblue" points="1024.62,-141.751 1021.12,-131.751 1017.62,-141.751 1024.62,-141.751"/>
</g>
<!-- Node7 -->
<g id="node7" class="node"><title>Node7</title>
<g id="a_node7"><a xlink:href="dji__type_8hpp.html" target="_top" xlink:title="Data type and Data Structure definitions for use throughout DJI OSDK. ">
<polygon fill="white" stroke="black" points="1171.62,-112.5 1171.62,-131.5 1240.62,-131.5 1240.62,-112.5 1171.62,-112.5"/>
<text text-anchor="middle" x="1206.12" y="-119.5" font-family="Helvetica,sans-Serif" font-size="10.00">dji_type.hpp</text>
</a>
</g>
</g>
<!-- Node3&#45;&gt;Node7 -->
<g id="edge7" class="edge"><title>Node3&#45;&gt;Node7</title>
<path fill="none" stroke="midnightblue" d="M1050.43,-168.444C1081.96,-159.241 1132.25,-144.562 1167.1,-134.388"/>
<polygon fill="midnightblue" stroke="midnightblue" points="1168.32,-137.678 1176.94,-131.516 1166.36,-130.959 1168.32,-137.678"/>
</g>
<!-- Node9 -->
<g id="node9" class="node"><title>Node9</title>
<g id="a_node9"><a xlink:href="dji__vehicle__callback_8hpp.html" target="_top" xlink:title="Type definition for new Vehicle&#45;style callbacks. ">
<polygon fill="white" stroke="black" points="209.119,-112.5 209.119,-131.5 331.119,-131.5 331.119,-112.5 209.119,-112.5"/>
<text text-anchor="middle" x="270.119" y="-119.5" font-family="Helvetica,sans-Serif" font-size="10.00">dji_vehicle_callback.hpp</text>
</a>
</g>
</g>
<!-- Node3&#45;&gt;Node9 -->
<g id="edge10" class="edge"><title>Node3&#45;&gt;Node9</title>
<path fill="none" stroke="midnightblue" d="M965.993,-168.983C962.994,-168.63 960.021,-168.299 957.119,-168 839.293,-155.873 492.128,-135.551 341.358,-126.992"/>
<polygon fill="midnightblue" stroke="midnightblue" points="341.464,-123.492 331.282,-126.421 341.068,-130.481 341.464,-123.492"/>
</g>
<!-- Node5 -->
<g id="node5" class="node"><title>Node5</title>
<g id="a_node5"><a xlink:href="dji__error_8hpp.html" target="_top" xlink:title="All DJI OSDK OpenProtocol ACK Error Codes. ">
<polygon fill="white" stroke="black" points="1049.12,-56.5 1049.12,-75.5 1119.12,-75.5 1119.12,-56.5 1049.12,-56.5"/>
<text text-anchor="middle" x="1084.12" y="-63.5" font-family="Helvetica,sans-Serif" font-size="10.00">dji_error.hpp</text>
</a>
</g>
</g>
<!-- Node4&#45;&gt;Node5 -->
<g id="edge4" class="edge"><title>Node4&#45;&gt;Node5</title>
<path fill="none" stroke="midnightblue" d="M1031.24,-112.324C1040.65,-104.263 1054.86,-92.0765 1066.19,-82.3695"/>
<polygon fill="midnightblue" stroke="midnightblue" points="1068.5,-84.9993 1073.81,-75.8339 1063.94,-79.6844 1068.5,-84.9993"/>
</g>
<!-- Node6 -->
<g id="node6" class="node"><title>Node6</title>
<polygon fill="white" stroke="#bfbfbf" points="1121.62,-0.5 1121.62,-19.5 1170.62,-19.5 1170.62,-0.5 1121.62,-0.5"/>
<text text-anchor="middle" x="1146.12" y="-7.5" font-family="Helvetica,sans-Serif" font-size="10.00">stdint.h</text>
</g>
<!-- Node4&#45;&gt;Node6 -->
<g id="edge6" class="edge"><title>Node4&#45;&gt;Node6</title>
<path fill="none" stroke="midnightblue" d="M1021.37,-112.303C1022.22,-98.6722 1025.74,-72.1655 1040.12,-56 1058.64,-35.1778 1088.41,-23.6898 1111.69,-17.5443"/>
<polygon fill="midnightblue" stroke="midnightblue" points="1112.65,-20.9129 1121.55,-15.154 1111,-14.1102 1112.65,-20.9129"/>
</g>
<!-- Node5&#45;&gt;Node6 -->
<g id="edge5" class="edge"><title>Node5&#45;&gt;Node6</title>
<path fill="none" stroke="midnightblue" d="M1094.08,-56.324C1103.25,-48.3414 1117.06,-36.3128 1128.15,-26.6529"/>
<polygon fill="midnightblue" stroke="midnightblue" points="1130.73,-29.041 1135.98,-19.8339 1126.14,-23.7624 1130.73,-29.041"/>
</g>
<!-- Node7&#45;&gt;Node6 -->
<g id="edge9" class="edge"><title>Node7&#45;&gt;Node6</title>
<path fill="none" stroke="midnightblue" d="M1205.27,-112.493C1203.69,-99.5688 1199.47,-74.5354 1189.12,-56 1182.97,-44.9894 1173.49,-34.6658 1165,-26.691"/>
<polygon fill="midnightblue" stroke="midnightblue" points="1167.09,-23.8647 1157.29,-19.8191 1162.43,-29.0881 1167.09,-23.8647"/>
</g>
<!-- Node8 -->
<g id="node8" class="node"><title>Node8</title>
<polygon fill="white" stroke="#bfbfbf" points="1137.62,-56.5 1137.62,-75.5 1180.62,-75.5 1180.62,-56.5 1137.62,-56.5"/>
<text text-anchor="middle" x="1159.12" y="-63.5" font-family="Helvetica,sans-Serif" font-size="10.00">cstdio</text>
</g>
<!-- Node7&#45;&gt;Node8 -->
<g id="edge8" class="edge"><title>Node7&#45;&gt;Node8</title>
<path fill="none" stroke="midnightblue" d="M1198.36,-112.083C1191.58,-104.298 1181.58,-92.8015 1173.36,-83.3665"/>
<polygon fill="midnightblue" stroke="midnightblue" points="1175.94,-80.9963 1166.74,-75.7511 1170.66,-85.592 1175.94,-80.9963"/>
</g>
<!-- Node10 -->
<g id="node10" class="node"><title>Node10</title>
<polygon fill="white" stroke="#bfbfbf" points="258.619,-56.5 258.619,-75.5 369.619,-75.5 369.619,-56.5 258.619,-56.5"/>
<text text-anchor="middle" x="314.119" y="-63.5" font-family="Helvetica,sans-Serif" font-size="10.00">dji_open_protocol.hpp</text>
</g>
<!-- Node9&#45;&gt;Node10 -->
<g id="edge11" class="edge"><title>Node9&#45;&gt;Node10</title>
<path fill="none" stroke="midnightblue" d="M277.385,-112.083C283.664,-104.377 292.907,-93.0333 300.55,-83.6531"/>
<polygon fill="midnightblue" stroke="midnightblue" points="303.385,-85.7143 306.989,-75.7511 297.959,-81.2926 303.385,-85.7143"/>
</g>
<!-- Node11&#45;&gt;Node7 -->
<g id="edge13" class="edge"><title>Node11&#45;&gt;Node7</title>
<path fill="none" stroke="midnightblue" d="M730.751,-169.167C733.58,-168.752 736.386,-168.359 739.119,-168 893.624,-147.705 1078.02,-132.612 1161.34,-126.28"/>
<polygon fill="midnightblue" stroke="midnightblue" points="1161.75,-129.758 1171.46,-125.516 1161.23,-122.778 1161.75,-129.758"/>
</g>
<!-- Node12&#45;&gt;Node2 -->
<g id="edge15" class="edge"><title>Node12&#45;&gt;Node2</title>
<path fill="none" stroke="midnightblue" d="M1011.76,-280.083C1013.9,-272.849 1017,-262.409 1019.67,-253.397"/>
<polygon fill="midnightblue" stroke="midnightblue" points="1023.04,-254.333 1022.53,-243.751 1016.33,-252.345 1023.04,-254.333"/>
</g>
<!-- Node13 -->
<g id="node13" class="node"><title>Node13</title>
<g id="a_node13"><a xlink:href="dji__waypoint_8hpp.html" target="_top" xlink:title="Implementation of GPS Waypoint Missions for DJI OSDK. ">
<polygon fill="white" stroke="black" points="875.619,-224.5 875.619,-243.5 964.619,-243.5 964.619,-224.5 875.619,-224.5"/>
<text text-anchor="middle" x="920.119" y="-231.5" font-family="Helvetica,sans-Serif" font-size="10.00">dji_waypoint.hpp</text>
</a>
</g>
</g>
<!-- Node12&#45;&gt;Node13 -->
<g id="edge16" class="edge"><title>Node12&#45;&gt;Node13</title>
<path fill="none" stroke="midnightblue" d="M994.82,-280.324C980.936,-271.9 959.627,-258.971 943.315,-249.074"/>
<polygon fill="midnightblue" stroke="midnightblue" points="944.748,-245.85 934.383,-243.655 941.117,-251.834 944.748,-245.85"/>
</g>
<!-- Node13&#45;&gt;Node3 -->
<g id="edge17" class="edge"><title>Node13&#45;&gt;Node3</title>
<path fill="none" stroke="midnightblue" d="M936.347,-224.324C952.47,-215.703 977.419,-202.364 996.083,-192.386"/>
<polygon fill="midnightblue" stroke="midnightblue" points="997.764,-195.456 1004.93,-187.655 994.463,-189.283 997.764,-195.456"/>
</g>
<!-- Node14&#45;&gt;Node4 -->
<g id="edge27" class="edge"><title>Node14&#45;&gt;Node4</title>
<path fill="none" stroke="midnightblue" d="M743.647,-341.481C795.019,-336.084 879.193,-323.791 898.119,-300 903.653,-293.044 901.278,-288.309 898.119,-280 890.511,-259.99 878.948,-261.137 866.119,-244 848.53,-220.504 839.211,-216.213 831.119,-188 828.669,-179.456 825.605,-174.972 831.119,-168 847.545,-147.229 914.69,-135.05 964.528,-128.712"/>
<polygon fill="midnightblue" stroke="midnightblue" points="965.059,-132.174 974.56,-127.485 964.209,-125.225 965.059,-132.174"/>
</g>
<!-- Node14&#45;&gt;Node7 -->
<g id="edge60" class="edge"><title>Node14&#45;&gt;Node7</title>
<path fill="none" stroke="midnightblue" d="M743.987,-343.969C859.571,-340.719 1187.09,-329.13 1290.12,-300 1342.53,-285.181 1370.74,-290.486 1399.12,-244 1413.15,-221.012 1386.76,-176.57 1377.12,-168 1342.42,-137.139 1289.02,-127.037 1251.13,-123.937"/>
<polygon fill="midnightblue" stroke="midnightblue" points="1251.1,-120.427 1240.89,-123.237 1250.63,-127.411 1251.1,-120.427"/>
</g>
<!-- Node14&#45;&gt;Node9 -->
<g id="edge61" class="edge"><title>Node14&#45;&gt;Node9</title>
<path fill="none" stroke="midnightblue" d="M662.373,-343.146C564.35,-338.321 321.43,-324.046 294.119,-300 248.77,-260.072 258.549,-178.389 265.81,-141.642"/>
<polygon fill="midnightblue" stroke="midnightblue" points="269.251,-142.286 267.918,-131.776 262.405,-140.823 269.251,-142.286"/>
</g>
<!-- Node14&#45;&gt;Node10 -->
<g id="edge52" class="edge"><title>Node14&#45;&gt;Node10</title>
<path fill="none" stroke="midnightblue" d="M662.456,-344.99C523.045,-344.595 70.231,-340.201 20.1192,-300 -3.35762,-281.166 1.11921,-265.098 1.11921,-235 1.11921,-235 1.11921,-235 1.11921,-177 1.11921,-125.022 156.695,-91.6594 248.48,-76.4995"/>
<polygon fill="midnightblue" stroke="midnightblue" points="249.211,-79.9267 258.522,-74.8713 248.09,-73.017 249.211,-79.9267"/>
</g>
<!-- Node14&#45;&gt;Node12 -->
<g id="edge49" class="edge"><title>Node14&#45;&gt;Node12</title>
<path fill="none" stroke="midnightblue" d="M743.754,-337.829C796.774,-328.473 889.919,-312.035 950.558,-301.334"/>
<polygon fill="midnightblue" stroke="midnightblue" points="951.503,-304.722 960.742,-299.537 950.286,-297.828 951.503,-304.722"/>
</g>
<!-- Node15 -->
<g id="node15" class="node"><title>Node15</title>
<polygon fill="white" stroke="#bfbfbf" points="446.119,-112.5 446.119,-131.5 492.119,-131.5 492.119,-112.5 446.119,-112.5"/>
<text text-anchor="middle" x="469.119" y="-119.5" font-family="Helvetica,sans-Serif" font-size="10.00">cstdint</text>
</g>
<!-- Node14&#45;&gt;Node15 -->
<g id="edge19" class="edge"><title>Node14&#45;&gt;Node15</title>
<path fill="none" stroke="midnightblue" d="M662.295,-340.924C608.762,-334.804 518.746,-321.596 494.119,-300 448.03,-259.583 444.3,-228.51 454.119,-168 455.587,-158.957 458.612,-149.275 461.563,-141.218"/>
<polygon fill="midnightblue" stroke="midnightblue" points="464.882,-142.339 465.264,-131.751 458.363,-139.791 464.882,-142.339"/>
</g>
<!-- Node16 -->
<g id="node16" class="node"><title>Node16</title>
<g id="a_node16"><a xlink:href="dji__broadcast_8hpp.html" target="_top" xlink:title="Broadcast Telemetry API for DJI onboardSDK library. ">
<polygon fill="white" stroke="black" points="621.619,-224.5 621.619,-243.5 714.619,-243.5 714.619,-224.5 621.619,-224.5"/>
<text text-anchor="middle" x="668.119" y="-231.5" font-family="Helvetica,sans-Serif" font-size="10.00">dji_broadcast.hpp</text>
</a>
</g>
</g>
<!-- Node14&#45;&gt;Node16 -->
<g id="edge20" class="edge"><title>Node14&#45;&gt;Node16</title>
<path fill="none" stroke="midnightblue" d="M709.522,-336.282C718.056,-323.514 731.095,-299.165 722.119,-280 716.074,-267.094 704.307,-256.599 693.297,-249"/>
<polygon fill="midnightblue" stroke="midnightblue" points="695.063,-245.975 684.752,-243.536 691.292,-251.872 695.063,-245.975"/>
</g>
<!-- Node17 -->
<g id="node17" class="node"><title>Node17</title>
<g id="a_node17"><a xlink:href="dji__camera_8hpp.html" target="_top" xlink:title="Camera/Gimbal API for DJI onboardSDK library. ">
<polygon fill="white" stroke="black" points="1094.62,-168.5 1094.62,-187.5 1177.62,-187.5 1177.62,-168.5 1094.62,-168.5"/>
<text text-anchor="middle" x="1136.12" y="-175.5" font-family="Helvetica,sans-Serif" font-size="10.00">dji_camera.hpp</text>
</a>
</g>
</g>
<!-- Node14&#45;&gt;Node17 -->
<g id="edge23" class="edge"><title>Node14&#45;&gt;Node17</title>
<path fill="none" stroke="midnightblue" d="M743.748,-345.068C830.068,-344.446 1028.17,-338.714 1081.12,-300 1114.86,-275.332 1128.39,-224.999 1133.42,-197.667"/>
<polygon fill="midnightblue" stroke="midnightblue" points="1136.92,-197.938 1135.08,-187.503 1130.01,-196.804 1136.92,-197.938"/>
</g>
<!-- Node18 -->
<g id="node18" class="node"><title>Node18</title>
<polygon fill="white" stroke="#bfbfbf" points="311.119,-280.5 311.119,-299.5 423.119,-299.5 423.119,-280.5 311.119,-280.5"/>
<text text-anchor="middle" x="367.119" y="-287.5" font-family="Helvetica,sans-Serif" font-size="10.00">dji_circular_buffer.hpp</text>
</g>
<!-- Node14&#45;&gt;Node18 -->
<g id="edge26" class="edge"><title>Node14&#45;&gt;Node18</title>
<path fill="none" stroke="midnightblue" d="M662.59,-338.486C604.898,-329.214 498.554,-312.123 430.418,-301.173"/>
<polygon fill="midnightblue" stroke="midnightblue" points="430.667,-297.668 420.238,-299.537 429.556,-304.58 430.667,-297.668"/>
</g>
<!-- Node19 -->
<g id="node19" class="node"><title>Node19</title>
<g id="a_node19"><a xlink:href="dji__control_8hpp.html" target="_top" xlink:title="Control API for DJI OSDK library. ">
<polygon fill="white" stroke="black" points="517.119,-280.5 517.119,-299.5 597.119,-299.5 597.119,-280.5 517.119,-280.5"/>
<text text-anchor="middle" x="557.119" y="-287.5" font-family="Helvetica,sans-Serif" font-size="10.00">dji_control.hpp</text>
</a>
</g>
</g>
<!-- Node14&#45;&gt;Node19 -->
<g id="edge28" class="edge"><title>Node14&#45;&gt;Node19</title>
<path fill="none" stroke="midnightblue" d="M679.985,-336.444C655.637,-327.438 617.112,-313.189 589.696,-303.049"/>
<polygon fill="midnightblue" stroke="midnightblue" points="590.738,-299.703 580.145,-299.516 588.31,-306.268 590.738,-299.703"/>
</g>
<!-- Node22 -->
<g id="node22" class="node"><title>Node22</title>
<g id="a_node22"><a xlink:href="dji__version_8hpp.html" target="_top" xlink:title="Drone/SDK Version definition for DJI onboardSDK library. ">
<polygon fill="white" stroke="black" points="463.119,-168.5 463.119,-187.5 545.119,-187.5 545.119,-168.5 463.119,-168.5"/>
<text text-anchor="middle" x="504.119" y="-175.5" font-family="Helvetica,sans-Serif" font-size="10.00">dji_version.hpp</text>
</a>
</g>
</g>
<!-- Node14&#45;&gt;Node22 -->
<g id="edge62" class="edge"><title>Node14&#45;&gt;Node22</title>
<path fill="none" stroke="midnightblue" d="M662.268,-341.339C610.987,-335.813 527.381,-323.408 508.119,-300 484.164,-270.887 491.815,-223.166 498.541,-197.207"/>
<polygon fill="midnightblue" stroke="midnightblue" points="501.924,-198.107 501.272,-187.532 495.187,-196.205 501.924,-198.107"/>
</g>
<!-- Node24 -->
<g id="node24" class="node"><title>Node24</title>
<g id="a_node24"><a xlink:href="dji__gimbal_8hpp.html" target="_top" xlink:title="Gimbal API for OSDK library. ">
<polygon fill="white" stroke="black" points="1272.62,-168.5 1272.62,-187.5 1351.62,-187.5 1351.62,-168.5 1272.62,-168.5"/>
<text text-anchor="middle" x="1312.12" y="-175.5" font-family="Helvetica,sans-Serif" font-size="10.00">dji_gimbal.hpp</text>
</a>
</g>
</g>
<!-- Node14&#45;&gt;Node24 -->
<g id="edge41" class="edge"><title>Node14&#45;&gt;Node24</title>
<path fill="none" stroke="midnightblue" d="M743.633,-344.9C817.12,-343.75 976.676,-336.787 1105.12,-300 1181.53,-278.116 1259.11,-221.565 1293.61,-194.234"/>
<polygon fill="midnightblue" stroke="midnightblue" points="1296.2,-196.646 1301.8,-187.652 1291.81,-191.191 1296.2,-196.646"/>
</g>
<!-- Node25 -->
<g id="node25" class="node"><title>Node25</title>
<polygon fill="white" stroke="#bfbfbf" points="615.119,-280.5 615.119,-299.5 713.119,-299.5 713.119,-280.5 615.119,-280.5"/>
<text text-anchor="middle" x="664.119" y="-287.5" font-family="Helvetica,sans-Serif" font-size="10.00">dji_hard_driver.hpp</text>
</g>
<!-- Node14&#45;&gt;Node25 -->
<g id="edge44" class="edge"><title>Node14&#45;&gt;Node25</title>
<path fill="none" stroke="midnightblue" d="M696.679,-336.083C691.17,-328.455 683.088,-317.264 676.354,-307.941"/>
<polygon fill="midnightblue" stroke="midnightblue" points="679.132,-305.809 670.439,-299.751 673.457,-309.907 679.132,-305.809"/>
</g>
<!-- Node26 -->
<g id="node26" class="node"><title>Node26</title>
<g id="a_node26"><a xlink:href="dji__hardware__sync_8hpp.html" target="_top" xlink:title="Hardware Sync API for DJI OSDK. ">
<polygon fill="white" stroke="black" points="1274.12,-224.5 1274.12,-243.5 1390.12,-243.5 1390.12,-224.5 1274.12,-224.5"/>
<text text-anchor="middle" x="1332.12" y="-231.5" font-family="Helvetica,sans-Serif" font-size="10.00">dji_hardware_sync.hpp</text>
</a>
</g>
</g>
<!-- Node14&#45;&gt;Node26 -->
<g id="edge45" class="edge"><title>Node14&#45;&gt;Node26</title>
<path fill="none" stroke="midnightblue" d="M743.941,-345.067C856.183,-344.724 1167.26,-340.081 1260.12,-300 1284.64,-289.414 1306.42,-266.99 1319.44,-251.464"/>
<polygon fill="midnightblue" stroke="midnightblue" points="1322.17,-253.646 1325.73,-243.666 1316.73,-249.25 1322.17,-253.646"/>
</g>
<!-- Node27 -->
<g id="node27" class="node"><title>Node27</title>
<g id="a_node27"><a xlink:href="dji__mfio_8hpp.html" target="_top" xlink:title="MFIO API for DJI OSDK library. ">
<polygon fill="white" stroke="black" points="147.619,-224.5 147.619,-243.5 216.619,-243.5 216.619,-224.5 147.619,-224.5"/>
<text text-anchor="middle" x="182.119" y="-231.5" font-family="Helvetica,sans-Serif" font-size="10.00">dji_mfio.hpp</text>
</a>
</g>
</g>
<!-- Node14&#45;&gt;Node27 -->
<g id="edge47" class="edge"><title>Node14&#45;&gt;Node27</title>
<path fill="none" stroke="midnightblue" d="M662.418,-345.257C561.871,-345.246 304.579,-341.085 231.119,-300 212.098,-289.362 198.212,-267.952 190.177,-252.609"/>
<polygon fill="midnightblue" stroke="midnightblue" points="193.292,-251.014 185.746,-243.577 187.008,-254.097 193.292,-251.014"/>
</g>
<!-- Node28 -->
<g id="node28" class="node"><title>Node28</title>
<g id="a_node28"><a xlink:href="dji__mobile__communication_8hpp.html" target="_top" xlink:title="Implementation of DJI Mobile&#45;Onboard SDK Communication (MOC) ">
<polygon fill="white" stroke="black" points="29.1192,-280.5 29.1192,-299.5 179.119,-299.5 179.119,-280.5 29.1192,-280.5"/>
<text text-anchor="middle" x="104.119" y="-287.5" font-family="Helvetica,sans-Serif" font-size="10.00">dji_mobile_communication.hpp</text>
</a>
</g>
</g>
<!-- Node14&#45;&gt;Node28 -->
<g id="edge50" class="edge"><title>Node14&#45;&gt;Node28</title>
<path fill="none" stroke="midnightblue" d="M662.446,-341.589C576.011,-334.301 367.666,-316.525 193.119,-300 191.998,-299.894 190.869,-299.787 189.734,-299.678"/>
<polygon fill="midnightblue" stroke="midnightblue" points="189.665,-296.155 179.375,-298.678 188.993,-303.123 189.665,-296.155"/>
</g>
<!-- Node29 -->
<g id="node29" class="node"><title>Node29</title>
<g id="a_node29"><a xlink:href="dji__status_8hpp.html" target="_top" xlink:title="Status information for DJI Vehicle. ">
<polygon fill="white" stroke="black" points="1327.62,-56.5 1327.62,-75.5 1404.62,-75.5 1404.62,-56.5 1327.62,-56.5"/>
<text text-anchor="middle" x="1366.12" y="-63.5" font-family="Helvetica,sans-Serif" font-size="10.00">dji_status.hpp</text>
</a>
</g>
</g>
<!-- Node14&#45;&gt;Node29 -->
<g id="edge53" class="edge"><title>Node14&#45;&gt;Node29</title>
<path fill="none" stroke="midnightblue" d="M743.625,-344.469C865.7,-342.504 1228.55,-333.891 1341.12,-300 1397.34,-283.075 1456.12,-293.71 1456.12,-235 1456.12,-235 1456.12,-235 1456.12,-177 1456.12,-134.658 1415.68,-99.6551 1389.02,-81.1778"/>
<polygon fill="midnightblue" stroke="midnightblue" points="1390.84,-78.1893 1380.58,-75.5584 1386.96,-84.0152 1390.84,-78.1893"/>
</g>
<!-- Node30 -->
<g id="node30" class="node"><title>Node30</title>
<g id="a_node30"><a xlink:href="dji__subscription_8hpp.html" target="_top" xlink:title="Telemetry Subscription API for DJI OSDK library. ">
<polygon fill="white" stroke="black" points="311.619,-224.5 311.619,-243.5 414.619,-243.5 414.619,-224.5 311.619,-224.5"/>
<text text-anchor="middle" x="363.119" y="-231.5" font-family="Helvetica,sans-Serif" font-size="10.00">dji_subscription.hpp</text>
</a>
</g>
</g>
<!-- Node14&#45;&gt;Node30 -->
<g id="edge55" class="edge"><title>Node14&#45;&gt;Node30</title>
<path fill="none" stroke="midnightblue" d="M662.439,-343.451C565.255,-339.333 325.874,-326.57 302.119,-300 285.91,-281.871 312.585,-261.507 335.603,-248.483"/>
<polygon fill="midnightblue" stroke="midnightblue" points="337.325,-251.531 344.468,-243.706 334.004,-245.368 337.325,-251.531"/>
</g>
<!-- Node31 -->
<g id="node31" class="node"><title>Node31</title>
<polygon fill="white" stroke="#bfbfbf" points="769.119,-280.5 769.119,-299.5 889.119,-299.5 889.119,-280.5 769.119,-280.5"/>
<text text-anchor="middle" x="829.119" y="-287.5" font-family="Helvetica,sans-Serif" font-size="10.00">dji_thread_manager.hpp</text>
</g>
<!-- Node14&#45;&gt;Node31 -->
<g id="edge59" class="edge"><title>Node14&#45;&gt;Node31</title>
<path fill="none" stroke="midnightblue" d="M723.084,-336.444C743.728,-327.596 776.182,-313.687 799.751,-303.586"/>
<polygon fill="midnightblue" stroke="midnightblue" points="801.435,-306.673 809.248,-299.516 798.677,-300.239 801.435,-306.673"/>
</g>
<!-- Node16&#45;&gt;Node9 -->
<g id="edge22" class="edge"><title>Node16&#45;&gt;Node9</title>
<path fill="none" stroke="midnightblue" d="M621.353,-225.01C577.708,-217.12 510.962,-203.941 454.119,-188 399.255,-172.614 337.062,-149.389 300.85,-135.266"/>
<polygon fill="midnightblue" stroke="midnightblue" points="301.94,-131.934 291.353,-131.538 299.382,-138.45 301.94,-131.934"/>
</g>
<!-- Node16&#45;&gt;Node11 -->
<g id="edge21" class="edge"><title>Node16&#45;&gt;Node11</title>
<path fill="none" stroke="midnightblue" d="M670.926,-224.083C673.204,-216.849 676.491,-206.409 679.328,-197.397"/>
<polygon fill="midnightblue" stroke="midnightblue" points="682.7,-198.341 682.364,-187.751 676.023,-196.239 682.7,-198.341"/>
</g>
<!-- Node17&#45;&gt;Node4 -->
<g id="edge24" class="edge"><title>Node17&#45;&gt;Node4</title>
<path fill="none" stroke="midnightblue" d="M1117.9,-168.444C1099.22,-159.675 1069.96,-145.935 1048.5,-135.858"/>
<polygon fill="midnightblue" stroke="midnightblue" points="1049.8,-132.599 1039.26,-131.516 1046.82,-138.935 1049.8,-132.599"/>
</g>
<!-- Node17&#45;&gt;Node7 -->
<g id="edge25" class="edge"><title>Node17&#45;&gt;Node7</title>
<path fill="none" stroke="midnightblue" d="M1147.37,-168.324C1157.92,-160.185 1173.92,-147.839 1186.56,-138.087"/>
<polygon fill="midnightblue" stroke="midnightblue" points="1188.89,-140.713 1194.67,-131.834 1184.61,-135.171 1188.89,-140.713"/>
</g>
<!-- Node19&#45;&gt;Node7 -->
<g id="edge39" class="edge"><title>Node19&#45;&gt;Node7</title>
<path fill="none" stroke="midnightblue" d="M597.177,-281.288C600.197,-280.815 603.203,-280.378 606.119,-280 813.878,-253.039 872.634,-293.841 1076.12,-244 1137.62,-228.936 1172.24,-240.845 1207.12,-188 1216.05,-174.473 1214.64,-155.668 1211.69,-141.763"/>
<polygon fill="midnightblue" stroke="midnightblue" points="1215.03,-140.678 1209.16,-131.856 1208.24,-142.412 1215.03,-140.678"/>
</g>
<!-- Node19&#45;&gt;Node9 -->
<g id="edge40" class="edge"><title>Node19&#45;&gt;Node9</title>
<path fill="none" stroke="midnightblue" d="M516.994,-287.078C453.238,-283.201 332.854,-272.259 302.119,-244 273.416,-217.609 269.229,-168.763 269.292,-141.91"/>
<polygon fill="midnightblue" stroke="midnightblue" points="272.799,-141.656 269.534,-131.577 265.801,-141.493 272.799,-141.656"/>
</g>
<!-- Node19&#45;&gt;Node10 -->
<g id="edge38" class="edge"><title>Node19&#45;&gt;Node10</title>
<path fill="none" stroke="midnightblue" d="M558.936,-280.357C562.817,-259.891 570.309,-207.238 554.119,-168 541.048,-136.322 530.78,-129.162 501.119,-112 464.265,-90.6762 417.73,-79.4305 380.302,-73.5136"/>
<polygon fill="midnightblue" stroke="midnightblue" points="380.409,-69.9911 370.003,-71.9821 379.379,-76.9149 380.409,-69.9911"/>
</g>
<!-- Node20 -->
<g id="node20" class="node"><title>Node20</title>
<g id="a_node20"><a xlink:href="dji__ack_8hpp.html" target="_top" xlink:title="All DJI OSDK ACK parsing. ">
<polygon fill="white" stroke="black" points="733.119,-224.5 733.119,-243.5 799.119,-243.5 799.119,-224.5 733.119,-224.5"/>
<text text-anchor="middle" x="766.119" y="-231.5" font-family="Helvetica,sans-Serif" font-size="10.00">dji_ack.hpp</text>
</a>
</g>
</g>
<!-- Node19&#45;&gt;Node20 -->
<g id="edge29" class="edge"><title>Node19&#45;&gt;Node20</title>
<path fill="none" stroke="midnightblue" d="M590.236,-280.444C626.237,-271.142 683.889,-256.246 723.305,-246.062"/>
<polygon fill="midnightblue" stroke="midnightblue" points="724.351,-249.407 733.157,-243.516 722.6,-242.629 724.351,-249.407"/>
</g>
<!-- Node20&#45;&gt;Node4 -->
<g id="edge30" class="edge"><title>Node20&#45;&gt;Node4</title>
<path fill="none" stroke="midnightblue" d="M733.823,-224.445C695.622,-214.003 636.382,-196.669 630.119,-188 624.914,-180.795 624.204,-174.635 630.119,-168 651.962,-143.499 861.298,-130.426 964.361,-125.429"/>
<polygon fill="midnightblue" stroke="midnightblue" points="964.769,-128.914 974.591,-124.943 964.436,-121.922 964.769,-128.914"/>
</g>
<!-- Node20&#45;&gt;Node7 -->
<g id="edge33" class="edge"><title>Node20&#45;&gt;Node7</title>
<path fill="none" stroke="midnightblue" d="M799.449,-229.92C897.51,-220.796 1178.65,-194.16 1186.12,-188 1199.62,-176.867 1204.19,-156.837 1205.65,-141.943"/>
<polygon fill="midnightblue" stroke="midnightblue" points="1209.15,-141.978 1206.25,-131.788 1202.17,-141.563 1209.15,-141.978"/>
</g>
<!-- Node21 -->
<g id="node21" class="node"><title>Node21</title>
<g id="a_node21"><a xlink:href="dji__mission__type_8hpp_source.html" target="_top" xlink:title="dji_mission_type.hpp">
<polygon fill="white" stroke="black" points="840.119,-168.5 840.119,-187.5 948.119,-187.5 948.119,-168.5 840.119,-168.5"/>
<text text-anchor="middle" x="894.119" y="-175.5" font-family="Helvetica,sans-Serif" font-size="10.00">dji_mission_type.hpp</text>
</a>
</g>
</g>
<!-- Node20&#45;&gt;Node21 -->
<g id="edge31" class="edge"><title>Node20&#45;&gt;Node21</title>
<path fill="none" stroke="midnightblue" d="M786.401,-224.444C807.467,-215.557 840.636,-201.563 864.605,-191.451"/>
<polygon fill="midnightblue" stroke="midnightblue" points="866.079,-194.628 873.932,-187.516 863.358,-188.179 866.079,-194.628"/>
</g>
<!-- Node20&#45;&gt;Node22 -->
<g id="edge34" class="edge"><title>Node20&#45;&gt;Node22</title>
<path fill="none" stroke="midnightblue" d="M732.787,-226.011C729.521,-225.33 726.256,-224.651 723.119,-224 665.646,-212.081 599.656,-198.541 555.265,-189.454"/>
<polygon fill="midnightblue" stroke="midnightblue" points="555.798,-185.991 545.299,-187.415 554.394,-192.849 555.798,-185.991"/>
</g>
<!-- Node23 -->
<g id="node23" class="node"><title>Node23</title>
<polygon fill="white" stroke="#bfbfbf" points="748.619,-168.5 748.619,-187.5 783.619,-187.5 783.619,-168.5 748.619,-168.5"/>
<text text-anchor="middle" x="766.119" y="-175.5" font-family="Helvetica,sans-Serif" font-size="10.00">map</text>
</g>
<!-- Node20&#45;&gt;Node23 -->
<g id="edge37" class="edge"><title>Node20&#45;&gt;Node23</title>
<path fill="none" stroke="midnightblue" d="M766.119,-224.083C766.119,-217.006 766.119,-206.861 766.119,-197.986"/>
<polygon fill="midnightblue" stroke="midnightblue" points="769.619,-197.751 766.119,-187.751 762.619,-197.751 769.619,-197.751"/>
</g>
<!-- Node21&#45;&gt;Node7 -->
<g id="edge32" class="edge"><title>Node21&#45;&gt;Node7</title>
<path fill="none" stroke="midnightblue" d="M943.557,-168.444C1003.53,-158.063 1103.76,-140.716 1161.48,-130.725"/>
<polygon fill="midnightblue" stroke="midnightblue" points="1162.15,-134.163 1171.4,-129.008 1160.95,-127.265 1162.15,-134.163"/>
</g>
<!-- Node22&#45;&gt;Node4 -->
<g id="edge35" class="edge"><title>Node22&#45;&gt;Node4</title>
<path fill="none" stroke="midnightblue" d="M545.119,-172.718C636.995,-163.121 859.523,-139.879 964.506,-128.913"/>
<polygon fill="midnightblue" stroke="midnightblue" points="965.011,-132.38 974.594,-127.86 964.284,-125.417 965.011,-132.38"/>
</g>
<!-- Node22&#45;&gt;Node15 -->
<g id="edge36" class="edge"><title>Node22&#45;&gt;Node15</title>
<path fill="none" stroke="midnightblue" d="M498.34,-168.083C493.447,-160.534 486.292,-149.495 480.287,-140.23"/>
<polygon fill="midnightblue" stroke="midnightblue" points="483.167,-138.239 474.791,-131.751 477.293,-142.046 483.167,-138.239"/>
</g>
<!-- Node24&#45;&gt;Node4 -->
<g id="edge42" class="edge"><title>Node24&#45;&gt;Node4</title>
<path fill="none" stroke="midnightblue" d="M1272.57,-169.661C1222.14,-160.303 1134.62,-144.063 1077.29,-133.424"/>
<polygon fill="midnightblue" stroke="midnightblue" points="1077.78,-129.954 1067.3,-131.57 1076.5,-136.836 1077.78,-129.954"/>
</g>
<!-- Node24&#45;&gt;Node7 -->
<g id="edge43" class="edge"><title>Node24&#45;&gt;Node7</title>
<path fill="none" stroke="midnightblue" d="M1295.09,-168.324C1278.09,-159.664 1251.74,-146.242 1232.13,-136.249"/>
<polygon fill="midnightblue" stroke="midnightblue" points="1233.61,-133.075 1223.11,-131.655 1230.43,-139.312 1233.61,-133.075"/>
</g>
<!-- Node26&#45;&gt;Node7 -->
<g id="edge46" class="edge"><title>Node26&#45;&gt;Node7</title>
<path fill="none" stroke="midnightblue" d="M1341.15,-224.332C1353.72,-211.198 1373.53,-185.894 1360.12,-168 1346.91,-150.382 1291.28,-137.361 1250.66,-129.98"/>
<polygon fill="midnightblue" stroke="midnightblue" points="1251.15,-126.512 1240.7,-128.225 1249.94,-133.406 1251.15,-126.512"/>
</g>
<!-- Node27&#45;&gt;Node9 -->
<g id="edge48" class="edge"><title>Node27&#45;&gt;Node9</title>
<path fill="none" stroke="midnightblue" d="M188.282,-224.445C197.397,-211.879 215.124,-187.779 231.119,-168 238.92,-158.354 247.977,-147.863 255.398,-139.439"/>
<polygon fill="midnightblue" stroke="midnightblue" points="258.147,-141.615 262.167,-131.812 252.912,-136.968 258.147,-141.615"/>
</g>
<!-- Node28&#45;&gt;Node9 -->
<g id="edge51" class="edge"><title>Node28&#45;&gt;Node9</title>
<path fill="none" stroke="midnightblue" d="M107.258,-280.291C112.304,-267.104 123.191,-241.731 138.119,-224 169.677,-186.518 217.446,-154.323 246.036,-136.892"/>
<polygon fill="midnightblue" stroke="midnightblue" points="248.162,-139.699 254.945,-131.56 244.567,-133.692 248.162,-139.699"/>
</g>
<!-- Node29&#45;&gt;Node6 -->
<g id="edge54" class="edge"><title>Node29&#45;&gt;Node6</title>
<path fill="none" stroke="midnightblue" d="M1331.26,-56.4435C1290.04,-46.3271 1221.87,-29.5934 1180.75,-19.5011"/>
<polygon fill="midnightblue" stroke="midnightblue" points="1181.46,-16.0712 1170.92,-17.0865 1179.79,-22.8694 1181.46,-16.0712"/>
</g>
<!-- Node30&#45;&gt;Node9 -->
<g id="edge58" class="edge"><title>Node30&#45;&gt;Node9</title>
<path fill="none" stroke="midnightblue" d="M355.822,-224.368C340.338,-206.055 303.979,-163.049 283.953,-139.362"/>
<polygon fill="midnightblue" stroke="midnightblue" points="286.512,-136.968 277.383,-131.591 281.166,-141.488 286.512,-136.968"/>
</g>
<!-- Node30&#45;&gt;Node10 -->
<g id="edge56" class="edge"><title>Node30&#45;&gt;Node10</title>
<path fill="none" stroke="midnightblue" d="M362.464,-224.223C360.733,-203.904 355.094,-152.287 340.119,-112 336.504,-102.274 330.89,-92.2053 325.803,-84.0645"/>
<polygon fill="midnightblue" stroke="midnightblue" points="328.625,-81.985 320.224,-75.5295 322.766,-85.815 328.625,-81.985"/>
</g>
<!-- Node30&#45;&gt;Node11 -->
<g id="edge57" class="edge"><title>Node30&#45;&gt;Node11</title>
<path fill="none" stroke="midnightblue" d="M414.141,-224.444C472.814,-214.604 568.814,-198.505 629.397,-188.345"/>
<polygon fill="midnightblue" stroke="midnightblue" points="630.259,-191.749 639.542,-186.643 629.101,-184.846 630.259,-191.749"/>
</g>
</g>
</svg>
