<?xml version="1.0" encoding="UTF-8" standalone="no"?>
<!DOCTYPE svg PUBLIC "-//W3C//DTD SVG 1.1//EN"
 "http://www.w3.org/Graphics/SVG/1.1/DTD/svg11.dtd">
<!-- Generated by graphviz version 2.38.0 (20140413.2041)
 -->
<!-- Title: osdk&#45;core/api/src/dji_hardware_sync.cpp Pages: 1 -->
<svg width="1836pt" height="431pt"
 viewBox="0.00 0.00 1835.97 431.00" xmlns="http://www.w3.org/2000/svg" xmlns:xlink="http://www.w3.org/1999/xlink">
<g id="graph0" class="graph" transform="scale(1 1) rotate(0) translate(4 427)">
<title>osdk&#45;core/api/src/dji_hardware_sync.cpp</title>
<polygon fill="white" stroke="none" points="-4,4 -4,-427 1831.97,-427 1831.97,4 -4,4"/>
<!-- Node1 -->
<g id="node1" class="node"><title>Node1</title>
<polygon fill="#bfbfbf" stroke="black" points="796.316,-392.5 796.316,-422.5 903.316,-422.5 903.316,-392.5 796.316,-392.5"/>
<text text-anchor="start" x="804.316" y="-410.5" font-family="Helvetica,sans-Serif" font-size="10.00">osdk&#45;core/api/src/dji</text>
<text text-anchor="middle" x="849.816" y="-399.5" font-family="Helvetica,sans-Serif" font-size="10.00">_hardware_sync.cpp</text>
</g>
<!-- Node2 -->
<g id="node2" class="node"><title>Node2</title>
<g id="a_node2"><a xlink:href="dji__hardware__sync_8hpp.html" target="_top" xlink:title="Hardware Sync API for DJI OSDK. ">
<polygon fill="white" stroke="black" points="446.816,-280.5 446.816,-299.5 562.816,-299.5 562.816,-280.5 446.816,-280.5"/>
<text text-anchor="middle" x="504.816" y="-287.5" font-family="Helvetica,sans-Serif" font-size="10.00">dji_hardware_sync.hpp</text>
</a>
</g>
</g>
<!-- Node1&#45;&gt;Node2 -->
<g id="edge1" class="edge"><title>Node1&#45;&gt;Node2</title>
<path fill="none" stroke="midnightblue" d="M807.857,-392.453C739.163,-369.455 603.955,-324.19 539.969,-302.768"/>
<polygon fill="midnightblue" stroke="midnightblue" points="540.926,-299.398 530.332,-299.542 538.704,-306.036 540.926,-299.398"/>
</g>
<!-- Node6 -->
<g id="node6" class="node"><title>Node6</title>
<g id="a_node6"><a xlink:href="dji__vehicle_8hpp.html" target="_top" xlink:title="Vehicle API for DJI onboardSDK library. ">
<polygon fill="white" stroke="black" points="915.316,-336.5 915.316,-355.5 996.316,-355.5 996.316,-336.5 915.316,-336.5"/>
<text text-anchor="middle" x="955.816" y="-343.5" font-family="Helvetica,sans-Serif" font-size="10.00">dji_vehicle.hpp</text>
</a>
</g>
</g>
<!-- Node1&#45;&gt;Node6 -->
<g id="edge5" class="edge"><title>Node1&#45;&gt;Node6</title>
<path fill="none" stroke="midnightblue" d="M874.937,-392.399C892.087,-382.773 914.681,-370.09 931.628,-360.577"/>
<polygon fill="midnightblue" stroke="midnightblue" points="933.385,-363.605 940.392,-355.658 929.959,-357.501 933.385,-363.605"/>
</g>
<!-- Node3 -->
<g id="node3" class="node"><title>Node3</title>
<g id="a_node3"><a xlink:href="dji__type_8hpp.html" target="_top" xlink:title="Data type and Data Structure definitions for use throughout DJI OSDK. ">
<polygon fill="white" stroke="black" points="940.316,-112.5 940.316,-131.5 1009.32,-131.5 1009.32,-112.5 940.316,-112.5"/>
<text text-anchor="middle" x="974.816" y="-119.5" font-family="Helvetica,sans-Serif" font-size="10.00">dji_type.hpp</text>
</a>
</g>
</g>
<!-- Node2&#45;&gt;Node3 -->
<g id="edge2" class="edge"><title>Node2&#45;&gt;Node3</title>
<path fill="none" stroke="midnightblue" d="M511.961,-280.418C531.486,-257.631 588.456,-195.477 650.816,-168 699.892,-146.376 852.906,-132.166 929.783,-126.2"/>
<polygon fill="midnightblue" stroke="midnightblue" points="930.402,-129.663 940.107,-125.413 929.87,-122.683 930.402,-129.663"/>
</g>
<!-- Node4 -->
<g id="node4" class="node"><title>Node4</title>
<polygon fill="white" stroke="#bfbfbf" points="953.316,-56.5 953.316,-75.5 996.316,-75.5 996.316,-56.5 953.316,-56.5"/>
<text text-anchor="middle" x="974.816" y="-63.5" font-family="Helvetica,sans-Serif" font-size="10.00">cstdio</text>
</g>
<!-- Node3&#45;&gt;Node4 -->
<g id="edge3" class="edge"><title>Node3&#45;&gt;Node4</title>
<path fill="none" stroke="midnightblue" d="M974.816,-112.083C974.816,-105.006 974.816,-94.8611 974.816,-85.9865"/>
<polygon fill="midnightblue" stroke="midnightblue" points="978.316,-85.751 974.816,-75.7511 971.316,-85.7511 978.316,-85.751"/>
</g>
<!-- Node5 -->
<g id="node5" class="node"><title>Node5</title>
<polygon fill="white" stroke="#bfbfbf" points="1183.32,-0.5 1183.32,-19.5 1232.32,-19.5 1232.32,-0.5 1183.32,-0.5"/>
<text text-anchor="middle" x="1207.82" y="-7.5" font-family="Helvetica,sans-Serif" font-size="10.00">stdint.h</text>
</g>
<!-- Node3&#45;&gt;Node5 -->
<g id="edge4" class="edge"><title>Node3&#45;&gt;Node5</title>
<path fill="none" stroke="midnightblue" d="M993.099,-112.368C1033.85,-93.131 1132.31,-46.6478 1180.43,-23.9314"/>
<polygon fill="midnightblue" stroke="midnightblue" points="1182.07,-27.0257 1189.62,-19.5914 1179.08,-20.6956 1182.07,-27.0257"/>
</g>
<!-- Node6&#45;&gt;Node2 -->
<g id="edge37" class="edge"><title>Node6&#45;&gt;Node2</title>
<path fill="none" stroke="midnightblue" d="M915.143,-340.254C845.738,-332.137 699.978,-315.009 576.816,-300 575.55,-299.846 574.272,-299.69 572.984,-299.532"/>
<polygon fill="midnightblue" stroke="midnightblue" points="573.324,-296.047 562.971,-298.301 572.469,-302.995 573.324,-296.047"/>
</g>
<!-- Node6&#45;&gt;Node3 -->
<g id="edge59" class="edge"><title>Node6&#45;&gt;Node3</title>
<path fill="none" stroke="midnightblue" d="M962.203,-336.392C974.207,-319.643 999.827,-281.052 1009.82,-244 1018.61,-211.375 1023.21,-199.809 1011.82,-168 1007.88,-157.003 999.959,-146.769 992.457,-138.848"/>
<polygon fill="midnightblue" stroke="midnightblue" points="994.836,-136.278 985.255,-131.755 989.924,-141.266 994.836,-136.278"/>
</g>
<!-- Node7 -->
<g id="node7" class="node"><title>Node7</title>
<polygon fill="white" stroke="#bfbfbf" points="1408.82,-112.5 1408.82,-131.5 1454.82,-131.5 1454.82,-112.5 1408.82,-112.5"/>
<text text-anchor="middle" x="1431.82" y="-119.5" font-family="Helvetica,sans-Serif" font-size="10.00">cstdint</text>
</g>
<!-- Node6&#45;&gt;Node7 -->
<g id="edge6" class="edge"><title>Node6&#45;&gt;Node7</title>
<path fill="none" stroke="midnightblue" d="M996.622,-344.674C1087.74,-343.292 1304.61,-336.183 1366.82,-300 1419.92,-269.111 1428.9,-246.445 1447.82,-188 1452.9,-172.296 1447.42,-154.01 1441.53,-140.84"/>
<polygon fill="midnightblue" stroke="midnightblue" points="1444.49,-138.93 1436.91,-131.523 1438.22,-142.037 1444.49,-138.93"/>
</g>
<!-- Node8 -->
<g id="node8" class="node"><title>Node8</title>
<g id="a_node8"><a xlink:href="dji__broadcast_8hpp.html" target="_top" xlink:title="Broadcast Telemetry API for DJI onboardSDK library. ">
<polygon fill="white" stroke="black" points="396.316,-224.5 396.316,-243.5 489.316,-243.5 489.316,-224.5 396.316,-224.5"/>
<text text-anchor="middle" x="442.816" y="-231.5" font-family="Helvetica,sans-Serif" font-size="10.00">dji_broadcast.hpp</text>
</a>
</g>
</g>
<!-- Node6&#45;&gt;Node8 -->
<g id="edge7" class="edge"><title>Node6&#45;&gt;Node8</title>
<path fill="none" stroke="midnightblue" d="M915.103,-343.611C850.319,-340.522 720.312,-330.711 614.816,-300 594.579,-294.109 591.347,-287.925 571.816,-280 541.16,-267.559 505.613,-255.316 479.607,-246.749"/>
<polygon fill="midnightblue" stroke="midnightblue" points="480.381,-243.32 469.789,-243.539 478.206,-249.973 480.381,-243.32"/>
</g>
<!-- Node10 -->
<g id="node10" class="node"><title>Node10</title>
<g id="a_node10"><a xlink:href="dji__vehicle__callback_8hpp.html" target="_top" xlink:title="Type definition for new Vehicle&#45;style callbacks. ">
<polygon fill="white" stroke="black" points="181.816,-112.5 181.816,-131.5 303.816,-131.5 303.816,-112.5 181.816,-112.5"/>
<text text-anchor="middle" x="242.816" y="-119.5" font-family="Helvetica,sans-Serif" font-size="10.00">dji_vehicle_callback.hpp</text>
</a>
</g>
</g>
<!-- Node6&#45;&gt;Node10 -->
<g id="edge60" class="edge"><title>Node6&#45;&gt;Node10</title>
<path fill="none" stroke="midnightblue" d="M914.921,-345.474C802.389,-346.142 478.965,-343.79 214.816,-300 122.061,-284.623 67.8244,-318.766 10.8163,-244 -37.0244,-181.257 86.8483,-147.953 171.45,-133.024"/>
<polygon fill="midnightblue" stroke="midnightblue" points="172.293,-136.431 181.559,-131.293 171.112,-129.531 172.293,-136.431"/>
</g>
<!-- Node11 -->
<g id="node11" class="node"><title>Node11</title>
<polygon fill="white" stroke="#bfbfbf" points="314.316,-56.5 314.316,-75.5 425.316,-75.5 425.316,-56.5 314.316,-56.5"/>
<text text-anchor="middle" x="369.816" y="-63.5" font-family="Helvetica,sans-Serif" font-size="10.00">dji_open_protocol.hpp</text>
</g>
<!-- Node6&#45;&gt;Node11 -->
<g id="edge51" class="edge"><title>Node6&#45;&gt;Node11</title>
<path fill="none" stroke="midnightblue" d="M915.183,-341.232C862.082,-335.618 766.577,-323.148 687.816,-300 672.678,-295.551 438.166,-198.961 426.816,-188 396.988,-159.194 381.038,-111.699 374.119,-85.6048"/>
<polygon fill="midnightblue" stroke="midnightblue" points="377.431,-84.4184 371.625,-75.5561 370.637,-86.1048 377.431,-84.4184"/>
</g>
<!-- Node12 -->
<g id="node12" class="node"><title>Node12</title>
<g id="a_node12"><a xlink:href="dji__camera_8hpp.html" target="_top" xlink:title="Camera/Gimbal API for DJI onboardSDK library. ">
<polygon fill="white" stroke="black" points="1217.32,-168.5 1217.32,-187.5 1300.32,-187.5 1300.32,-168.5 1217.32,-168.5"/>
<text text-anchor="middle" x="1258.82" y="-175.5" font-family="Helvetica,sans-Serif" font-size="10.00">dji_camera.hpp</text>
</a>
</g>
</g>
<!-- Node6&#45;&gt;Node12 -->
<g id="edge12" class="edge"><title>Node6&#45;&gt;Node12</title>
<path fill="none" stroke="midnightblue" d="M992.519,-336.44C1021.07,-328.984 1061.19,-316.736 1093.82,-300 1152.79,-269.748 1213.45,-219.318 1242.01,-194.193"/>
<polygon fill="midnightblue" stroke="midnightblue" points="1244.35,-196.796 1249.49,-187.536 1239.7,-191.565 1244.35,-196.796"/>
</g>
<!-- Node13 -->
<g id="node13" class="node"><title>Node13</title>
<g id="a_node13"><a xlink:href="dji__command_8hpp.html" target="_top" xlink:title="All DJI OSDK OpenProtocol Command IDs. ">
<polygon fill="white" stroke="black" points="1162.32,-112.5 1162.32,-131.5 1255.32,-131.5 1255.32,-112.5 1162.32,-112.5"/>
<text text-anchor="middle" x="1208.82" y="-119.5" font-family="Helvetica,sans-Serif" font-size="10.00">dji_command.hpp</text>
</a>
</g>
</g>
<!-- Node6&#45;&gt;Node13 -->
<g id="edge19" class="edge"><title>Node6&#45;&gt;Node13</title>
<path fill="none" stroke="midnightblue" d="M996.406,-341.842C1074.85,-333.226 1245.12,-301.658 1308.82,-188 1323.4,-161.972 1289.89,-144.651 1257.8,-134.482"/>
<polygon fill="midnightblue" stroke="midnightblue" points="1258.52,-131.046 1247.94,-131.554 1256.53,-137.756 1258.52,-131.046"/>
</g>
<!-- Node15 -->
<g id="node15" class="node"><title>Node15</title>
<polygon fill="white" stroke="#bfbfbf" points="1432.82,-280.5 1432.82,-299.5 1544.82,-299.5 1544.82,-280.5 1432.82,-280.5"/>
<text text-anchor="middle" x="1488.82" y="-287.5" font-family="Helvetica,sans-Serif" font-size="10.00">dji_circular_buffer.hpp</text>
</g>
<!-- Node6&#45;&gt;Node15 -->
<g id="edge18" class="edge"><title>Node6&#45;&gt;Node15</title>
<path fill="none" stroke="midnightblue" d="M996.426,-341.479C1077.04,-334.396 1262.93,-317.593 1418.82,-300 1420.08,-299.857 1421.36,-299.711 1422.65,-299.562"/>
<polygon fill="midnightblue" stroke="midnightblue" points="1423.15,-303.027 1432.67,-298.374 1422.33,-296.076 1423.15,-303.027"/>
</g>
<!-- Node16 -->
<g id="node16" class="node"><title>Node16</title>
<g id="a_node16"><a xlink:href="dji__control_8hpp.html" target="_top" xlink:title="Control API for DJI OSDK library. ">
<polygon fill="white" stroke="black" points="696.816,-280.5 696.816,-299.5 776.816,-299.5 776.816,-280.5 696.816,-280.5"/>
<text text-anchor="middle" x="736.816" y="-287.5" font-family="Helvetica,sans-Serif" font-size="10.00">dji_control.hpp</text>
</a>
</g>
</g>
<!-- Node6&#45;&gt;Node16 -->
<g id="edge20" class="edge"><title>Node6&#45;&gt;Node16</title>
<path fill="none" stroke="midnightblue" d="M921.115,-336.444C883.232,-327.102 822.467,-312.119 781.154,-301.933"/>
<polygon fill="midnightblue" stroke="midnightblue" points="781.902,-298.512 771.355,-299.516 780.226,-305.309 781.902,-298.512"/>
</g>
<!-- Node19 -->
<g id="node19" class="node"><title>Node19</title>
<g id="a_node19"><a xlink:href="dji__version_8hpp.html" target="_top" xlink:title="Drone/SDK Version definition for DJI onboardSDK library. ">
<polygon fill="white" stroke="black" points="1356.82,-168.5 1356.82,-187.5 1438.82,-187.5 1438.82,-168.5 1356.82,-168.5"/>
<text text-anchor="middle" x="1397.82" y="-175.5" font-family="Helvetica,sans-Serif" font-size="10.00">dji_version.hpp</text>
</a>
</g>
</g>
<!-- Node6&#45;&gt;Node19 -->
<g id="edge61" class="edge"><title>Node6&#45;&gt;Node19</title>
<path fill="none" stroke="midnightblue" d="M996.411,-345.199C1084.24,-344.861 1288.36,-339.698 1342.82,-300 1376.59,-275.378 1390.1,-225.026 1395.12,-197.679"/>
<polygon fill="midnightblue" stroke="midnightblue" points="1398.62,-197.943 1396.78,-187.509 1391.72,-196.813 1398.62,-197.943"/>
</g>
<!-- Node21 -->
<g id="node21" class="node"><title>Node21</title>
<g id="a_node21"><a xlink:href="dji__gimbal_8hpp.html" target="_top" xlink:title="Gimbal API for OSDK library. ">
<polygon fill="white" stroke="black" points="1120.32,-168.5 1120.32,-187.5 1199.32,-187.5 1199.32,-168.5 1120.32,-168.5"/>
<text text-anchor="middle" x="1159.82" y="-175.5" font-family="Helvetica,sans-Serif" font-size="10.00">dji_gimbal.hpp</text>
</a>
</g>
</g>
<!-- Node6&#45;&gt;Node21 -->
<g id="edge33" class="edge"><title>Node6&#45;&gt;Node21</title>
<path fill="none" stroke="midnightblue" d="M990.1,-336.459C1013.62,-329.409 1044.65,-317.66 1067.82,-300 1105.8,-271.045 1136.06,-222.557 1150.53,-196.625"/>
<polygon fill="midnightblue" stroke="midnightblue" points="1153.74,-198.046 1155.44,-187.588 1147.59,-194.704 1153.74,-198.046"/>
</g>
<!-- Node22 -->
<g id="node22" class="node"><title>Node22</title>
<polygon fill="white" stroke="#bfbfbf" points="1562.82,-280.5 1562.82,-299.5 1660.82,-299.5 1660.82,-280.5 1562.82,-280.5"/>
<text text-anchor="middle" x="1611.82" y="-287.5" font-family="Helvetica,sans-Serif" font-size="10.00">dji_hard_driver.hpp</text>
</g>
<!-- Node6&#45;&gt;Node22 -->
<g id="edge36" class="edge"><title>Node6&#45;&gt;Node22</title>
<path fill="none" stroke="midnightblue" d="M996.526,-343.046C1091.83,-338.233 1337.06,-324.472 1552.57,-300.054"/>
<polygon fill="midnightblue" stroke="midnightblue" points="1553.27,-303.497 1562.81,-298.883 1552.47,-296.542 1553.27,-303.497"/>
</g>
<!-- Node23 -->
<g id="node23" class="node"><title>Node23</title>
<g id="a_node23"><a xlink:href="dji__mfio_8hpp.html" target="_top" xlink:title="MFIO API for DJI OSDK library. ">
<polygon fill="white" stroke="black" points="20.3163,-224.5 20.3163,-243.5 89.3163,-243.5 89.3163,-224.5 20.3163,-224.5"/>
<text text-anchor="middle" x="54.8163" y="-231.5" font-family="Helvetica,sans-Serif" font-size="10.00">dji_mfio.hpp</text>
</a>
</g>
</g>
<!-- Node6&#45;&gt;Node23 -->
<g id="edge38" class="edge"><title>Node6&#45;&gt;Node23</title>
<path fill="none" stroke="midnightblue" d="M915.153,-344.681C812.925,-343.336 537.192,-336.336 310.816,-300 231.397,-287.252 140.619,-261.456 91.338,-246.478"/>
<polygon fill="midnightblue" stroke="midnightblue" points="92.3472,-243.127 81.7606,-243.544 90.297,-249.82 92.3472,-243.127"/>
</g>
<!-- Node24 -->
<g id="node24" class="node"><title>Node24</title>
<g id="a_node24"><a xlink:href="dji__mission__manager_8hpp.html" target="_top" xlink:title="Mission&#45;Manager API for DJI OSDK library. ">
<polygon fill="white" stroke="black" points="795.316,-280.5 795.316,-299.5 922.316,-299.5 922.316,-280.5 795.316,-280.5"/>
<text text-anchor="middle" x="858.816" y="-287.5" font-family="Helvetica,sans-Serif" font-size="10.00">dji_mission_manager.hpp</text>
</a>
</g>
</g>
<!-- Node6&#45;&gt;Node24 -->
<g id="edge40" class="edge"><title>Node6&#45;&gt;Node24</title>
<path fill="none" stroke="midnightblue" d="M940.232,-336.324C924.817,-327.743 901.004,-314.486 883.107,-304.522"/>
<polygon fill="midnightblue" stroke="midnightblue" points="884.802,-301.461 874.362,-299.655 881.397,-307.577 884.802,-301.461"/>
</g>
<!-- Node28 -->
<g id="node28" class="node"><title>Node28</title>
<g id="a_node28"><a xlink:href="dji__mobile__communication_8hpp.html" target="_top" xlink:title="Implementation of DJI Mobile&#45;Onboard SDK Communication (MOC) ">
<polygon fill="white" stroke="black" points="106.816,-224.5 106.816,-243.5 256.816,-243.5 256.816,-224.5 106.816,-224.5"/>
<text text-anchor="middle" x="181.816" y="-231.5" font-family="Helvetica,sans-Serif" font-size="10.00">dji_mobile_communication.hpp</text>
</a>
</g>
</g>
<!-- Node6&#45;&gt;Node28 -->
<g id="edge49" class="edge"><title>Node6&#45;&gt;Node28</title>
<path fill="none" stroke="midnightblue" d="M915.254,-344.869C821.732,-343.897 584.101,-337.589 389.816,-300 325.612,-287.578 253.283,-262.297 213.071,-247.186"/>
<polygon fill="midnightblue" stroke="midnightblue" points="214.155,-243.854 203.564,-243.577 211.671,-250.398 214.155,-243.854"/>
</g>
<!-- Node29 -->
<g id="node29" class="node"><title>Node29</title>
<g id="a_node29"><a xlink:href="dji__status_8hpp.html" target="_top" xlink:title="Status information for DJI Vehicle. ">
<polygon fill="white" stroke="black" points="1568.32,-56.5 1568.32,-75.5 1645.32,-75.5 1645.32,-56.5 1568.32,-56.5"/>
<text text-anchor="middle" x="1606.82" y="-63.5" font-family="Helvetica,sans-Serif" font-size="10.00">dji_status.hpp</text>
</a>
</g>
</g>
<!-- Node6&#45;&gt;Node29 -->
<g id="edge52" class="edge"><title>Node6&#45;&gt;Node29</title>
<path fill="none" stroke="midnightblue" d="M996.595,-344.149C1162.01,-340.532 1775.68,-325.44 1807.82,-300 1831.42,-281.319 1826.82,-265.098 1826.82,-235 1826.82,-235 1826.82,-235 1826.82,-177 1826.82,-100.897 1720.2,-77.4435 1655.41,-70.217"/>
<polygon fill="midnightblue" stroke="midnightblue" points="1655.69,-66.7282 1645.39,-69.1909 1654.98,-73.6918 1655.69,-66.7282"/>
</g>
<!-- Node30 -->
<g id="node30" class="node"><title>Node30</title>
<g id="a_node30"><a xlink:href="dji__subscription_8hpp.html" target="_top" xlink:title="Telemetry Subscription API for DJI OSDK library. ">
<polygon fill="white" stroke="black" points="275.316,-224.5 275.316,-243.5 378.316,-243.5 378.316,-224.5 275.316,-224.5"/>
<text text-anchor="middle" x="326.816" y="-231.5" font-family="Helvetica,sans-Serif" font-size="10.00">dji_subscription.hpp</text>
</a>
</g>
</g>
<!-- Node6&#45;&gt;Node30 -->
<g id="edge54" class="edge"><title>Node6&#45;&gt;Node30</title>
<path fill="none" stroke="midnightblue" d="M915.167,-343.774C809.208,-340.214 526.628,-328.273 437.816,-300 402.811,-288.856 366.961,-265.195 345.805,-249.705"/>
<polygon fill="midnightblue" stroke="midnightblue" points="347.786,-246.816 337.683,-243.626 343.592,-252.42 347.786,-246.816"/>
</g>
<!-- Node31 -->
<g id="node31" class="node"><title>Node31</title>
<polygon fill="white" stroke="#bfbfbf" points="1678.82,-280.5 1678.82,-299.5 1798.82,-299.5 1798.82,-280.5 1678.82,-280.5"/>
<text text-anchor="middle" x="1738.82" y="-287.5" font-family="Helvetica,sans-Serif" font-size="10.00">dji_thread_manager.hpp</text>
</g>
<!-- Node6&#45;&gt;Node31 -->
<g id="edge58" class="edge"><title>Node6&#45;&gt;Node31</title>
<path fill="none" stroke="midnightblue" d="M996.546,-343.386C1104.38,-338.911 1406.41,-325.054 1668.54,-300.06"/>
<polygon fill="midnightblue" stroke="midnightblue" points="1669.01,-303.531 1678.63,-299.091 1668.34,-296.563 1669.01,-303.531"/>
</g>
<!-- Node9 -->
<g id="node9" class="node"><title>Node9</title>
<g id="a_node9"><a xlink:href="dji__telemetry_8hpp.html" target="_top" xlink:title="Enumeration of all telemetry data types, structures and maps. ">
<polygon fill="white" stroke="black" points="436.316,-168.5 436.316,-187.5 527.316,-187.5 527.316,-168.5 436.316,-168.5"/>
<text text-anchor="middle" x="481.816" y="-175.5" font-family="Helvetica,sans-Serif" font-size="10.00">dji_telemetry.hpp</text>
</a>
</g>
</g>
<!-- Node8&#45;&gt;Node9 -->
<g id="edge8" class="edge"><title>Node8&#45;&gt;Node9</title>
<path fill="none" stroke="midnightblue" d="M449.256,-224.083C454.765,-216.455 462.848,-205.264 469.581,-195.941"/>
<polygon fill="midnightblue" stroke="midnightblue" points="472.479,-197.907 475.496,-187.751 466.804,-193.809 472.479,-197.907"/>
</g>
<!-- Node8&#45;&gt;Node10 -->
<g id="edge10" class="edge"><title>Node8&#45;&gt;Node10</title>
<path fill="none" stroke="midnightblue" d="M427.123,-224.368C392.437,-205.292 309.039,-159.422 267.372,-136.505"/>
<polygon fill="midnightblue" stroke="midnightblue" points="268.886,-133.344 258.437,-131.591 265.513,-139.477 268.886,-133.344"/>
</g>
<!-- Node9&#45;&gt;Node3 -->
<g id="edge9" class="edge"><title>Node9&#45;&gt;Node3</title>
<path fill="none" stroke="midnightblue" d="M527.323,-169.953C532.211,-169.262 537.114,-168.597 541.816,-168 683.354,-150.039 851.6,-134.098 930.202,-126.964"/>
<polygon fill="midnightblue" stroke="midnightblue" points="930.592,-130.443 940.236,-126.057 929.962,-123.472 930.592,-130.443"/>
</g>
<!-- Node10&#45;&gt;Node11 -->
<g id="edge11" class="edge"><title>Node10&#45;&gt;Node11</title>
<path fill="none" stroke="midnightblue" d="M262.94,-112.444C283.841,-103.557 316.751,-89.5632 340.532,-79.4514"/>
<polygon fill="midnightblue" stroke="midnightblue" points="341.954,-82.6504 349.787,-75.5164 339.215,-76.2085 341.954,-82.6504"/>
</g>
<!-- Node12&#45;&gt;Node3 -->
<g id="edge17" class="edge"><title>Node12&#45;&gt;Node3</title>
<path fill="none" stroke="midnightblue" d="M1217.22,-169.09C1164.39,-159.045 1073.59,-141.782 1019.39,-131.474"/>
<polygon fill="midnightblue" stroke="midnightblue" points="1019.86,-128.002 1009.38,-129.572 1018.55,-134.878 1019.86,-128.002"/>
</g>
<!-- Node12&#45;&gt;Node13 -->
<g id="edge13" class="edge"><title>Node12&#45;&gt;Node13</title>
<path fill="none" stroke="midnightblue" d="M1250.56,-168.083C1243.35,-160.298 1232.71,-148.801 1223.97,-139.367"/>
<polygon fill="midnightblue" stroke="midnightblue" points="1226.28,-136.711 1216.92,-131.751 1221.15,-141.467 1226.28,-136.711"/>
</g>
<!-- Node13&#45;&gt;Node5 -->
<g id="edge16" class="edge"><title>Node13&#45;&gt;Node5</title>
<path fill="none" stroke="midnightblue" d="M1212.28,-112.207C1216.76,-99.7493 1223.68,-76.2246 1220.82,-56 1219.55,-47.0425 1216.93,-37.372 1214.37,-29.2998"/>
<polygon fill="midnightblue" stroke="midnightblue" points="1217.68,-28.1569 1211.16,-19.8034 1211.05,-30.3976 1217.68,-28.1569"/>
</g>
<!-- Node14 -->
<g id="node14" class="node"><title>Node14</title>
<g id="a_node14"><a xlink:href="dji__error_8hpp.html" target="_top" xlink:title="All DJI OSDK OpenProtocol ACK Error Codes. ">
<polygon fill="white" stroke="black" points="1141.82,-56.5 1141.82,-75.5 1211.82,-75.5 1211.82,-56.5 1141.82,-56.5"/>
<text text-anchor="middle" x="1176.82" y="-63.5" font-family="Helvetica,sans-Serif" font-size="10.00">dji_error.hpp</text>
</a>
</g>
</g>
<!-- Node13&#45;&gt;Node14 -->
<g id="edge14" class="edge"><title>Node13&#45;&gt;Node14</title>
<path fill="none" stroke="midnightblue" d="M1203.53,-112.083C1199.11,-104.613 1192.65,-93.7244 1187.2,-84.5199"/>
<polygon fill="midnightblue" stroke="midnightblue" points="1190.11,-82.5697 1182,-75.7511 1184.09,-86.1383 1190.11,-82.5697"/>
</g>
<!-- Node14&#45;&gt;Node5 -->
<g id="edge15" class="edge"><title>Node14&#45;&gt;Node5</title>
<path fill="none" stroke="midnightblue" d="M1181.94,-56.083C1186.22,-48.6127 1192.47,-37.7244 1197.76,-28.5199"/>
<polygon fill="midnightblue" stroke="midnightblue" points="1200.85,-30.1662 1202.79,-19.7511 1194.78,-26.6811 1200.85,-30.1662"/>
</g>
<!-- Node16&#45;&gt;Node3 -->
<g id="edge31" class="edge"><title>Node16&#45;&gt;Node3</title>
<path fill="none" stroke="midnightblue" d="M774.104,-280.461C806.76,-272.138 850.564,-258.628 860.816,-244 883.218,-212.039 793.299,-199.15 816.816,-168 830.509,-149.863 888.381,-136.868 930.122,-129.643"/>
<polygon fill="midnightblue" stroke="midnightblue" points="930.8,-133.078 940.085,-127.973 929.644,-126.174 930.8,-133.078"/>
</g>
<!-- Node16&#45;&gt;Node10 -->
<g id="edge32" class="edge"><title>Node16&#45;&gt;Node10</title>
<path fill="none" stroke="midnightblue" d="M704.457,-280.467C679.606,-273.06 645.045,-260.862 617.816,-244 575.571,-217.838 580.562,-189.61 535.816,-168 497.752,-149.617 387.89,-136.297 314.049,-129.111"/>
<polygon fill="midnightblue" stroke="midnightblue" points="314.167,-125.607 303.88,-128.138 313.501,-132.575 314.167,-125.607"/>
</g>
<!-- Node16&#45;&gt;Node11 -->
<g id="edge30" class="edge"><title>Node16&#45;&gt;Node11</title>
<path fill="none" stroke="midnightblue" d="M717.266,-280.43C699.319,-272.183 672.33,-258.811 650.816,-244 608.801,-215.076 606.892,-196.836 564.816,-168 509.732,-130.248 438.739,-96.8744 399.394,-79.5609"/>
<polygon fill="midnightblue" stroke="midnightblue" points="400.668,-76.298 390.102,-75.5123 397.871,-82.7154 400.668,-76.298"/>
</g>
<!-- Node17 -->
<g id="node17" class="node"><title>Node17</title>
<g id="a_node17"><a xlink:href="dji__ack_8hpp.html" target="_top" xlink:title="All DJI OSDK ACK parsing. ">
<polygon fill="white" stroke="black" points="934.816,-224.5 934.816,-243.5 1000.82,-243.5 1000.82,-224.5 934.816,-224.5"/>
<text text-anchor="middle" x="967.816" y="-231.5" font-family="Helvetica,sans-Serif" font-size="10.00">dji_ack.hpp</text>
</a>
</g>
</g>
<!-- Node16&#45;&gt;Node17 -->
<g id="edge21" class="edge"><title>Node16&#45;&gt;Node17</title>
<path fill="none" stroke="midnightblue" d="M773.419,-280.444C814.523,-270.835 881.163,-255.257 924.742,-245.069"/>
<polygon fill="midnightblue" stroke="midnightblue" points="925.812,-248.414 934.753,-242.729 924.219,-241.597 925.812,-248.414"/>
</g>
<!-- Node17&#45;&gt;Node3 -->
<g id="edge25" class="edge"><title>Node17&#45;&gt;Node3</title>
<path fill="none" stroke="midnightblue" d="M975.489,-224.459C982.595,-215.927 992.67,-202.088 996.816,-188 1001.59,-171.789 994.317,-153.587 986.885,-140.577"/>
<polygon fill="midnightblue" stroke="midnightblue" points="989.638,-138.38 981.366,-131.76 983.705,-142.093 989.638,-138.38"/>
</g>
<!-- Node17&#45;&gt;Node13 -->
<g id="edge22" class="edge"><title>Node17&#45;&gt;Node13</title>
<path fill="none" stroke="midnightblue" d="M986.727,-224.368C1028.96,-205.091 1131.14,-158.454 1180.8,-135.789"/>
<polygon fill="midnightblue" stroke="midnightblue" points="1182.35,-138.928 1189.99,-131.591 1179.44,-132.56 1182.35,-138.928"/>
</g>
<!-- Node18 -->
<g id="node18" class="node"><title>Node18</title>
<g id="a_node18"><a xlink:href="dji__mission__type_8hpp_source.html" target="_top" xlink:title="dji_mission_type.hpp">
<polygon fill="white" stroke="black" points="879.816,-168.5 879.816,-187.5 987.816,-187.5 987.816,-168.5 879.816,-168.5"/>
<text text-anchor="middle" x="933.816" y="-175.5" font-family="Helvetica,sans-Serif" font-size="10.00">dji_mission_type.hpp</text>
</a>
</g>
</g>
<!-- Node17&#45;&gt;Node18 -->
<g id="edge23" class="edge"><title>Node17&#45;&gt;Node18</title>
<path fill="none" stroke="midnightblue" d="M962.202,-224.083C957.449,-216.534 950.498,-205.495 944.665,-196.23"/>
<polygon fill="midnightblue" stroke="midnightblue" points="947.616,-194.349 939.326,-187.751 941.693,-198.078 947.616,-194.349"/>
</g>
<!-- Node17&#45;&gt;Node19 -->
<g id="edge26" class="edge"><title>Node17&#45;&gt;Node19</title>
<path fill="none" stroke="midnightblue" d="M1000.84,-228.852C1075.38,-219.492 1257.08,-196.674 1346.46,-185.45"/>
<polygon fill="midnightblue" stroke="midnightblue" points="1347.14,-188.892 1356.63,-184.173 1346.27,-181.946 1347.14,-188.892"/>
</g>
<!-- Node20 -->
<g id="node20" class="node"><title>Node20</title>
<polygon fill="white" stroke="#bfbfbf" points="826.316,-168.5 826.316,-187.5 861.316,-187.5 861.316,-168.5 826.316,-168.5"/>
<text text-anchor="middle" x="843.816" y="-175.5" font-family="Helvetica,sans-Serif" font-size="10.00">map</text>
</g>
<!-- Node17&#45;&gt;Node20 -->
<g id="edge29" class="edge"><title>Node17&#45;&gt;Node20</title>
<path fill="none" stroke="midnightblue" d="M948.168,-224.444C927.254,-215.336 894.025,-200.865 870.695,-190.705"/>
<polygon fill="midnightblue" stroke="midnightblue" points="871.933,-187.427 861.368,-186.643 869.139,-193.845 871.933,-187.427"/>
</g>
<!-- Node18&#45;&gt;Node3 -->
<g id="edge24" class="edge"><title>Node18&#45;&gt;Node3</title>
<path fill="none" stroke="midnightblue" d="M940.587,-168.083C946.378,-160.455 954.875,-149.264 961.954,-139.941"/>
<polygon fill="midnightblue" stroke="midnightblue" points="964.912,-141.832 968.172,-131.751 959.337,-137.599 964.912,-141.832"/>
</g>
<!-- Node19&#45;&gt;Node7 -->
<g id="edge28" class="edge"><title>Node19&#45;&gt;Node7</title>
<path fill="none" stroke="midnightblue" d="M1403.43,-168.083C1408.18,-160.534 1415.13,-149.495 1420.97,-140.23"/>
<polygon fill="midnightblue" stroke="midnightblue" points="1423.94,-142.078 1426.31,-131.751 1418.02,-138.349 1423.94,-142.078"/>
</g>
<!-- Node19&#45;&gt;Node13 -->
<g id="edge27" class="edge"><title>Node19&#45;&gt;Node13</title>
<path fill="none" stroke="midnightblue" d="M1367.87,-168.444C1335.66,-159.241 1284.28,-144.562 1248.67,-134.388"/>
<polygon fill="midnightblue" stroke="midnightblue" points="1249.2,-130.898 1238.62,-131.516 1247.28,-137.629 1249.2,-130.898"/>
</g>
<!-- Node21&#45;&gt;Node3 -->
<g id="edge35" class="edge"><title>Node21&#45;&gt;Node3</title>
<path fill="none" stroke="midnightblue" d="M1130.5,-168.444C1098.97,-159.241 1048.68,-144.562 1013.83,-134.388"/>
<polygon fill="midnightblue" stroke="midnightblue" points="1014.57,-130.959 1003.99,-131.516 1012.61,-137.678 1014.57,-130.959"/>
</g>
<!-- Node21&#45;&gt;Node13 -->
<g id="edge34" class="edge"><title>Node21&#45;&gt;Node13</title>
<path fill="none" stroke="midnightblue" d="M1167.91,-168.083C1174.97,-160.298 1185.4,-148.801 1193.97,-139.367"/>
<polygon fill="midnightblue" stroke="midnightblue" points="1196.75,-141.509 1200.88,-131.751 1191.56,-136.805 1196.75,-141.509"/>
</g>
<!-- Node23&#45;&gt;Node10 -->
<g id="edge39" class="edge"><title>Node23&#45;&gt;Node10</title>
<path fill="none" stroke="midnightblue" d="M69.5684,-224.368C102.104,-205.332 180.237,-159.615 219.486,-136.65"/>
<polygon fill="midnightblue" stroke="midnightblue" points="221.269,-139.662 228.133,-131.591 217.734,-133.621 221.269,-139.662"/>
</g>
<!-- Node25 -->
<g id="node25" class="node"><title>Node25</title>
<g id="a_node25"><a xlink:href="dji__hotpoint_8hpp.html" target="_top" xlink:title="Implementation of HotPoint (Point of Interest) Missions for DJI OSDK. ">
<polygon fill="white" stroke="black" points="660.316,-224.5 660.316,-243.5 745.316,-243.5 745.316,-224.5 660.316,-224.5"/>
<text text-anchor="middle" x="702.816" y="-231.5" font-family="Helvetica,sans-Serif" font-size="10.00">dji_hotpoint.hpp</text>
</a>
</g>
</g>
<!-- Node24&#45;&gt;Node25 -->
<g id="edge41" class="edge"><title>Node24&#45;&gt;Node25</title>
<path fill="none" stroke="midnightblue" d="M834.098,-280.444C807.968,-271.399 766.557,-257.064 737.24,-246.916"/>
<polygon fill="midnightblue" stroke="midnightblue" points="738.014,-243.48 727.419,-243.516 735.724,-250.095 738.014,-243.48"/>
</g>
<!-- Node27 -->
<g id="node27" class="node"><title>Node27</title>
<g id="a_node27"><a xlink:href="dji__waypoint_8hpp.html" target="_top" xlink:title="Implementation of GPS Waypoint Missions for DJI OSDK. ">
<polygon fill="white" stroke="black" points="763.316,-224.5 763.316,-243.5 852.316,-243.5 852.316,-224.5 763.316,-224.5"/>
<text text-anchor="middle" x="807.816" y="-231.5" font-family="Helvetica,sans-Serif" font-size="10.00">dji_waypoint.hpp</text>
</a>
</g>
</g>
<!-- Node24&#45;&gt;Node27 -->
<g id="edge47" class="edge"><title>Node24&#45;&gt;Node27</title>
<path fill="none" stroke="midnightblue" d="M850.395,-280.083C842.968,-272.22 831.965,-260.569 823.004,-251.081"/>
<polygon fill="midnightblue" stroke="midnightblue" points="825.492,-248.618 816.081,-243.751 820.403,-253.424 825.492,-248.618"/>
</g>
<!-- Node25&#45;&gt;Node9 -->
<g id="edge46" class="edge"><title>Node25&#45;&gt;Node9</title>
<path fill="none" stroke="midnightblue" d="M667.798,-224.444C629.569,-215.102 568.25,-200.119 526.559,-189.933"/>
<polygon fill="midnightblue" stroke="midnightblue" points="527.216,-186.49 516.671,-187.516 525.554,-193.29 527.216,-186.49"/>
</g>
<!-- Node26 -->
<g id="node26" class="node"><title>Node26</title>
<g id="a_node26"><a xlink:href="dji__mission__base_8hpp.html" target="_top" xlink:title="Mission&#45;Base abstract class for DJI OSDK library. ">
<polygon fill="white" stroke="black" points="659.816,-168.5 659.816,-187.5 769.816,-187.5 769.816,-168.5 659.816,-168.5"/>
<text text-anchor="middle" x="714.816" y="-175.5" font-family="Helvetica,sans-Serif" font-size="10.00">dji_mission_base.hpp</text>
</a>
</g>
</g>
<!-- Node25&#45;&gt;Node26 -->
<g id="edge42" class="edge"><title>Node25&#45;&gt;Node26</title>
<path fill="none" stroke="midnightblue" d="M704.798,-224.083C706.388,-216.927 708.675,-206.635 710.663,-197.691"/>
<polygon fill="midnightblue" stroke="midnightblue" points="714.119,-198.272 712.872,-187.751 707.286,-196.754 714.119,-198.272"/>
</g>
<!-- Node26&#45;&gt;Node3 -->
<g id="edge44" class="edge"><title>Node26&#45;&gt;Node3</title>
<path fill="none" stroke="midnightblue" d="M756.014,-168.444C803.471,-158.587 881.171,-142.45 930.075,-132.293"/>
<polygon fill="midnightblue" stroke="midnightblue" points="930.973,-135.681 940.052,-130.22 929.549,-128.827 930.973,-135.681"/>
</g>
<!-- Node26&#45;&gt;Node10 -->
<g id="edge45" class="edge"><title>Node26&#45;&gt;Node10</title>
<path fill="none" stroke="midnightblue" d="M659.748,-170.7C573.99,-160.889 408.573,-141.964 313.914,-131.134"/>
<polygon fill="midnightblue" stroke="midnightblue" points="314.189,-127.643 303.856,-129.983 313.394,-134.597 314.189,-127.643"/>
</g>
<!-- Node26&#45;&gt;Node13 -->
<g id="edge43" class="edge"><title>Node26&#45;&gt;Node13</title>
<path fill="none" stroke="midnightblue" d="M770.046,-170.963C864.543,-160.633 1056.28,-139.674 1151.91,-129.22"/>
<polygon fill="midnightblue" stroke="midnightblue" points="1152.41,-132.687 1161.97,-128.121 1151.65,-125.728 1152.41,-132.687"/>
</g>
<!-- Node27&#45;&gt;Node26 -->
<g id="edge48" class="edge"><title>Node27&#45;&gt;Node26</title>
<path fill="none" stroke="midnightblue" d="M792.874,-224.324C778.231,-215.822 755.683,-202.729 738.579,-192.797"/>
<polygon fill="midnightblue" stroke="midnightblue" points="740.127,-189.649 729.721,-187.655 736.612,-195.703 740.127,-189.649"/>
</g>
<!-- Node28&#45;&gt;Node10 -->
<g id="edge50" class="edge"><title>Node28&#45;&gt;Node10</title>
<path fill="none" stroke="midnightblue" d="M186.603,-224.368C196.581,-206.376 219.775,-164.55 233.042,-140.627"/>
<polygon fill="midnightblue" stroke="midnightblue" points="236.263,-142.034 238.052,-131.591 230.141,-138.639 236.263,-142.034"/>
</g>
<!-- Node29&#45;&gt;Node5 -->
<g id="edge53" class="edge"><title>Node29&#45;&gt;Node5</title>
<path fill="none" stroke="midnightblue" d="M1568.2,-59.7732C1490.65,-49.2784 1317.08,-25.7881 1242.72,-15.724"/>
<polygon fill="midnightblue" stroke="midnightblue" points="1242.87,-12.2126 1232.49,-14.3397 1241.93,-19.1494 1242.87,-12.2126"/>
</g>
<!-- Node30&#45;&gt;Node9 -->
<g id="edge56" class="edge"><title>Node30&#45;&gt;Node9</title>
<path fill="none" stroke="midnightblue" d="M351.377,-224.444C377.339,-215.399 418.484,-201.064 447.613,-190.916"/>
<polygon fill="midnightblue" stroke="midnightblue" points="449.079,-194.112 457.371,-187.516 446.776,-187.501 449.079,-194.112"/>
</g>
<!-- Node30&#45;&gt;Node10 -->
<g id="edge57" class="edge"><title>Node30&#45;&gt;Node10</title>
<path fill="none" stroke="midnightblue" d="M320.225,-224.368C306.301,-206.135 273.687,-163.426 255.55,-139.675"/>
<polygon fill="midnightblue" stroke="midnightblue" points="258.228,-137.415 249.377,-131.591 252.665,-141.663 258.228,-137.415"/>
</g>
<!-- Node30&#45;&gt;Node11 -->
<g id="edge55" class="edge"><title>Node30&#45;&gt;Node11</title>
<path fill="none" stroke="midnightblue" d="M329.128,-224.075C335.897,-197.945 355.774,-121.211 365.004,-85.577"/>
<polygon fill="midnightblue" stroke="midnightblue" points="368.477,-86.1263 367.597,-75.5681 361.701,-84.3709 368.477,-86.1263"/>
</g>
</g>
</svg>
