<?xml version="1.0" encoding="UTF-8" standalone="no"?>
<!DOCTYPE svg PUBLIC "-//W3C//DTD SVG 1.1//EN"
 "http://www.w3.org/Graphics/SVG/1.1/DTD/svg11.dtd">
<!-- Generated by graphviz version 2.38.0 (20140413.2041)
 -->
<!-- Title: osdk&#45;core/api/src/dji_waypoint.cpp Pages: 1 -->
<svg width="1572pt" height="431pt"
 viewBox="0.00 0.00 1572.30 431.00" xmlns="http://www.w3.org/2000/svg" xmlns:xlink="http://www.w3.org/1999/xlink">
<g id="graph0" class="graph" transform="scale(1 1) rotate(0) translate(4 427)">
<title>osdk&#45;core/api/src/dji_waypoint.cpp</title>
<polygon fill="white" stroke="none" points="-4,4 -4,-427 1568.3,-427 1568.3,4 -4,4"/>
<!-- Node1 -->
<g id="node1" class="node"><title>Node1</title>
<polygon fill="#bfbfbf" stroke="black" points="1278,-392.5 1278,-422.5 1382,-422.5 1382,-392.5 1278,-392.5"/>
<text text-anchor="start" x="1286" y="-410.5" font-family="Helvetica,sans-Serif" font-size="10.00">osdk&#45;core/api/src/dji</text>
<text text-anchor="middle" x="1330" y="-399.5" font-family="Helvetica,sans-Serif" font-size="10.00">_waypoint.cpp</text>
</g>
<!-- Node2 -->
<g id="node2" class="node"><title>Node2</title>
<g id="a_node2"><a xlink:href="dji__waypoint_8hpp.html" target="_top" xlink:title="Implementation of GPS Waypoint Missions for DJI OSDK. ">
<polygon fill="white" stroke="black" points="1304.5,-224.5 1304.5,-243.5 1393.5,-243.5 1393.5,-224.5 1304.5,-224.5"/>
<text text-anchor="middle" x="1349" y="-231.5" font-family="Helvetica,sans-Serif" font-size="10.00">dji_waypoint.hpp</text>
</a>
</g>
</g>
<!-- Node1&#45;&gt;Node2 -->
<g id="edge1" class="edge"><title>Node1&#45;&gt;Node2</title>
<path fill="none" stroke="midnightblue" d="M1343.63,-392.477C1361.12,-373.4 1390.56,-337.345 1402,-300 1404.6,-291.501 1405.73,-288.067 1402,-280 1396.08,-267.207 1384.53,-256.722 1373.72,-249.1"/>
<polygon fill="midnightblue" stroke="midnightblue" points="1375.62,-246.158 1365.33,-243.613 1371.79,-252.016 1375.62,-246.158"/>
</g>
<!-- Node11 -->
<g id="node11" class="node"><title>Node11</title>
<g id="a_node11"><a xlink:href="dji__mission__manager_8hpp.html" target="_top" xlink:title="Mission&#45;Manager API for DJI OSDK library. ">
<polygon fill="white" stroke="black" points="1266.5,-280.5 1266.5,-299.5 1393.5,-299.5 1393.5,-280.5 1266.5,-280.5"/>
<text text-anchor="middle" x="1330" y="-287.5" font-family="Helvetica,sans-Serif" font-size="10.00">dji_mission_manager.hpp</text>
</a>
</g>
</g>
<!-- Node1&#45;&gt;Node11 -->
<g id="edge12" class="edge"><title>Node1&#45;&gt;Node11</title>
<path fill="none" stroke="midnightblue" d="M1330,-392.337C1330,-371.622 1330,-333.016 1330,-309.899"/>
<polygon fill="midnightblue" stroke="midnightblue" points="1333.5,-309.669 1330,-299.669 1326.5,-309.669 1333.5,-309.669"/>
</g>
<!-- Node14 -->
<g id="node14" class="node"><title>Node14</title>
<g id="a_node14"><a xlink:href="dji__vehicle_8hpp.html" target="_top" xlink:title="Vehicle API for DJI onboardSDK library. ">
<polygon fill="white" stroke="black" points="604.5,-336.5 604.5,-355.5 685.5,-355.5 685.5,-336.5 604.5,-336.5"/>
<text text-anchor="middle" x="645" y="-343.5" font-family="Helvetica,sans-Serif" font-size="10.00">dji_vehicle.hpp</text>
</a>
</g>
</g>
<!-- Node1&#45;&gt;Node14 -->
<g id="edge18" class="edge"><title>Node1&#45;&gt;Node14</title>
<path fill="none" stroke="midnightblue" d="M1277.95,-401.979C1150.25,-390.887 822.667,-362.432 696.035,-351.433"/>
<polygon fill="midnightblue" stroke="midnightblue" points="696.106,-347.926 685.841,-350.547 695.5,-354.9 696.106,-347.926"/>
</g>
<!-- Node3 -->
<g id="node3" class="node"><title>Node3</title>
<g id="a_node3"><a xlink:href="dji__mission__base_8hpp.html" target="_top" xlink:title="Mission&#45;Base abstract class for DJI OSDK library. ">
<polygon fill="white" stroke="black" points="1119,-168.5 1119,-187.5 1229,-187.5 1229,-168.5 1119,-168.5"/>
<text text-anchor="middle" x="1174" y="-175.5" font-family="Helvetica,sans-Serif" font-size="10.00">dji_mission_base.hpp</text>
</a>
</g>
</g>
<!-- Node2&#45;&gt;Node3 -->
<g id="edge2" class="edge"><title>Node2&#45;&gt;Node3</title>
<path fill="none" stroke="midnightblue" d="M1321.27,-224.444C1291.57,-215.28 1244.28,-200.688 1211.33,-190.519"/>
<polygon fill="midnightblue" stroke="midnightblue" points="1212.19,-187.121 1201.6,-187.516 1210.12,-193.809 1212.19,-187.121"/>
</g>
<!-- Node4 -->
<g id="node4" class="node"><title>Node4</title>
<g id="a_node4"><a xlink:href="dji__command_8hpp.html" target="_top" xlink:title="All DJI OSDK OpenProtocol Command IDs. ">
<polygon fill="white" stroke="black" points="1286.5,-112.5 1286.5,-131.5 1379.5,-131.5 1379.5,-112.5 1286.5,-112.5"/>
<text text-anchor="middle" x="1333" y="-119.5" font-family="Helvetica,sans-Serif" font-size="10.00">dji_command.hpp</text>
</a>
</g>
</g>
<!-- Node3&#45;&gt;Node4 -->
<g id="edge3" class="edge"><title>Node3&#45;&gt;Node4</title>
<path fill="none" stroke="midnightblue" d="M1199.19,-168.444C1225.94,-159.359 1268.4,-144.939 1298.31,-134.783"/>
<polygon fill="midnightblue" stroke="midnightblue" points="1299.58,-138.046 1307.92,-131.516 1297.33,-131.418 1299.58,-138.046"/>
</g>
<!-- Node7 -->
<g id="node7" class="node"><title>Node7</title>
<g id="a_node7"><a xlink:href="dji__type_8hpp.html" target="_top" xlink:title="Data type and Data Structure definitions for use throughout DJI OSDK. ">
<polygon fill="white" stroke="black" points="1139.5,-112.5 1139.5,-131.5 1208.5,-131.5 1208.5,-112.5 1139.5,-112.5"/>
<text text-anchor="middle" x="1174" y="-119.5" font-family="Helvetica,sans-Serif" font-size="10.00">dji_type.hpp</text>
</a>
</g>
</g>
<!-- Node3&#45;&gt;Node7 -->
<g id="edge7" class="edge"><title>Node3&#45;&gt;Node7</title>
<path fill="none" stroke="midnightblue" d="M1174,-168.083C1174,-161.006 1174,-150.861 1174,-141.986"/>
<polygon fill="midnightblue" stroke="midnightblue" points="1177.5,-141.751 1174,-131.751 1170.5,-141.751 1177.5,-141.751"/>
</g>
<!-- Node9 -->
<g id="node9" class="node"><title>Node9</title>
<g id="a_node9"><a xlink:href="dji__vehicle__callback_8hpp.html" target="_top" xlink:title="Type definition for new Vehicle&#45;style callbacks. ">
<polygon fill="white" stroke="black" points="231,-112.5 231,-131.5 353,-131.5 353,-112.5 231,-112.5"/>
<text text-anchor="middle" x="292" y="-119.5" font-family="Helvetica,sans-Serif" font-size="10.00">dji_vehicle_callback.hpp</text>
</a>
</g>
</g>
<!-- Node3&#45;&gt;Node9 -->
<g id="edge10" class="edge"><title>Node3&#45;&gt;Node9</title>
<path fill="none" stroke="midnightblue" d="M1118.81,-173.406C1093.05,-171.74 1061.95,-169.746 1034,-168 787.638,-152.611 495.214,-135.098 363.08,-127.225"/>
<polygon fill="midnightblue" stroke="midnightblue" points="363.273,-123.73 353.082,-126.629 362.857,-130.718 363.273,-123.73"/>
</g>
<!-- Node5 -->
<g id="node5" class="node"><title>Node5</title>
<g id="a_node5"><a xlink:href="dji__error_8hpp.html" target="_top" xlink:title="All DJI OSDK OpenProtocol ACK Error Codes. ">
<polygon fill="white" stroke="black" points="1298,-56.5 1298,-75.5 1368,-75.5 1368,-56.5 1298,-56.5"/>
<text text-anchor="middle" x="1333" y="-63.5" font-family="Helvetica,sans-Serif" font-size="10.00">dji_error.hpp</text>
</a>
</g>
</g>
<!-- Node4&#45;&gt;Node5 -->
<g id="edge4" class="edge"><title>Node4&#45;&gt;Node5</title>
<path fill="none" stroke="midnightblue" d="M1333,-112.083C1333,-105.006 1333,-94.8611 1333,-85.9865"/>
<polygon fill="midnightblue" stroke="midnightblue" points="1336.5,-85.751 1333,-75.7511 1329.5,-85.7511 1336.5,-85.751"/>
</g>
<!-- Node6 -->
<g id="node6" class="node"><title>Node6</title>
<polygon fill="white" stroke="#bfbfbf" points="1195.5,-0.5 1195.5,-19.5 1244.5,-19.5 1244.5,-0.5 1195.5,-0.5"/>
<text text-anchor="middle" x="1220" y="-7.5" font-family="Helvetica,sans-Serif" font-size="10.00">stdint.h</text>
</g>
<!-- Node4&#45;&gt;Node6 -->
<g id="edge6" class="edge"><title>Node4&#45;&gt;Node6</title>
<path fill="none" stroke="midnightblue" d="M1324.13,-112.368C1305.15,-93.8941 1260.36,-50.2926 1236.17,-26.7436"/>
<polygon fill="midnightblue" stroke="midnightblue" points="1238.43,-24.0588 1228.83,-19.5914 1233.55,-29.0747 1238.43,-24.0588"/>
</g>
<!-- Node5&#45;&gt;Node6 -->
<g id="edge5" class="edge"><title>Node5&#45;&gt;Node6</title>
<path fill="none" stroke="midnightblue" d="M1315.09,-56.4435C1296.75,-47.6751 1267.99,-33.9355 1246.91,-23.8579"/>
<polygon fill="midnightblue" stroke="midnightblue" points="1248.35,-20.6703 1237.82,-19.5164 1245.33,-26.9862 1248.35,-20.6703"/>
</g>
<!-- Node7&#45;&gt;Node6 -->
<g id="edge9" class="edge"><title>Node7&#45;&gt;Node6</title>
<path fill="none" stroke="midnightblue" d="M1174.96,-112.259C1176.59,-99.4618 1180.59,-75.0767 1189,-56 1193.44,-45.9267 1200.22,-35.7403 1206.31,-27.6127"/>
<polygon fill="midnightblue" stroke="midnightblue" points="1209.1,-29.7352 1212.51,-19.7043 1203.59,-25.4191 1209.1,-29.7352"/>
</g>
<!-- Node8 -->
<g id="node8" class="node"><title>Node8</title>
<polygon fill="white" stroke="#bfbfbf" points="1198.5,-56.5 1198.5,-75.5 1241.5,-75.5 1241.5,-56.5 1198.5,-56.5"/>
<text text-anchor="middle" x="1220" y="-63.5" font-family="Helvetica,sans-Serif" font-size="10.00">cstdio</text>
</g>
<!-- Node7&#45;&gt;Node8 -->
<g id="edge8" class="edge"><title>Node7&#45;&gt;Node8</title>
<path fill="none" stroke="midnightblue" d="M1181.6,-112.083C1188.23,-104.298 1198.02,-92.8015 1206.06,-83.3665"/>
<polygon fill="midnightblue" stroke="midnightblue" points="1208.73,-85.6332 1212.55,-75.7511 1203.4,-81.0939 1208.73,-85.6332"/>
</g>
<!-- Node10 -->
<g id="node10" class="node"><title>Node10</title>
<polygon fill="white" stroke="#bfbfbf" points="280.5,-56.5 280.5,-75.5 391.5,-75.5 391.5,-56.5 280.5,-56.5"/>
<text text-anchor="middle" x="336" y="-63.5" font-family="Helvetica,sans-Serif" font-size="10.00">dji_open_protocol.hpp</text>
</g>
<!-- Node9&#45;&gt;Node10 -->
<g id="edge11" class="edge"><title>Node9&#45;&gt;Node10</title>
<path fill="none" stroke="midnightblue" d="M299.266,-112.083C305.545,-104.377 314.788,-93.0333 322.431,-83.6531"/>
<polygon fill="midnightblue" stroke="midnightblue" points="325.266,-85.7143 328.869,-75.7511 319.839,-81.2926 325.266,-85.7143"/>
</g>
<!-- Node11&#45;&gt;Node2 -->
<g id="edge17" class="edge"><title>Node11&#45;&gt;Node2</title>
<path fill="none" stroke="midnightblue" d="M1333.14,-280.083C1335.68,-272.849 1339.36,-262.409 1342.53,-253.397"/>
<polygon fill="midnightblue" stroke="midnightblue" points="1345.9,-254.346 1345.92,-243.751 1339.3,-252.023 1345.9,-254.346"/>
</g>
<!-- Node12 -->
<g id="node12" class="node"><title>Node12</title>
<g id="a_node12"><a xlink:href="dji__hotpoint_8hpp.html" target="_top" xlink:title="Implementation of HotPoint (Point of Interest) Missions for DJI OSDK. ">
<polygon fill="white" stroke="black" points="863.5,-224.5 863.5,-243.5 948.5,-243.5 948.5,-224.5 863.5,-224.5"/>
<text text-anchor="middle" x="906" y="-231.5" font-family="Helvetica,sans-Serif" font-size="10.00">dji_hotpoint.hpp</text>
</a>
</g>
</g>
<!-- Node11&#45;&gt;Node12 -->
<g id="edge13" class="edge"><title>Node11&#45;&gt;Node12</title>
<path fill="none" stroke="midnightblue" d="M1266.35,-282.299C1194.27,-274.487 1073.08,-260.674 958.536,-244.009"/>
<polygon fill="midnightblue" stroke="midnightblue" points="958.941,-240.531 948.539,-242.544 957.926,-247.457 958.941,-240.531"/>
</g>
<!-- Node12&#45;&gt;Node3 -->
<g id="edge14" class="edge"><title>Node12&#45;&gt;Node3</title>
<path fill="none" stroke="midnightblue" d="M948.465,-224.444C995.413,-214.984 1071.08,-199.738 1121.65,-189.547"/>
<polygon fill="midnightblue" stroke="midnightblue" points="1122.62,-192.923 1131.73,-187.516 1121.24,-186.061 1122.62,-192.923"/>
</g>
<!-- Node13 -->
<g id="node13" class="node"><title>Node13</title>
<g id="a_node13"><a xlink:href="dji__telemetry_8hpp.html" target="_top" xlink:title="Enumeration of all telemetry data types, structures and maps. ">
<polygon fill="white" stroke="black" points="577.5,-168.5 577.5,-187.5 668.5,-187.5 668.5,-168.5 577.5,-168.5"/>
<text text-anchor="middle" x="623" y="-175.5" font-family="Helvetica,sans-Serif" font-size="10.00">dji_telemetry.hpp</text>
</a>
</g>
</g>
<!-- Node12&#45;&gt;Node13 -->
<g id="edge15" class="edge"><title>Node12&#45;&gt;Node13</title>
<path fill="none" stroke="midnightblue" d="M863.326,-224.857C813.859,-215.418 732.21,-199.839 678.015,-189.498"/>
<polygon fill="midnightblue" stroke="midnightblue" points="678.374,-186.003 667.895,-187.567 677.062,-192.879 678.374,-186.003"/>
</g>
<!-- Node13&#45;&gt;Node7 -->
<g id="edge16" class="edge"><title>Node13&#45;&gt;Node7</title>
<path fill="none" stroke="midnightblue" d="M668.559,-172.535C772.508,-162.348 1026.14,-137.491 1129.28,-127.383"/>
<polygon fill="midnightblue" stroke="midnightblue" points="1129.75,-130.854 1139.36,-126.395 1129.07,-123.887 1129.75,-130.854"/>
</g>
<!-- Node14&#45;&gt;Node4 -->
<g id="edge27" class="edge"><title>Node14&#45;&gt;Node4</title>
<path fill="none" stroke="midnightblue" d="M685.676,-344.53C839.423,-342.507 1379.88,-333.086 1449,-300 1515.63,-268.105 1596.63,-225.292 1550,-168 1530.12,-143.58 1446.96,-131.991 1389.56,-126.808"/>
<polygon fill="midnightblue" stroke="midnightblue" points="1389.78,-123.315 1379.52,-125.943 1389.18,-130.289 1389.78,-123.315"/>
</g>
<!-- Node14&#45;&gt;Node7 -->
<g id="edge60" class="edge"><title>Node14&#45;&gt;Node7</title>
<path fill="none" stroke="midnightblue" d="M685.583,-343.735C785.952,-340.202 1043.51,-328.549 1124,-300 1195.88,-274.507 1228.29,-259.8 1254,-188 1257,-179.631 1258.49,-175.673 1254,-168 1245.14,-152.85 1229.09,-142.406 1213.69,-135.424"/>
<polygon fill="midnightblue" stroke="midnightblue" points="1214.83,-132.106 1204.25,-131.512 1212.15,-138.573 1214.83,-132.106"/>
</g>
<!-- Node14&#45;&gt;Node9 -->
<g id="edge61" class="edge"><title>Node14&#45;&gt;Node9</title>
<path fill="none" stroke="midnightblue" d="M604.289,-345.427C480.463,-345.684 113.367,-338.37 57,-244 16.2981,-175.856 137.879,-144.558 221.027,-131.424"/>
<polygon fill="midnightblue" stroke="midnightblue" points="221.604,-134.877 230.963,-129.911 220.55,-127.956 221.604,-134.877"/>
</g>
<!-- Node14&#45;&gt;Node10 -->
<g id="edge52" class="edge"><title>Node14&#45;&gt;Node10</title>
<path fill="none" stroke="midnightblue" d="M604.312,-344.301C493.911,-341.987 190.721,-332.748 97,-300 48.0092,-282.882 0,-286.895 0,-235 0,-235 0,-235 0,-177 0,-120.756 172.193,-88.667 270.041,-74.9727"/>
<polygon fill="midnightblue" stroke="midnightblue" points="270.708,-78.4141 280.139,-73.5876 269.756,-71.479 270.708,-78.4141"/>
</g>
<!-- Node14&#45;&gt;Node11 -->
<g id="edge49" class="edge"><title>Node14&#45;&gt;Node11</title>
<path fill="none" stroke="midnightblue" d="M685.539,-342.569C783.157,-336.591 1038.97,-320.178 1252,-300 1253.3,-299.877 1254.61,-299.751 1255.93,-299.622"/>
<polygon fill="midnightblue" stroke="midnightblue" points="1256.58,-303.074 1266.17,-298.58 1255.87,-296.109 1256.58,-303.074"/>
</g>
<!-- Node15 -->
<g id="node15" class="node"><title>Node15</title>
<polygon fill="white" stroke="#bfbfbf" points="641,-112.5 641,-131.5 687,-131.5 687,-112.5 641,-112.5"/>
<text text-anchor="middle" x="664" y="-119.5" font-family="Helvetica,sans-Serif" font-size="10.00">cstdint</text>
</g>
<!-- Node14&#45;&gt;Node15 -->
<g id="edge19" class="edge"><title>Node14&#45;&gt;Node15</title>
<path fill="none" stroke="midnightblue" d="M640.02,-336.473C634.835,-327.496 626.568,-312.903 620,-300 605.697,-271.904 551.087,-194.607 568,-168 581.724,-146.409 608.844,-134.998 630.768,-129.078"/>
<polygon fill="midnightblue" stroke="midnightblue" points="631.829,-132.422 640.719,-126.659 630.175,-125.62 631.829,-132.422"/>
</g>
<!-- Node16 -->
<g id="node16" class="node"><title>Node16</title>
<g id="a_node16"><a xlink:href="dji__broadcast_8hpp.html" target="_top" xlink:title="Broadcast Telemetry API for DJI onboardSDK library. ">
<polygon fill="white" stroke="black" points="441.5,-224.5 441.5,-243.5 534.5,-243.5 534.5,-224.5 441.5,-224.5"/>
<text text-anchor="middle" x="488" y="-231.5" font-family="Helvetica,sans-Serif" font-size="10.00">dji_broadcast.hpp</text>
</a>
</g>
</g>
<!-- Node14&#45;&gt;Node16 -->
<g id="edge20" class="edge"><title>Node14&#45;&gt;Node16</title>
<path fill="none" stroke="midnightblue" d="M604.288,-342.521C547.714,-338.13 449.798,-326.782 428,-300 412.834,-281.366 438.612,-261.232 460.955,-248.39"/>
<polygon fill="midnightblue" stroke="midnightblue" points="462.777,-251.383 469.878,-243.521 459.424,-245.239 462.777,-251.383"/>
</g>
<!-- Node17 -->
<g id="node17" class="node"><title>Node17</title>
<g id="a_node17"><a xlink:href="dji__camera_8hpp.html" target="_top" xlink:title="Camera/Gimbal API for DJI onboardSDK library. ">
<polygon fill="white" stroke="black" points="1361.5,-168.5 1361.5,-187.5 1444.5,-187.5 1444.5,-168.5 1361.5,-168.5"/>
<text text-anchor="middle" x="1403" y="-175.5" font-family="Helvetica,sans-Serif" font-size="10.00">dji_camera.hpp</text>
</a>
</g>
</g>
<!-- Node14&#45;&gt;Node17 -->
<g id="edge23" class="edge"><title>Node14&#45;&gt;Node17</title>
<path fill="none" stroke="midnightblue" d="M685.522,-344.107C838.993,-340.534 1377.13,-326.172 1402,-300 1428.07,-272.56 1417.94,-223.808 1409.65,-197.335"/>
<polygon fill="midnightblue" stroke="midnightblue" points="1412.94,-196.135 1406.43,-187.776 1406.31,-198.37 1412.94,-196.135"/>
</g>
<!-- Node18 -->
<g id="node18" class="node"><title>Node18</title>
<polygon fill="white" stroke="#bfbfbf" points="193,-280.5 193,-299.5 305,-299.5 305,-280.5 193,-280.5"/>
<text text-anchor="middle" x="249" y="-287.5" font-family="Helvetica,sans-Serif" font-size="10.00">dji_circular_buffer.hpp</text>
</g>
<!-- Node14&#45;&gt;Node18 -->
<g id="edge26" class="edge"><title>Node14&#45;&gt;Node18</title>
<path fill="none" stroke="midnightblue" d="M604.482,-339.475C536.264,-330.172 397.861,-311.299 315.316,-300.043"/>
<polygon fill="midnightblue" stroke="midnightblue" points="315.67,-296.559 305.288,-298.676 314.724,-303.495 315.67,-296.559"/>
</g>
<!-- Node19 -->
<g id="node19" class="node"><title>Node19</title>
<g id="a_node19"><a xlink:href="dji__control_8hpp.html" target="_top" xlink:title="Control API for DJI OSDK library. ">
<polygon fill="white" stroke="black" points="805,-280.5 805,-299.5 885,-299.5 885,-280.5 805,-280.5"/>
<text text-anchor="middle" x="845" y="-287.5" font-family="Helvetica,sans-Serif" font-size="10.00">dji_control.hpp</text>
</a>
</g>
</g>
<!-- Node14&#45;&gt;Node19 -->
<g id="edge28" class="edge"><title>Node14&#45;&gt;Node19</title>
<path fill="none" stroke="midnightblue" d="M676.691,-336.444C711.068,-327.162 766.077,-312.309 803.789,-302.127"/>
<polygon fill="midnightblue" stroke="midnightblue" points="804.716,-305.502 813.458,-299.516 802.891,-298.744 804.716,-305.502"/>
</g>
<!-- Node22 -->
<g id="node22" class="node"><title>Node22</title>
<g id="a_node22"><a xlink:href="dji__version_8hpp.html" target="_top" xlink:title="Drone/SDK Version definition for DJI onboardSDK library. ">
<polygon fill="white" stroke="black" points="725,-168.5 725,-187.5 807,-187.5 807,-168.5 725,-168.5"/>
<text text-anchor="middle" x="766" y="-175.5" font-family="Helvetica,sans-Serif" font-size="10.00">dji_version.hpp</text>
</a>
</g>
</g>
<!-- Node14&#45;&gt;Node22 -->
<g id="edge62" class="edge"><title>Node14&#45;&gt;Node22</title>
<path fill="none" stroke="midnightblue" d="M685.63,-339.794C710.723,-334.306 741.23,-323.053 758,-300 780.008,-269.747 775.317,-223.191 770.389,-197.542"/>
<polygon fill="midnightblue" stroke="midnightblue" points="773.787,-196.696 768.271,-187.65 766.942,-198.161 773.787,-196.696"/>
</g>
<!-- Node24 -->
<g id="node24" class="node"><title>Node24</title>
<g id="a_node24"><a xlink:href="dji__gimbal_8hpp.html" target="_top" xlink:title="Gimbal API for OSDK library. ">
<polygon fill="white" stroke="black" points="1462.5,-168.5 1462.5,-187.5 1541.5,-187.5 1541.5,-168.5 1462.5,-168.5"/>
<text text-anchor="middle" x="1502" y="-175.5" font-family="Helvetica,sans-Serif" font-size="10.00">dji_gimbal.hpp</text>
</a>
</g>
</g>
<!-- Node14&#45;&gt;Node24 -->
<g id="edge41" class="edge"><title>Node14&#45;&gt;Node24</title>
<path fill="none" stroke="midnightblue" d="M685.756,-344.758C836.626,-343.576 1357.99,-336.839 1422,-300 1461.89,-277.044 1485.59,-225.205 1495.89,-197.415"/>
<polygon fill="midnightblue" stroke="midnightblue" points="1499.28,-198.339 1499.3,-187.744 1492.68,-196.017 1499.28,-198.339"/>
</g>
<!-- Node25 -->
<g id="node25" class="node"><title>Node25</title>
<polygon fill="white" stroke="#bfbfbf" points="437,-280.5 437,-299.5 535,-299.5 535,-280.5 437,-280.5"/>
<text text-anchor="middle" x="486" y="-287.5" font-family="Helvetica,sans-Serif" font-size="10.00">dji_hard_driver.hpp</text>
</g>
<!-- Node14&#45;&gt;Node25 -->
<g id="edge44" class="edge"><title>Node14&#45;&gt;Node25</title>
<path fill="none" stroke="midnightblue" d="M619.806,-336.444C593.057,-327.359 550.597,-312.939 520.695,-302.783"/>
<polygon fill="midnightblue" stroke="midnightblue" points="521.671,-299.418 511.076,-299.516 519.419,-306.046 521.671,-299.418"/>
</g>
<!-- Node26 -->
<g id="node26" class="node"><title>Node26</title>
<g id="a_node26"><a xlink:href="dji__hardware__sync_8hpp.html" target="_top" xlink:title="Hardware Sync API for DJI OSDK. ">
<polygon fill="white" stroke="black" points="999,-280.5 999,-299.5 1115,-299.5 1115,-280.5 999,-280.5"/>
<text text-anchor="middle" x="1057" y="-287.5" font-family="Helvetica,sans-Serif" font-size="10.00">dji_hardware_sync.hpp</text>
</a>
</g>
</g>
<!-- Node14&#45;&gt;Node26 -->
<g id="edge45" class="edge"><title>Node14&#45;&gt;Node26</title>
<path fill="none" stroke="midnightblue" d="M685.632,-339.674C756.323,-330.409 902.632,-311.233 989.006,-299.912"/>
<polygon fill="midnightblue" stroke="midnightblue" points="989.515,-303.375 998.975,-298.605 988.605,-296.435 989.515,-303.375"/>
</g>
<!-- Node27 -->
<g id="node27" class="node"><title>Node27</title>
<g id="a_node27"><a xlink:href="dji__mfio_8hpp.html" target="_top" xlink:title="MFIO API for DJI OSDK library. ">
<polygon fill="white" stroke="black" points="233.5,-224.5 233.5,-243.5 302.5,-243.5 302.5,-224.5 233.5,-224.5"/>
<text text-anchor="middle" x="268" y="-231.5" font-family="Helvetica,sans-Serif" font-size="10.00">dji_mfio.hpp</text>
</a>
</g>
</g>
<!-- Node14&#45;&gt;Node27 -->
<g id="edge47" class="edge"><title>Node14&#45;&gt;Node27</title>
<path fill="none" stroke="midnightblue" d="M604.426,-341.329C554.383,-335.975 467.203,-323.939 396,-300 357.037,-286.9 315.15,-263.7 290.279,-248.852"/>
<polygon fill="midnightblue" stroke="midnightblue" points="291.988,-245.795 281.621,-243.608 288.361,-251.783 291.988,-245.795"/>
</g>
<!-- Node28 -->
<g id="node28" class="node"><title>Node28</title>
<g id="a_node28"><a xlink:href="dji__mobile__communication_8hpp.html" target="_top" xlink:title="Implementation of DJI Mobile&#45;Onboard SDK Communication (MOC) ">
<polygon fill="white" stroke="black" points="66,-224.5 66,-243.5 216,-243.5 216,-224.5 66,-224.5"/>
<text text-anchor="middle" x="141" y="-231.5" font-family="Helvetica,sans-Serif" font-size="10.00">dji_mobile_communication.hpp</text>
</a>
</g>
</g>
<!-- Node14&#45;&gt;Node28 -->
<g id="edge50" class="edge"><title>Node14&#45;&gt;Node28</title>
<path fill="none" stroke="midnightblue" d="M604.364,-345.42C505.289,-345.76 254.275,-342.3 184,-300 166.292,-289.341 154.407,-268.261 147.701,-252.99"/>
<polygon fill="midnightblue" stroke="midnightblue" points="150.874,-251.501 143.877,-243.545 144.385,-254.128 150.874,-251.501"/>
</g>
<!-- Node29 -->
<g id="node29" class="node"><title>Node29</title>
<g id="a_node29"><a xlink:href="dji__status_8hpp.html" target="_top" xlink:title="Status information for DJI Vehicle. ">
<polygon fill="white" stroke="black" points="768.5,-56.5 768.5,-75.5 845.5,-75.5 845.5,-56.5 768.5,-56.5"/>
<text text-anchor="middle" x="807" y="-63.5" font-family="Helvetica,sans-Serif" font-size="10.00">dji_status.hpp</text>
</a>
</g>
</g>
<!-- Node14&#45;&gt;Node29 -->
<g id="edge53" class="edge"><title>Node14&#45;&gt;Node29</title>
<path fill="none" stroke="midnightblue" d="M634.82,-336.135C606.325,-310.203 529.835,-232.272 561,-168 596.036,-95.7431 697.026,-75.0492 758.172,-69.2069"/>
<polygon fill="midnightblue" stroke="midnightblue" points="758.699,-72.6747 768.364,-68.3349 758.102,-65.7002 758.699,-72.6747"/>
</g>
<!-- Node30 -->
<g id="node30" class="node"><title>Node30</title>
<g id="a_node30"><a xlink:href="dji__subscription_8hpp.html" target="_top" xlink:title="Telemetry Subscription API for DJI OSDK library. ">
<polygon fill="white" stroke="black" points="320.5,-224.5 320.5,-243.5 423.5,-243.5 423.5,-224.5 320.5,-224.5"/>
<text text-anchor="middle" x="372" y="-231.5" font-family="Helvetica,sans-Serif" font-size="10.00">dji_subscription.hpp</text>
</a>
</g>
</g>
<!-- Node14&#45;&gt;Node30 -->
<g id="edge55" class="edge"><title>Node14&#45;&gt;Node30</title>
<path fill="none" stroke="midnightblue" d="M604.392,-345.451C556.678,-344.152 476.822,-336.106 420,-300 402.107,-288.63 388.612,-268.032 380.558,-253.064"/>
<polygon fill="midnightblue" stroke="midnightblue" points="383.501,-251.127 375.864,-243.783 377.254,-254.286 383.501,-251.127"/>
</g>
<!-- Node31 -->
<g id="node31" class="node"><title>Node31</title>
<polygon fill="white" stroke="#bfbfbf" points="629,-280.5 629,-299.5 749,-299.5 749,-280.5 629,-280.5"/>
<text text-anchor="middle" x="689" y="-287.5" font-family="Helvetica,sans-Serif" font-size="10.00">dji_thread_manager.hpp</text>
</g>
<!-- Node14&#45;&gt;Node31 -->
<g id="edge59" class="edge"><title>Node14&#45;&gt;Node31</title>
<path fill="none" stroke="midnightblue" d="M652.266,-336.083C658.545,-328.377 667.788,-317.033 675.431,-307.653"/>
<polygon fill="midnightblue" stroke="midnightblue" points="678.266,-309.714 681.869,-299.751 672.839,-305.293 678.266,-309.714"/>
</g>
<!-- Node16&#45;&gt;Node9 -->
<g id="edge22" class="edge"><title>Node16&#45;&gt;Node9</title>
<path fill="none" stroke="midnightblue" d="M472.62,-224.368C438.629,-205.292 356.898,-159.422 316.064,-136.505"/>
<polygon fill="midnightblue" stroke="midnightblue" points="317.742,-133.433 307.308,-131.591 314.316,-139.538 317.742,-133.433"/>
</g>
<!-- Node16&#45;&gt;Node13 -->
<g id="edge21" class="edge"><title>Node16&#45;&gt;Node13</title>
<path fill="none" stroke="midnightblue" d="M509.391,-224.444C531.707,-215.517 566.903,-201.439 592.208,-191.317"/>
<polygon fill="midnightblue" stroke="midnightblue" points="593.724,-194.48 601.709,-187.516 591.124,-187.981 593.724,-194.48"/>
</g>
<!-- Node17&#45;&gt;Node4 -->
<g id="edge24" class="edge"><title>Node17&#45;&gt;Node4</title>
<path fill="none" stroke="midnightblue" d="M1391.75,-168.324C1381.2,-160.185 1365.2,-147.839 1352.56,-138.087"/>
<polygon fill="midnightblue" stroke="midnightblue" points="1354.51,-135.171 1344.45,-131.834 1350.23,-140.713 1354.51,-135.171"/>
</g>
<!-- Node17&#45;&gt;Node7 -->
<g id="edge25" class="edge"><title>Node17&#45;&gt;Node7</title>
<path fill="none" stroke="midnightblue" d="M1366.71,-168.444C1326.55,-158.972 1261.79,-143.702 1218.57,-133.51"/>
<polygon fill="midnightblue" stroke="midnightblue" points="1219.15,-130.052 1208.62,-131.163 1217.55,-136.865 1219.15,-130.052"/>
</g>
<!-- Node19&#45;&gt;Node7 -->
<g id="edge39" class="edge"><title>Node19&#45;&gt;Node7</title>
<path fill="none" stroke="midnightblue" d="M885.375,-286.929C927.158,-283.218 993.043,-272.865 1042,-244 1081.04,-220.98 1076.13,-198.119 1110,-168 1122.82,-156.597 1138.58,-145.489 1151.24,-137.163"/>
<polygon fill="midnightblue" stroke="midnightblue" points="1153.33,-139.984 1159.84,-131.626 1149.54,-134.1 1153.33,-139.984"/>
</g>
<!-- Node19&#45;&gt;Node9 -->
<g id="edge40" class="edge"><title>Node19&#45;&gt;Node9</title>
<path fill="none" stroke="midnightblue" d="M834.529,-280.37C803.557,-255.024 712.351,-181.722 677,-168 621.464,-146.443 458.597,-133.18 363.422,-127.049"/>
<polygon fill="midnightblue" stroke="midnightblue" points="363.498,-123.547 353.296,-126.407 363.055,-130.533 363.498,-123.547"/>
</g>
<!-- Node19&#45;&gt;Node10 -->
<g id="edge38" class="edge"><title>Node19&#45;&gt;Node10</title>
<path fill="none" stroke="midnightblue" d="M845.346,-280.276C845.738,-258.704 843.87,-202.135 816,-168 778.778,-122.41 752.555,-128.293 696,-112 595.851,-83.1485 474.766,-72.7938 401.65,-69.0783"/>
<polygon fill="midnightblue" stroke="midnightblue" points="401.815,-65.5823 391.658,-68.5968 401.478,-72.5741 401.815,-65.5823"/>
</g>
<!-- Node20 -->
<g id="node20" class="node"><title>Node20</title>
<g id="a_node20"><a xlink:href="dji__ack_8hpp.html" target="_top" xlink:title="All DJI OSDK ACK parsing. ">
<polygon fill="white" stroke="black" points="967,-224.5 967,-243.5 1033,-243.5 1033,-224.5 967,-224.5"/>
<text text-anchor="middle" x="1000" y="-231.5" font-family="Helvetica,sans-Serif" font-size="10.00">dji_ack.hpp</text>
</a>
</g>
</g>
<!-- Node19&#45;&gt;Node20 -->
<g id="edge29" class="edge"><title>Node19&#45;&gt;Node20</title>
<path fill="none" stroke="midnightblue" d="M869.56,-280.444C895.523,-271.399 936.668,-257.064 965.797,-246.916"/>
<polygon fill="midnightblue" stroke="midnightblue" points="967.263,-250.112 975.555,-243.516 964.96,-243.501 967.263,-250.112"/>
</g>
<!-- Node20&#45;&gt;Node4 -->
<g id="edge30" class="edge"><title>Node20&#45;&gt;Node4</title>
<path fill="none" stroke="midnightblue" d="M1033.17,-231.037C1080.31,-227.302 1168.67,-216.778 1238,-188 1267.5,-175.753 1297.2,-153.459 1315.35,-138.439"/>
<polygon fill="midnightblue" stroke="midnightblue" points="1317.91,-140.858 1323.28,-131.726 1313.38,-135.516 1317.91,-140.858"/>
</g>
<!-- Node20&#45;&gt;Node7 -->
<g id="edge33" class="edge"><title>Node20&#45;&gt;Node7</title>
<path fill="none" stroke="midnightblue" d="M1008.85,-224.138C1022.56,-210.751 1050.16,-185.121 1077,-168 1097.49,-154.934 1122.38,-143.466 1141.82,-135.377"/>
<polygon fill="midnightblue" stroke="midnightblue" points="1143.22,-138.587 1151.16,-131.575 1140.58,-132.104 1143.22,-138.587"/>
</g>
<!-- Node21 -->
<g id="node21" class="node"><title>Node21</title>
<g id="a_node21"><a xlink:href="dji__mission__type_8hpp_source.html" target="_top" xlink:title="dji_mission_type.hpp">
<polygon fill="white" stroke="black" points="917,-168.5 917,-187.5 1025,-187.5 1025,-168.5 917,-168.5"/>
<text text-anchor="middle" x="971" y="-175.5" font-family="Helvetica,sans-Serif" font-size="10.00">dji_mission_type.hpp</text>
</a>
</g>
</g>
<!-- Node20&#45;&gt;Node21 -->
<g id="edge31" class="edge"><title>Node20&#45;&gt;Node21</title>
<path fill="none" stroke="midnightblue" d="M995.211,-224.083C991.242,-216.691 985.475,-205.953 980.565,-196.811"/>
<polygon fill="midnightblue" stroke="midnightblue" points="983.514,-194.905 975.7,-187.751 977.347,-198.217 983.514,-194.905"/>
</g>
<!-- Node20&#45;&gt;Node22 -->
<g id="edge34" class="edge"><title>Node20&#45;&gt;Node22</title>
<path fill="none" stroke="midnightblue" d="M966.97,-225.378C926.797,-216.107 858.708,-200.394 813.06,-189.86"/>
<polygon fill="midnightblue" stroke="midnightblue" points="813.64,-186.402 803.109,-187.564 812.066,-193.223 813.64,-186.402"/>
</g>
<!-- Node23 -->
<g id="node23" class="node"><title>Node23</title>
<polygon fill="white" stroke="#bfbfbf" points="863.5,-168.5 863.5,-187.5 898.5,-187.5 898.5,-168.5 863.5,-168.5"/>
<text text-anchor="middle" x="881" y="-175.5" font-family="Helvetica,sans-Serif" font-size="10.00">map</text>
</g>
<!-- Node20&#45;&gt;Node23 -->
<g id="edge37" class="edge"><title>Node20&#45;&gt;Node23</title>
<path fill="none" stroke="midnightblue" d="M981.144,-224.444C961.391,-215.48 930.191,-201.322 907.866,-191.191"/>
<polygon fill="midnightblue" stroke="midnightblue" points="909.156,-187.933 898.604,-186.988 906.264,-194.308 909.156,-187.933"/>
</g>
<!-- Node21&#45;&gt;Node7 -->
<g id="edge32" class="edge"><title>Node21&#45;&gt;Node7</title>
<path fill="none" stroke="midnightblue" d="M1003.17,-168.444C1038.06,-159.162 1093.89,-144.309 1132.17,-134.127"/>
<polygon fill="midnightblue" stroke="midnightblue" points="1133.22,-137.47 1141.98,-131.516 1131.42,-130.705 1133.22,-137.47"/>
</g>
<!-- Node22&#45;&gt;Node4 -->
<g id="edge35" class="edge"><title>Node22&#45;&gt;Node4</title>
<path fill="none" stroke="midnightblue" d="M807.181,-172.717C821.945,-171.201 838.716,-169.499 854,-168 1006.53,-153.036 1186.48,-136.405 1276.19,-128.184"/>
<polygon fill="midnightblue" stroke="midnightblue" points="1276.77,-131.646 1286.41,-127.248 1276.13,-124.675 1276.77,-131.646"/>
</g>
<!-- Node22&#45;&gt;Node15 -->
<g id="edge36" class="edge"><title>Node22&#45;&gt;Node15</title>
<path fill="none" stroke="midnightblue" d="M749.612,-168.324C733.329,-159.703 708.133,-146.364 689.284,-136.386"/>
<polygon fill="midnightblue" stroke="midnightblue" points="690.823,-133.24 680.347,-131.655 687.548,-139.427 690.823,-133.24"/>
</g>
<!-- Node24&#45;&gt;Node4 -->
<g id="edge42" class="edge"><title>Node24&#45;&gt;Node4</title>
<path fill="none" stroke="midnightblue" d="M1475.22,-168.444C1446.67,-159.32 1401.27,-144.813 1369.46,-134.651"/>
<polygon fill="midnightblue" stroke="midnightblue" points="1370.24,-131.226 1359.65,-131.516 1368.11,-137.894 1370.24,-131.226"/>
</g>
<!-- Node24&#45;&gt;Node7 -->
<g id="edge43" class="edge"><title>Node24&#45;&gt;Node7</title>
<path fill="none" stroke="midnightblue" d="M1462.43,-169.656C1459.24,-169.088 1456.07,-168.529 1453,-168 1370.56,-153.782 1274.17,-138.541 1218.98,-129.947"/>
<polygon fill="midnightblue" stroke="midnightblue" points="1219.26,-126.448 1208.84,-128.37 1218.18,-133.365 1219.26,-126.448"/>
</g>
<!-- Node26&#45;&gt;Node7 -->
<g id="edge46" class="edge"><title>Node26&#45;&gt;Node7</title>
<path fill="none" stroke="midnightblue" d="M1093.69,-280.432C1136.96,-268.142 1206.94,-240.909 1238,-188 1250.19,-167.235 1225.32,-148.206 1203.12,-136.177"/>
<polygon fill="midnightblue" stroke="midnightblue" points="1204.69,-133.051 1194.19,-131.617 1201.51,-139.284 1204.69,-133.051"/>
</g>
<!-- Node27&#45;&gt;Node9 -->
<g id="edge48" class="edge"><title>Node27&#45;&gt;Node9</title>
<path fill="none" stroke="midnightblue" d="M269.883,-224.368C273.756,-206.617 282.691,-165.666 287.942,-141.597"/>
<polygon fill="midnightblue" stroke="midnightblue" points="291.413,-142.108 290.126,-131.591 284.574,-140.615 291.413,-142.108"/>
</g>
<!-- Node28&#45;&gt;Node9 -->
<g id="edge51" class="edge"><title>Node28&#45;&gt;Node9</title>
<path fill="none" stroke="midnightblue" d="M152.849,-224.368C178.65,-205.573 240.154,-160.768 272.05,-137.533"/>
<polygon fill="midnightblue" stroke="midnightblue" points="274.184,-140.309 280.206,-131.591 270.063,-134.651 274.184,-140.309"/>
</g>
<!-- Node29&#45;&gt;Node6 -->
<g id="edge54" class="edge"><title>Node29&#45;&gt;Node6</title>
<path fill="none" stroke="midnightblue" d="M845.854,-59.9198C926.019,-49.4382 1108.64,-25.5599 1185.21,-15.5492"/>
<polygon fill="midnightblue" stroke="midnightblue" points="1185.82,-18.9986 1195.28,-14.2316 1184.92,-12.0577 1185.82,-18.9986"/>
</g>
<!-- Node30&#45;&gt;Node9 -->
<g id="edge58" class="edge"><title>Node30&#45;&gt;Node9</title>
<path fill="none" stroke="midnightblue" d="M365.723,-224.368C352.52,-206.215 321.674,-163.802 304.356,-139.99"/>
<polygon fill="midnightblue" stroke="midnightblue" points="306.961,-137.62 298.248,-131.591 301.299,-141.737 306.961,-137.62"/>
</g>
<!-- Node30&#45;&gt;Node10 -->
<g id="edge56" class="edge"><title>Node30&#45;&gt;Node10</title>
<path fill="none" stroke="midnightblue" d="M372.565,-224.244C373.6,-203.968 374.65,-152.435 362,-112 358.941,-102.221 353.479,-92.2626 348.349,-84.2084"/>
<polygon fill="midnightblue" stroke="midnightblue" points="351.138,-82.0838 342.642,-75.7531 345.335,-85.9999 351.138,-82.0838"/>
</g>
<!-- Node30&#45;&gt;Node13 -->
<g id="edge57" class="edge"><title>Node30&#45;&gt;Node13</title>
<path fill="none" stroke="midnightblue" d="M411.772,-224.444C455.558,-215.023 526.014,-199.866 573.38,-189.675"/>
<polygon fill="midnightblue" stroke="midnightblue" points="574.374,-193.041 583.414,-187.516 572.902,-186.198 574.374,-193.041"/>
</g>
</g>
</svg>
