<?xml version="1.0" encoding="UTF-8" standalone="no"?>
<!DOCTYPE svg PUBLIC "-//W3C//DTD SVG 1.1//EN"
 "http://www.w3.org/Graphics/SVG/1.1/DTD/svg11.dtd">
<!-- Generated by graphviz version 2.38.0 (20140413.2041)
 -->
<!-- Title: osdk&#45;core/api/inc/dji_vehicle.hpp Pages: 1 -->
<!--zoomable 375 -->
<svg id="main" version="1.1" xmlns="http://www.w3.org/2000/svg" xmlns:xlink="http://www.w3.org/1999/xlink" xml:space="preserve" onload="init(evt)">
<style type="text/css"><![CDATA[
.edge:hover path { stroke: red; }
.edge:hover polygon { stroke: red; fill: red; }
]]></style>
<script type="text/javascript"><![CDATA[
var edges = document.getElementsByTagName('g');
if (edges && edges.length) {
  for (var i=0;i<edges.length;i++) {
    if (edges[i].id.substr(0,4)=='edge') {
      edges[i].setAttribute('class','edge');
    }
  }
}
]]></script>
        <defs>
                <circle id="rim" cx="0" cy="0" r="7"/>
                <circle id="rim2" cx="0" cy="0" r="3.5"/>
                <g id="zoomPlus">
                        <use xlink:href="#rim" fill="#404040">
                                <set attributeName="fill" to="#808080" begin="zoomplus.mouseover" end="zoomplus.mouseout"/>
                        </use>
                        <path d="M-4,0h8M0,-4v8" fill="none" stroke="white" stroke-width="1.5" pointer-events="none"/>
                </g>
                <g id="zoomMin">
                        <use xlink:href="#rim" fill="#404040">
                                <set attributeName="fill" to="#808080" begin="zoomminus.mouseover" end="zoomminus.mouseout"/>
                        </use>
                        <path d="M-4,0h8" fill="none" stroke="white" stroke-width="1.5" pointer-events="none"/>
                </g>
                <g id="dirArrow">
                        <path fill="none" stroke="white" stroke-width="1.5" d="M0,-3.0v7 M-2.5,-0.5L0,-3.0L2.5,-0.5"/>
                </g>
               <g id="resetDef">
                       <use xlink:href="#rim2" fill="#404040">
                               <set attributeName="fill" to="#808080" begin="reset.mouseover" end="reset.mouseout"/>
                       </use>
               </g>
        </defs>

<script type="text/javascript">
var viewWidth = 1703;
var viewHeight = 375;
var sectionId = 'dynsection-0';
</script>
<script xlink:href="svgpan.js"/>
<svg id="graph" class="graph">
<g id="viewport">
<title>osdk&#45;core/api/inc/dji_vehicle.hpp</title>
<polygon fill="white" stroke="none" points="-4,4 -4,-371 1699,-371 1699,4 -4,4"/>
<!-- Node1 -->
<g id="node1" class="node"><title>Node1</title>
<polygon fill="#bfbfbf" stroke="black" points="815,-336.5 815,-366.5 919,-366.5 919,-336.5 815,-336.5"/>
<text text-anchor="start" x="823" y="-354.5" font-family="Helvetica,sans-Serif" font-size="10.00">osdk&#45;core/api/inc/dji</text>
<text text-anchor="middle" x="867" y="-343.5" font-family="Helvetica,sans-Serif" font-size="10.00">_vehicle.hpp</text>
</g>
<!-- Node2 -->
<g id="node2" class="node"><title>Node2</title>
<polygon fill="white" stroke="#bfbfbf" points="75,-112.5 75,-131.5 121,-131.5 121,-112.5 75,-112.5"/>
<text text-anchor="middle" x="98" y="-119.5" font-family="Helvetica,sans-Serif" font-size="10.00">cstdint</text>
</g>
<!-- Node1&#45;&gt;Node2 -->
<g id="edge1" class="edge"><title>Node1&#45;&gt;Node2</title>
<path fill="none" stroke="midnightblue" d="M814.533,-348.855C683.037,-344.326 342.137,-329.975 233,-300 178.566,-285.049 160.402,-282.373 119,-244 97.8122,-224.362 93.6012,-215.871 86,-188 81.754,-172.431 85.7938,-154.353 90.2975,-141.221"/>
<polygon fill="midnightblue" stroke="midnightblue" points="93.7064,-142.106 94.0181,-131.516 87.1702,-139.6 93.7064,-142.106"/>
</g>
<!-- Node3 -->
<g id="node3" class="node"><title>Node3</title>
<g id="a_node3"><a xlink:href="dji__broadcast_8hpp.html" target="_top" xlink:title="Broadcast Telemetry API for DJI onboardSDK library. ">
<polygon fill="white" stroke="black" points="975.5,-224.5 975.5,-243.5 1068.5,-243.5 1068.5,-224.5 975.5,-224.5"/>
<text text-anchor="middle" x="1022" y="-231.5" font-family="Helvetica,sans-Serif" font-size="10.00">dji_broadcast.hpp</text>
</a>
</g>
</g>
<!-- Node1&#45;&gt;Node3 -->
<g id="edge2" class="edge"><title>Node1&#45;&gt;Node3</title>
<path fill="none" stroke="midnightblue" d="M887.688,-336.418C902.191,-326.442 921.952,-312.64 939,-300 961.536,-283.291 986.841,-263.288 1003.52,-249.926"/>
<polygon fill="midnightblue" stroke="midnightblue" points="1005.79,-252.589 1011.39,-243.597 1001.41,-247.133 1005.79,-252.589"/>
</g>
<!-- Node5 -->
<g id="node5" class="node"><title>Node5</title>
<g id="a_node5"><a xlink:href="dji__type_8hpp.html" target="_top" xlink:title="Data type and Data Structure definitions for use throughout DJI OSDK. ">
<polygon fill="white" stroke="black" points="473.5,-112.5 473.5,-131.5 542.5,-131.5 542.5,-112.5 473.5,-112.5"/>
<text text-anchor="middle" x="508" y="-119.5" font-family="Helvetica,sans-Serif" font-size="10.00">dji_type.hpp</text>
</a>
</g>
</g>
<!-- Node1&#45;&gt;Node5 -->
<g id="edge57" class="edge"><title>Node1&#45;&gt;Node5</title>
<path fill="none" stroke="midnightblue" d="M814.979,-347.243C716.986,-340.576 512.945,-323.954 492,-300 452.443,-254.759 482.34,-175.9 498.904,-140.767"/>
<polygon fill="midnightblue" stroke="midnightblue" points="502.082,-142.235 503.34,-131.716 495.796,-139.155 502.082,-142.235"/>
</g>
<!-- Node8 -->
<g id="node8" class="node"><title>Node8</title>
<g id="a_node8"><a xlink:href="dji__vehicle__callback_8hpp.html" target="_top" xlink:title="Type definition for new Vehicle&#45;style callbacks. ">
<polygon fill="white" stroke="black" points="1196,-112.5 1196,-131.5 1318,-131.5 1318,-112.5 1196,-112.5"/>
<text text-anchor="middle" x="1257" y="-119.5" font-family="Helvetica,sans-Serif" font-size="10.00">dji_vehicle_callback.hpp</text>
</a>
</g>
</g>
<!-- Node1&#45;&gt;Node8 -->
<g id="edge58" class="edge"><title>Node1&#45;&gt;Node8</title>
<path fill="none" stroke="midnightblue" d="M919.25,-346.044C975.046,-340.09 1065.38,-326.986 1139,-300 1186.1,-282.734 1208.36,-285.183 1237,-244 1258.51,-213.078 1259.84,-167.11 1258.61,-141.658"/>
<polygon fill="midnightblue" stroke="midnightblue" points="1262.09,-141.277 1257.93,-131.535 1255.11,-141.748 1262.09,-141.277"/>
</g>
<!-- Node9 -->
<g id="node9" class="node"><title>Node9</title>
<polygon fill="white" stroke="#bfbfbf" points="1076.5,-56.5 1076.5,-75.5 1187.5,-75.5 1187.5,-56.5 1076.5,-56.5"/>
<text text-anchor="middle" x="1132" y="-63.5" font-family="Helvetica,sans-Serif" font-size="10.00">dji_open_protocol.hpp</text>
</g>
<!-- Node1&#45;&gt;Node9 -->
<g id="edge49" class="edge"><title>Node1&#45;&gt;Node9</title>
<path fill="none" stroke="midnightblue" d="M919.191,-346.886C987.05,-339.026 1097,-314.088 1097,-235 1097,-235 1097,-235 1097,-177 1097,-143.072 1112.31,-105.911 1122.68,-84.631"/>
<polygon fill="midnightblue" stroke="midnightblue" points="1125.88,-86.0463 1127.28,-75.544 1119.64,-82.8822 1125.88,-86.0463"/>
</g>
<!-- Node10 -->
<g id="node10" class="node"><title>Node10</title>
<g id="a_node10"><a xlink:href="dji__camera_8hpp.html" target="_top" xlink:title="Camera/Gimbal API for DJI onboardSDK library. ">
<polygon fill="white" stroke="black" points="242.5,-168.5 242.5,-187.5 325.5,-187.5 325.5,-168.5 242.5,-168.5"/>
<text text-anchor="middle" x="284" y="-175.5" font-family="Helvetica,sans-Serif" font-size="10.00">dji_camera.hpp</text>
</a>
</g>
</g>
<!-- Node1&#45;&gt;Node10 -->
<g id="edge9" class="edge"><title>Node1&#45;&gt;Node10</title>
<path fill="none" stroke="midnightblue" d="M814.836,-348.778C711.416,-344.702 484.301,-332.266 414,-300 361.885,-276.081 316.881,-223.056 296.161,-195.838"/>
<polygon fill="midnightblue" stroke="midnightblue" points="298.866,-193.611 290.09,-187.676 293.25,-197.788 298.866,-193.611"/>
</g>
<!-- Node11 -->
<g id="node11" class="node"><title>Node11</title>
<g id="a_node11"><a xlink:href="dji__command_8hpp.html" target="_top" xlink:title="All DJI OSDK OpenProtocol Command IDs. ">
<polygon fill="white" stroke="black" points="212.5,-112.5 212.5,-131.5 305.5,-131.5 305.5,-112.5 212.5,-112.5"/>
<text text-anchor="middle" x="259" y="-119.5" font-family="Helvetica,sans-Serif" font-size="10.00">dji_command.hpp</text>
</a>
</g>
</g>
<!-- Node1&#45;&gt;Node11 -->
<g id="edge16" class="edge"><title>Node1&#45;&gt;Node11</title>
<path fill="none" stroke="midnightblue" d="M814.627,-348.083C696.76,-342.249 413.786,-325.934 322,-300 213.738,-269.411 154.398,-283.542 95,-188 68.2281,-144.938 144.676,-130.388 202.032,-125.482"/>
<polygon fill="midnightblue" stroke="midnightblue" points="202.431,-128.962 212.131,-124.699 201.89,-121.983 202.431,-128.962"/>
</g>
<!-- Node13 -->
<g id="node13" class="node"><title>Node13</title>
<polygon fill="white" stroke="#bfbfbf" points="1329,-280.5 1329,-299.5 1441,-299.5 1441,-280.5 1329,-280.5"/>
<text text-anchor="middle" x="1385" y="-287.5" font-family="Helvetica,sans-Serif" font-size="10.00">dji_circular_buffer.hpp</text>
</g>
<!-- Node1&#45;&gt;Node13 -->
<g id="edge15" class="edge"><title>Node1&#45;&gt;Node13</title>
<path fill="none" stroke="midnightblue" d="M919.108,-344.893C1002.68,-335.841 1171.82,-317.273 1315,-300 1316.27,-299.847 1317.54,-299.692 1318.83,-299.535"/>
<polygon fill="midnightblue" stroke="midnightblue" points="1319.35,-302.998 1328.85,-298.298 1318.49,-296.051 1319.35,-302.998"/>
</g>
<!-- Node14 -->
<g id="node14" class="node"><title>Node14</title>
<g id="a_node14"><a xlink:href="dji__control_8hpp.html" target="_top" xlink:title="Control API for DJI OSDK library. ">
<polygon fill="white" stroke="black" points="658,-280.5 658,-299.5 738,-299.5 738,-280.5 658,-280.5"/>
<text text-anchor="middle" x="698" y="-287.5" font-family="Helvetica,sans-Serif" font-size="10.00">dji_control.hpp</text>
</a>
</g>
</g>
<!-- Node1&#45;&gt;Node14 -->
<g id="edge17" class="edge"><title>Node1&#45;&gt;Node14</title>
<path fill="none" stroke="midnightblue" d="M826.949,-336.399C798.088,-326.238 759.555,-312.672 732.147,-303.022"/>
<polygon fill="midnightblue" stroke="midnightblue" points="733.186,-299.677 722.591,-299.658 730.861,-306.28 733.186,-299.677"/>
</g>
<!-- Node17 -->
<g id="node17" class="node"><title>Node17</title>
<g id="a_node17"><a xlink:href="dji__version_8hpp.html" target="_top" xlink:title="Drone/SDK Version definition for DJI onboardSDK library. ">
<polygon fill="white" stroke="black" points="104,-168.5 104,-187.5 186,-187.5 186,-168.5 104,-168.5"/>
<text text-anchor="middle" x="145" y="-175.5" font-family="Helvetica,sans-Serif" font-size="10.00">dji_version.hpp</text>
</a>
</g>
</g>
<!-- Node1&#45;&gt;Node17 -->
<g id="edge59" class="edge"><title>Node1&#45;&gt;Node17</title>
<path fill="none" stroke="midnightblue" d="M814.721,-351.445C723.889,-351.702 531.914,-346.088 378,-300 294.321,-274.943 205.356,-219.595 165.911,-193.348"/>
<polygon fill="midnightblue" stroke="midnightblue" points="167.658,-190.305 157.407,-187.627 163.75,-196.113 167.658,-190.305"/>
</g>
<!-- Node19 -->
<g id="node19" class="node"><title>Node19</title>
<g id="a_node19"><a xlink:href="dji__gimbal_8hpp.html" target="_top" xlink:title="Gimbal API for OSDK library. ">
<polygon fill="white" stroke="black" points="343.5,-168.5 343.5,-187.5 422.5,-187.5 422.5,-168.5 343.5,-168.5"/>
<text text-anchor="middle" x="383" y="-175.5" font-family="Helvetica,sans-Serif" font-size="10.00">dji_gimbal.hpp</text>
</a>
</g>
</g>
<!-- Node1&#45;&gt;Node19 -->
<g id="edge30" class="edge"><title>Node1&#45;&gt;Node19</title>
<path fill="none" stroke="midnightblue" d="M814.671,-350.654C713.512,-349.955 495.894,-343.3 437,-300 403.431,-275.319 390.332,-224.992 385.541,-197.664"/>
<polygon fill="midnightblue" stroke="midnightblue" points="388.956,-196.845 383.961,-187.502 382.039,-197.921 388.956,-196.845"/>
</g>
<!-- Node20 -->
<g id="node20" class="node"><title>Node20</title>
<polygon fill="white" stroke="#bfbfbf" points="1459,-280.5 1459,-299.5 1557,-299.5 1557,-280.5 1459,-280.5"/>
<text text-anchor="middle" x="1508" y="-287.5" font-family="Helvetica,sans-Serif" font-size="10.00">dji_hard_driver.hpp</text>
</g>
<!-- Node1&#45;&gt;Node20 -->
<g id="edge33" class="edge"><title>Node1&#45;&gt;Node20</title>
<path fill="none" stroke="midnightblue" d="M919.382,-347.154C1019.92,-340.472 1247.13,-324.123 1448.79,-300.069"/>
<polygon fill="midnightblue" stroke="midnightblue" points="1449.47,-303.512 1458.98,-298.844 1448.64,-296.562 1449.47,-303.512"/>
</g>
<!-- Node21 -->
<g id="node21" class="node"><title>Node21</title>
<g id="a_node21"><a xlink:href="dji__hardware__sync_8hpp.html" target="_top" xlink:title="Hardware Sync API for DJI OSDK. ">
<polygon fill="white" stroke="black" points="501,-280.5 501,-299.5 617,-299.5 617,-280.5 501,-280.5"/>
<text text-anchor="middle" x="559" y="-287.5" font-family="Helvetica,sans-Serif" font-size="10.00">dji_hardware_sync.hpp</text>
</a>
</g>
</g>
<!-- Node1&#45;&gt;Node21 -->
<g id="edge34" class="edge"><title>Node1&#45;&gt;Node21</title>
<path fill="none" stroke="midnightblue" d="M814.752,-340.407C758.57,-329.553 669.685,-312.382 612.88,-301.409"/>
<polygon fill="midnightblue" stroke="midnightblue" points="613.491,-297.962 603.009,-299.502 612.163,-304.835 613.491,-297.962"/>
</g>
<!-- Node22 -->
<g id="node22" class="node"><title>Node22</title>
<g id="a_node22"><a xlink:href="dji__mfio_8hpp.html" target="_top" xlink:title="MFIO API for DJI OSDK library. ">
<polygon fill="white" stroke="black" points="1285.5,-224.5 1285.5,-243.5 1354.5,-243.5 1354.5,-224.5 1285.5,-224.5"/>
<text text-anchor="middle" x="1320" y="-231.5" font-family="Helvetica,sans-Serif" font-size="10.00">dji_mfio.hpp</text>
</a>
</g>
</g>
<!-- Node1&#45;&gt;Node22 -->
<g id="edge36" class="edge"><title>Node1&#45;&gt;Node22</title>
<path fill="none" stroke="midnightblue" d="M919.177,-346.874C1007.54,-340.161 1182.56,-324.237 1239,-300 1265.24,-288.732 1290.02,-266.525 1305.1,-251.229"/>
<polygon fill="midnightblue" stroke="midnightblue" points="1307.67,-253.6 1312.06,-243.954 1302.61,-248.761 1307.67,-253.6"/>
</g>
<!-- Node23 -->
<g id="node23" class="node"><title>Node23</title>
<g id="a_node23"><a xlink:href="dji__mission__manager_8hpp.html" target="_top" xlink:title="Mission&#45;Manager API for DJI OSDK library. ">
<polygon fill="white" stroke="black" points="803.5,-280.5 803.5,-299.5 930.5,-299.5 930.5,-280.5 803.5,-280.5"/>
<text text-anchor="middle" x="867" y="-287.5" font-family="Helvetica,sans-Serif" font-size="10.00">dji_mission_manager.hpp</text>
</a>
</g>
</g>
<!-- Node1&#45;&gt;Node23 -->
<g id="edge38" class="edge"><title>Node1&#45;&gt;Node23</title>
<path fill="none" stroke="midnightblue" d="M867,-336.399C867,-328.466 867,-318.458 867,-309.858"/>
<polygon fill="midnightblue" stroke="midnightblue" points="870.5,-309.658 867,-299.658 863.5,-309.658 870.5,-309.658"/>
</g>
<!-- Node27 -->
<g id="node27" class="node"><title>Node27</title>
<g id="a_node27"><a xlink:href="dji__mobile__communication_8hpp.html" target="_top" xlink:title="Implementation of DJI Mobile&#45;Onboard SDK Communication (MOC) ">
<polygon fill="white" stroke="black" points="1372,-224.5 1372,-243.5 1522,-243.5 1522,-224.5 1372,-224.5"/>
<text text-anchor="middle" x="1447" y="-231.5" font-family="Helvetica,sans-Serif" font-size="10.00">dji_mobile_communication.hpp</text>
</a>
</g>
</g>
<!-- Node1&#45;&gt;Node27 -->
<g id="edge47" class="edge"><title>Node1&#45;&gt;Node27</title>
<path fill="none" stroke="midnightblue" d="M919.011,-347.969C996.196,-343.314 1145.17,-330.871 1268,-300 1292.01,-293.965 1296.77,-288.58 1320,-280 1351.19,-268.479 1386.89,-255.88 1412.48,-246.951"/>
<polygon fill="midnightblue" stroke="midnightblue" points="1413.81,-250.194 1422.11,-243.6 1411.51,-243.583 1413.81,-250.194"/>
</g>
<!-- Node28 -->
<g id="node28" class="node"><title>Node28</title>
<g id="a_node28"><a xlink:href="dji__status_8hpp.html" target="_top" xlink:title="Status information for DJI Vehicle. ">
<polygon fill="white" stroke="black" points="29.5,-56.5 29.5,-75.5 106.5,-75.5 106.5,-56.5 29.5,-56.5"/>
<text text-anchor="middle" x="68" y="-63.5" font-family="Helvetica,sans-Serif" font-size="10.00">dji_status.hpp</text>
</a>
</g>
</g>
<!-- Node1&#45;&gt;Node28 -->
<g id="edge50" class="edge"><title>Node1&#45;&gt;Node28</title>
<path fill="none" stroke="midnightblue" d="M814.933,-348.759C674.542,-343.744 290.47,-327.818 167,-300 89.3014,-282.495 0,-314.646 0,-235 0,-235 0,-235 0,-177 0,-138.548 30.4347,-102.313 50.5821,-82.538"/>
<polygon fill="midnightblue" stroke="midnightblue" points="53.0977,-84.9765 57.9664,-75.5666 48.2922,-79.8865 53.0977,-84.9765"/>
</g>
<!-- Node29 -->
<g id="node29" class="node"><title>Node29</title>
<g id="a_node29"><a xlink:href="dji__subscription_8hpp.html" target="_top" xlink:title="Telemetry Subscription API for DJI OSDK library. ">
<polygon fill="white" stroke="black" points="1125.5,-224.5 1125.5,-243.5 1228.5,-243.5 1228.5,-224.5 1125.5,-224.5"/>
<text text-anchor="middle" x="1177" y="-231.5" font-family="Helvetica,sans-Serif" font-size="10.00">dji_subscription.hpp</text>
</a>
</g>
</g>
<!-- Node1&#45;&gt;Node29 -->
<g id="edge52" class="edge"><title>Node1&#45;&gt;Node29</title>
<path fill="none" stroke="midnightblue" d="M919.42,-348.21C970.908,-344.054 1050.34,-332.427 1111,-300 1133.05,-288.211 1152.66,-266.765 1164.66,-251.741"/>
<polygon fill="midnightblue" stroke="midnightblue" points="1167.48,-253.817 1170.81,-243.759 1161.94,-249.546 1167.48,-253.817"/>
</g>
<!-- Node30 -->
<g id="node30" class="node"><title>Node30</title>
<polygon fill="white" stroke="#bfbfbf" points="1575,-280.5 1575,-299.5 1695,-299.5 1695,-280.5 1575,-280.5"/>
<text text-anchor="middle" x="1635" y="-287.5" font-family="Helvetica,sans-Serif" font-size="10.00">dji_thread_manager.hpp</text>
</g>
<!-- Node1&#45;&gt;Node30 -->
<g id="edge56" class="edge"><title>Node1&#45;&gt;Node30</title>
<path fill="none" stroke="midnightblue" d="M919.263,-347.756C1034.03,-341.507 1316.93,-324.885 1564.54,-300.094"/>
<polygon fill="midnightblue" stroke="midnightblue" points="1565.21,-303.543 1574.81,-299.058 1564.51,-296.578 1565.21,-303.543"/>
</g>
<!-- Node4 -->
<g id="node4" class="node"><title>Node4</title>
<g id="a_node4"><a xlink:href="dji__telemetry_8hpp.html" target="_top" xlink:title="Enumeration of all telemetry data types, structures and maps. ">
<polygon fill="white" stroke="black" points="977.5,-168.5 977.5,-187.5 1068.5,-187.5 1068.5,-168.5 977.5,-168.5"/>
<text text-anchor="middle" x="1023" y="-175.5" font-family="Helvetica,sans-Serif" font-size="10.00">dji_telemetry.hpp</text>
</a>
</g>
</g>
<!-- Node3&#45;&gt;Node4 -->
<g id="edge3" class="edge"><title>Node3&#45;&gt;Node4</title>
<path fill="none" stroke="midnightblue" d="M1022.17,-224.083C1022.3,-217.006 1022.48,-206.861 1022.65,-197.986"/>
<polygon fill="midnightblue" stroke="midnightblue" points="1026.15,-197.814 1022.84,-187.751 1019.15,-197.685 1026.15,-197.814"/>
</g>
<!-- Node3&#45;&gt;Node8 -->
<g id="edge7" class="edge"><title>Node3&#45;&gt;Node8</title>
<path fill="none" stroke="midnightblue" d="M1040.44,-224.368C1081.54,-205.131 1180.84,-158.648 1229.37,-135.931"/>
<polygon fill="midnightblue" stroke="midnightblue" points="1231.07,-139.001 1238.65,-131.591 1228.1,-132.661 1231.07,-139.001"/>
</g>
<!-- Node4&#45;&gt;Node5 -->
<g id="edge4" class="edge"><title>Node4&#45;&gt;Node5</title>
<path fill="none" stroke="midnightblue" d="M977.297,-172.208C879.321,-161.935 650.09,-137.899 552.866,-127.704"/>
<polygon fill="midnightblue" stroke="midnightblue" points="553.088,-124.209 542.777,-126.647 552.358,-131.17 553.088,-124.209"/>
</g>
<!-- Node6 -->
<g id="node6" class="node"><title>Node6</title>
<polygon fill="white" stroke="#bfbfbf" points="486.5,-56.5 486.5,-75.5 529.5,-75.5 529.5,-56.5 486.5,-56.5"/>
<text text-anchor="middle" x="508" y="-63.5" font-family="Helvetica,sans-Serif" font-size="10.00">cstdio</text>
</g>
<!-- Node5&#45;&gt;Node6 -->
<g id="edge5" class="edge"><title>Node5&#45;&gt;Node6</title>
<path fill="none" stroke="midnightblue" d="M508,-112.083C508,-105.006 508,-94.8611 508,-85.9865"/>
<polygon fill="midnightblue" stroke="midnightblue" points="511.5,-85.751 508,-75.7511 504.5,-85.7511 511.5,-85.751"/>
</g>
<!-- Node7 -->
<g id="node7" class="node"><title>Node7</title>
<polygon fill="white" stroke="#bfbfbf" points="234.5,-0.5 234.5,-19.5 283.5,-19.5 283.5,-0.5 234.5,-0.5"/>
<text text-anchor="middle" x="259" y="-7.5" font-family="Helvetica,sans-Serif" font-size="10.00">stdint.h</text>
</g>
<!-- Node5&#45;&gt;Node7 -->
<g id="edge6" class="edge"><title>Node5&#45;&gt;Node7</title>
<path fill="none" stroke="midnightblue" d="M488.461,-112.368C444.733,-93.0507 338.814,-46.2592 287.631,-23.6481"/>
<polygon fill="midnightblue" stroke="midnightblue" points="289.009,-20.4309 278.448,-19.5914 286.181,-26.8339 289.009,-20.4309"/>
</g>
<!-- Node8&#45;&gt;Node9 -->
<g id="edge8" class="edge"><title>Node8&#45;&gt;Node9</title>
<path fill="none" stroke="midnightblue" d="M1237.19,-112.444C1216.71,-103.596 1184.52,-89.6875 1161.14,-79.5865"/>
<polygon fill="midnightblue" stroke="midnightblue" points="1162.28,-76.2692 1151.71,-75.5164 1159.51,-82.6953 1162.28,-76.2692"/>
</g>
<!-- Node10&#45;&gt;Node5 -->
<g id="edge14" class="edge"><title>Node10&#45;&gt;Node5</title>
<path fill="none" stroke="midnightblue" d="M319.493,-168.444C358.552,-159.028 421.391,-143.879 463.662,-133.689"/>
<polygon fill="midnightblue" stroke="midnightblue" points="464.507,-137.085 473.409,-131.339 462.867,-130.28 464.507,-137.085"/>
</g>
<!-- Node10&#45;&gt;Node11 -->
<g id="edge10" class="edge"><title>Node10&#45;&gt;Node11</title>
<path fill="none" stroke="midnightblue" d="M279.872,-168.083C276.486,-160.77 271.584,-150.181 267.381,-141.103"/>
<polygon fill="midnightblue" stroke="midnightblue" points="270.429,-139.355 263.051,-131.751 264.077,-142.296 270.429,-139.355"/>
</g>
<!-- Node11&#45;&gt;Node7 -->
<g id="edge13" class="edge"><title>Node11&#45;&gt;Node7</title>
<path fill="none" stroke="midnightblue" d="M262.344,-112.197C265.554,-103.24 270.176,-88.8827 272,-76 274.243,-60.1544 270.213,-42.3436 266.063,-29.3784"/>
<polygon fill="midnightblue" stroke="midnightblue" points="269.306,-28.0481 262.685,-19.7769 262.703,-30.3717 269.306,-28.0481"/>
</g>
<!-- Node12 -->
<g id="node12" class="node"><title>Node12</title>
<g id="a_node12"><a xlink:href="dji__error_8hpp.html" target="_top" xlink:title="All DJI OSDK OpenProtocol ACK Error Codes. ">
<polygon fill="white" stroke="black" points="193,-56.5 193,-75.5 263,-75.5 263,-56.5 193,-56.5"/>
<text text-anchor="middle" x="228" y="-63.5" font-family="Helvetica,sans-Serif" font-size="10.00">dji_error.hpp</text>
</a>
</g>
</g>
<!-- Node11&#45;&gt;Node12 -->
<g id="edge11" class="edge"><title>Node11&#45;&gt;Node12</title>
<path fill="none" stroke="midnightblue" d="M253.881,-112.083C249.592,-104.613 243.342,-93.7244 238.058,-84.5199"/>
<polygon fill="midnightblue" stroke="midnightblue" points="241.038,-82.6811 233.024,-75.7511 234.967,-86.1662 241.038,-82.6811"/>
</g>
<!-- Node12&#45;&gt;Node7 -->
<g id="edge12" class="edge"><title>Node12&#45;&gt;Node7</title>
<path fill="none" stroke="midnightblue" d="M233.119,-56.083C237.408,-48.6127 243.658,-37.7244 248.942,-28.5199"/>
<polygon fill="midnightblue" stroke="midnightblue" points="252.033,-30.1662 253.976,-19.7511 245.962,-26.6811 252.033,-30.1662"/>
</g>
<!-- Node14&#45;&gt;Node5 -->
<g id="edge28" class="edge"><title>Node14&#45;&gt;Node5</title>
<path fill="none" stroke="midnightblue" d="M658.115,-280.497C633.806,-273.758 603.246,-262.348 581,-244 546.899,-215.873 524.639,-167.401 514.444,-141.155"/>
<polygon fill="midnightblue" stroke="midnightblue" points="517.687,-139.834 510.918,-131.683 511.127,-142.276 517.687,-139.834"/>
</g>
<!-- Node14&#45;&gt;Node8 -->
<g id="edge29" class="edge"><title>Node14&#45;&gt;Node8</title>
<path fill="none" stroke="midnightblue" d="M725.474,-280.443C751.297,-272.107 790.83,-258.588 824,-244 824.518,-243.772 967.463,-168.178 968,-168 1039.99,-144.139 1126.35,-132.803 1185.81,-127.499"/>
<polygon fill="midnightblue" stroke="midnightblue" points="1186.19,-130.98 1195.85,-126.638 1185.59,-124.005 1186.19,-130.98"/>
</g>
<!-- Node14&#45;&gt;Node9 -->
<g id="edge27" class="edge"><title>Node14&#45;&gt;Node9</title>
<path fill="none" stroke="midnightblue" d="M698.658,-280.16C700.046,-266.803 704.285,-241.21 717,-224 730.441,-205.807 781.533,-177.63 802,-168 896.496,-123.539 1015.3,-92.8002 1081.5,-77.7091"/>
<polygon fill="midnightblue" stroke="midnightblue" points="1082.28,-81.1207 1091.27,-75.509 1080.74,-74.2917 1082.28,-81.1207"/>
</g>
<!-- Node15 -->
<g id="node15" class="node"><title>Node15</title>
<g id="a_node15"><a xlink:href="dji__ack_8hpp.html" target="_top" xlink:title="All DJI OSDK ACK parsing. ">
<polygon fill="white" stroke="black" points="590,-224.5 590,-243.5 656,-243.5 656,-224.5 590,-224.5"/>
<text text-anchor="middle" x="623" y="-231.5" font-family="Helvetica,sans-Serif" font-size="10.00">dji_ack.hpp</text>
</a>
</g>
</g>
<!-- Node14&#45;&gt;Node15 -->
<g id="edge18" class="edge"><title>Node14&#45;&gt;Node15</title>
<path fill="none" stroke="midnightblue" d="M685.95,-280.324C674.537,-272.107 657.169,-259.602 643.565,-249.807"/>
<polygon fill="midnightblue" stroke="midnightblue" points="645.43,-246.837 635.269,-243.834 641.34,-252.517 645.43,-246.837"/>
</g>
<!-- Node15&#45;&gt;Node5 -->
<g id="edge22" class="edge"><title>Node15&#45;&gt;Node5</title>
<path fill="none" stroke="midnightblue" d="M637.795,-224.355C657.271,-211.879 687.339,-188.115 672,-168 657.539,-149.036 596.02,-136.087 552.594,-129.112"/>
<polygon fill="midnightblue" stroke="midnightblue" points="552.951,-125.626 542.533,-127.55 551.877,-132.543 552.951,-125.626"/>
</g>
<!-- Node15&#45;&gt;Node11 -->
<g id="edge19" class="edge"><title>Node15&#45;&gt;Node11</title>
<path fill="none" stroke="midnightblue" d="M589.82,-231.652C499.888,-227.661 256.61,-214.49 233,-188 220.678,-174.174 232.236,-153.779 243.612,-139.533"/>
<polygon fill="midnightblue" stroke="midnightblue" points="246.591,-141.436 250.456,-131.571 241.283,-136.872 246.591,-141.436"/>
</g>
<!-- Node16 -->
<g id="node16" class="node"><title>Node16</title>
<g id="a_node16"><a xlink:href="dji__mission__type_8hpp_source.html" target="_top" xlink:title="dji_mission_type.hpp">
<polygon fill="white" stroke="black" points="555,-168.5 555,-187.5 663,-187.5 663,-168.5 555,-168.5"/>
<text text-anchor="middle" x="609" y="-175.5" font-family="Helvetica,sans-Serif" font-size="10.00">dji_mission_type.hpp</text>
</a>
</g>
</g>
<!-- Node15&#45;&gt;Node16 -->
<g id="edge20" class="edge"><title>Node15&#45;&gt;Node16</title>
<path fill="none" stroke="midnightblue" d="M620.688,-224.083C618.833,-216.927 616.165,-206.635 613.846,-197.691"/>
<polygon fill="midnightblue" stroke="midnightblue" points="617.166,-196.553 611.269,-187.751 610.391,-198.309 617.166,-196.553"/>
</g>
<!-- Node15&#45;&gt;Node17 -->
<g id="edge23" class="edge"><title>Node15&#45;&gt;Node17</title>
<path fill="none" stroke="midnightblue" d="M589.745,-230.103C518.266,-223.736 344.731,-207.524 200,-188 198.732,-187.829 197.449,-187.652 196.155,-187.469"/>
<polygon fill="midnightblue" stroke="midnightblue" points="196.512,-183.984 186.108,-185.986 195.489,-190.909 196.512,-183.984"/>
</g>
<!-- Node18 -->
<g id="node18" class="node"><title>Node18</title>
<polygon fill="white" stroke="#bfbfbf" points="719.5,-168.5 719.5,-187.5 754.5,-187.5 754.5,-168.5 719.5,-168.5"/>
<text text-anchor="middle" x="737" y="-175.5" font-family="Helvetica,sans-Serif" font-size="10.00">map</text>
</g>
<!-- Node15&#45;&gt;Node18 -->
<g id="edge26" class="edge"><title>Node15&#45;&gt;Node18</title>
<path fill="none" stroke="midnightblue" d="M641.064,-224.444C659.684,-215.624 688.922,-201.774 710.23,-191.68"/>
<polygon fill="midnightblue" stroke="midnightblue" points="711.856,-194.783 719.395,-187.339 708.86,-188.457 711.856,-194.783"/>
</g>
<!-- Node16&#45;&gt;Node5 -->
<g id="edge21" class="edge"><title>Node16&#45;&gt;Node5</title>
<path fill="none" stroke="midnightblue" d="M592.773,-168.324C576.649,-159.703 551.7,-146.364 533.036,-136.386"/>
<polygon fill="midnightblue" stroke="midnightblue" points="534.656,-133.283 524.187,-131.655 531.356,-139.456 534.656,-133.283"/>
</g>
<!-- Node17&#45;&gt;Node2 -->
<g id="edge25" class="edge"><title>Node17&#45;&gt;Node2</title>
<path fill="none" stroke="midnightblue" d="M137.239,-168.083C130.463,-160.298 120.457,-148.801 112.245,-139.367"/>
<polygon fill="midnightblue" stroke="midnightblue" points="114.822,-136.996 105.617,-131.751 109.542,-141.592 114.822,-136.996"/>
</g>
<!-- Node17&#45;&gt;Node11 -->
<g id="edge24" class="edge"><title>Node17&#45;&gt;Node11</title>
<path fill="none" stroke="midnightblue" d="M163.064,-168.444C181.575,-159.675 210.581,-145.935 231.855,-135.858"/>
<polygon fill="midnightblue" stroke="midnightblue" points="233.482,-138.96 241.021,-131.516 230.485,-132.634 233.482,-138.96"/>
</g>
<!-- Node19&#45;&gt;Node5 -->
<g id="edge32" class="edge"><title>Node19&#45;&gt;Node5</title>
<path fill="none" stroke="midnightblue" d="M402.807,-168.444C423.287,-159.596 455.483,-145.687 478.865,-135.586"/>
<polygon fill="midnightblue" stroke="midnightblue" points="480.494,-138.695 488.286,-131.516 477.718,-132.269 480.494,-138.695"/>
</g>
<!-- Node19&#45;&gt;Node11 -->
<g id="edge31" class="edge"><title>Node19&#45;&gt;Node11</title>
<path fill="none" stroke="midnightblue" d="M363.352,-168.444C343.035,-159.596 311.097,-145.687 287.902,-135.586"/>
<polygon fill="midnightblue" stroke="midnightblue" points="289.122,-132.3 278.556,-131.516 286.327,-138.718 289.122,-132.3"/>
</g>
<!-- Node21&#45;&gt;Node5 -->
<g id="edge35" class="edge"><title>Node21&#45;&gt;Node5</title>
<path fill="none" stroke="midnightblue" d="M545.812,-280.435C534.828,-272.469 519.906,-259.514 513,-244 498.089,-210.505 501.172,-166.498 504.654,-141.841"/>
<polygon fill="midnightblue" stroke="midnightblue" points="508.152,-142.127 506.268,-131.701 501.239,-141.027 508.152,-142.127"/>
</g>
<!-- Node22&#45;&gt;Node8 -->
<g id="edge37" class="edge"><title>Node22&#45;&gt;Node8</title>
<path fill="none" stroke="midnightblue" d="M1315.06,-224.368C1304.71,-206.296 1280.58,-164.176 1266.91,-140.307"/>
<polygon fill="midnightblue" stroke="midnightblue" points="1269.93,-138.53 1261.92,-131.591 1263.85,-142.008 1269.93,-138.53"/>
</g>
<!-- Node24 -->
<g id="node24" class="node"><title>Node24</title>
<g id="a_node24"><a xlink:href="dji__hotpoint_8hpp.html" target="_top" xlink:title="Implementation of HotPoint (Point of Interest) Missions for DJI OSDK. ">
<polygon fill="white" stroke="black" points="872.5,-224.5 872.5,-243.5 957.5,-243.5 957.5,-224.5 872.5,-224.5"/>
<text text-anchor="middle" x="915" y="-231.5" font-family="Helvetica,sans-Serif" font-size="10.00">dji_hotpoint.hpp</text>
</a>
</g>
</g>
<!-- Node23&#45;&gt;Node24 -->
<g id="edge39" class="edge"><title>Node23&#45;&gt;Node24</title>
<path fill="none" stroke="midnightblue" d="M874.926,-280.083C881.846,-272.298 892.065,-260.801 900.452,-251.367"/>
<polygon fill="midnightblue" stroke="midnightblue" points="903.194,-253.55 907.221,-243.751 897.962,-248.9 903.194,-253.55"/>
</g>
<!-- Node26 -->
<g id="node26" class="node"><title>Node26</title>
<g id="a_node26"><a xlink:href="dji__waypoint_8hpp.html" target="_top" xlink:title="Implementation of GPS Waypoint Missions for DJI OSDK. ">
<polygon fill="white" stroke="black" points="726.5,-224.5 726.5,-243.5 815.5,-243.5 815.5,-224.5 726.5,-224.5"/>
<text text-anchor="middle" x="771" y="-231.5" font-family="Helvetica,sans-Serif" font-size="10.00">dji_waypoint.hpp</text>
</a>
</g>
</g>
<!-- Node23&#45;&gt;Node26 -->
<g id="edge45" class="edge"><title>Node23&#45;&gt;Node26</title>
<path fill="none" stroke="midnightblue" d="M851.576,-280.324C836.46,-271.822 813.185,-258.729 795.529,-248.797"/>
<polygon fill="midnightblue" stroke="midnightblue" points="796.817,-245.507 786.386,-243.655 793.386,-251.608 796.817,-245.507"/>
</g>
<!-- Node24&#45;&gt;Node4 -->
<g id="edge44" class="edge"><title>Node24&#45;&gt;Node4</title>
<path fill="none" stroke="midnightblue" d="M932.352,-224.324C949.672,-215.664 976.515,-202.242 996.502,-192.249"/>
<polygon fill="midnightblue" stroke="midnightblue" points="998.312,-195.257 1005.69,-187.655 995.181,-188.996 998.312,-195.257"/>
</g>
<!-- Node25 -->
<g id="node25" class="node"><title>Node25</title>
<g id="a_node25"><a xlink:href="dji__mission__base_8hpp.html" target="_top" xlink:title="Mission&#45;Base abstract class for DJI OSDK library. ">
<polygon fill="white" stroke="black" points="811,-168.5 811,-187.5 921,-187.5 921,-168.5 811,-168.5"/>
<text text-anchor="middle" x="866" y="-175.5" font-family="Helvetica,sans-Serif" font-size="10.00">dji_mission_base.hpp</text>
</a>
</g>
</g>
<!-- Node24&#45;&gt;Node25 -->
<g id="edge40" class="edge"><title>Node24&#45;&gt;Node25</title>
<path fill="none" stroke="midnightblue" d="M906.909,-224.083C899.845,-216.298 889.412,-204.801 880.851,-195.367"/>
<polygon fill="midnightblue" stroke="midnightblue" points="883.253,-192.805 873.941,-187.751 878.069,-197.509 883.253,-192.805"/>
</g>
<!-- Node25&#45;&gt;Node5 -->
<g id="edge42" class="edge"><title>Node25&#45;&gt;Node5</title>
<path fill="none" stroke="midnightblue" d="M810.847,-168.681C739.914,-157.981 618.088,-139.605 552.656,-129.736"/>
<polygon fill="midnightblue" stroke="midnightblue" points="553.066,-126.258 542.656,-128.227 552.022,-133.18 553.066,-126.258"/>
</g>
<!-- Node25&#45;&gt;Node8 -->
<g id="edge43" class="edge"><title>Node25&#45;&gt;Node8</title>
<path fill="none" stroke="midnightblue" d="M921.191,-169.378C990.595,-159.793 1109.86,-143.321 1185.99,-132.806"/>
<polygon fill="midnightblue" stroke="midnightblue" points="1186.55,-136.263 1195.98,-131.427 1185.59,-129.329 1186.55,-136.263"/>
</g>
<!-- Node25&#45;&gt;Node11 -->
<g id="edge41" class="edge"><title>Node25&#45;&gt;Node11</title>
<path fill="none" stroke="midnightblue" d="M810.793,-172.089C695.899,-161.867 432.12,-138.401 315.835,-128.056"/>
<polygon fill="midnightblue" stroke="midnightblue" points="315.988,-124.556 305.717,-127.156 315.367,-131.528 315.988,-124.556"/>
</g>
<!-- Node26&#45;&gt;Node25 -->
<g id="edge46" class="edge"><title>Node26&#45;&gt;Node25</title>
<path fill="none" stroke="midnightblue" d="M786.263,-224.324C801.221,-215.822 824.255,-202.729 841.727,-192.797"/>
<polygon fill="midnightblue" stroke="midnightblue" points="843.81,-195.639 850.774,-187.655 840.351,-189.553 843.81,-195.639"/>
</g>
<!-- Node27&#45;&gt;Node8 -->
<g id="edge48" class="edge"><title>Node27&#45;&gt;Node8</title>
<path fill="none" stroke="midnightblue" d="M1432.09,-224.368C1399.21,-205.332 1320.24,-159.615 1280.58,-136.65"/>
<polygon fill="midnightblue" stroke="midnightblue" points="1282.25,-133.573 1271.84,-131.591 1278.74,-139.631 1282.25,-133.573"/>
</g>
<!-- Node28&#45;&gt;Node7 -->
<g id="edge51" class="edge"><title>Node28&#45;&gt;Node7</title>
<path fill="none" stroke="midnightblue" d="M98.2645,-56.4435C132.539,-46.7534 188.287,-30.9921 224.296,-20.8115"/>
<polygon fill="midnightblue" stroke="midnightblue" points="225.673,-24.0596 234.343,-17.971 223.768,-17.3236 225.673,-24.0596"/>
</g>
<!-- Node29&#45;&gt;Node4 -->
<g id="edge54" class="edge"><title>Node29&#45;&gt;Node4</title>
<path fill="none" stroke="midnightblue" d="M1152.6,-224.444C1126.8,-215.399 1085.92,-201.064 1056.98,-190.916"/>
<polygon fill="midnightblue" stroke="midnightblue" points="1057.88,-187.523 1047.29,-187.516 1055.57,-194.128 1057.88,-187.523"/>
</g>
<!-- Node29&#45;&gt;Node8 -->
<g id="edge55" class="edge"><title>Node29&#45;&gt;Node8</title>
<path fill="none" stroke="midnightblue" d="M1183.28,-224.368C1196.48,-206.215 1227.33,-163.802 1244.64,-139.99"/>
<polygon fill="midnightblue" stroke="midnightblue" points="1247.7,-141.737 1250.75,-131.591 1242.04,-137.62 1247.7,-141.737"/>
</g>
<!-- Node29&#45;&gt;Node9 -->
<g id="edge53" class="edge"><title>Node29&#45;&gt;Node9</title>
<path fill="none" stroke="midnightblue" d="M1174.58,-224.075C1167.5,-197.945 1146.7,-121.211 1137.04,-85.577"/>
<polygon fill="midnightblue" stroke="midnightblue" points="1140.32,-84.304 1134.32,-75.5681 1133.56,-86.1355 1140.32,-84.304"/>
</g>
</g>
</svg>
        <g id="navigator" transform="translate(0 0)" fill="#404254">
                <rect fill="#f2f5e9" fill-opacity="0.5" stroke="#606060" stroke-width=".5" x="0" y="0" width="60" height="60"/>
                <use id="zoomplus" xlink:href="#zoomPlus" x="17" y="9" onmousedown="handleZoom(evt,'in')"/>
                <use id="zoomminus" xlink:href="#zoomMin" x="42" y="9" onmousedown="handleZoom(evt,'out')"/>
                <use id="reset" xlink:href="#resetDef" x="30" y="36" onmousedown="handleReset()"/>
                <g id="arrowUp" xlink:href="#dirArrow" transform="translate(30 24)" onmousedown="handlePan(0,-1)">
                  <use xlink:href="#rim" fill="#404040">
                        <set attributeName="fill" to="#808080" begin="arrowUp.mouseover" end="arrowUp.mouseout"/>
                  </use>
                  <path fill="none" stroke="white" stroke-width="1.5" d="M0,-3.0v7 M-2.5,-0.5L0,-3.0L2.5,-0.5"/>
                </g>
                <g id="arrowRight" xlink:href="#dirArrow" transform="rotate(90) translate(36 -43)" onmousedown="handlePan(1,0)">
                  <use xlink:href="#rim" fill="#404040">
                        <set attributeName="fill" to="#808080" begin="arrowRight.mouseover" end="arrowRight.mouseout"/>
                  </use>
                  <path fill="none" stroke="white" stroke-width="1.5" d="M0,-3.0v7 M-2.5,-0.5L0,-3.0L2.5,-0.5"/>
                </g>
                <g id="arrowDown" xlink:href="#dirArrow" transform="rotate(180) translate(-30 -48)" onmousedown="handlePan(0,1)">
                  <use xlink:href="#rim" fill="#404040">
                        <set attributeName="fill" to="#808080" begin="arrowDown.mouseover" end="arrowDown.mouseout"/>
                  </use>
                  <path fill="none" stroke="white" stroke-width="1.5" d="M0,-3.0v7 M-2.5,-0.5L0,-3.0L2.5,-0.5"/>
                </g>
                <g id="arrowLeft" xlink:href="#dirArrow" transform="rotate(270) translate(-36 17)" onmousedown="handlePan(-1,0)">
                  <use xlink:href="#rim" fill="#404040">
                        <set attributeName="fill" to="#808080" begin="arrowLeft.mouseover" end="arrowLeft.mouseout"/>
                  </use>
                  <path fill="none" stroke="white" stroke-width="1.5" d="M0,-3.0v7 M-2.5,-0.5L0,-3.0L2.5,-0.5"/>
                </g>
        </g>
        <svg viewBox="0 0 15 15" width="100%" height="30px" preserveAspectRatio="xMaxYMin meet">
         <g id="arrow_out" transform="scale(0.3 0.3)">
          <a xlink:href="dji__vehicle_8hpp__incl_org.svg" target="_base">
           <rect id="button" ry="5" rx="5" y="6" x="6" height="38" width="38"
                fill="#f2f5e9" fill-opacity="0.5" stroke="#606060" stroke-width="1.0"/>
           <path id="arrow"
             d="M 11.500037,31.436501 C 11.940474,20.09759 22.043105,11.32322 32.158766,21.979434 L 37.068811,17.246167 C 37.068811,17.246167 37.088388,32 37.088388,32 L 22.160133,31.978069 C 22.160133,31.978069 26.997745,27.140456 26.997745,27.140456 C 18.528582,18.264221 13.291696,25.230495 11.500037,31.436501 z"
             style="fill:#404040;"/>
          </a>
         </g>
        </svg>
</svg>
