<?xml version="1.0" encoding="UTF-8" standalone="no"?>
<!DOCTYPE svg PUBLIC "-//W3C//DTD SVG 1.1//EN"
 "http://www.w3.org/Graphics/SVG/1.1/DTD/svg11.dtd">
<!-- Generated by graphviz version 2.38.0 (20140413.2041)
 -->
<!-- Title: osdk&#45;core/api/src/dji_subscription.cpp Pages: 1 -->
<!--zoomable 431 -->
<svg id="main" version="1.1" xmlns="http://www.w3.org/2000/svg" xmlns:xlink="http://www.w3.org/1999/xlink" xml:space="preserve" onload="init(evt)">
<style type="text/css"><![CDATA[
.edge:hover path { stroke: red; }
.edge:hover polygon { stroke: red; fill: red; }
]]></style>
<script type="text/javascript"><![CDATA[
var edges = document.getElementsByTagName('g');
if (edges && edges.length) {
  for (var i=0;i<edges.length;i++) {
    if (edges[i].id.substr(0,4)=='edge') {
      edges[i].setAttribute('class','edge');
    }
  }
}
]]></script>
        <defs>
                <circle id="rim" cx="0" cy="0" r="7"/>
                <circle id="rim2" cx="0" cy="0" r="3.5"/>
                <g id="zoomPlus">
                        <use xlink:href="#rim" fill="#404040">
                                <set attributeName="fill" to="#808080" begin="zoomplus.mouseover" end="zoomplus.mouseout"/>
                        </use>
                        <path d="M-4,0h8M0,-4v8" fill="none" stroke="white" stroke-width="1.5" pointer-events="none"/>
                </g>
                <g id="zoomMin">
                        <use xlink:href="#rim" fill="#404040">
                                <set attributeName="fill" to="#808080" begin="zoomminus.mouseover" end="zoomminus.mouseout"/>
                        </use>
                        <path d="M-4,0h8" fill="none" stroke="white" stroke-width="1.5" pointer-events="none"/>
                </g>
                <g id="dirArrow">
                        <path fill="none" stroke="white" stroke-width="1.5" d="M0,-3.0v7 M-2.5,-0.5L0,-3.0L2.5,-0.5"/>
                </g>
               <g id="resetDef">
                       <use xlink:href="#rim2" fill="#404040">
                               <set attributeName="fill" to="#808080" begin="reset.mouseover" end="reset.mouseout"/>
                       </use>
               </g>
        </defs>

<script type="text/javascript">
var viewWidth = 1616;
var viewHeight = 431;
var sectionId = 'dynsection-0';
</script>
<script xlink:href="svgpan.js"/>
<svg id="graph" class="graph">
<g id="viewport">
<title>osdk&#45;core/api/src/dji_subscription.cpp</title>
<polygon fill="white" stroke="none" points="-4,4 -4,-427 1611.6,-427 1611.6,4 -4,4"/>
<!-- Node1 -->
<g id="node1" class="node"><title>Node1</title>
<polygon fill="#bfbfbf" stroke="black" points="382.604,-392.5 382.604,-422.5 486.604,-422.5 486.604,-392.5 382.604,-392.5"/>
<text text-anchor="start" x="390.604" y="-410.5" font-family="Helvetica,sans-Serif" font-size="10.00">osdk&#45;core/api/src/dji</text>
<text text-anchor="middle" x="434.604" y="-399.5" font-family="Helvetica,sans-Serif" font-size="10.00">_subscription.cpp</text>
</g>
<!-- Node2 -->
<g id="node2" class="node"><title>Node2</title>
<g id="a_node2"><a xlink:href="dji__subscription_8hpp.html" target="_top" xlink:title="Telemetry Subscription API for DJI OSDK library. ">
<polygon fill="white" stroke="black" points="81.1041,-224.5 81.1041,-243.5 184.104,-243.5 184.104,-224.5 81.1041,-224.5"/>
<text text-anchor="middle" x="132.604" y="-231.5" font-family="Helvetica,sans-Serif" font-size="10.00">dji_subscription.hpp</text>
</a>
</g>
</g>
<!-- Node1&#45;&gt;Node2 -->
<g id="edge1" class="edge"><title>Node1&#45;&gt;Node2</title>
<path fill="none" stroke="midnightblue" d="M382.296,-400.413C283.822,-387.763 76.9739,-355.127 34.6041,-300 15.8636,-275.617 53.1062,-257.424 86.9391,-246.578"/>
<polygon fill="midnightblue" stroke="midnightblue" points="88.2505,-249.838 96.8015,-243.582 86.2159,-243.14 88.2505,-249.838"/>
</g>
<!-- Node9 -->
<g id="node9" class="node"><title>Node9</title>
<g id="a_node9"><a xlink:href="dji__vehicle_8hpp.html" target="_top" xlink:title="Vehicle API for DJI onboardSDK library. ">
<polygon fill="white" stroke="black" points="852.104,-336.5 852.104,-355.5 933.104,-355.5 933.104,-336.5 852.104,-336.5"/>
<text text-anchor="middle" x="892.604" y="-343.5" font-family="Helvetica,sans-Serif" font-size="10.00">dji_vehicle.hpp</text>
</a>
</g>
</g>
<!-- Node1&#45;&gt;Node9 -->
<g id="edge9" class="edge"><title>Node1&#45;&gt;Node9</title>
<path fill="none" stroke="midnightblue" d="M486.697,-399.733C575.329,-388.218 754.36,-364.96 841.981,-353.577"/>
<polygon fill="midnightblue" stroke="midnightblue" points="842.482,-357.041 851.948,-352.282 841.58,-350.099 842.482,-357.041"/>
</g>
<!-- Node3 -->
<g id="node3" class="node"><title>Node3</title>
<polygon fill="white" stroke="#bfbfbf" points="163.104,-56.5 163.104,-75.5 274.104,-75.5 274.104,-56.5 163.104,-56.5"/>
<text text-anchor="middle" x="218.604" y="-63.5" font-family="Helvetica,sans-Serif" font-size="10.00">dji_open_protocol.hpp</text>
</g>
<!-- Node2&#45;&gt;Node3 -->
<g id="edge2" class="edge"><title>Node2&#45;&gt;Node3</title>
<path fill="none" stroke="midnightblue" d="M126.335,-224.242C112.016,-203.069 79.9826,-148.189 104.604,-112 115.97,-95.2949 134.588,-84.7911 153.516,-78.1866"/>
<polygon fill="midnightblue" stroke="midnightblue" points="154.619,-81.5088 163.102,-75.1619 152.512,-74.8332 154.619,-81.5088"/>
</g>
<!-- Node4 -->
<g id="node4" class="node"><title>Node4</title>
<g id="a_node4"><a xlink:href="dji__telemetry_8hpp.html" target="_top" xlink:title="Enumeration of all telemetry data types, structures and maps. ">
<polygon fill="white" stroke="black" points="330.104,-168.5 330.104,-187.5 421.104,-187.5 421.104,-168.5 330.104,-168.5"/>
<text text-anchor="middle" x="375.604" y="-175.5" font-family="Helvetica,sans-Serif" font-size="10.00">dji_telemetry.hpp</text>
</a>
</g>
</g>
<!-- Node2&#45;&gt;Node4 -->
<g id="edge3" class="edge"><title>Node2&#45;&gt;Node4</title>
<path fill="none" stroke="midnightblue" d="M171.108,-224.444C213.41,-215.043 281.423,-199.929 327.277,-189.739"/>
<polygon fill="midnightblue" stroke="midnightblue" points="328.278,-193.102 337.28,-187.516 326.759,-186.269 328.278,-193.102"/>
</g>
<!-- Node8 -->
<g id="node8" class="node"><title>Node8</title>
<g id="a_node8"><a xlink:href="dji__vehicle__callback_8hpp.html" target="_top" xlink:title="Type definition for new Vehicle&#45;style callbacks. ">
<polygon fill="white" stroke="black" points="113.604,-112.5 113.604,-131.5 235.604,-131.5 235.604,-112.5 113.604,-112.5"/>
<text text-anchor="middle" x="174.604" y="-119.5" font-family="Helvetica,sans-Serif" font-size="10.00">dji_vehicle_callback.hpp</text>
</a>
</g>
</g>
<!-- Node2&#45;&gt;Node8 -->
<g id="edge7" class="edge"><title>Node2&#45;&gt;Node8</title>
<path fill="none" stroke="midnightblue" d="M135.9,-224.368C142.739,-206.456 158.597,-164.923 167.751,-140.948"/>
<polygon fill="midnightblue" stroke="midnightblue" points="171.026,-142.182 171.324,-131.591 164.487,-139.685 171.026,-142.182"/>
</g>
<!-- Node5 -->
<g id="node5" class="node"><title>Node5</title>
<g id="a_node5"><a xlink:href="dji__type_8hpp.html" target="_top" xlink:title="Data type and Data Structure definitions for use throughout DJI OSDK. ">
<polygon fill="white" stroke="black" points="859.104,-112.5 859.104,-131.5 928.104,-131.5 928.104,-112.5 859.104,-112.5"/>
<text text-anchor="middle" x="893.604" y="-119.5" font-family="Helvetica,sans-Serif" font-size="10.00">dji_type.hpp</text>
</a>
</g>
</g>
<!-- Node4&#45;&gt;Node5 -->
<g id="edge4" class="edge"><title>Node4&#45;&gt;Node5</title>
<path fill="none" stroke="midnightblue" d="M421.119,-172.255C519.495,-162 750.938,-137.873 848.731,-127.678"/>
<polygon fill="midnightblue" stroke="midnightblue" points="849.293,-131.138 858.876,-126.62 848.567,-124.176 849.293,-131.138"/>
</g>
<!-- Node6 -->
<g id="node6" class="node"><title>Node6</title>
<polygon fill="white" stroke="#bfbfbf" points="872.104,-56.5 872.104,-75.5 915.104,-75.5 915.104,-56.5 872.104,-56.5"/>
<text text-anchor="middle" x="893.604" y="-63.5" font-family="Helvetica,sans-Serif" font-size="10.00">cstdio</text>
</g>
<!-- Node5&#45;&gt;Node6 -->
<g id="edge5" class="edge"><title>Node5&#45;&gt;Node6</title>
<path fill="none" stroke="midnightblue" d="M893.604,-112.083C893.604,-105.006 893.604,-94.8611 893.604,-85.9865"/>
<polygon fill="midnightblue" stroke="midnightblue" points="897.104,-85.751 893.604,-75.7511 890.104,-85.7511 897.104,-85.751"/>
</g>
<!-- Node7 -->
<g id="node7" class="node"><title>Node7</title>
<polygon fill="white" stroke="#bfbfbf" points="1030.1,-0.5 1030.1,-19.5 1079.1,-19.5 1079.1,-0.5 1030.1,-0.5"/>
<text text-anchor="middle" x="1054.6" y="-7.5" font-family="Helvetica,sans-Serif" font-size="10.00">stdint.h</text>
</g>
<!-- Node5&#45;&gt;Node7 -->
<g id="edge6" class="edge"><title>Node5&#45;&gt;Node7</title>
<path fill="none" stroke="midnightblue" d="M904.194,-112.412C920.163,-99.5989 951.528,-74.9539 979.604,-56 996.122,-44.8486 1015.42,-33.3032 1030.3,-24.699"/>
<polygon fill="midnightblue" stroke="midnightblue" points="1032.43,-27.5113 1039.37,-19.5033 1028.95,-21.4374 1032.43,-27.5113"/>
</g>
<!-- Node8&#45;&gt;Node3 -->
<g id="edge8" class="edge"><title>Node8&#45;&gt;Node3</title>
<path fill="none" stroke="midnightblue" d="M181.87,-112.083C188.149,-104.377 197.392,-93.0333 205.035,-83.6531"/>
<polygon fill="midnightblue" stroke="midnightblue" points="207.87,-85.7143 211.474,-75.7511 202.444,-81.2926 207.87,-85.7143"/>
</g>
<!-- Node9&#45;&gt;Node2 -->
<g id="edge57" class="edge"><title>Node9&#45;&gt;Node2</title>
<path fill="none" stroke="midnightblue" d="M851.978,-344.251C730.407,-341.675 370.956,-331.526 258.604,-300 219.271,-288.963 177.979,-264.917 153.8,-249.368"/>
<polygon fill="midnightblue" stroke="midnightblue" points="155.402,-246.233 145.121,-243.676 151.563,-252.087 155.402,-246.233"/>
</g>
<!-- Node9&#45;&gt;Node3 -->
<g id="edge54" class="edge"><title>Node9&#45;&gt;Node3</title>
<path fill="none" stroke="midnightblue" d="M851.91,-345.733C770.864,-346.168 584.213,-342.026 434.604,-300 379.489,-284.518 360.305,-283.224 318.604,-244 269.614,-197.919 277.873,-170.452 244.604,-112 239.407,-102.869 233.559,-92.7353 228.727,-84.3994"/>
<polygon fill="midnightblue" stroke="midnightblue" points="231.67,-82.4977 223.622,-75.6077 225.617,-86.013 231.67,-82.4977"/>
</g>
<!-- Node9&#45;&gt;Node5 -->
<g id="edge59" class="edge"><title>Node9&#45;&gt;Node5</title>
<path fill="none" stroke="midnightblue" d="M890.745,-336.211C886.747,-316.286 877.904,-266.134 880.604,-224 882.456,-195.106 887.259,-161.846 890.479,-141.631"/>
<polygon fill="midnightblue" stroke="midnightblue" points="893.958,-142.044 892.117,-131.611 887.05,-140.915 893.958,-142.044"/>
</g>
<!-- Node9&#45;&gt;Node8 -->
<g id="edge60" class="edge"><title>Node9&#45;&gt;Node8</title>
<path fill="none" stroke="midnightblue" d="M851.887,-344.405C685.293,-341.776 63.0483,-329.975 34.6041,-300 0.681483,-264.252 -41.5175,-304.635 91.6041,-168 105.373,-153.868 124.545,-143.076 140.994,-135.608"/>
<polygon fill="midnightblue" stroke="midnightblue" points="142.506,-138.768 150.303,-131.595 139.734,-132.34 142.506,-138.768"/>
</g>
<!-- Node10 -->
<g id="node10" class="node"><title>Node10</title>
<polygon fill="white" stroke="#bfbfbf" points="1400.6,-112.5 1400.6,-131.5 1446.6,-131.5 1446.6,-112.5 1400.6,-112.5"/>
<text text-anchor="middle" x="1423.6" y="-119.5" font-family="Helvetica,sans-Serif" font-size="10.00">cstdint</text>
</g>
<!-- Node9&#45;&gt;Node10 -->
<g id="edge10" class="edge"><title>Node9&#45;&gt;Node10</title>
<path fill="none" stroke="midnightblue" d="M933.161,-345.36C1069.99,-346.155 1508.45,-345.136 1550.6,-300 1602.14,-244.82 1496.07,-168.064 1446.86,-136.939"/>
<polygon fill="midnightblue" stroke="midnightblue" points="1448.45,-133.808 1438.11,-131.507 1444.76,-139.755 1448.45,-133.808"/>
</g>
<!-- Node11 -->
<g id="node11" class="node"><title>Node11</title>
<g id="a_node11"><a xlink:href="dji__broadcast_8hpp.html" target="_top" xlink:title="Broadcast Telemetry API for DJI onboardSDK library. ">
<polygon fill="white" stroke="black" points="328.104,-224.5 328.104,-243.5 421.104,-243.5 421.104,-224.5 328.104,-224.5"/>
<text text-anchor="middle" x="374.604" y="-231.5" font-family="Helvetica,sans-Serif" font-size="10.00">dji_broadcast.hpp</text>
</a>
</g>
</g>
<!-- Node9&#45;&gt;Node11 -->
<g id="edge11" class="edge"><title>Node9&#45;&gt;Node11</title>
<path fill="none" stroke="midnightblue" d="M851.775,-342.954C761.037,-338.026 545.234,-324.088 476.604,-300 444.302,-288.662 411.775,-265.403 392.41,-250.005"/>
<polygon fill="midnightblue" stroke="midnightblue" points="394.451,-247.154 384.487,-243.555 390.032,-252.583 394.451,-247.154"/>
</g>
<!-- Node12 -->
<g id="node12" class="node"><title>Node12</title>
<g id="a_node12"><a xlink:href="dji__camera_8hpp.html" target="_top" xlink:title="Camera/Gimbal API for DJI onboardSDK library. ">
<polygon fill="white" stroke="black" points="1014.1,-168.5 1014.1,-187.5 1097.1,-187.5 1097.1,-168.5 1014.1,-168.5"/>
<text text-anchor="middle" x="1055.6" y="-175.5" font-family="Helvetica,sans-Serif" font-size="10.00">dji_camera.hpp</text>
</a>
</g>
</g>
<!-- Node9&#45;&gt;Node12 -->
<g id="edge14" class="edge"><title>Node9&#45;&gt;Node12</title>
<path fill="none" stroke="midnightblue" d="M905.5,-336.402C929.086,-320.255 979.934,-283.449 1014.6,-244 1027.5,-229.323 1039.06,-210.166 1046.59,-196.458"/>
<polygon fill="midnightblue" stroke="midnightblue" points="1049.71,-198.052 1051.33,-187.582 1043.53,-194.759 1049.71,-198.052"/>
</g>
<!-- Node13 -->
<g id="node13" class="node"><title>Node13</title>
<g id="a_node13"><a xlink:href="dji__command_8hpp.html" target="_top" xlink:title="All DJI OSDK OpenProtocol Command IDs. ">
<polygon fill="white" stroke="black" points="1024.1,-112.5 1024.1,-131.5 1117.1,-131.5 1117.1,-112.5 1024.1,-112.5"/>
<text text-anchor="middle" x="1070.6" y="-119.5" font-family="Helvetica,sans-Serif" font-size="10.00">dji_command.hpp</text>
</a>
</g>
</g>
<!-- Node9&#45;&gt;Node13 -->
<g id="edge21" class="edge"><title>Node9&#45;&gt;Node13</title>
<path fill="none" stroke="midnightblue" d="M933.266,-338.75C1003.59,-325.463 1145.85,-287.067 1202.6,-188 1221.98,-154.173 1171.35,-137.578 1127.28,-129.69"/>
<polygon fill="midnightblue" stroke="midnightblue" points="1127.58,-126.192 1117.14,-128.001 1126.43,-133.097 1127.58,-126.192"/>
</g>
<!-- Node15 -->
<g id="node15" class="node"><title>Node15</title>
<polygon fill="white" stroke="#bfbfbf" points="1175.6,-280.5 1175.6,-299.5 1287.6,-299.5 1287.6,-280.5 1175.6,-280.5"/>
<text text-anchor="middle" x="1231.6" y="-287.5" font-family="Helvetica,sans-Serif" font-size="10.00">dji_circular_buffer.hpp</text>
</g>
<!-- Node9&#45;&gt;Node15 -->
<g id="edge20" class="edge"><title>Node9&#45;&gt;Node15</title>
<path fill="none" stroke="midnightblue" d="M933.159,-338.54C991.332,-329.273 1099.03,-312.119 1167.9,-301.148"/>
<polygon fill="midnightblue" stroke="midnightblue" points="1168.86,-304.539 1178.18,-299.509 1167.76,-297.626 1168.86,-304.539"/>
</g>
<!-- Node16 -->
<g id="node16" class="node"><title>Node16</title>
<g id="a_node16"><a xlink:href="dji__control_8hpp.html" target="_top" xlink:title="Control API for DJI OSDK library. ">
<polygon fill="white" stroke="black" points="485.604,-280.5 485.604,-299.5 565.604,-299.5 565.604,-280.5 485.604,-280.5"/>
<text text-anchor="middle" x="525.604" y="-287.5" font-family="Helvetica,sans-Serif" font-size="10.00">dji_control.hpp</text>
</a>
</g>
</g>
<!-- Node9&#45;&gt;Node16 -->
<g id="edge22" class="edge"><title>Node9&#45;&gt;Node16</title>
<path fill="none" stroke="midnightblue" d="M851.926,-339.015C784.283,-329.062 648.877,-309.138 575.548,-298.349"/>
<polygon fill="midnightblue" stroke="midnightblue" points="576.029,-294.882 565.626,-296.889 575.01,-301.807 576.029,-294.882"/>
</g>
<!-- Node19 -->
<g id="node19" class="node"><title>Node19</title>
<g id="a_node19"><a xlink:href="dji__version_8hpp.html" target="_top" xlink:title="Drone/SDK Version definition for DJI onboardSDK library. ">
<polygon fill="white" stroke="black" points="1250.6,-168.5 1250.6,-187.5 1332.6,-187.5 1332.6,-168.5 1250.6,-168.5"/>
<text text-anchor="middle" x="1291.6" y="-175.5" font-family="Helvetica,sans-Serif" font-size="10.00">dji_version.hpp</text>
</a>
</g>
</g>
<!-- Node9&#45;&gt;Node19 -->
<g id="edge61" class="edge"><title>Node9&#45;&gt;Node19</title>
<path fill="none" stroke="midnightblue" d="M933.393,-342.365C980.809,-338.117 1060.6,-327.253 1123.6,-300 1185.46,-273.243 1246.82,-220.775 1275.24,-194.61"/>
<polygon fill="midnightblue" stroke="midnightblue" points="1277.74,-197.063 1282.66,-187.68 1272.96,-191.947 1277.74,-197.063"/>
</g>
<!-- Node21 -->
<g id="node21" class="node"><title>Node21</title>
<g id="a_node21"><a xlink:href="dji__gimbal_8hpp.html" target="_top" xlink:title="Gimbal API for OSDK library. ">
<polygon fill="white" stroke="black" points="1115.1,-168.5 1115.1,-187.5 1194.1,-187.5 1194.1,-168.5 1115.1,-168.5"/>
<text text-anchor="middle" x="1154.6" y="-175.5" font-family="Helvetica,sans-Serif" font-size="10.00">dji_gimbal.hpp</text>
</a>
</g>
</g>
<!-- Node9&#45;&gt;Node21 -->
<g id="edge35" class="edge"><title>Node9&#45;&gt;Node21</title>
<path fill="none" stroke="midnightblue" d="M911.426,-336.441C929.73,-327.896 958.13,-314.047 981.604,-300 1039.43,-265.399 1103.42,-218.089 1134.9,-194.17"/>
<polygon fill="midnightblue" stroke="midnightblue" points="1137.42,-196.657 1143.24,-187.806 1133.17,-191.093 1137.42,-196.657"/>
</g>
<!-- Node22 -->
<g id="node22" class="node"><title>Node22</title>
<polygon fill="white" stroke="#bfbfbf" points="1305.6,-280.5 1305.6,-299.5 1403.6,-299.5 1403.6,-280.5 1305.6,-280.5"/>
<text text-anchor="middle" x="1354.6" y="-287.5" font-family="Helvetica,sans-Serif" font-size="10.00">dji_hard_driver.hpp</text>
</g>
<!-- Node9&#45;&gt;Node22 -->
<g id="edge38" class="edge"><title>Node9&#45;&gt;Node22</title>
<path fill="none" stroke="midnightblue" d="M933.389,-341.043C1004.65,-334.001 1156.7,-318.413 1295.6,-300.084"/>
<polygon fill="midnightblue" stroke="midnightblue" points="1296.13,-303.545 1305.58,-298.759 1295.2,-296.606 1296.13,-303.545"/>
</g>
<!-- Node23 -->
<g id="node23" class="node"><title>Node23</title>
<g id="a_node23"><a xlink:href="dji__hardware__sync_8hpp.html" target="_top" xlink:title="Hardware Sync API for DJI OSDK. ">
<polygon fill="white" stroke="black" points="889.604,-224.5 889.604,-243.5 1005.6,-243.5 1005.6,-224.5 889.604,-224.5"/>
<text text-anchor="middle" x="947.604" y="-231.5" font-family="Helvetica,sans-Serif" font-size="10.00">dji_hardware_sync.hpp</text>
</a>
</g>
</g>
<!-- Node9&#45;&gt;Node23 -->
<g id="edge39" class="edge"><title>Node9&#45;&gt;Node23</title>
<path fill="none" stroke="midnightblue" d="M896.92,-336.368C905.916,-318.376 926.829,-276.55 938.791,-252.627"/>
<polygon fill="midnightblue" stroke="midnightblue" points="941.967,-254.101 943.308,-243.591 935.706,-250.97 941.967,-254.101"/>
</g>
<!-- Node24 -->
<g id="node24" class="node"><title>Node24</title>
<g id="a_node24"><a xlink:href="dji__mfio_8hpp.html" target="_top" xlink:title="MFIO API for DJI OSDK library. ">
<polygon fill="white" stroke="black" points="202.104,-224.5 202.104,-243.5 271.104,-243.5 271.104,-224.5 202.104,-224.5"/>
<text text-anchor="middle" x="236.604" y="-231.5" font-family="Helvetica,sans-Serif" font-size="10.00">dji_mfio.hpp</text>
</a>
</g>
</g>
<!-- Node9&#45;&gt;Node24 -->
<g id="edge41" class="edge"><title>Node9&#45;&gt;Node24</title>
<path fill="none" stroke="midnightblue" d="M852.064,-343.924C724.231,-340.268 335.117,-327.012 285.604,-300 266.472,-289.562 252.608,-268.111 244.609,-252.704"/>
<polygon fill="midnightblue" stroke="midnightblue" points="247.719,-251.096 240.202,-243.629 241.422,-254.153 247.719,-251.096"/>
</g>
<!-- Node25 -->
<g id="node25" class="node"><title>Node25</title>
<g id="a_node25"><a xlink:href="dji__mission__manager_8hpp.html" target="_top" xlink:title="Mission&#45;Manager API for DJI OSDK library. ">
<polygon fill="white" stroke="black" points="639.104,-280.5 639.104,-299.5 766.104,-299.5 766.104,-280.5 639.104,-280.5"/>
<text text-anchor="middle" x="702.604" y="-287.5" font-family="Helvetica,sans-Serif" font-size="10.00">dji_mission_manager.hpp</text>
</a>
</g>
</g>
<!-- Node9&#45;&gt;Node25 -->
<g id="edge43" class="edge"><title>Node9&#45;&gt;Node25</title>
<path fill="none" stroke="midnightblue" d="M862.498,-336.444C829.978,-327.201 778.026,-312.436 742.213,-302.257"/>
<polygon fill="midnightblue" stroke="midnightblue" points="743.145,-298.884 732.569,-299.516 741.232,-305.617 743.145,-298.884"/>
</g>
<!-- Node29 -->
<g id="node29" class="node"><title>Node29</title>
<g id="a_node29"><a xlink:href="dji__mobile__communication_8hpp.html" target="_top" xlink:title="Implementation of DJI Mobile&#45;Onboard SDK Communication (MOC) ">
<polygon fill="white" stroke="black" points="43.6041,-280.5 43.6041,-299.5 193.604,-299.5 193.604,-280.5 43.6041,-280.5"/>
<text text-anchor="middle" x="118.604" y="-287.5" font-family="Helvetica,sans-Serif" font-size="10.00">dji_mobile_communication.hpp</text>
</a>
</g>
</g>
<!-- Node9&#45;&gt;Node29 -->
<g id="edge52" class="edge"><title>Node9&#45;&gt;Node29</title>
<path fill="none" stroke="midnightblue" d="M852.094,-342.817C746.232,-337.007 452.624,-320.222 208.604,-300 207.088,-299.874 205.558,-299.745 204.017,-299.613"/>
<polygon fill="midnightblue" stroke="midnightblue" points="203.991,-296.098 193.722,-298.704 203.375,-303.07 203.991,-296.098"/>
</g>
<!-- Node30 -->
<g id="node30" class="node"><title>Node30</title>
<g id="a_node30"><a xlink:href="dji__status_8hpp.html" target="_top" xlink:title="Status information for DJI Vehicle. ">
<polygon fill="white" stroke="black" points="1350.1,-56.5 1350.1,-75.5 1427.1,-75.5 1427.1,-56.5 1350.1,-56.5"/>
<text text-anchor="middle" x="1388.6" y="-63.5" font-family="Helvetica,sans-Serif" font-size="10.00">dji_status.hpp</text>
</a>
</g>
</g>
<!-- Node9&#45;&gt;Node30 -->
<g id="edge55" class="edge"><title>Node9&#45;&gt;Node30</title>
<path fill="none" stroke="midnightblue" d="M933.541,-344.492C1071.76,-342.474 1515.57,-333.429 1569.6,-300 1598.06,-282.393 1607.6,-268.463 1607.6,-235 1607.6,-235 1607.6,-235 1607.6,-177 1607.6,-101.275 1501.75,-77.6744 1437.23,-70.3229"/>
<polygon fill="midnightblue" stroke="midnightblue" points="1437.56,-66.8387 1427.25,-69.2771 1436.83,-73.8005 1437.56,-66.8387"/>
</g>
<!-- Node31 -->
<g id="node31" class="node"><title>Node31</title>
<polygon fill="white" stroke="#bfbfbf" points="1421.6,-280.5 1421.6,-299.5 1541.6,-299.5 1541.6,-280.5 1421.6,-280.5"/>
<text text-anchor="middle" x="1481.6" y="-287.5" font-family="Helvetica,sans-Serif" font-size="10.00">dji_thread_manager.hpp</text>
</g>
<!-- Node9&#45;&gt;Node31 -->
<g id="edge58" class="edge"><title>Node9&#45;&gt;Node31</title>
<path fill="none" stroke="midnightblue" d="M933.117,-342.096C1019.13,-335.799 1226.56,-319.929 1411.24,-300.106"/>
<polygon fill="midnightblue" stroke="midnightblue" points="1411.85,-303.561 1421.41,-299.007 1411.09,-296.601 1411.85,-303.561"/>
</g>
<!-- Node11&#45;&gt;Node4 -->
<g id="edge12" class="edge"><title>Node11&#45;&gt;Node4</title>
<path fill="none" stroke="midnightblue" d="M374.769,-224.083C374.9,-217.006 375.088,-206.861 375.253,-197.986"/>
<polygon fill="midnightblue" stroke="midnightblue" points="378.756,-197.814 375.442,-187.751 371.757,-197.685 378.756,-197.814"/>
</g>
<!-- Node11&#45;&gt;Node8 -->
<g id="edge13" class="edge"><title>Node11&#45;&gt;Node8</title>
<path fill="none" stroke="midnightblue" d="M358.91,-224.368C324.225,-205.292 240.826,-159.422 199.159,-136.505"/>
<polygon fill="midnightblue" stroke="midnightblue" points="200.674,-133.344 190.225,-131.591 197.3,-139.477 200.674,-133.344"/>
</g>
<!-- Node12&#45;&gt;Node5 -->
<g id="edge19" class="edge"><title>Node12&#45;&gt;Node5</title>
<path fill="none" stroke="midnightblue" d="M1029.93,-168.444C1002.68,-159.359 959.42,-144.939 928.954,-134.783"/>
<polygon fill="midnightblue" stroke="midnightblue" points="929.747,-131.358 919.153,-131.516 927.533,-137.999 929.747,-131.358"/>
</g>
<!-- Node12&#45;&gt;Node13 -->
<g id="edge15" class="edge"><title>Node12&#45;&gt;Node13</title>
<path fill="none" stroke="midnightblue" d="M1058.08,-168.083C1060.09,-160.849 1062.99,-150.409 1065.49,-141.397"/>
<polygon fill="midnightblue" stroke="midnightblue" points="1068.87,-142.323 1068.17,-131.751 1062.12,-140.449 1068.87,-142.323"/>
</g>
<!-- Node13&#45;&gt;Node7 -->
<g id="edge18" class="edge"><title>Node13&#45;&gt;Node7</title>
<path fill="none" stroke="midnightblue" d="M1070.85,-112.1C1071.05,-99.5145 1070.88,-75.8394 1067.6,-56 1066.13,-47.0741 1063.48,-37.4077 1060.96,-29.3302"/>
<polygon fill="midnightblue" stroke="midnightblue" points="1064.28,-28.223 1057.82,-19.8226 1057.63,-30.4157 1064.28,-28.223"/>
</g>
<!-- Node14 -->
<g id="node14" class="node"><title>Node14</title>
<g id="a_node14"><a xlink:href="dji__error_8hpp.html" target="_top" xlink:title="All DJI OSDK OpenProtocol ACK Error Codes. ">
<polygon fill="white" stroke="black" points="988.604,-56.5 988.604,-75.5 1058.6,-75.5 1058.6,-56.5 988.604,-56.5"/>
<text text-anchor="middle" x="1023.6" y="-63.5" font-family="Helvetica,sans-Serif" font-size="10.00">dji_error.hpp</text>
</a>
</g>
</g>
<!-- Node13&#45;&gt;Node14 -->
<g id="edge16" class="edge"><title>Node13&#45;&gt;Node14</title>
<path fill="none" stroke="midnightblue" d="M1062.84,-112.083C1056.07,-104.298 1046.06,-92.8015 1037.85,-83.3665"/>
<polygon fill="midnightblue" stroke="midnightblue" points="1040.43,-80.9963 1031.22,-75.7511 1035.15,-85.592 1040.43,-80.9963"/>
</g>
<!-- Node14&#45;&gt;Node7 -->
<g id="edge17" class="edge"><title>Node14&#45;&gt;Node7</title>
<path fill="none" stroke="midnightblue" d="M1028.72,-56.083C1033.01,-48.6127 1039.26,-37.7244 1044.55,-28.5199"/>
<polygon fill="midnightblue" stroke="midnightblue" points="1047.64,-30.1662 1049.58,-19.7511 1041.57,-26.6811 1047.64,-30.1662"/>
</g>
<!-- Node16&#45;&gt;Node3 -->
<g id="edge32" class="edge"><title>Node16&#45;&gt;Node3</title>
<path fill="none" stroke="midnightblue" d="M522.656,-280.441C514.785,-258.756 491.279,-201.042 453.604,-168 398.83,-119.962 317.744,-92.0138 266.568,-78.1358"/>
<polygon fill="midnightblue" stroke="midnightblue" points="267.31,-74.7119 256.748,-75.546 265.525,-81.4804 267.31,-74.7119"/>
</g>
<!-- Node16&#45;&gt;Node5 -->
<g id="edge33" class="edge"><title>Node16&#45;&gt;Node5</title>
<path fill="none" stroke="midnightblue" d="M523.902,-280.451C520.036,-258.282 513.206,-198.545 544.604,-168 586.955,-126.799 764.558,-122.169 848.842,-122.367"/>
<polygon fill="midnightblue" stroke="midnightblue" points="848.868,-125.867 858.885,-122.414 848.902,-118.867 848.868,-125.867"/>
</g>
<!-- Node16&#45;&gt;Node8 -->
<g id="edge34" class="edge"><title>Node16&#45;&gt;Node8</title>
<path fill="none" stroke="midnightblue" d="M513.434,-280.334C502.188,-271.922 485.475,-258.351 473.604,-244 448.726,-213.926 461.588,-190.37 429.604,-168 400.581,-147.701 310.679,-135.342 245.836,-128.839"/>
<polygon fill="midnightblue" stroke="midnightblue" points="245.95,-125.334 235.658,-127.845 245.27,-132.301 245.95,-125.334"/>
</g>
<!-- Node17 -->
<g id="node17" class="node"><title>Node17</title>
<g id="a_node17"><a xlink:href="dji__ack_8hpp.html" target="_top" xlink:title="All DJI OSDK ACK parsing. ">
<polygon fill="white" stroke="black" points="766.604,-224.5 766.604,-243.5 832.604,-243.5 832.604,-224.5 766.604,-224.5"/>
<text text-anchor="middle" x="799.604" y="-231.5" font-family="Helvetica,sans-Serif" font-size="10.00">dji_ack.hpp</text>
</a>
</g>
</g>
<!-- Node16&#45;&gt;Node17 -->
<g id="edge23" class="edge"><title>Node16&#45;&gt;Node17</title>
<path fill="none" stroke="midnightblue" d="M565.926,-281.219C611.864,-272.329 689.176,-257.292 755.604,-244 755.934,-243.934 756.265,-243.868 756.597,-243.801"/>
<polygon fill="midnightblue" stroke="midnightblue" points="757.345,-247.221 766.455,-241.812 755.961,-240.359 757.345,-247.221"/>
</g>
<!-- Node17&#45;&gt;Node5 -->
<g id="edge27" class="edge"><title>Node17&#45;&gt;Node5</title>
<path fill="none" stroke="midnightblue" d="M811.898,-224.275C823.281,-215.82 840.262,-202.221 852.604,-188 865.412,-173.243 876.984,-154.097 884.542,-140.414"/>
<polygon fill="midnightblue" stroke="midnightblue" points="887.651,-142.023 889.297,-131.557 881.483,-138.712 887.651,-142.023"/>
</g>
<!-- Node17&#45;&gt;Node13 -->
<g id="edge24" class="edge"><title>Node17&#45;&gt;Node13</title>
<path fill="none" stroke="midnightblue" d="M820.869,-224.368C868.659,-204.97 984.698,-157.87 1040.14,-135.367"/>
<polygon fill="midnightblue" stroke="midnightblue" points="1041.49,-138.596 1049.44,-131.591 1038.86,-132.109 1041.49,-138.596"/>
</g>
<!-- Node18 -->
<g id="node18" class="node"><title>Node18</title>
<g id="a_node18"><a xlink:href="dji__mission__type_8hpp_source.html" target="_top" xlink:title="dji_mission_type.hpp">
<polygon fill="white" stroke="black" points="735.604,-168.5 735.604,-187.5 843.604,-187.5 843.604,-168.5 735.604,-168.5"/>
<text text-anchor="middle" x="789.604" y="-175.5" font-family="Helvetica,sans-Serif" font-size="10.00">dji_mission_type.hpp</text>
</a>
</g>
</g>
<!-- Node17&#45;&gt;Node18 -->
<g id="edge25" class="edge"><title>Node17&#45;&gt;Node18</title>
<path fill="none" stroke="midnightblue" d="M797.953,-224.083C796.628,-216.927 794.722,-206.635 793.065,-197.691"/>
<polygon fill="midnightblue" stroke="midnightblue" points="796.487,-196.947 791.225,-187.751 789.604,-198.221 796.487,-196.947"/>
</g>
<!-- Node17&#45;&gt;Node19 -->
<g id="edge28" class="edge"><title>Node17&#45;&gt;Node19</title>
<path fill="none" stroke="midnightblue" d="M832.707,-229.31C847.38,-227.677 864.853,-225.737 880.604,-224 1010.17,-209.709 1162.73,-193.049 1240.47,-184.572"/>
<polygon fill="midnightblue" stroke="midnightblue" points="1240.91,-188.045 1250.47,-183.481 1240.15,-181.086 1240.91,-188.045"/>
</g>
<!-- Node20 -->
<g id="node20" class="node"><title>Node20</title>
<polygon fill="white" stroke="#bfbfbf" points="682.104,-168.5 682.104,-187.5 717.104,-187.5 717.104,-168.5 682.104,-168.5"/>
<text text-anchor="middle" x="699.604" y="-175.5" font-family="Helvetica,sans-Serif" font-size="10.00">map</text>
</g>
<!-- Node17&#45;&gt;Node20 -->
<g id="edge31" class="edge"><title>Node17&#45;&gt;Node20</title>
<path fill="none" stroke="midnightblue" d="M783.537,-224.324C767.646,-215.743 743.097,-202.486 724.646,-192.522"/>
<polygon fill="midnightblue" stroke="midnightblue" points="726.093,-189.326 715.631,-187.655 722.767,-195.486 726.093,-189.326"/>
</g>
<!-- Node18&#45;&gt;Node5 -->
<g id="edge26" class="edge"><title>Node18&#45;&gt;Node5</title>
<path fill="none" stroke="midnightblue" d="M806.314,-168.324C822.916,-159.703 848.606,-146.364 867.825,-136.386"/>
<polygon fill="midnightblue" stroke="midnightblue" points="869.674,-139.369 876.936,-131.655 866.448,-133.156 869.674,-139.369"/>
</g>
<!-- Node19&#45;&gt;Node10 -->
<g id="edge30" class="edge"><title>Node19&#45;&gt;Node10</title>
<path fill="none" stroke="midnightblue" d="M1312.52,-168.444C1334.34,-159.517 1368.75,-145.439 1393.5,-135.317"/>
<polygon fill="midnightblue" stroke="midnightblue" points="1394.86,-138.542 1402.79,-131.516 1392.21,-132.063 1394.86,-138.542"/>
</g>
<!-- Node19&#45;&gt;Node13 -->
<g id="edge29" class="edge"><title>Node19&#45;&gt;Node13</title>
<path fill="none" stroke="midnightblue" d="M1256.59,-168.444C1218.36,-159.102 1157.04,-144.119 1115.35,-133.933"/>
<polygon fill="midnightblue" stroke="midnightblue" points="1116,-130.49 1105.46,-131.516 1114.34,-137.29 1116,-130.49"/>
</g>
<!-- Node21&#45;&gt;Node5 -->
<g id="edge37" class="edge"><title>Node21&#45;&gt;Node5</title>
<path fill="none" stroke="midnightblue" d="M1114.96,-168.799C1067.34,-158.944 987.65,-142.458 937.999,-132.185"/>
<polygon fill="midnightblue" stroke="midnightblue" points="938.687,-128.753 928.185,-130.155 937.268,-135.608 938.687,-128.753"/>
</g>
<!-- Node21&#45;&gt;Node13 -->
<g id="edge36" class="edge"><title>Node21&#45;&gt;Node13</title>
<path fill="none" stroke="midnightblue" d="M1141.11,-168.324C1128,-159.9 1107.89,-146.971 1092.5,-137.074"/>
<polygon fill="midnightblue" stroke="midnightblue" points="1094.37,-134.118 1084.07,-131.655 1090.59,-140.006 1094.37,-134.118"/>
</g>
<!-- Node23&#45;&gt;Node5 -->
<g id="edge40" class="edge"><title>Node23&#45;&gt;Node5</title>
<path fill="none" stroke="midnightblue" d="M945.112,-224.317C941.302,-211.592 933.427,-187.297 923.604,-168 918.652,-158.273 912.012,-148.1 906.237,-139.893"/>
<polygon fill="midnightblue" stroke="midnightblue" points="908.923,-137.634 900.221,-131.59 903.254,-141.742 908.923,-137.634"/>
</g>
<!-- Node24&#45;&gt;Node8 -->
<g id="edge42" class="edge"><title>Node24&#45;&gt;Node8</title>
<path fill="none" stroke="midnightblue" d="M231.739,-224.368C221.553,-206.296 197.813,-164.176 184.359,-140.307"/>
<polygon fill="midnightblue" stroke="midnightblue" points="187.406,-138.584 179.447,-131.591 181.308,-142.022 187.406,-138.584"/>
</g>
<!-- Node26 -->
<g id="node26" class="node"><title>Node26</title>
<g id="a_node26"><a xlink:href="dji__hotpoint_8hpp.html" target="_top" xlink:title="Implementation of HotPoint (Point of Interest) Missions for DJI OSDK. ">
<polygon fill="white" stroke="black" points="555.104,-224.5 555.104,-243.5 640.104,-243.5 640.104,-224.5 555.104,-224.5"/>
<text text-anchor="middle" x="597.604" y="-231.5" font-family="Helvetica,sans-Serif" font-size="10.00">dji_hotpoint.hpp</text>
</a>
</g>
</g>
<!-- Node25&#45;&gt;Node26 -->
<g id="edge44" class="edge"><title>Node25&#45;&gt;Node26</title>
<path fill="none" stroke="midnightblue" d="M685.734,-280.324C668.895,-271.664 642.798,-258.242 623.366,-248.249"/>
<polygon fill="midnightblue" stroke="midnightblue" points="624.926,-245.116 614.432,-243.655 621.724,-251.341 624.926,-245.116"/>
</g>
<!-- Node28 -->
<g id="node28" class="node"><title>Node28</title>
<g id="a_node28"><a xlink:href="dji__waypoint_8hpp.html" target="_top" xlink:title="Implementation of GPS Waypoint Missions for DJI OSDK. ">
<polygon fill="white" stroke="black" points="658.104,-224.5 658.104,-243.5 747.104,-243.5 747.104,-224.5 658.104,-224.5"/>
<text text-anchor="middle" x="702.604" y="-231.5" font-family="Helvetica,sans-Serif" font-size="10.00">dji_waypoint.hpp</text>
</a>
</g>
</g>
<!-- Node25&#45;&gt;Node28 -->
<g id="edge50" class="edge"><title>Node25&#45;&gt;Node28</title>
<path fill="none" stroke="midnightblue" d="M702.604,-280.083C702.604,-273.006 702.604,-262.861 702.604,-253.986"/>
<polygon fill="midnightblue" stroke="midnightblue" points="706.104,-253.751 702.604,-243.751 699.104,-253.751 706.104,-253.751"/>
</g>
<!-- Node26&#45;&gt;Node4 -->
<g id="edge49" class="edge"><title>Node26&#45;&gt;Node4</title>
<path fill="none" stroke="midnightblue" d="M562.428,-224.444C524.025,-215.102 462.428,-200.119 420.549,-189.933"/>
<polygon fill="midnightblue" stroke="midnightblue" points="421.16,-186.479 410.616,-187.516 419.506,-193.281 421.16,-186.479"/>
</g>
<!-- Node27 -->
<g id="node27" class="node"><title>Node27</title>
<g id="a_node27"><a xlink:href="dji__mission__base_8hpp.html" target="_top" xlink:title="Mission&#45;Base abstract class for DJI OSDK library. ">
<polygon fill="white" stroke="black" points="553.604,-168.5 553.604,-187.5 663.604,-187.5 663.604,-168.5 553.604,-168.5"/>
<text text-anchor="middle" x="608.604" y="-175.5" font-family="Helvetica,sans-Serif" font-size="10.00">dji_mission_base.hpp</text>
</a>
</g>
</g>
<!-- Node26&#45;&gt;Node27 -->
<g id="edge45" class="edge"><title>Node26&#45;&gt;Node27</title>
<path fill="none" stroke="midnightblue" d="M599.421,-224.083C600.878,-216.927 602.975,-206.635 604.797,-197.691"/>
<polygon fill="midnightblue" stroke="midnightblue" points="608.255,-198.248 606.822,-187.751 601.396,-196.851 608.255,-198.248"/>
</g>
<!-- Node27&#45;&gt;Node5 -->
<g id="edge47" class="edge"><title>Node27&#45;&gt;Node5</title>
<path fill="none" stroke="midnightblue" d="M653.763,-168.444C707.289,-158.302 795.914,-141.51 849.136,-131.426"/>
<polygon fill="midnightblue" stroke="midnightblue" points="849.792,-134.864 858.966,-129.563 848.489,-127.986 849.792,-134.864"/>
</g>
<!-- Node27&#45;&gt;Node8 -->
<g id="edge48" class="edge"><title>Node27&#45;&gt;Node8</title>
<path fill="none" stroke="midnightblue" d="M553.197,-170.106C474.833,-160.356 331.607,-142.535 245.558,-131.828"/>
<polygon fill="midnightblue" stroke="midnightblue" points="245.969,-128.353 235.613,-130.591 245.104,-135.299 245.969,-128.353"/>
</g>
<!-- Node27&#45;&gt;Node13 -->
<g id="edge46" class="edge"><title>Node27&#45;&gt;Node13</title>
<path fill="none" stroke="midnightblue" d="M663.749,-169.148C666.744,-168.752 669.71,-168.367 672.604,-168 794.082,-152.594 936.757,-137.09 1013.99,-128.913"/>
<polygon fill="midnightblue" stroke="midnightblue" points="1014.41,-132.388 1023.99,-127.856 1013.67,-125.427 1014.41,-132.388"/>
</g>
<!-- Node28&#45;&gt;Node27 -->
<g id="edge51" class="edge"><title>Node28&#45;&gt;Node27</title>
<path fill="none" stroke="midnightblue" d="M687.501,-224.324C672.701,-215.822 649.91,-202.729 632.622,-192.797"/>
<polygon fill="midnightblue" stroke="midnightblue" points="634.084,-189.601 623.669,-187.655 630.597,-195.671 634.084,-189.601"/>
</g>
<!-- Node29&#45;&gt;Node8 -->
<g id="edge53" class="edge"><title>Node29&#45;&gt;Node8</title>
<path fill="none" stroke="midnightblue" d="M104.632,-280.344C87.5959,-268.593 62.1679,-246.469 71.6041,-224 87.7549,-185.543 126.486,-154.376 151.58,-137.291"/>
<polygon fill="midnightblue" stroke="midnightblue" points="153.72,-140.073 160.142,-131.646 149.867,-134.229 153.72,-140.073"/>
</g>
<!-- Node30&#45;&gt;Node7 -->
<g id="edge56" class="edge"><title>Node30&#45;&gt;Node7</title>
<path fill="none" stroke="midnightblue" d="M1349.96,-58.7528C1284.38,-48.15 1152.3,-26.7959 1089.42,-16.6287"/>
<polygon fill="midnightblue" stroke="midnightblue" points="1089.66,-13.1217 1079.23,-14.9807 1088.54,-20.0319 1089.66,-13.1217"/>
</g>
</g>
</svg>
        <g id="navigator" transform="translate(0 0)" fill="#404254">
                <rect fill="#f2f5e9" fill-opacity="0.5" stroke="#606060" stroke-width=".5" x="0" y="0" width="60" height="60"/>
                <use id="zoomplus" xlink:href="#zoomPlus" x="17" y="9" onmousedown="handleZoom(evt,'in')"/>
                <use id="zoomminus" xlink:href="#zoomMin" x="42" y="9" onmousedown="handleZoom(evt,'out')"/>
                <use id="reset" xlink:href="#resetDef" x="30" y="36" onmousedown="handleReset()"/>
                <g id="arrowUp" xlink:href="#dirArrow" transform="translate(30 24)" onmousedown="handlePan(0,-1)">
                  <use xlink:href="#rim" fill="#404040">
                        <set attributeName="fill" to="#808080" begin="arrowUp.mouseover" end="arrowUp.mouseout"/>
                  </use>
                  <path fill="none" stroke="white" stroke-width="1.5" d="M0,-3.0v7 M-2.5,-0.5L0,-3.0L2.5,-0.5"/>
                </g>
                <g id="arrowRight" xlink:href="#dirArrow" transform="rotate(90) translate(36 -43)" onmousedown="handlePan(1,0)">
                  <use xlink:href="#rim" fill="#404040">
                        <set attributeName="fill" to="#808080" begin="arrowRight.mouseover" end="arrowRight.mouseout"/>
                  </use>
                  <path fill="none" stroke="white" stroke-width="1.5" d="M0,-3.0v7 M-2.5,-0.5L0,-3.0L2.5,-0.5"/>
                </g>
                <g id="arrowDown" xlink:href="#dirArrow" transform="rotate(180) translate(-30 -48)" onmousedown="handlePan(0,1)">
                  <use xlink:href="#rim" fill="#404040">
                        <set attributeName="fill" to="#808080" begin="arrowDown.mouseover" end="arrowDown.mouseout"/>
                  </use>
                  <path fill="none" stroke="white" stroke-width="1.5" d="M0,-3.0v7 M-2.5,-0.5L0,-3.0L2.5,-0.5"/>
                </g>
                <g id="arrowLeft" xlink:href="#dirArrow" transform="rotate(270) translate(-36 17)" onmousedown="handlePan(-1,0)">
                  <use xlink:href="#rim" fill="#404040">
                        <set attributeName="fill" to="#808080" begin="arrowLeft.mouseover" end="arrowLeft.mouseout"/>
                  </use>
                  <path fill="none" stroke="white" stroke-width="1.5" d="M0,-3.0v7 M-2.5,-0.5L0,-3.0L2.5,-0.5"/>
                </g>
        </g>
        <svg viewBox="0 0 15 15" width="100%" height="30px" preserveAspectRatio="xMaxYMin meet">
         <g id="arrow_out" transform="scale(0.3 0.3)">
          <a xlink:href="dji__subscription_8cpp__incl_org.svg" target="_base">
           <rect id="button" ry="5" rx="5" y="6" x="6" height="38" width="38"
                fill="#f2f5e9" fill-opacity="0.5" stroke="#606060" stroke-width="1.0"/>
           <path id="arrow"
             d="M 11.500037,31.436501 C 11.940474,20.09759 22.043105,11.32322 32.158766,21.979434 L 37.068811,17.246167 C 37.068811,17.246167 37.088388,32 37.088388,32 L 22.160133,31.978069 C 22.160133,31.978069 26.997745,27.140456 26.997745,27.140456 C 18.528582,18.264221 13.291696,25.230495 11.500037,31.436501 z"
             style="fill:#404040;"/>
          </a>
         </g>
        </svg>
</svg>
