<?xml version="1.0" encoding="UTF-8" standalone="no"?>
<!DOCTYPE svg PUBLIC "-//W3C//DTD SVG 1.1//EN"
 "http://www.w3.org/Graphics/SVG/1.1/DTD/svg11.dtd">
<!-- Generated by graphviz version 2.38.0 (20140413.2041)
 -->
<!-- Title: osdk&#45;core/api/src/dji_broadcast.cpp Pages: 1 -->
<!--zoomable 431 -->
<svg id="main" version="1.1" xmlns="http://www.w3.org/2000/svg" xmlns:xlink="http://www.w3.org/1999/xlink" xml:space="preserve" onload="init(evt)">
<style type="text/css"><![CDATA[
.edge:hover path { stroke: red; }
.edge:hover polygon { stroke: red; fill: red; }
]]></style>
<script type="text/javascript"><![CDATA[
var edges = document.getElementsByTagName('g');
if (edges && edges.length) {
  for (var i=0;i<edges.length;i++) {
    if (edges[i].id.substr(0,4)=='edge') {
      edges[i].setAttribute('class','edge');
    }
  }
}
]]></script>
        <defs>
                <circle id="rim" cx="0" cy="0" r="7"/>
                <circle id="rim2" cx="0" cy="0" r="3.5"/>
                <g id="zoomPlus">
                        <use xlink:href="#rim" fill="#404040">
                                <set attributeName="fill" to="#808080" begin="zoomplus.mouseover" end="zoomplus.mouseout"/>
                        </use>
                        <path d="M-4,0h8M0,-4v8" fill="none" stroke="white" stroke-width="1.5" pointer-events="none"/>
                </g>
                <g id="zoomMin">
                        <use xlink:href="#rim" fill="#404040">
                                <set attributeName="fill" to="#808080" begin="zoomminus.mouseover" end="zoomminus.mouseout"/>
                        </use>
                        <path d="M-4,0h8" fill="none" stroke="white" stroke-width="1.5" pointer-events="none"/>
                </g>
                <g id="dirArrow">
                        <path fill="none" stroke="white" stroke-width="1.5" d="M0,-3.0v7 M-2.5,-0.5L0,-3.0L2.5,-0.5"/>
                </g>
               <g id="resetDef">
                       <use xlink:href="#rim2" fill="#404040">
                               <set attributeName="fill" to="#808080" begin="reset.mouseover" end="reset.mouseout"/>
                       </use>
               </g>
        </defs>

<script type="text/javascript">
var viewWidth = 1672;
var viewHeight = 431;
var sectionId = 'dynsection-0';
</script>
<script xlink:href="svgpan.js"/>
<svg id="graph" class="graph">
<g id="viewport">
<title>osdk&#45;core/api/src/dji_broadcast.cpp</title>
<polygon fill="white" stroke="none" points="-4,4 -4,-427 1668.29,-427 1668.29,4 -4,4"/>
<!-- Node1 -->
<g id="node1" class="node"><title>Node1</title>
<polygon fill="#bfbfbf" stroke="black" points="593.691,-392.5 593.691,-422.5 697.691,-422.5 697.691,-392.5 593.691,-392.5"/>
<text text-anchor="start" x="601.691" y="-410.5" font-family="Helvetica,sans-Serif" font-size="10.00">osdk&#45;core/api/src/dji</text>
<text text-anchor="middle" x="645.691" y="-399.5" font-family="Helvetica,sans-Serif" font-size="10.00">_broadcast.cpp</text>
</g>
<!-- Node2 -->
<g id="node2" class="node"><title>Node2</title>
<g id="a_node2"><a xlink:href="dji__broadcast_8hpp.html" target="_top" xlink:title="Broadcast Telemetry API for DJI onboardSDK library. ">
<polygon fill="white" stroke="black" points="277.191,-224.5 277.191,-243.5 370.191,-243.5 370.191,-224.5 277.191,-224.5"/>
<text text-anchor="middle" x="323.691" y="-231.5" font-family="Helvetica,sans-Serif" font-size="10.00">dji_broadcast.hpp</text>
</a>
</g>
</g>
<!-- Node1&#45;&gt;Node2 -->
<g id="edge1" class="edge"><title>Node1&#45;&gt;Node2</title>
<path fill="none" stroke="midnightblue" d="M619.162,-392.376C580.859,-371.982 507.84,-333.103 445.691,-300 412.219,-282.171 373.584,-261.586 348.914,-248.441"/>
<polygon fill="midnightblue" stroke="midnightblue" points="350.344,-245.237 339.872,-243.623 347.052,-251.414 350.344,-245.237"/>
</g>
<!-- Node9 -->
<g id="node9" class="node"><title>Node9</title>
<g id="a_node9"><a xlink:href="dji__vehicle_8hpp.html" target="_top" xlink:title="Vehicle API for DJI onboardSDK library. ">
<polygon fill="white" stroke="black" points="925.191,-336.5 925.191,-355.5 1006.19,-355.5 1006.19,-336.5 925.191,-336.5"/>
<text text-anchor="middle" x="965.691" y="-343.5" font-family="Helvetica,sans-Serif" font-size="10.00">dji_vehicle.hpp</text>
</a>
</g>
</g>
<!-- Node1&#45;&gt;Node9 -->
<g id="edge8" class="edge"><title>Node1&#45;&gt;Node9</title>
<path fill="none" stroke="midnightblue" d="M697.817,-396.808C757.751,-385.664 855.488,-367.491 914.868,-356.45"/>
<polygon fill="midnightblue" stroke="midnightblue" points="915.582,-359.877 924.774,-354.608 914.303,-352.995 915.582,-359.877"/>
</g>
<!-- Node3 -->
<g id="node3" class="node"><title>Node3</title>
<g id="a_node3"><a xlink:href="dji__telemetry_8hpp.html" target="_top" xlink:title="Enumeration of all telemetry data types, structures and maps. ">
<polygon fill="white" stroke="black" points="439.191,-168.5 439.191,-187.5 530.191,-187.5 530.191,-168.5 439.191,-168.5"/>
<text text-anchor="middle" x="484.691" y="-175.5" font-family="Helvetica,sans-Serif" font-size="10.00">dji_telemetry.hpp</text>
</a>
</g>
</g>
<!-- Node2&#45;&gt;Node3 -->
<g id="edge2" class="edge"><title>Node2&#45;&gt;Node3</title>
<path fill="none" stroke="midnightblue" d="M349.202,-224.444C376.287,-215.359 419.281,-200.939 449.56,-190.783"/>
<polygon fill="midnightblue" stroke="midnightblue" points="450.931,-194.015 459.299,-187.516 448.705,-187.378 450.931,-194.015"/>
</g>
<!-- Node7 -->
<g id="node7" class="node"><title>Node7</title>
<g id="a_node7"><a xlink:href="dji__vehicle__callback_8hpp.html" target="_top" xlink:title="Type definition for new Vehicle&#45;style callbacks. ">
<polygon fill="white" stroke="black" points="248.691,-112.5 248.691,-131.5 370.691,-131.5 370.691,-112.5 248.691,-112.5"/>
<text text-anchor="middle" x="309.691" y="-119.5" font-family="Helvetica,sans-Serif" font-size="10.00">dji_vehicle_callback.hpp</text>
</a>
</g>
</g>
<!-- Node2&#45;&gt;Node7 -->
<g id="edge6" class="edge"><title>Node2&#45;&gt;Node7</title>
<path fill="none" stroke="midnightblue" d="M322.592,-224.368C320.333,-206.617 315.121,-165.666 312.058,-141.597"/>
<polygon fill="midnightblue" stroke="midnightblue" points="315.519,-141.069 310.784,-131.591 308.575,-141.953 315.519,-141.069"/>
</g>
<!-- Node4 -->
<g id="node4" class="node"><title>Node4</title>
<g id="a_node4"><a xlink:href="dji__type_8hpp.html" target="_top" xlink:title="Data type and Data Structure definitions for use throughout DJI OSDK. ">
<polygon fill="white" stroke="black" points="946.191,-112.5 946.191,-131.5 1015.19,-131.5 1015.19,-112.5 946.191,-112.5"/>
<text text-anchor="middle" x="980.691" y="-119.5" font-family="Helvetica,sans-Serif" font-size="10.00">dji_type.hpp</text>
</a>
</g>
</g>
<!-- Node3&#45;&gt;Node4 -->
<g id="edge3" class="edge"><title>Node3&#45;&gt;Node4</title>
<path fill="none" stroke="midnightblue" d="M530.464,-172.017C625.239,-161.698 841.932,-138.107 935.877,-127.879"/>
<polygon fill="midnightblue" stroke="midnightblue" points="936.349,-131.348 945.912,-126.786 935.592,-124.389 936.349,-131.348"/>
</g>
<!-- Node5 -->
<g id="node5" class="node"><title>Node5</title>
<polygon fill="white" stroke="#bfbfbf" points="956.191,-56.5 956.191,-75.5 999.191,-75.5 999.191,-56.5 956.191,-56.5"/>
<text text-anchor="middle" x="977.691" y="-63.5" font-family="Helvetica,sans-Serif" font-size="10.00">cstdio</text>
</g>
<!-- Node4&#45;&gt;Node5 -->
<g id="edge4" class="edge"><title>Node4&#45;&gt;Node5</title>
<path fill="none" stroke="midnightblue" d="M980.195,-112.083C979.802,-105.006 979.239,-94.8611 978.746,-85.9865"/>
<polygon fill="midnightblue" stroke="midnightblue" points="982.226,-85.5415 978.177,-75.7511 975.237,-85.9299 982.226,-85.5415"/>
</g>
<!-- Node6 -->
<g id="node6" class="node"><title>Node6</title>
<polygon fill="white" stroke="#bfbfbf" points="1116.19,-0.5 1116.19,-19.5 1165.19,-19.5 1165.19,-0.5 1116.19,-0.5"/>
<text text-anchor="middle" x="1140.69" y="-7.5" font-family="Helvetica,sans-Serif" font-size="10.00">stdint.h</text>
</g>
<!-- Node4&#45;&gt;Node6 -->
<g id="edge5" class="edge"><title>Node4&#45;&gt;Node6</title>
<path fill="none" stroke="midnightblue" d="M988.042,-112.062C999.483,-98.5763 1022.74,-72.8185 1046.69,-56 1065.73,-42.6317 1089.36,-31.3397 1108.16,-23.4109"/>
<polygon fill="midnightblue" stroke="midnightblue" points="1109.58,-26.6115 1117.51,-19.578 1106.93,-20.1352 1109.58,-26.6115"/>
</g>
<!-- Node8 -->
<g id="node8" class="node"><title>Node8</title>
<polygon fill="white" stroke="#bfbfbf" points="429.191,-56.5 429.191,-75.5 540.191,-75.5 540.191,-56.5 429.191,-56.5"/>
<text text-anchor="middle" x="484.691" y="-63.5" font-family="Helvetica,sans-Serif" font-size="10.00">dji_open_protocol.hpp</text>
</g>
<!-- Node7&#45;&gt;Node8 -->
<g id="edge7" class="edge"><title>Node7&#45;&gt;Node8</title>
<path fill="none" stroke="midnightblue" d="M337.42,-112.444C367.116,-103.28 414.407,-88.6876 447.36,-78.5192"/>
<polygon fill="midnightblue" stroke="midnightblue" points="448.568,-81.8094 457.091,-75.5164 446.504,-75.1206 448.568,-81.8094"/>
</g>
<!-- Node9&#45;&gt;Node2 -->
<g id="edge10" class="edge"><title>Node9&#45;&gt;Node2</title>
<path fill="none" stroke="midnightblue" d="M925.087,-344.048C845.481,-341.503 663.679,-332.338 514.691,-300 483.917,-293.32 402.147,-263.958 356.2,-247.071"/>
<polygon fill="midnightblue" stroke="midnightblue" points="357.291,-243.744 346.698,-243.569 354.871,-250.312 357.291,-243.744"/>
</g>
<!-- Node9&#45;&gt;Node4 -->
<g id="edge59" class="edge"><title>Node9&#45;&gt;Node4</title>
<path fill="none" stroke="midnightblue" d="M958.692,-336.298C949.634,-323.949 935.686,-300.553 941.691,-280 947.016,-261.775 956.89,-261.31 964.691,-244 975.326,-220.401 977.101,-213.635 980.691,-188 982.846,-172.614 982.683,-154.978 982.072,-141.962"/>
<polygon fill="midnightblue" stroke="midnightblue" points="985.56,-141.658 981.467,-131.885 978.573,-142.077 985.56,-141.658"/>
</g>
<!-- Node9&#45;&gt;Node7 -->
<g id="edge60" class="edge"><title>Node9&#45;&gt;Node7</title>
<path fill="none" stroke="midnightblue" d="M924.92,-343.983C750.32,-339.199 71.8732,-316.048 13.6908,-244 -50.6781,-164.291 131.583,-136.623 238.34,-127.388"/>
<polygon fill="midnightblue" stroke="midnightblue" points="238.749,-130.866 248.425,-126.551 238.17,-123.89 238.749,-130.866"/>
</g>
<!-- Node9&#45;&gt;Node8 -->
<g id="edge51" class="edge"><title>Node9&#45;&gt;Node8</title>
<path fill="none" stroke="midnightblue" d="M925.078,-345.23C838.286,-344.934 638.347,-339.821 585.691,-300 560.74,-281.131 558.691,-266.282 558.691,-235 558.691,-235 558.691,-235 558.691,-177 558.691,-137.61 525.62,-101.726 503.695,-82.264"/>
<polygon fill="midnightblue" stroke="midnightblue" points="505.808,-79.466 495.93,-75.6358 501.264,-84.7902 505.808,-79.466"/>
</g>
<!-- Node10 -->
<g id="node10" class="node"><title>Node10</title>
<polygon fill="white" stroke="#bfbfbf" points="1530.69,-112.5 1530.69,-131.5 1576.69,-131.5 1576.69,-112.5 1530.69,-112.5"/>
<text text-anchor="middle" x="1553.69" y="-119.5" font-family="Helvetica,sans-Serif" font-size="10.00">cstdint</text>
</g>
<!-- Node9&#45;&gt;Node10 -->
<g id="edge9" class="edge"><title>Node9&#45;&gt;Node10</title>
<path fill="none" stroke="midnightblue" d="M1006.37,-345.475C1146.9,-346.694 1605.66,-347.018 1649.69,-300 1697.11,-249.363 1613.33,-170.876 1573.26,-138.141"/>
<polygon fill="midnightblue" stroke="midnightblue" points="1575.21,-135.218 1565.21,-131.703 1570.84,-140.684 1575.21,-135.218"/>
</g>
<!-- Node11 -->
<g id="node11" class="node"><title>Node11</title>
<g id="a_node11"><a xlink:href="dji__camera_8hpp.html" target="_top" xlink:title="Camera/Gimbal API for DJI onboardSDK library. ">
<polygon fill="white" stroke="black" points="1258.19,-168.5 1258.19,-187.5 1341.19,-187.5 1341.19,-168.5 1258.19,-168.5"/>
<text text-anchor="middle" x="1299.69" y="-175.5" font-family="Helvetica,sans-Serif" font-size="10.00">dji_camera.hpp</text>
</a>
</g>
</g>
<!-- Node9&#45;&gt;Node11 -->
<g id="edge11" class="edge"><title>Node9&#45;&gt;Node11</title>
<path fill="none" stroke="midnightblue" d="M1006.31,-341.139C1042.01,-336.174 1094.13,-324.979 1132.69,-300 1169.28,-276.299 1159.87,-250.232 1194.69,-224 1214.25,-209.267 1239.36,-198.279 1260.12,-190.85"/>
<polygon fill="midnightblue" stroke="midnightblue" points="1261.3,-194.146 1269.62,-187.587 1259.02,-187.526 1261.3,-194.146"/>
</g>
<!-- Node12 -->
<g id="node12" class="node"><title>Node12</title>
<g id="a_node12"><a xlink:href="dji__command_8hpp.html" target="_top" xlink:title="All DJI OSDK OpenProtocol Command IDs. ">
<polygon fill="white" stroke="black" points="1179.19,-112.5 1179.19,-131.5 1272.19,-131.5 1272.19,-112.5 1179.19,-112.5"/>
<text text-anchor="middle" x="1225.69" y="-119.5" font-family="Helvetica,sans-Serif" font-size="10.00">dji_command.hpp</text>
</a>
</g>
</g>
<!-- Node9&#45;&gt;Node12 -->
<g id="edge18" class="edge"><title>Node9&#45;&gt;Node12</title>
<path fill="none" stroke="midnightblue" d="M1006.47,-339.068C1046.08,-332.471 1107.44,-320.022 1157.69,-300 1249.47,-263.435 1300.49,-273.666 1349.69,-188 1367.7,-156.651 1322.92,-139.788 1282.24,-131.161"/>
<polygon fill="midnightblue" stroke="midnightblue" points="1282.79,-127.701 1272.3,-129.191 1281.43,-134.568 1282.79,-127.701"/>
</g>
<!-- Node14 -->
<g id="node14" class="node"><title>Node14</title>
<polygon fill="white" stroke="#bfbfbf" points="1274.69,-280.5 1274.69,-299.5 1386.69,-299.5 1386.69,-280.5 1274.69,-280.5"/>
<text text-anchor="middle" x="1330.69" y="-287.5" font-family="Helvetica,sans-Serif" font-size="10.00">dji_circular_buffer.hpp</text>
</g>
<!-- Node9&#45;&gt;Node14 -->
<g id="edge17" class="edge"><title>Node9&#45;&gt;Node14</title>
<path fill="none" stroke="midnightblue" d="M1006.5,-338.963C1069.04,-329.71 1189.22,-311.93 1264.39,-300.809"/>
<polygon fill="midnightblue" stroke="midnightblue" points="1265.3,-304.212 1274.68,-299.286 1264.28,-297.287 1265.3,-304.212"/>
</g>
<!-- Node15 -->
<g id="node15" class="node"><title>Node15</title>
<g id="a_node15"><a xlink:href="dji__control_8hpp.html" target="_top" xlink:title="Control API for DJI OSDK library. ">
<polygon fill="white" stroke="black" points="594.691,-280.5 594.691,-299.5 674.691,-299.5 674.691,-280.5 594.691,-280.5"/>
<text text-anchor="middle" x="634.691" y="-287.5" font-family="Helvetica,sans-Serif" font-size="10.00">dji_control.hpp</text>
</a>
</g>
</g>
<!-- Node9&#45;&gt;Node15 -->
<g id="edge19" class="edge"><title>Node9&#45;&gt;Node15</title>
<path fill="none" stroke="midnightblue" d="M925.104,-338.379C864.556,-328.501 750.681,-309.923 684.953,-299.2"/>
<polygon fill="midnightblue" stroke="midnightblue" points="685.267,-295.705 674.833,-297.549 684.139,-302.614 685.267,-295.705"/>
</g>
<!-- Node18 -->
<g id="node18" class="node"><title>Node18</title>
<g id="a_node18"><a xlink:href="dji__version_8hpp.html" target="_top" xlink:title="Drone/SDK Version definition for DJI onboardSDK library. ">
<polygon fill="white" stroke="black" points="1397.69,-168.5 1397.69,-187.5 1479.69,-187.5 1479.69,-168.5 1397.69,-168.5"/>
<text text-anchor="middle" x="1438.69" y="-175.5" font-family="Helvetica,sans-Serif" font-size="10.00">dji_version.hpp</text>
</a>
</g>
</g>
<!-- Node9&#45;&gt;Node18 -->
<g id="edge61" class="edge"><title>Node9&#45;&gt;Node18</title>
<path fill="none" stroke="midnightblue" d="M1006.39,-342.124C1057.98,-337.526 1149.08,-326.204 1222.69,-300 1262.65,-285.777 1369.36,-221.578 1416.16,-192.906"/>
<polygon fill="midnightblue" stroke="midnightblue" points="1418,-195.886 1424.69,-187.67 1414.33,-189.922 1418,-195.886"/>
</g>
<!-- Node20 -->
<g id="node20" class="node"><title>Node20</title>
<g id="a_node20"><a xlink:href="dji__gimbal_8hpp.html" target="_top" xlink:title="Gimbal API for OSDK library. ">
<polygon fill="white" stroke="black" points="1161.19,-168.5 1161.19,-187.5 1240.19,-187.5 1240.19,-168.5 1161.19,-168.5"/>
<text text-anchor="middle" x="1200.69" y="-175.5" font-family="Helvetica,sans-Serif" font-size="10.00">dji_gimbal.hpp</text>
</a>
</g>
</g>
<!-- Node9&#45;&gt;Node20 -->
<g id="edge32" class="edge"><title>Node9&#45;&gt;Node20</title>
<path fill="none" stroke="midnightblue" d="M1006.48,-339.884C1037.17,-334.324 1078.89,-322.945 1108.69,-300 1140.34,-275.626 1131.92,-255.345 1156.69,-224 1164.89,-213.629 1175.16,-203.012 1183.72,-194.696"/>
<polygon fill="midnightblue" stroke="midnightblue" points="1186.16,-197.208 1190.99,-187.78 1181.33,-192.137 1186.16,-197.208"/>
</g>
<!-- Node21 -->
<g id="node21" class="node"><title>Node21</title>
<polygon fill="white" stroke="#bfbfbf" points="1404.69,-280.5 1404.69,-299.5 1502.69,-299.5 1502.69,-280.5 1404.69,-280.5"/>
<text text-anchor="middle" x="1453.69" y="-287.5" font-family="Helvetica,sans-Serif" font-size="10.00">dji_hard_driver.hpp</text>
</g>
<!-- Node9&#45;&gt;Node21 -->
<g id="edge35" class="edge"><title>Node9&#45;&gt;Node21</title>
<path fill="none" stroke="midnightblue" d="M1006.38,-341.421C1081.08,-334.703 1245.36,-319.246 1394.42,-300.107"/>
<polygon fill="midnightblue" stroke="midnightblue" points="1395.2,-303.536 1404.67,-298.782 1394.3,-296.593 1395.2,-303.536"/>
</g>
<!-- Node22 -->
<g id="node22" class="node"><title>Node22</title>
<g id="a_node22"><a xlink:href="dji__hardware__sync_8hpp.html" target="_top" xlink:title="Hardware Sync API for DJI OSDK. ">
<polygon fill="white" stroke="black" points="950.691,-280.5 950.691,-299.5 1066.69,-299.5 1066.69,-280.5 950.691,-280.5"/>
<text text-anchor="middle" x="1008.69" y="-287.5" font-family="Helvetica,sans-Serif" font-size="10.00">dji_hardware_sync.hpp</text>
</a>
</g>
</g>
<!-- Node9&#45;&gt;Node22 -->
<g id="edge36" class="edge"><title>Node9&#45;&gt;Node22</title>
<path fill="none" stroke="midnightblue" d="M972.791,-336.083C978.928,-328.377 987.961,-317.033 995.43,-307.653"/>
<polygon fill="midnightblue" stroke="midnightblue" points="998.231,-309.754 1001.72,-299.751 992.755,-305.394 998.231,-309.754"/>
</g>
<!-- Node23 -->
<g id="node23" class="node"><title>Node23</title>
<g id="a_node23"><a xlink:href="dji__mfio_8hpp.html" target="_top" xlink:title="MFIO API for DJI OSDK library. ">
<polygon fill="white" stroke="black" points="23.1908,-224.5 23.1908,-243.5 92.1908,-243.5 92.1908,-224.5 23.1908,-224.5"/>
<text text-anchor="middle" x="57.6908" y="-231.5" font-family="Helvetica,sans-Serif" font-size="10.00">dji_mfio.hpp</text>
</a>
</g>
</g>
<!-- Node9&#45;&gt;Node23 -->
<g id="edge38" class="edge"><title>Node9&#45;&gt;Node23</title>
<path fill="none" stroke="midnightblue" d="M925.043,-343.247C831.827,-338.903 595.606,-326.06 399.691,-300 292.211,-285.703 167.414,-259.523 102.356,-245.135"/>
<polygon fill="midnightblue" stroke="midnightblue" points="102.96,-241.684 92.4388,-242.931 101.441,-248.518 102.96,-241.684"/>
</g>
<!-- Node24 -->
<g id="node24" class="node"><title>Node24</title>
<g id="a_node24"><a xlink:href="dji__mission__manager_8hpp.html" target="_top" xlink:title="Mission&#45;Manager API for DJI OSDK library. ">
<polygon fill="white" stroke="black" points="753.191,-280.5 753.191,-299.5 880.191,-299.5 880.191,-280.5 753.191,-280.5"/>
<text text-anchor="middle" x="816.691" y="-287.5" font-family="Helvetica,sans-Serif" font-size="10.00">dji_mission_manager.hpp</text>
</a>
</g>
</g>
<!-- Node9&#45;&gt;Node24 -->
<g id="edge40" class="edge"><title>Node9&#45;&gt;Node24</title>
<path fill="none" stroke="midnightblue" d="M942.081,-336.444C917.233,-327.438 877.916,-313.189 849.937,-303.049"/>
<polygon fill="midnightblue" stroke="midnightblue" points="850.784,-299.633 840.19,-299.516 848.399,-306.214 850.784,-299.633"/>
</g>
<!-- Node28 -->
<g id="node28" class="node"><title>Node28</title>
<g id="a_node28"><a xlink:href="dji__mobile__communication_8hpp.html" target="_top" xlink:title="Implementation of DJI Mobile&#45;Onboard SDK Communication (MOC) ">
<polygon fill="white" stroke="black" points="109.691,-224.5 109.691,-243.5 259.691,-243.5 259.691,-224.5 109.691,-224.5"/>
<text text-anchor="middle" x="184.691" y="-231.5" font-family="Helvetica,sans-Serif" font-size="10.00">dji_mobile_communication.hpp</text>
</a>
</g>
</g>
<!-- Node9&#45;&gt;Node28 -->
<g id="edge49" class="edge"><title>Node9&#45;&gt;Node28</title>
<path fill="none" stroke="midnightblue" d="M925.138,-345.57C837.075,-345.922 622.307,-341.967 448.691,-300 425.827,-294.473 422.183,-286.882 399.691,-280 349.895,-264.764 292.049,-252.978 248.91,-245.297"/>
<polygon fill="midnightblue" stroke="midnightblue" points="249.284,-241.81 238.83,-243.529 248.075,-248.704 249.284,-241.81"/>
</g>
<!-- Node29 -->
<g id="node29" class="node"><title>Node29</title>
<g id="a_node29"><a xlink:href="dji__status_8hpp.html" target="_top" xlink:title="Status information for DJI Vehicle. ">
<polygon fill="white" stroke="black" points="1056.19,-56.5 1056.19,-75.5 1133.19,-75.5 1133.19,-56.5 1056.19,-56.5"/>
<text text-anchor="middle" x="1094.69" y="-63.5" font-family="Helvetica,sans-Serif" font-size="10.00">dji_status.hpp</text>
</a>
</g>
</g>
<!-- Node9&#45;&gt;Node29 -->
<g id="edge52" class="edge"><title>Node9&#45;&gt;Node29</title>
<path fill="none" stroke="midnightblue" d="M1006.35,-337.509C1029.65,-331.22 1057.73,-319.927 1075.69,-300 1095.84,-277.641 1094.69,-265.098 1094.69,-235 1094.69,-235 1094.69,-235 1094.69,-177 1094.69,-144.948 1094.69,-107.643 1094.69,-85.7489"/>
<polygon fill="midnightblue" stroke="midnightblue" points="1098.19,-85.5577 1094.69,-75.5578 1091.19,-85.5578 1098.19,-85.5577"/>
</g>
<!-- Node30 -->
<g id="node30" class="node"><title>Node30</title>
<g id="a_node30"><a xlink:href="dji__subscription_8hpp.html" target="_top" xlink:title="Telemetry Subscription API for DJI OSDK library. ">
<polygon fill="white" stroke="black" points="427.191,-224.5 427.191,-243.5 530.191,-243.5 530.191,-224.5 427.191,-224.5"/>
<text text-anchor="middle" x="478.691" y="-231.5" font-family="Helvetica,sans-Serif" font-size="10.00">dji_subscription.hpp</text>
</a>
</g>
</g>
<!-- Node9&#45;&gt;Node30 -->
<g id="edge54" class="edge"><title>Node9&#45;&gt;Node30</title>
<path fill="none" stroke="midnightblue" d="M924.989,-344.038C832.915,-341.323 611.462,-331.608 544.691,-300 521.847,-289.186 502.177,-267.153 490.394,-251.751"/>
<polygon fill="midnightblue" stroke="midnightblue" points="493.14,-249.577 484.403,-243.584 487.495,-253.717 493.14,-249.577"/>
</g>
<!-- Node31 -->
<g id="node31" class="node"><title>Node31</title>
<polygon fill="white" stroke="#bfbfbf" points="1520.69,-280.5 1520.69,-299.5 1640.69,-299.5 1640.69,-280.5 1520.69,-280.5"/>
<text text-anchor="middle" x="1580.69" y="-287.5" font-family="Helvetica,sans-Serif" font-size="10.00">dji_thread_manager.hpp</text>
</g>
<!-- Node9&#45;&gt;Node31 -->
<g id="edge58" class="edge"><title>Node9&#45;&gt;Node31</title>
<path fill="none" stroke="midnightblue" d="M1006.51,-342.301C1095.83,-336.252 1315.56,-320.592 1510.36,-300.095"/>
<polygon fill="midnightblue" stroke="midnightblue" points="1510.92,-303.556 1520.5,-299.022 1510.19,-296.595 1510.92,-303.556"/>
</g>
<!-- Node11&#45;&gt;Node4 -->
<g id="edge16" class="edge"><title>Node11&#45;&gt;Node4</title>
<path fill="none" stroke="midnightblue" d="M1257.95,-169.604C1254.82,-169.058 1251.7,-168.519 1248.69,-168 1170.23,-154.49 1078.76,-139.238 1025.52,-130.411"/>
<polygon fill="midnightblue" stroke="midnightblue" points="1025.84,-126.915 1015.4,-128.733 1024.69,-133.821 1025.84,-126.915"/>
</g>
<!-- Node11&#45;&gt;Node12 -->
<g id="edge12" class="edge"><title>Node11&#45;&gt;Node12</title>
<path fill="none" stroke="midnightblue" d="M1287.8,-168.324C1276.54,-160.107 1259.4,-147.602 1245.98,-137.807"/>
<polygon fill="midnightblue" stroke="midnightblue" points="1247.94,-134.901 1237.8,-131.834 1243.81,-140.556 1247.94,-134.901"/>
</g>
<!-- Node12&#45;&gt;Node6 -->
<g id="edge15" class="edge"><title>Node12&#45;&gt;Node6</title>
<path fill="none" stroke="midnightblue" d="M1229.42,-112.239C1234.42,-98.9833 1241.52,-73.5224 1230.69,-56 1218.59,-36.4228 1195.11,-25.0777 1175.17,-18.6766"/>
<polygon fill="midnightblue" stroke="midnightblue" points="1176.01,-15.2777 1165.43,-15.8398 1174.05,-21.9981 1176.01,-15.2777"/>
</g>
<!-- Node13 -->
<g id="node13" class="node"><title>Node13</title>
<g id="a_node13"><a xlink:href="dji__error_8hpp.html" target="_top" xlink:title="All DJI OSDK OpenProtocol ACK Error Codes. ">
<polygon fill="white" stroke="black" points="1151.69,-56.5 1151.69,-75.5 1221.69,-75.5 1221.69,-56.5 1151.69,-56.5"/>
<text text-anchor="middle" x="1186.69" y="-63.5" font-family="Helvetica,sans-Serif" font-size="10.00">dji_error.hpp</text>
</a>
</g>
</g>
<!-- Node12&#45;&gt;Node13 -->
<g id="edge13" class="edge"><title>Node12&#45;&gt;Node13</title>
<path fill="none" stroke="midnightblue" d="M1219.25,-112.083C1213.74,-104.455 1205.66,-93.2645 1198.93,-83.9408"/>
<polygon fill="midnightblue" stroke="midnightblue" points="1201.7,-81.8087 1193.01,-75.7511 1196.03,-85.9071 1201.7,-81.8087"/>
</g>
<!-- Node13&#45;&gt;Node6 -->
<g id="edge14" class="edge"><title>Node13&#45;&gt;Node6</title>
<path fill="none" stroke="midnightblue" d="M1179.09,-56.083C1172.46,-48.2982 1162.67,-36.8015 1154.63,-27.3665"/>
<polygon fill="midnightblue" stroke="midnightblue" points="1157.29,-25.0939 1148.15,-19.7511 1151.97,-29.6332 1157.29,-25.0939"/>
</g>
<!-- Node15&#45;&gt;Node4 -->
<g id="edge30" class="edge"><title>Node15&#45;&gt;Node4</title>
<path fill="none" stroke="midnightblue" d="M633.004,-280.467C629.174,-258.334 622.423,-198.679 653.691,-168 692.789,-129.638 855.839,-123.476 935.918,-122.815"/>
<polygon fill="midnightblue" stroke="midnightblue" points="936.203,-126.314 946.183,-122.757 936.164,-119.314 936.203,-126.314"/>
</g>
<!-- Node15&#45;&gt;Node7 -->
<g id="edge31" class="edge"><title>Node15&#45;&gt;Node7</title>
<path fill="none" stroke="midnightblue" d="M594.538,-287.909C548.951,-285.094 473.659,-275.56 417.691,-244 372.692,-218.625 336.721,-167.473 319.95,-140.525"/>
<polygon fill="midnightblue" stroke="midnightblue" points="322.832,-138.526 314.659,-131.784 316.843,-142.151 322.832,-138.526"/>
</g>
<!-- Node15&#45;&gt;Node8 -->
<g id="edge29" class="edge"><title>Node15&#45;&gt;Node8</title>
<path fill="none" stroke="midnightblue" d="M632.541,-280.225C624.578,-248.291 596.026,-138.74 572.691,-112 559.77,-97.1937 540.798,-86.629 523.775,-79.4741"/>
<polygon fill="midnightblue" stroke="midnightblue" points="524.625,-76.0477 514.038,-75.6491 522.066,-82.5631 524.625,-76.0477"/>
</g>
<!-- Node16 -->
<g id="node16" class="node"><title>Node16</title>
<g id="a_node16"><a xlink:href="dji__ack_8hpp.html" target="_top" xlink:title="All DJI OSDK ACK parsing. ">
<polygon fill="white" stroke="black" points="889.691,-224.5 889.691,-243.5 955.691,-243.5 955.691,-224.5 889.691,-224.5"/>
<text text-anchor="middle" x="922.691" y="-231.5" font-family="Helvetica,sans-Serif" font-size="10.00">dji_ack.hpp</text>
</a>
</g>
</g>
<!-- Node15&#45;&gt;Node16 -->
<g id="edge20" class="edge"><title>Node15&#45;&gt;Node16</title>
<path fill="none" stroke="midnightblue" d="M674.736,-281.492C728.718,-271.37 824.433,-253.423 879.825,-243.037"/>
<polygon fill="midnightblue" stroke="midnightblue" points="880.496,-246.473 889.68,-241.19 879.206,-239.592 880.496,-246.473"/>
</g>
<!-- Node16&#45;&gt;Node4 -->
<g id="edge24" class="edge"><title>Node16&#45;&gt;Node4</title>
<path fill="none" stroke="midnightblue" d="M932.36,-224.247C941.176,-215.772 953.97,-202.159 961.691,-188 969.606,-173.485 974.559,-155.303 977.415,-141.862"/>
<polygon fill="midnightblue" stroke="midnightblue" points="980.885,-142.354 979.34,-131.872 974.011,-141.029 980.885,-142.354"/>
</g>
<!-- Node16&#45;&gt;Node12 -->
<g id="edge21" class="edge"><title>Node16&#45;&gt;Node12</title>
<path fill="none" stroke="midnightblue" d="M946.467,-224.368C1000.12,-204.89 1130.72,-157.479 1192.39,-135.089"/>
<polygon fill="midnightblue" stroke="midnightblue" points="1193.82,-138.294 1202.03,-131.591 1191.43,-131.714 1193.82,-138.294"/>
</g>
<!-- Node17 -->
<g id="node17" class="node"><title>Node17</title>
<g id="a_node17"><a xlink:href="dji__mission__type_8hpp_source.html" target="_top" xlink:title="dji_mission_type.hpp">
<polygon fill="white" stroke="black" points="844.691,-168.5 844.691,-187.5 952.691,-187.5 952.691,-168.5 844.691,-168.5"/>
<text text-anchor="middle" x="898.691" y="-175.5" font-family="Helvetica,sans-Serif" font-size="10.00">dji_mission_type.hpp</text>
</a>
</g>
</g>
<!-- Node16&#45;&gt;Node17 -->
<g id="edge22" class="edge"><title>Node16&#45;&gt;Node17</title>
<path fill="none" stroke="midnightblue" d="M918.728,-224.083C915.477,-216.77 910.771,-206.181 906.737,-197.103"/>
<polygon fill="midnightblue" stroke="midnightblue" points="909.84,-195.468 902.58,-187.751 903.443,-198.311 909.84,-195.468"/>
</g>
<!-- Node16&#45;&gt;Node18 -->
<g id="edge25" class="edge"><title>Node16&#45;&gt;Node18</title>
<path fill="none" stroke="midnightblue" d="M955.754,-229.54C1043.37,-220.371 1281.99,-195.398 1387.43,-184.364"/>
<polygon fill="midnightblue" stroke="midnightblue" points="1387.93,-187.831 1397.51,-183.309 1387.2,-180.869 1387.93,-187.831"/>
</g>
<!-- Node19 -->
<g id="node19" class="node"><title>Node19</title>
<polygon fill="white" stroke="#bfbfbf" points="791.191,-168.5 791.191,-187.5 826.191,-187.5 826.191,-168.5 791.191,-168.5"/>
<text text-anchor="middle" x="808.691" y="-175.5" font-family="Helvetica,sans-Serif" font-size="10.00">map</text>
</g>
<!-- Node16&#45;&gt;Node19 -->
<g id="edge28" class="edge"><title>Node16&#45;&gt;Node19</title>
<path fill="none" stroke="midnightblue" d="M904.627,-224.444C886.007,-215.624 856.768,-201.774 835.461,-191.68"/>
<polygon fill="midnightblue" stroke="midnightblue" points="836.831,-188.457 826.295,-187.339 833.834,-194.783 836.831,-188.457"/>
</g>
<!-- Node17&#45;&gt;Node4 -->
<g id="edge23" class="edge"><title>Node17&#45;&gt;Node4</title>
<path fill="none" stroke="midnightblue" d="M911.866,-168.324C924.538,-159.979 943.924,-147.212 958.896,-137.352"/>
<polygon fill="midnightblue" stroke="midnightblue" points="961.122,-140.078 967.549,-131.655 957.272,-134.231 961.122,-140.078"/>
</g>
<!-- Node18&#45;&gt;Node10 -->
<g id="edge27" class="edge"><title>Node18&#45;&gt;Node10</title>
<path fill="none" stroke="midnightblue" d="M1456.91,-168.444C1475.59,-159.675 1504.85,-145.935 1526.31,-135.858"/>
<polygon fill="midnightblue" stroke="midnightblue" points="1527.99,-138.935 1535.55,-131.516 1525.01,-132.599 1527.99,-138.935"/>
</g>
<!-- Node18&#45;&gt;Node12 -->
<g id="edge26" class="edge"><title>Node18&#45;&gt;Node12</title>
<path fill="none" stroke="midnightblue" d="M1404.94,-168.444C1368.17,-159.122 1309.25,-144.183 1269.07,-133.997"/>
<polygon fill="midnightblue" stroke="midnightblue" points="1269.84,-130.581 1259.28,-131.516 1268.12,-137.367 1269.84,-130.581"/>
</g>
<!-- Node20&#45;&gt;Node4 -->
<g id="edge34" class="edge"><title>Node20&#45;&gt;Node4</title>
<path fill="none" stroke="midnightblue" d="M1165.83,-168.444C1127.77,-159.102 1066.73,-144.119 1025.23,-133.933"/>
<polygon fill="midnightblue" stroke="midnightblue" points="1025.93,-130.501 1015.39,-131.516 1024.26,-137.299 1025.93,-130.501"/>
</g>
<!-- Node20&#45;&gt;Node12 -->
<g id="edge33" class="edge"><title>Node20&#45;&gt;Node12</title>
<path fill="none" stroke="midnightblue" d="M1204.82,-168.083C1208.2,-160.77 1213.11,-150.181 1217.31,-141.103"/>
<polygon fill="midnightblue" stroke="midnightblue" points="1220.61,-142.296 1221.64,-131.751 1214.26,-139.355 1220.61,-142.296"/>
</g>
<!-- Node22&#45;&gt;Node4 -->
<g id="edge37" class="edge"><title>Node22&#45;&gt;Node4</title>
<path fill="none" stroke="midnightblue" d="M1013.84,-280.372C1025.33,-259.936 1050.67,-207.346 1032.69,-168 1026.91,-155.36 1015.64,-144.911 1005.06,-137.274"/>
<polygon fill="midnightblue" stroke="midnightblue" points="1006.73,-134.182 996.474,-131.533 1002.84,-140.001 1006.73,-134.182"/>
</g>
<!-- Node23&#45;&gt;Node7 -->
<g id="edge39" class="edge"><title>Node23&#45;&gt;Node7</title>
<path fill="none" stroke="midnightblue" d="M77.4648,-224.368C121.72,-205.051 228.915,-158.259 280.715,-135.648"/>
<polygon fill="midnightblue" stroke="midnightblue" points="282.244,-138.8 290.009,-131.591 279.444,-132.384 282.244,-138.8"/>
</g>
<!-- Node25 -->
<g id="node25" class="node"><title>Node25</title>
<g id="a_node25"><a xlink:href="dji__hotpoint_8hpp.html" target="_top" xlink:title="Implementation of HotPoint (Point of Interest) Missions for DJI OSDK. ">
<polygon fill="white" stroke="black" points="669.191,-224.5 669.191,-243.5 754.191,-243.5 754.191,-224.5 669.191,-224.5"/>
<text text-anchor="middle" x="711.691" y="-231.5" font-family="Helvetica,sans-Serif" font-size="10.00">dji_hotpoint.hpp</text>
</a>
</g>
</g>
<!-- Node24&#45;&gt;Node25 -->
<g id="edge41" class="edge"><title>Node24&#45;&gt;Node25</title>
<path fill="none" stroke="midnightblue" d="M799.821,-280.324C782.982,-271.664 756.884,-258.242 737.453,-248.249"/>
<polygon fill="midnightblue" stroke="midnightblue" points="739.013,-245.116 728.519,-243.655 735.811,-251.341 739.013,-245.116"/>
</g>
<!-- Node27 -->
<g id="node27" class="node"><title>Node27</title>
<g id="a_node27"><a xlink:href="dji__waypoint_8hpp.html" target="_top" xlink:title="Implementation of GPS Waypoint Missions for DJI OSDK. ">
<polygon fill="white" stroke="black" points="772.191,-224.5 772.191,-243.5 861.191,-243.5 861.191,-224.5 772.191,-224.5"/>
<text text-anchor="middle" x="816.691" y="-231.5" font-family="Helvetica,sans-Serif" font-size="10.00">dji_waypoint.hpp</text>
</a>
</g>
</g>
<!-- Node24&#45;&gt;Node27 -->
<g id="edge47" class="edge"><title>Node24&#45;&gt;Node27</title>
<path fill="none" stroke="midnightblue" d="M816.691,-280.083C816.691,-273.006 816.691,-262.861 816.691,-253.986"/>
<polygon fill="midnightblue" stroke="midnightblue" points="820.191,-253.751 816.691,-243.751 813.191,-253.751 820.191,-253.751"/>
</g>
<!-- Node25&#45;&gt;Node3 -->
<g id="edge46" class="edge"><title>Node25&#45;&gt;Node3</title>
<path fill="none" stroke="midnightblue" d="M675.722,-224.444C636.371,-215.083 573.204,-200.056 530.377,-189.868"/>
<polygon fill="midnightblue" stroke="midnightblue" points="531.03,-186.426 520.491,-187.516 529.41,-193.236 531.03,-186.426"/>
</g>
<!-- Node26 -->
<g id="node26" class="node"><title>Node26</title>
<g id="a_node26"><a xlink:href="dji__mission__base_8hpp.html" target="_top" xlink:title="Mission&#45;Base abstract class for DJI OSDK library. ">
<polygon fill="white" stroke="black" points="662.691,-168.5 662.691,-187.5 772.691,-187.5 772.691,-168.5 662.691,-168.5"/>
<text text-anchor="middle" x="717.691" y="-175.5" font-family="Helvetica,sans-Serif" font-size="10.00">dji_mission_base.hpp</text>
</a>
</g>
</g>
<!-- Node25&#45;&gt;Node26 -->
<g id="edge42" class="edge"><title>Node25&#45;&gt;Node26</title>
<path fill="none" stroke="midnightblue" d="M712.682,-224.083C713.477,-216.927 714.62,-206.635 715.614,-197.691"/>
<polygon fill="midnightblue" stroke="midnightblue" points="719.093,-198.076 716.718,-187.751 712.135,-197.303 719.093,-198.076"/>
</g>
<!-- Node26&#45;&gt;Node4 -->
<g id="edge44" class="edge"><title>Node26&#45;&gt;Node4</title>
<path fill="none" stroke="midnightblue" d="M759.364,-168.444C807.503,-158.559 886.408,-142.359 935.85,-132.207"/>
<polygon fill="midnightblue" stroke="midnightblue" points="936.84,-135.577 945.932,-130.137 935.432,-128.72 936.84,-135.577"/>
</g>
<!-- Node26&#45;&gt;Node7 -->
<g id="edge45" class="edge"><title>Node26&#45;&gt;Node7</title>
<path fill="none" stroke="midnightblue" d="M662.666,-169.717C589.763,-160.068 461.049,-143.033 380.834,-132.416"/>
<polygon fill="midnightblue" stroke="midnightblue" points="381.188,-128.932 370.816,-131.09 380.27,-135.872 381.188,-128.932"/>
</g>
<!-- Node26&#45;&gt;Node12 -->
<g id="edge43" class="edge"><title>Node26&#45;&gt;Node12</title>
<path fill="none" stroke="midnightblue" d="M772.831,-169.108C775.827,-168.722 778.795,-168.35 781.691,-168 920.506,-151.211 1084.26,-135.729 1168.8,-128.056"/>
<polygon fill="midnightblue" stroke="midnightblue" points="1169.32,-131.523 1178.96,-127.137 1168.69,-124.552 1169.32,-131.523"/>
</g>
<!-- Node27&#45;&gt;Node26 -->
<g id="edge48" class="edge"><title>Node27&#45;&gt;Node26</title>
<path fill="none" stroke="midnightblue" d="M800.785,-224.324C785.053,-215.743 760.748,-202.486 742.482,-192.522"/>
<polygon fill="midnightblue" stroke="midnightblue" points="744.012,-189.37 733.557,-187.655 740.66,-195.516 744.012,-189.37"/>
</g>
<!-- Node28&#45;&gt;Node7 -->
<g id="edge50" class="edge"><title>Node28&#45;&gt;Node7</title>
<path fill="none" stroke="midnightblue" d="M194.499,-224.368C215.584,-205.814 265.472,-161.913 292.148,-138.438"/>
<polygon fill="midnightblue" stroke="midnightblue" points="294.733,-140.825 299.928,-131.591 290.108,-135.57 294.733,-140.825"/>
</g>
<!-- Node29&#45;&gt;Node6 -->
<g id="edge53" class="edge"><title>Node29&#45;&gt;Node6</title>
<path fill="none" stroke="midnightblue" d="M1102.29,-56.083C1108.92,-48.2982 1118.71,-36.8015 1126.75,-27.3665"/>
<polygon fill="midnightblue" stroke="midnightblue" points="1129.42,-29.6332 1133.24,-19.7511 1124.09,-25.0939 1129.42,-29.6332"/>
</g>
<!-- Node30&#45;&gt;Node3 -->
<g id="edge56" class="edge"><title>Node30&#45;&gt;Node3</title>
<path fill="none" stroke="midnightblue" d="M479.682,-224.083C480.477,-216.927 481.62,-206.635 482.614,-197.691"/>
<polygon fill="midnightblue" stroke="midnightblue" points="486.093,-198.076 483.718,-187.751 479.135,-197.303 486.093,-198.076"/>
</g>
<!-- Node30&#45;&gt;Node7 -->
<g id="edge57" class="edge"><title>Node30&#45;&gt;Node7</title>
<path fill="none" stroke="midnightblue" d="M461.327,-224.369C444.446,-215.771 418.267,-201.884 396.691,-188 372.253,-172.274 345.704,-151.922 328.446,-138.215"/>
<polygon fill="midnightblue" stroke="midnightblue" points="330.321,-135.233 320.328,-131.713 325.945,-140.696 330.321,-135.233"/>
</g>
<!-- Node30&#45;&gt;Node8 -->
<g id="edge55" class="edge"><title>Node30&#45;&gt;Node8</title>
<path fill="none" stroke="midnightblue" d="M464.029,-224.402C452.285,-216.585 436.66,-203.862 429.691,-188 426.115,-179.862 427.497,-176.614 429.691,-168 437.862,-135.908 458.532,-103.005 472.075,-83.8119"/>
<polygon fill="midnightblue" stroke="midnightblue" points="475.026,-85.7047 478.065,-75.555 469.36,-81.5942 475.026,-85.7047"/>
</g>
</g>
</svg>
        <g id="navigator" transform="translate(0 0)" fill="#404254">
                <rect fill="#f2f5e9" fill-opacity="0.5" stroke="#606060" stroke-width=".5" x="0" y="0" width="60" height="60"/>
                <use id="zoomplus" xlink:href="#zoomPlus" x="17" y="9" onmousedown="handleZoom(evt,'in')"/>
                <use id="zoomminus" xlink:href="#zoomMin" x="42" y="9" onmousedown="handleZoom(evt,'out')"/>
                <use id="reset" xlink:href="#resetDef" x="30" y="36" onmousedown="handleReset()"/>
                <g id="arrowUp" xlink:href="#dirArrow" transform="translate(30 24)" onmousedown="handlePan(0,-1)">
                  <use xlink:href="#rim" fill="#404040">
                        <set attributeName="fill" to="#808080" begin="arrowUp.mouseover" end="arrowUp.mouseout"/>
                  </use>
                  <path fill="none" stroke="white" stroke-width="1.5" d="M0,-3.0v7 M-2.5,-0.5L0,-3.0L2.5,-0.5"/>
                </g>
                <g id="arrowRight" xlink:href="#dirArrow" transform="rotate(90) translate(36 -43)" onmousedown="handlePan(1,0)">
                  <use xlink:href="#rim" fill="#404040">
                        <set attributeName="fill" to="#808080" begin="arrowRight.mouseover" end="arrowRight.mouseout"/>
                  </use>
                  <path fill="none" stroke="white" stroke-width="1.5" d="M0,-3.0v7 M-2.5,-0.5L0,-3.0L2.5,-0.5"/>
                </g>
                <g id="arrowDown" xlink:href="#dirArrow" transform="rotate(180) translate(-30 -48)" onmousedown="handlePan(0,1)">
                  <use xlink:href="#rim" fill="#404040">
                        <set attributeName="fill" to="#808080" begin="arrowDown.mouseover" end="arrowDown.mouseout"/>
                  </use>
                  <path fill="none" stroke="white" stroke-width="1.5" d="M0,-3.0v7 M-2.5,-0.5L0,-3.0L2.5,-0.5"/>
                </g>
                <g id="arrowLeft" xlink:href="#dirArrow" transform="rotate(270) translate(-36 17)" onmousedown="handlePan(-1,0)">
                  <use xlink:href="#rim" fill="#404040">
                        <set attributeName="fill" to="#808080" begin="arrowLeft.mouseover" end="arrowLeft.mouseout"/>
                  </use>
                  <path fill="none" stroke="white" stroke-width="1.5" d="M0,-3.0v7 M-2.5,-0.5L0,-3.0L2.5,-0.5"/>
                </g>
        </g>
        <svg viewBox="0 0 15 15" width="100%" height="30px" preserveAspectRatio="xMaxYMin meet">
         <g id="arrow_out" transform="scale(0.3 0.3)">
          <a xlink:href="dji__broadcast_8cpp__incl_org.svg" target="_base">
           <rect id="button" ry="5" rx="5" y="6" x="6" height="38" width="38"
                fill="#f2f5e9" fill-opacity="0.5" stroke="#606060" stroke-width="1.0"/>
           <path id="arrow"
             d="M 11.500037,31.436501 C 11.940474,20.09759 22.043105,11.32322 32.158766,21.979434 L 37.068811,17.246167 C 37.068811,17.246167 37.088388,32 37.088388,32 L 22.160133,31.978069 C 22.160133,31.978069 26.997745,27.140456 26.997745,27.140456 C 18.528582,18.264221 13.291696,25.230495 11.500037,31.436501 z"
             style="fill:#404040;"/>
          </a>
         </g>
        </svg>
</svg>
