<?xml version="1.0" encoding="UTF-8" standalone="no"?>
<!DOCTYPE svg PUBLIC "-//W3C//DTD SVG 1.1//EN"
 "http://www.w3.org/Graphics/SVG/1.1/DTD/svg11.dtd">
<!-- Generated by graphviz version 2.38.0 (20140413.2041)
 -->
<!-- Title: osdk&#45;core/api/src/dji_camera.cpp Pages: 1 -->
<svg width="1656pt" height="431pt"
 viewBox="0.00 0.00 1656.22 431.00" xmlns="http://www.w3.org/2000/svg" xmlns:xlink="http://www.w3.org/1999/xlink">
<g id="graph0" class="graph" transform="scale(1 1) rotate(0) translate(4 427)">
<title>osdk&#45;core/api/src/dji_camera.cpp</title>
<polygon fill="white" stroke="none" points="-4,4 -4,-427 1652.22,-427 1652.22,4 -4,4"/>
<!-- Node1 -->
<g id="node1" class="node"><title>Node1</title>
<polygon fill="#bfbfbf" stroke="black" points="397.224,-392.5 397.224,-422.5 501.224,-422.5 501.224,-392.5 397.224,-392.5"/>
<text text-anchor="start" x="405.224" y="-410.5" font-family="Helvetica,sans-Serif" font-size="10.00">osdk&#45;core/api/src/dji</text>
<text text-anchor="middle" x="449.224" y="-399.5" font-family="Helvetica,sans-Serif" font-size="10.00">_camera.cpp</text>
</g>
<!-- Node2 -->
<g id="node2" class="node"><title>Node2</title>
<g id="a_node2"><a xlink:href="dji__camera_8hpp.html" target="_top" xlink:title="Camera/Gimbal API for DJI onboardSDK library. ">
<polygon fill="white" stroke="black" points="13.7236,-224.5 13.7236,-243.5 96.7236,-243.5 96.7236,-224.5 13.7236,-224.5"/>
<text text-anchor="middle" x="55.2236" y="-231.5" font-family="Helvetica,sans-Serif" font-size="10.00">dji_camera.hpp</text>
</a>
</g>
</g>
<!-- Node1&#45;&gt;Node2 -->
<g id="edge1" class="edge"><title>Node1&#45;&gt;Node2</title>
<path fill="none" stroke="midnightblue" d="M397.183,-400.26C299.774,-387.396 95.9593,-354.479 54.2236,-300 44.1599,-286.864 45.9523,-267.452 49.3209,-253.263"/>
<polygon fill="midnightblue" stroke="midnightblue" points="52.6945,-254.195 52.0338,-243.621 45.9561,-252.299 52.6945,-254.195"/>
</g>
<!-- Node8 -->
<g id="node8" class="node"><title>Node8</title>
<g id="a_node8"><a xlink:href="dji__vehicle_8hpp.html" target="_top" xlink:title="Vehicle API for DJI onboardSDK library. ">
<polygon fill="white" stroke="black" points="911.724,-336.5 911.724,-355.5 992.724,-355.5 992.724,-336.5 911.724,-336.5"/>
<text text-anchor="middle" x="952.224" y="-343.5" font-family="Helvetica,sans-Serif" font-size="10.00">dji_vehicle.hpp</text>
</a>
</g>
</g>
<!-- Node1&#45;&gt;Node8 -->
<g id="edge9" class="edge"><title>Node1&#45;&gt;Node8</title>
<path fill="none" stroke="midnightblue" d="M501.63,-400.301C598.741,-388.814 805.473,-364.359 901.388,-353.013"/>
<polygon fill="midnightblue" stroke="midnightblue" points="901.901,-356.477 911.421,-351.827 901.079,-349.526 901.901,-356.477"/>
</g>
<!-- Node3 -->
<g id="node3" class="node"><title>Node3</title>
<g id="a_node3"><a xlink:href="dji__command_8hpp.html" target="_top" xlink:title="All DJI OSDK OpenProtocol Command IDs. ">
<polygon fill="white" stroke="black" points="433.724,-112.5 433.724,-131.5 526.724,-131.5 526.724,-112.5 433.724,-112.5"/>
<text text-anchor="middle" x="480.224" y="-119.5" font-family="Helvetica,sans-Serif" font-size="10.00">dji_command.hpp</text>
</a>
</g>
</g>
<!-- Node2&#45;&gt;Node3 -->
<g id="edge2" class="edge"><title>Node2&#45;&gt;Node3</title>
<path fill="none" stroke="midnightblue" d="M64.1402,-224.053C79.1813,-209.568 111.2,-181.265 144.224,-168 193.65,-148.145 341.161,-133.871 423.342,-127.211"/>
<polygon fill="midnightblue" stroke="midnightblue" points="423.826,-130.684 433.515,-126.398 423.268,-123.706 423.826,-130.684"/>
</g>
<!-- Node6 -->
<g id="node6" class="node"><title>Node6</title>
<g id="a_node6"><a xlink:href="dji__type_8hpp.html" target="_top" xlink:title="Data type and Data Structure definitions for use throughout DJI OSDK. ">
<polygon fill="white" stroke="black" points="247.724,-112.5 247.724,-131.5 316.724,-131.5 316.724,-112.5 247.724,-112.5"/>
<text text-anchor="middle" x="282.224" y="-119.5" font-family="Helvetica,sans-Serif" font-size="10.00">dji_type.hpp</text>
</a>
</g>
</g>
<!-- Node2&#45;&gt;Node6 -->
<g id="edge6" class="edge"><title>Node2&#45;&gt;Node6</title>
<path fill="none" stroke="midnightblue" d="M54.9718,-224.431C55.0584,-210.487 57.3824,-182.947 73.2236,-168 96.4928,-146.044 183.197,-133.253 237.351,-127.239"/>
<polygon fill="midnightblue" stroke="midnightblue" points="237.821,-130.709 247.39,-126.16 237.073,-123.749 237.821,-130.709"/>
</g>
<!-- Node4 -->
<g id="node4" class="node"><title>Node4</title>
<g id="a_node4"><a xlink:href="dji__error_8hpp.html" target="_top" xlink:title="All DJI OSDK OpenProtocol ACK Error Codes. ">
<polygon fill="white" stroke="black" points="400.224,-56.5 400.224,-75.5 470.224,-75.5 470.224,-56.5 400.224,-56.5"/>
<text text-anchor="middle" x="435.224" y="-63.5" font-family="Helvetica,sans-Serif" font-size="10.00">dji_error.hpp</text>
</a>
</g>
</g>
<!-- Node3&#45;&gt;Node4 -->
<g id="edge3" class="edge"><title>Node3&#45;&gt;Node4</title>
<path fill="none" stroke="midnightblue" d="M472.793,-112.083C466.371,-104.377 456.918,-93.0333 449.101,-83.6531"/>
<polygon fill="midnightblue" stroke="midnightblue" points="451.607,-81.1927 442.516,-75.7511 446.229,-85.674 451.607,-81.1927"/>
</g>
<!-- Node5 -->
<g id="node5" class="node"><title>Node5</title>
<polygon fill="white" stroke="#bfbfbf" points="441.724,-0.5 441.724,-19.5 490.724,-19.5 490.724,-0.5 441.724,-0.5"/>
<text text-anchor="middle" x="466.224" y="-7.5" font-family="Helvetica,sans-Serif" font-size="10.00">stdint.h</text>
</g>
<!-- Node3&#45;&gt;Node5 -->
<g id="edge5" class="edge"><title>Node3&#45;&gt;Node5</title>
<path fill="none" stroke="midnightblue" d="M480.828,-112.108C481.516,-99.5323 482.192,-75.8687 479.224,-56 477.887,-47.0525 475.257,-37.3833 472.71,-29.3095"/>
<polygon fill="midnightblue" stroke="midnightblue" points="476.022,-28.1787 469.526,-19.8095 469.385,-30.4034 476.022,-28.1787"/>
</g>
<!-- Node4&#45;&gt;Node5 -->
<g id="edge4" class="edge"><title>Node4&#45;&gt;Node5</title>
<path fill="none" stroke="midnightblue" d="M440.343,-56.083C444.631,-48.6127 450.882,-37.7244 456.166,-28.5199"/>
<polygon fill="midnightblue" stroke="midnightblue" points="459.256,-30.1662 461.2,-19.7511 453.186,-26.6811 459.256,-30.1662"/>
</g>
<!-- Node6&#45;&gt;Node5 -->
<g id="edge8" class="edge"><title>Node6&#45;&gt;Node5</title>
<path fill="none" stroke="midnightblue" d="M282.224,-112.064C282.726,-98.1051 285.789,-71.1574 301.224,-56 336.027,-21.8221 394.112,-12.9784 431.264,-11.0285"/>
<polygon fill="midnightblue" stroke="midnightblue" points="431.752,-14.5126 441.612,-10.6349 431.486,-7.51763 431.752,-14.5126"/>
</g>
<!-- Node7 -->
<g id="node7" class="node"><title>Node7</title>
<polygon fill="white" stroke="#bfbfbf" points="310.724,-56.5 310.724,-75.5 353.724,-75.5 353.724,-56.5 310.724,-56.5"/>
<text text-anchor="middle" x="332.224" y="-63.5" font-family="Helvetica,sans-Serif" font-size="10.00">cstdio</text>
</g>
<!-- Node6&#45;&gt;Node7 -->
<g id="edge7" class="edge"><title>Node6&#45;&gt;Node7</title>
<path fill="none" stroke="midnightblue" d="M290.48,-112.083C297.688,-104.298 308.333,-92.8015 317.069,-83.3665"/>
<polygon fill="midnightblue" stroke="midnightblue" points="319.895,-85.4666 324.121,-75.7511 314.758,-80.7108 319.895,-85.4666"/>
</g>
<!-- Node8&#45;&gt;Node2 -->
<g id="edge16" class="edge"><title>Node8&#45;&gt;Node2</title>
<path fill="none" stroke="midnightblue" d="M911.694,-344.281C742.882,-341.115 102.853,-327.343 70.2236,-300 57.0668,-288.975 54.1168,-268.927 53.9649,-254.001"/>
<polygon fill="midnightblue" stroke="midnightblue" points="57.4688,-253.919 54.2714,-243.819 50.472,-253.709 57.4688,-253.919"/>
</g>
<!-- Node8&#45;&gt;Node3 -->
<g id="edge18" class="edge"><title>Node8&#45;&gt;Node3</title>
<path fill="none" stroke="midnightblue" d="M949.732,-336.469C940.683,-307.161 906.543,-210.088 840.224,-168 791.114,-136.834 625.494,-127.215 537.034,-124.275"/>
<polygon fill="midnightblue" stroke="midnightblue" points="537.006,-120.773 526.901,-123.956 536.786,-127.769 537.006,-120.773"/>
</g>
<!-- Node8&#45;&gt;Node6 -->
<g id="edge59" class="edge"><title>Node8&#45;&gt;Node6</title>
<path fill="none" stroke="midnightblue" d="M911.662,-344.798C746.819,-343.731 132.163,-337.266 54.2236,-300 17.7465,-282.559 -10.7338,-261.564 4.22356,-224 16.9007,-192.163 27.2353,-184.584 57.2236,-168 114.102,-136.545 189.875,-126.906 237.353,-124.052"/>
<polygon fill="midnightblue" stroke="midnightblue" points="237.816,-127.532 247.62,-123.514 237.45,-120.542 237.816,-127.532"/>
</g>
<!-- Node9 -->
<g id="node9" class="node"><title>Node9</title>
<polygon fill="white" stroke="#bfbfbf" points="805.224,-112.5 805.224,-131.5 851.224,-131.5 851.224,-112.5 805.224,-112.5"/>
<text text-anchor="middle" x="828.224" y="-119.5" font-family="Helvetica,sans-Serif" font-size="10.00">cstdint</text>
</g>
<!-- Node8&#45;&gt;Node9 -->
<g id="edge10" class="edge"><title>Node8&#45;&gt;Node9</title>
<path fill="none" stroke="midnightblue" d="M957.499,-336.382C965.334,-323.737 980.687,-299.541 995.224,-280 1007.65,-263.289 1018.13,-263.583 1025.22,-244 1028.25,-235.642 1027.83,-232.497 1025.22,-224 1016.39,-195.248 1011.61,-185.604 987.224,-168 949.488,-140.763 895.732,-129.975 861.411,-125.727"/>
<polygon fill="midnightblue" stroke="midnightblue" points="861.751,-122.243 851.423,-124.607 860.971,-129.2 861.751,-122.243"/>
</g>
<!-- Node10 -->
<g id="node10" class="node"><title>Node10</title>
<g id="a_node10"><a xlink:href="dji__broadcast_8hpp.html" target="_top" xlink:title="Broadcast Telemetry API for DJI onboardSDK library. ">
<polygon fill="white" stroke="black" points="923.724,-224.5 923.724,-243.5 1016.72,-243.5 1016.72,-224.5 923.724,-224.5"/>
<text text-anchor="middle" x="970.224" y="-231.5" font-family="Helvetica,sans-Serif" font-size="10.00">dji_broadcast.hpp</text>
</a>
</g>
</g>
<!-- Node8&#45;&gt;Node10 -->
<g id="edge11" class="edge"><title>Node8&#45;&gt;Node10</title>
<path fill="none" stroke="midnightblue" d="M952.334,-336.096C952.62,-323.505 953.637,-299.824 957.224,-280 958.854,-270.986 961.567,-261.193 964.094,-253.051"/>
<polygon fill="midnightblue" stroke="midnightblue" points="967.434,-254.095 967.201,-243.503 960.778,-251.928 967.434,-254.095"/>
</g>
<!-- Node12 -->
<g id="node12" class="node"><title>Node12</title>
<g id="a_node12"><a xlink:href="dji__vehicle__callback_8hpp.html" target="_top" xlink:title="Type definition for new Vehicle&#45;style callbacks. ">
<polygon fill="white" stroke="black" points="1149.22,-112.5 1149.22,-131.5 1271.22,-131.5 1271.22,-112.5 1149.22,-112.5"/>
<text text-anchor="middle" x="1210.22" y="-119.5" font-family="Helvetica,sans-Serif" font-size="10.00">dji_vehicle_callback.hpp</text>
</a>
</g>
</g>
<!-- Node8&#45;&gt;Node12 -->
<g id="edge60" class="edge"><title>Node8&#45;&gt;Node12</title>
<path fill="none" stroke="midnightblue" d="M992.917,-344.4C1106.31,-342.31 1419.59,-333.526 1450.22,-300 1486.25,-260.576 1308.36,-169.75 1237.92,-135.967"/>
<polygon fill="midnightblue" stroke="midnightblue" points="1239.27,-132.729 1228.73,-131.59 1236.26,-139.05 1239.27,-132.729"/>
</g>
<!-- Node13 -->
<g id="node13" class="node"><title>Node13</title>
<polygon fill="white" stroke="#bfbfbf" points="1046.72,-56.5 1046.72,-75.5 1157.72,-75.5 1157.72,-56.5 1046.72,-56.5"/>
<text text-anchor="middle" x="1102.22" y="-63.5" font-family="Helvetica,sans-Serif" font-size="10.00">dji_open_protocol.hpp</text>
</g>
<!-- Node8&#45;&gt;Node13 -->
<g id="edge51" class="edge"><title>Node8&#45;&gt;Node13</title>
<path fill="none" stroke="midnightblue" d="M960.991,-336.22C969.826,-327.282 983.756,-312.939 995.224,-300 1016.59,-275.895 1025.51,-272.114 1041.22,-244 1071.3,-190.199 1090.29,-118.977 1098.12,-85.6685"/>
<polygon fill="midnightblue" stroke="midnightblue" points="1101.61,-86.0861 1100.42,-75.5587 1094.78,-84.5323 1101.61,-86.0861"/>
</g>
<!-- Node14 -->
<g id="node14" class="node"><title>Node14</title>
<polygon fill="white" stroke="#bfbfbf" points="1075.22,-280.5 1075.22,-299.5 1187.22,-299.5 1187.22,-280.5 1075.22,-280.5"/>
<text text-anchor="middle" x="1131.22" y="-287.5" font-family="Helvetica,sans-Serif" font-size="10.00">dji_circular_buffer.hpp</text>
</g>
<!-- Node8&#45;&gt;Node14 -->
<g id="edge17" class="edge"><title>Node8&#45;&gt;Node14</title>
<path fill="none" stroke="midnightblue" d="M980.587,-336.444C1010.96,-327.28 1059.33,-312.688 1093.04,-302.519"/>
<polygon fill="midnightblue" stroke="midnightblue" points="1094.43,-305.756 1102.99,-299.516 1092.41,-299.054 1094.43,-305.756"/>
</g>
<!-- Node15 -->
<g id="node15" class="node"><title>Node15</title>
<g id="a_node15"><a xlink:href="dji__control_8hpp.html" target="_top" xlink:title="Control API for DJI OSDK library. ">
<polygon fill="white" stroke="black" points="515.224,-280.5 515.224,-299.5 595.224,-299.5 595.224,-280.5 515.224,-280.5"/>
<text text-anchor="middle" x="555.224" y="-287.5" font-family="Helvetica,sans-Serif" font-size="10.00">dji_control.hpp</text>
</a>
</g>
</g>
<!-- Node8&#45;&gt;Node15 -->
<g id="edge19" class="edge"><title>Node8&#45;&gt;Node15</title>
<path fill="none" stroke="midnightblue" d="M911.603,-339.475C838.599,-329.545 685.418,-308.709 605.761,-297.874"/>
<polygon fill="midnightblue" stroke="midnightblue" points="605.871,-294.357 595.491,-296.477 604.928,-301.293 605.871,-294.357"/>
</g>
<!-- Node18 -->
<g id="node18" class="node"><title>Node18</title>
<g id="a_node18"><a xlink:href="dji__version_8hpp.html" target="_top" xlink:title="Drone/SDK Version definition for DJI onboardSDK library. ">
<polygon fill="white" stroke="black" points="583.224,-168.5 583.224,-187.5 665.224,-187.5 665.224,-168.5 583.224,-168.5"/>
<text text-anchor="middle" x="624.224" y="-175.5" font-family="Helvetica,sans-Serif" font-size="10.00">dji_version.hpp</text>
</a>
</g>
</g>
<!-- Node8&#45;&gt;Node18 -->
<g id="edge61" class="edge"><title>Node8&#45;&gt;Node18</title>
<path fill="none" stroke="midnightblue" d="M946.741,-336.288C932.047,-313.725 889.342,-253.119 837.224,-224 810.024,-208.803 729.51,-194.516 675.637,-186.27"/>
<polygon fill="midnightblue" stroke="midnightblue" points="675.984,-182.782 665.574,-184.752 674.94,-189.704 675.984,-182.782"/>
</g>
<!-- Node20 -->
<g id="node20" class="node"><title>Node20</title>
<g id="a_node20"><a xlink:href="dji__gimbal_8hpp.html" target="_top" xlink:title="Gimbal API for OSDK library. ">
<polygon fill="white" stroke="black" points="153.724,-168.5 153.724,-187.5 232.724,-187.5 232.724,-168.5 153.724,-168.5"/>
<text text-anchor="middle" x="193.224" y="-175.5" font-family="Helvetica,sans-Serif" font-size="10.00">dji_gimbal.hpp</text>
</a>
</g>
</g>
<!-- Node8&#45;&gt;Node20 -->
<g id="edge32" class="edge"><title>Node8&#45;&gt;Node20</title>
<path fill="none" stroke="midnightblue" d="M911.476,-343.896C832.467,-341.096 653.278,-331.521 506.224,-300 429.266,-283.504 411.558,-272.577 338.224,-244 296.193,-227.621 248.698,-205.647 219.867,-191.908"/>
<polygon fill="midnightblue" stroke="midnightblue" points="221.37,-188.747 210.84,-187.584 218.346,-195.06 221.37,-188.747"/>
</g>
<!-- Node21 -->
<g id="node21" class="node"><title>Node21</title>
<polygon fill="white" stroke="#bfbfbf" points="1205.22,-280.5 1205.22,-299.5 1303.22,-299.5 1303.22,-280.5 1205.22,-280.5"/>
<text text-anchor="middle" x="1254.22" y="-287.5" font-family="Helvetica,sans-Serif" font-size="10.00">dji_hard_driver.hpp</text>
</g>
<!-- Node8&#45;&gt;Node21 -->
<g id="edge35" class="edge"><title>Node8&#45;&gt;Node21</title>
<path fill="none" stroke="midnightblue" d="M992.953,-337.717C1045.38,-328.342 1136.82,-311.993 1196.43,-301.334"/>
<polygon fill="midnightblue" stroke="midnightblue" points="1197.21,-304.75 1206.44,-299.544 1195.98,-297.859 1197.21,-304.75"/>
</g>
<!-- Node22 -->
<g id="node22" class="node"><title>Node22</title>
<g id="a_node22"><a xlink:href="dji__hardware__sync_8hpp.html" target="_top" xlink:title="Hardware Sync API for DJI OSDK. ">
<polygon fill="white" stroke="black" points="79.2236,-280.5 79.2236,-299.5 195.224,-299.5 195.224,-280.5 79.2236,-280.5"/>
<text text-anchor="middle" x="137.224" y="-287.5" font-family="Helvetica,sans-Serif" font-size="10.00">dji_hardware_sync.hpp</text>
</a>
</g>
</g>
<!-- Node8&#45;&gt;Node22 -->
<g id="edge36" class="edge"><title>Node8&#45;&gt;Node22</title>
<path fill="none" stroke="midnightblue" d="M911.48,-343.448C799.312,-338.976 476.552,-324.778 209.224,-300 207.954,-299.882 206.671,-299.76 205.38,-299.633"/>
<polygon fill="midnightblue" stroke="midnightblue" points="205.656,-296.143 195.348,-298.589 204.932,-303.105 205.656,-296.143"/>
</g>
<!-- Node23 -->
<g id="node23" class="node"><title>Node23</title>
<g id="a_node23"><a xlink:href="dji__mfio_8hpp.html" target="_top" xlink:title="MFIO API for DJI OSDK library. ">
<polygon fill="white" stroke="black" points="1443.72,-224.5 1443.72,-243.5 1512.72,-243.5 1512.72,-224.5 1443.72,-224.5"/>
<text text-anchor="middle" x="1478.22" y="-231.5" font-family="Helvetica,sans-Serif" font-size="10.00">dji_mfio.hpp</text>
</a>
</g>
</g>
<!-- Node8&#45;&gt;Node23 -->
<g id="edge38" class="edge"><title>Node8&#45;&gt;Node23</title>
<path fill="none" stroke="midnightblue" d="M993.038,-344.644C1111.69,-343.187 1450.24,-335.894 1483.22,-300 1494.56,-287.66 1491.11,-267.851 1486.19,-253.341"/>
<polygon fill="midnightblue" stroke="midnightblue" points="1489.4,-251.956 1482.53,-243.894 1482.88,-254.483 1489.4,-251.956"/>
</g>
<!-- Node24 -->
<g id="node24" class="node"><title>Node24</title>
<g id="a_node24"><a xlink:href="dji__mission__manager_8hpp.html" target="_top" xlink:title="Mission&#45;Manager API for DJI OSDK library. ">
<polygon fill="white" stroke="black" points="701.724,-280.5 701.724,-299.5 828.724,-299.5 828.724,-280.5 701.724,-280.5"/>
<text text-anchor="middle" x="765.224" y="-287.5" font-family="Helvetica,sans-Serif" font-size="10.00">dji_mission_manager.hpp</text>
</a>
</g>
</g>
<!-- Node8&#45;&gt;Node24 -->
<g id="edge40" class="edge"><title>Node8&#45;&gt;Node24</title>
<path fill="none" stroke="midnightblue" d="M922.593,-336.444C890.723,-327.241 839.891,-312.562 804.66,-302.388"/>
<polygon fill="midnightblue" stroke="midnightblue" points="805.294,-298.928 794.716,-299.516 803.352,-305.653 805.294,-298.928"/>
</g>
<!-- Node28 -->
<g id="node28" class="node"><title>Node28</title>
<g id="a_node28"><a xlink:href="dji__mobile__communication_8hpp.html" target="_top" xlink:title="Implementation of DJI Mobile&#45;Onboard SDK Communication (MOC) ">
<polygon fill="white" stroke="black" points="1470.22,-168.5 1470.22,-187.5 1620.22,-187.5 1620.22,-168.5 1470.22,-168.5"/>
<text text-anchor="middle" x="1545.22" y="-175.5" font-family="Helvetica,sans-Serif" font-size="10.00">dji_mobile_communication.hpp</text>
</a>
</g>
</g>
<!-- Node8&#45;&gt;Node28 -->
<g id="edge49" class="edge"><title>Node8&#45;&gt;Node28</title>
<path fill="none" stroke="midnightblue" d="M993.005,-344.165C1113.35,-341.355 1461.08,-330.642 1501.22,-300 1533.41,-275.437 1542.08,-225.061 1544.39,-197.694"/>
<polygon fill="midnightblue" stroke="midnightblue" points="1547.9,-197.721 1545.05,-187.517 1540.91,-197.271 1547.9,-197.721"/>
</g>
<!-- Node29 -->
<g id="node29" class="node"><title>Node29</title>
<g id="a_node29"><a xlink:href="dji__status_8hpp.html" target="_top" xlink:title="Status information for DJI Vehicle. ">
<polygon fill="white" stroke="black" points="1401.72,-56.5 1401.72,-75.5 1478.72,-75.5 1478.72,-56.5 1401.72,-56.5"/>
<text text-anchor="middle" x="1440.22" y="-63.5" font-family="Helvetica,sans-Serif" font-size="10.00">dji_status.hpp</text>
</a>
</g>
</g>
<!-- Node8&#45;&gt;Node29 -->
<g id="edge52" class="edge"><title>Node8&#45;&gt;Node29</title>
<path fill="none" stroke="midnightblue" d="M992.946,-343.943C1106.53,-340.658 1425.07,-329.044 1525.22,-300 1584.61,-282.778 1648.22,-296.831 1648.22,-235 1648.22,-235 1648.22,-235 1648.22,-177 1648.22,-105.367 1550.63,-80.2569 1489.14,-71.5449"/>
<polygon fill="midnightblue" stroke="midnightblue" points="1489.23,-68.0264 1478.86,-70.1917 1488.32,-74.9665 1489.23,-68.0264"/>
</g>
<!-- Node30 -->
<g id="node30" class="node"><title>Node30</title>
<g id="a_node30"><a xlink:href="dji__subscription_8hpp.html" target="_top" xlink:title="Telemetry Subscription API for DJI OSDK library. ">
<polygon fill="white" stroke="black" points="1111.72,-224.5 1111.72,-243.5 1214.72,-243.5 1214.72,-224.5 1111.72,-224.5"/>
<text text-anchor="middle" x="1163.22" y="-231.5" font-family="Helvetica,sans-Serif" font-size="10.00">dji_subscription.hpp</text>
</a>
</g>
</g>
<!-- Node8&#45;&gt;Node30 -->
<g id="edge54" class="edge"><title>Node8&#45;&gt;Node30</title>
<path fill="none" stroke="midnightblue" d="M966.408,-336.4C987.763,-323.571 1029.58,-298.906 1066.22,-280 1088.66,-268.423 1114.64,-256.444 1134.06,-247.759"/>
<polygon fill="midnightblue" stroke="midnightblue" points="1135.58,-250.916 1143.3,-243.657 1132.74,-244.519 1135.58,-250.916"/>
</g>
<!-- Node31 -->
<g id="node31" class="node"><title>Node31</title>
<polygon fill="white" stroke="#bfbfbf" points="1321.22,-280.5 1321.22,-299.5 1441.22,-299.5 1441.22,-280.5 1321.22,-280.5"/>
<text text-anchor="middle" x="1381.22" y="-287.5" font-family="Helvetica,sans-Serif" font-size="10.00">dji_thread_manager.hpp</text>
</g>
<!-- Node8&#45;&gt;Node31 -->
<g id="edge58" class="edge"><title>Node8&#45;&gt;Node31</title>
<path fill="none" stroke="midnightblue" d="M992.724,-340.009C1057.55,-332.005 1188.89,-315.724 1310.76,-300.181"/>
<polygon fill="midnightblue" stroke="midnightblue" points="1311.54,-303.611 1321.02,-298.873 1310.65,-296.667 1311.54,-303.611"/>
</g>
<!-- Node11 -->
<g id="node11" class="node"><title>Node11</title>
<g id="a_node11"><a xlink:href="dji__telemetry_8hpp.html" target="_top" xlink:title="Enumeration of all telemetry data types, structures and maps. ">
<polygon fill="white" stroke="black" points="887.724,-168.5 887.724,-187.5 978.724,-187.5 978.724,-168.5 887.724,-168.5"/>
<text text-anchor="middle" x="933.224" y="-175.5" font-family="Helvetica,sans-Serif" font-size="10.00">dji_telemetry.hpp</text>
</a>
</g>
</g>
<!-- Node10&#45;&gt;Node11 -->
<g id="edge12" class="edge"><title>Node10&#45;&gt;Node11</title>
<path fill="none" stroke="midnightblue" d="M964.114,-224.083C958.941,-216.534 951.377,-205.495 945.029,-196.23"/>
<polygon fill="midnightblue" stroke="midnightblue" points="947.759,-194.022 939.22,-187.751 941.985,-197.979 947.759,-194.022"/>
</g>
<!-- Node10&#45;&gt;Node12 -->
<g id="edge14" class="edge"><title>Node10&#45;&gt;Node12</title>
<path fill="none" stroke="midnightblue" d="M989.056,-224.368C1031.12,-205.091 1132.87,-158.454 1182.32,-135.789"/>
<polygon fill="midnightblue" stroke="midnightblue" points="1183.85,-138.94 1191.48,-131.591 1180.93,-132.576 1183.85,-138.94"/>
</g>
<!-- Node11&#45;&gt;Node6 -->
<g id="edge13" class="edge"><title>Node11&#45;&gt;Node6</title>
<path fill="none" stroke="midnightblue" d="M887.353,-172.414C872.338,-170.952 855.573,-169.362 840.224,-168 649.402,-151.073 421.624,-133.535 326.928,-126.361"/>
<polygon fill="midnightblue" stroke="midnightblue" points="327.084,-122.863 316.848,-125.599 326.556,-129.843 327.084,-122.863"/>
</g>
<!-- Node12&#45;&gt;Node13 -->
<g id="edge15" class="edge"><title>Node12&#45;&gt;Node13</title>
<path fill="none" stroke="midnightblue" d="M1192.87,-112.324C1175.55,-103.664 1148.71,-90.2424 1128.72,-80.249"/>
<polygon fill="midnightblue" stroke="midnightblue" points="1130.04,-76.9962 1119.53,-75.6545 1126.91,-83.2572 1130.04,-76.9962"/>
</g>
<!-- Node15&#45;&gt;Node6 -->
<g id="edge30" class="edge"><title>Node15&#45;&gt;Node6</title>
<path fill="none" stroke="midnightblue" d="M514.991,-284.842C457.789,-276.716 353.646,-253.356 297.224,-188 286.236,-175.272 282.886,-156.074 282.046,-141.839"/>
<polygon fill="midnightblue" stroke="midnightblue" points="285.542,-141.621 281.811,-131.705 278.543,-141.783 285.542,-141.621"/>
</g>
<!-- Node15&#45;&gt;Node12 -->
<g id="edge31" class="edge"><title>Node15&#45;&gt;Node12</title>
<path fill="none" stroke="midnightblue" d="M564.154,-280.119C577.392,-267.148 603.248,-242.548 627.224,-224 645.114,-210.159 690.871,-175.465 712.224,-168 789.063,-141.136 1020.57,-129.482 1138.9,-125.17"/>
<polygon fill="midnightblue" stroke="midnightblue" points="1139.09,-128.666 1148.96,-124.811 1138.84,-121.67 1139.09,-128.666"/>
</g>
<!-- Node15&#45;&gt;Node13 -->
<g id="edge29" class="edge"><title>Node15&#45;&gt;Node13</title>
<path fill="none" stroke="midnightblue" d="M553.687,-280.34C550.332,-258.421 544.839,-200.199 574.224,-168 635.476,-100.88 909.04,-77.4323 1036.49,-70.053"/>
<polygon fill="midnightblue" stroke="midnightblue" points="1036.72,-73.5452 1046.51,-69.4883 1036.33,-66.5563 1036.72,-73.5452"/>
</g>
<!-- Node16 -->
<g id="node16" class="node"><title>Node16</title>
<g id="a_node16"><a xlink:href="dji__ack_8hpp.html" target="_top" xlink:title="All DJI OSDK ACK parsing. ">
<polygon fill="white" stroke="black" points="449.224,-224.5 449.224,-243.5 515.224,-243.5 515.224,-224.5 449.224,-224.5"/>
<text text-anchor="middle" x="482.224" y="-231.5" font-family="Helvetica,sans-Serif" font-size="10.00">dji_ack.hpp</text>
</a>
</g>
</g>
<!-- Node15&#45;&gt;Node16 -->
<g id="edge20" class="edge"><title>Node15&#45;&gt;Node16</title>
<path fill="none" stroke="midnightblue" d="M543.495,-280.324C532.386,-272.107 515.481,-259.602 502.24,-249.807"/>
<polygon fill="midnightblue" stroke="midnightblue" points="504.287,-246.967 494.166,-243.834 500.124,-252.595 504.287,-246.967"/>
</g>
<!-- Node16&#45;&gt;Node3 -->
<g id="edge21" class="edge"><title>Node16&#45;&gt;Node3</title>
<path fill="none" stroke="midnightblue" d="M486.584,-224.222C492.228,-211.783 500.926,-188.279 497.224,-168 495.536,-158.757 492.049,-148.948 488.669,-140.855"/>
<polygon fill="midnightblue" stroke="midnightblue" points="491.855,-139.405 484.59,-131.693 485.46,-142.252 491.855,-139.405"/>
</g>
<!-- Node16&#45;&gt;Node6 -->
<g id="edge24" class="edge"><title>Node16&#45;&gt;Node6</title>
<path fill="none" stroke="midnightblue" d="M448.978,-231.369C413.231,-228.042 356.4,-218.023 318.224,-188 303.047,-176.065 293.311,-155.867 287.841,-141.148"/>
<polygon fill="midnightblue" stroke="midnightblue" points="291.127,-139.938 284.596,-131.595 284.499,-142.189 291.127,-139.938"/>
</g>
<!-- Node17 -->
<g id="node17" class="node"><title>Node17</title>
<g id="a_node17"><a xlink:href="dji__mission__type_8hpp_source.html" target="_top" xlink:title="dji_mission_type.hpp">
<polygon fill="white" stroke="black" points="327.224,-168.5 327.224,-187.5 435.224,-187.5 435.224,-168.5 327.224,-168.5"/>
<text text-anchor="middle" x="381.224" y="-175.5" font-family="Helvetica,sans-Serif" font-size="10.00">dji_mission_type.hpp</text>
</a>
</g>
</g>
<!-- Node16&#45;&gt;Node17 -->
<g id="edge22" class="edge"><title>Node16&#45;&gt;Node17</title>
<path fill="none" stroke="midnightblue" d="M465.996,-224.324C449.873,-215.703 424.923,-202.364 406.259,-192.386"/>
<polygon fill="midnightblue" stroke="midnightblue" points="407.88,-189.283 397.411,-187.655 404.579,-195.456 407.88,-189.283"/>
</g>
<!-- Node16&#45;&gt;Node18 -->
<g id="edge25" class="edge"><title>Node16&#45;&gt;Node18</title>
<path fill="none" stroke="midnightblue" d="M504.724,-224.444C528.301,-215.478 565.546,-201.314 592.188,-191.183"/>
<polygon fill="midnightblue" stroke="midnightblue" points="593.726,-194.342 601.829,-187.516 591.237,-187.8 593.726,-194.342"/>
</g>
<!-- Node19 -->
<g id="node19" class="node"><title>Node19</title>
<polygon fill="white" stroke="#bfbfbf" points="453.724,-168.5 453.724,-187.5 488.724,-187.5 488.724,-168.5 453.724,-168.5"/>
<text text-anchor="middle" x="471.224" y="-175.5" font-family="Helvetica,sans-Serif" font-size="10.00">map</text>
</g>
<!-- Node16&#45;&gt;Node19 -->
<g id="edge28" class="edge"><title>Node16&#45;&gt;Node19</title>
<path fill="none" stroke="midnightblue" d="M480.407,-224.083C478.949,-216.927 476.853,-206.635 475.031,-197.691"/>
<polygon fill="midnightblue" stroke="midnightblue" points="478.432,-196.851 473.006,-187.751 471.573,-198.248 478.432,-196.851"/>
</g>
<!-- Node17&#45;&gt;Node6 -->
<g id="edge23" class="edge"><title>Node17&#45;&gt;Node6</title>
<path fill="none" stroke="midnightblue" d="M365.317,-168.324C349.585,-159.743 325.281,-146.486 307.015,-136.522"/>
<polygon fill="midnightblue" stroke="midnightblue" points="308.545,-133.37 298.09,-131.655 305.193,-139.516 308.545,-133.37"/>
</g>
<!-- Node18&#45;&gt;Node3 -->
<g id="edge26" class="edge"><title>Node18&#45;&gt;Node3</title>
<path fill="none" stroke="midnightblue" d="M601.406,-168.444C577.392,-159.438 539.395,-145.189 512.354,-135.049"/>
<polygon fill="midnightblue" stroke="midnightblue" points="513.526,-131.751 502.934,-131.516 511.068,-138.305 513.526,-131.751"/>
</g>
<!-- Node18&#45;&gt;Node9 -->
<g id="edge27" class="edge"><title>Node18&#45;&gt;Node9</title>
<path fill="none" stroke="midnightblue" d="M656.548,-168.444C694.339,-158.44 756.574,-141.966 794.822,-131.842"/>
<polygon fill="midnightblue" stroke="midnightblue" points="796.163,-135.107 804.934,-129.165 794.371,-128.34 796.163,-135.107"/>
</g>
<!-- Node20&#45;&gt;Node3 -->
<g id="edge33" class="edge"><title>Node20&#45;&gt;Node3</title>
<path fill="none" stroke="midnightblue" d="M232.828,-169.548C282.627,-160.179 368.404,-144.039 424.723,-133.443"/>
<polygon fill="midnightblue" stroke="midnightblue" points="425.701,-136.82 434.881,-131.531 424.406,-129.941 425.701,-136.82"/>
</g>
<!-- Node20&#45;&gt;Node6 -->
<g id="edge34" class="edge"><title>Node20&#45;&gt;Node6</title>
<path fill="none" stroke="midnightblue" d="M207.523,-168.324C221.407,-159.9 242.716,-146.971 259.027,-137.074"/>
<polygon fill="midnightblue" stroke="midnightblue" points="261.226,-139.834 267.96,-131.655 257.595,-133.85 261.226,-139.834"/>
</g>
<!-- Node22&#45;&gt;Node6 -->
<g id="edge37" class="edge"><title>Node22&#45;&gt;Node6</title>
<path fill="none" stroke="midnightblue" d="M134.729,-280.259C129.132,-258.648 118.018,-201.998 144.224,-168 165.993,-139.757 205.86,-128.988 237.166,-125.004"/>
<polygon fill="midnightblue" stroke="midnightblue" points="237.85,-128.451 247.416,-123.898 237.098,-121.491 237.85,-128.451"/>
</g>
<!-- Node23&#45;&gt;Node12 -->
<g id="edge39" class="edge"><title>Node23&#45;&gt;Node12</title>
<path fill="none" stroke="midnightblue" d="M1472.78,-224.257C1463.46,-210.064 1443.02,-182.174 1418.22,-168 1376.59,-144.204 1323.7,-132.97 1281.68,-127.677"/>
<polygon fill="midnightblue" stroke="midnightblue" points="1281.86,-124.174 1271.52,-126.485 1281.04,-131.126 1281.86,-124.174"/>
</g>
<!-- Node25 -->
<g id="node25" class="node"><title>Node25</title>
<g id="a_node25"><a xlink:href="dji__hotpoint_8hpp.html" target="_top" xlink:title="Implementation of HotPoint (Point of Interest) Missions for DJI OSDK. ">
<polygon fill="white" stroke="black" points="743.724,-224.5 743.724,-243.5 828.724,-243.5 828.724,-224.5 743.724,-224.5"/>
<text text-anchor="middle" x="786.224" y="-231.5" font-family="Helvetica,sans-Serif" font-size="10.00">dji_hotpoint.hpp</text>
</a>
</g>
</g>
<!-- Node24&#45;&gt;Node25 -->
<g id="edge41" class="edge"><title>Node24&#45;&gt;Node25</title>
<path fill="none" stroke="midnightblue" d="M768.691,-280.083C771.535,-272.77 775.653,-262.181 779.183,-253.103"/>
<polygon fill="midnightblue" stroke="midnightblue" points="782.458,-254.34 782.82,-243.751 775.934,-251.803 782.458,-254.34"/>
</g>
<!-- Node27 -->
<g id="node27" class="node"><title>Node27</title>
<g id="a_node27"><a xlink:href="dji__waypoint_8hpp.html" target="_top" xlink:title="Implementation of GPS Waypoint Missions for DJI OSDK. ">
<polygon fill="white" stroke="black" points="636.724,-224.5 636.724,-243.5 725.724,-243.5 725.724,-224.5 636.724,-224.5"/>
<text text-anchor="middle" x="681.224" y="-231.5" font-family="Helvetica,sans-Serif" font-size="10.00">dji_waypoint.hpp</text>
</a>
</g>
</g>
<!-- Node24&#45;&gt;Node27 -->
<g id="edge47" class="edge"><title>Node24&#45;&gt;Node27</title>
<path fill="none" stroke="midnightblue" d="M751.728,-280.324C738.624,-271.9 718.512,-258.971 703.117,-249.074"/>
<polygon fill="midnightblue" stroke="midnightblue" points="704.991,-246.118 694.686,-243.655 701.205,-252.006 704.991,-246.118"/>
</g>
<!-- Node25&#45;&gt;Node11 -->
<g id="edge46" class="edge"><title>Node25&#45;&gt;Node11</title>
<path fill="none" stroke="midnightblue" d="M809.516,-224.444C834.031,-215.438 872.82,-201.189 900.423,-191.049"/>
<polygon fill="midnightblue" stroke="midnightblue" points="901.86,-194.25 910.04,-187.516 899.446,-187.679 901.86,-194.25"/>
</g>
<!-- Node26 -->
<g id="node26" class="node"><title>Node26</title>
<g id="a_node26"><a xlink:href="dji__mission__base_8hpp.html" target="_top" xlink:title="Mission&#45;Base abstract class for DJI OSDK library. ">
<polygon fill="white" stroke="black" points="721.224,-168.5 721.224,-187.5 831.224,-187.5 831.224,-168.5 721.224,-168.5"/>
<text text-anchor="middle" x="776.224" y="-175.5" font-family="Helvetica,sans-Serif" font-size="10.00">dji_mission_base.hpp</text>
</a>
</g>
</g>
<!-- Node25&#45;&gt;Node26 -->
<g id="edge42" class="edge"><title>Node25&#45;&gt;Node26</title>
<path fill="none" stroke="midnightblue" d="M784.572,-224.083C783.247,-216.927 781.341,-206.635 779.685,-197.691"/>
<polygon fill="midnightblue" stroke="midnightblue" points="783.107,-196.947 777.844,-187.751 776.224,-198.221 783.107,-196.947"/>
</g>
<!-- Node26&#45;&gt;Node3 -->
<g id="edge43" class="edge"><title>Node26&#45;&gt;Node3</title>
<path fill="none" stroke="midnightblue" d="M729.321,-168.444C677.144,-158.925 592.853,-143.547 536.992,-133.356"/>
<polygon fill="midnightblue" stroke="midnightblue" points="537.372,-129.868 526.906,-131.516 536.116,-136.754 537.372,-129.868"/>
</g>
<!-- Node26&#45;&gt;Node6 -->
<g id="edge44" class="edge"><title>Node26&#45;&gt;Node6</title>
<path fill="none" stroke="midnightblue" d="M720.993,-170.963C622.304,-160.175 417.552,-137.793 326.982,-127.893"/>
<polygon fill="midnightblue" stroke="midnightblue" points="327.096,-124.384 316.775,-126.777 326.335,-131.343 327.096,-124.384"/>
</g>
<!-- Node26&#45;&gt;Node12 -->
<g id="edge45" class="edge"><title>Node26&#45;&gt;Node12</title>
<path fill="none" stroke="midnightblue" d="M831.631,-170.106C909.995,-160.356 1053.22,-142.535 1139.27,-131.828"/>
<polygon fill="midnightblue" stroke="midnightblue" points="1139.72,-135.299 1149.21,-130.591 1138.86,-128.353 1139.72,-135.299"/>
</g>
<!-- Node27&#45;&gt;Node26 -->
<g id="edge48" class="edge"><title>Node27&#45;&gt;Node26</title>
<path fill="none" stroke="midnightblue" d="M696.487,-224.324C711.445,-215.822 734.478,-202.729 751.95,-192.797"/>
<polygon fill="midnightblue" stroke="midnightblue" points="754.034,-195.639 760.998,-187.655 750.575,-189.553 754.034,-195.639"/>
</g>
<!-- Node28&#45;&gt;Node12 -->
<g id="edge50" class="edge"><title>Node28&#45;&gt;Node12</title>
<path fill="none" stroke="midnightblue" d="M1492.14,-168.444C1432.72,-158.865 1336.5,-143.356 1273.29,-133.167"/>
<polygon fill="midnightblue" stroke="midnightblue" points="1273.49,-129.653 1263.06,-131.516 1272.37,-136.563 1273.49,-129.653"/>
</g>
<!-- Node29&#45;&gt;Node5 -->
<g id="edge53" class="edge"><title>Node29&#45;&gt;Node5</title>
<path fill="none" stroke="midnightblue" d="M1401.44,-62.8498C1243.71,-54.105 651.64,-21.2798 501.173,-12.9377"/>
<polygon fill="midnightblue" stroke="midnightblue" points="501.293,-9.43902 491.115,-12.38 500.906,-16.4283 501.293,-9.43902"/>
</g>
<!-- Node30&#45;&gt;Node11 -->
<g id="edge56" class="edge"><title>Node30&#45;&gt;Node11</title>
<path fill="none" stroke="midnightblue" d="M1126.78,-224.444C1086.82,-215.063 1022.64,-199.993 979.239,-189.804"/>
<polygon fill="midnightblue" stroke="midnightblue" points="980.033,-186.395 969.497,-187.516 978.433,-193.21 980.033,-186.395"/>
</g>
<!-- Node30&#45;&gt;Node12 -->
<g id="edge57" class="edge"><title>Node30&#45;&gt;Node12</title>
<path fill="none" stroke="midnightblue" d="M1166.91,-224.368C1174.56,-206.456 1192.31,-164.923 1202.55,-140.948"/>
<polygon fill="midnightblue" stroke="midnightblue" points="1205.84,-142.162 1206.55,-131.591 1199.4,-139.412 1205.84,-142.162"/>
</g>
<!-- Node30&#45;&gt;Node13 -->
<g id="edge55" class="edge"><title>Node30&#45;&gt;Node13</title>
<path fill="none" stroke="midnightblue" d="M1159.94,-224.075C1150.3,-197.832 1121.9,-120.545 1108.88,-85.1165"/>
<polygon fill="midnightblue" stroke="midnightblue" points="1112.11,-83.7472 1105.37,-75.5681 1105.54,-86.1617 1112.11,-83.7472"/>
</g>
</g>
</svg>
