<?xml version="1.0" encoding="UTF-8" standalone="no"?>
<!DOCTYPE svg PUBLIC "-//W3C//DTD SVG 1.1//EN"
 "http://www.w3.org/Graphics/SVG/1.1/DTD/svg11.dtd">
<!-- Generated by graphviz version 2.38.0 (20140413.2041)
 -->
<!-- Title: osdk&#45;core/api/src/dji_vehicle.cpp Pages: 1 -->
<svg width="1703pt" height="431pt"
 viewBox="0.00 0.00 1703.00 431.00" xmlns="http://www.w3.org/2000/svg" xmlns:xlink="http://www.w3.org/1999/xlink">
<g id="graph0" class="graph" transform="scale(1 1) rotate(0) translate(4 427)">
<title>osdk&#45;core/api/src/dji_vehicle.cpp</title>
<polygon fill="white" stroke="none" points="-4,4 -4,-427 1699,-427 1699,4 -4,4"/>
<!-- Node1 -->
<g id="node1" class="node"><title>Node1</title>
<polygon fill="#bfbfbf" stroke="black" points="853,-392.5 853,-422.5 957,-422.5 957,-392.5 853,-392.5"/>
<text text-anchor="start" x="861" y="-410.5" font-family="Helvetica,sans-Serif" font-size="10.00">osdk&#45;core/api/src/dji</text>
<text text-anchor="middle" x="905" y="-399.5" font-family="Helvetica,sans-Serif" font-size="10.00">_vehicle.cpp</text>
</g>
<!-- Node2 -->
<g id="node2" class="node"><title>Node2</title>
<g id="a_node2"><a xlink:href="dji__vehicle_8hpp.html" target="_top" xlink:title="Vehicle API for DJI onboardSDK library. ">
<polygon fill="white" stroke="black" points="826.5,-336.5 826.5,-355.5 907.5,-355.5 907.5,-336.5 826.5,-336.5"/>
<text text-anchor="middle" x="867" y="-343.5" font-family="Helvetica,sans-Serif" font-size="10.00">dji_vehicle.hpp</text>
</a>
</g>
</g>
<!-- Node1&#45;&gt;Node2 -->
<g id="edge1" class="edge"><title>Node1&#45;&gt;Node2</title>
<path fill="none" stroke="midnightblue" d="M895.995,-392.399C890.587,-383.932 883.668,-373.099 877.946,-364.139"/>
<polygon fill="midnightblue" stroke="midnightblue" points="880.862,-362.202 872.529,-355.658 874.962,-365.97 880.862,-362.202"/>
</g>
<!-- Node32 -->
<g id="node32" class="node"><title>Node32</title>
<polygon fill="white" stroke="#bfbfbf" points="925.5,-336.5 925.5,-355.5 960.5,-355.5 960.5,-336.5 925.5,-336.5"/>
<text text-anchor="middle" x="943" y="-343.5" font-family="Helvetica,sans-Serif" font-size="10.00">new</text>
</g>
<!-- Node1&#45;&gt;Node32 -->
<g id="edge61" class="edge"><title>Node1&#45;&gt;Node32</title>
<path fill="none" stroke="midnightblue" d="M914.005,-392.399C919.413,-383.932 926.332,-373.099 932.054,-364.139"/>
<polygon fill="midnightblue" stroke="midnightblue" points="935.038,-365.97 937.471,-355.658 929.138,-362.202 935.038,-365.97"/>
</g>
<!-- Node3 -->
<g id="node3" class="node"><title>Node3</title>
<polygon fill="white" stroke="#bfbfbf" points="75,-112.5 75,-131.5 121,-131.5 121,-112.5 75,-112.5"/>
<text text-anchor="middle" x="98" y="-119.5" font-family="Helvetica,sans-Serif" font-size="10.00">cstdint</text>
</g>
<!-- Node2&#45;&gt;Node3 -->
<g id="edge2" class="edge"><title>Node2&#45;&gt;Node3</title>
<path fill="none" stroke="midnightblue" d="M826.194,-344.217C704.086,-341.543 343.028,-331.146 230,-300 176.729,-285.321 159.326,-281.776 119,-244 97.9169,-224.25 93.6012,-215.871 86,-188 81.754,-172.431 85.7938,-154.353 90.2975,-141.221"/>
<polygon fill="midnightblue" stroke="midnightblue" points="93.7064,-142.106 94.0181,-131.516 87.1702,-139.6 93.7064,-142.106"/>
</g>
<!-- Node4 -->
<g id="node4" class="node"><title>Node4</title>
<g id="a_node4"><a xlink:href="dji__broadcast_8hpp.html" target="_top" xlink:title="Broadcast Telemetry API for DJI onboardSDK library. ">
<polygon fill="white" stroke="black" points="975.5,-224.5 975.5,-243.5 1068.5,-243.5 1068.5,-224.5 975.5,-224.5"/>
<text text-anchor="middle" x="1022" y="-231.5" font-family="Helvetica,sans-Serif" font-size="10.00">dji_broadcast.hpp</text>
</a>
</g>
</g>
<!-- Node2&#45;&gt;Node4 -->
<g id="edge3" class="edge"><title>Node2&#45;&gt;Node4</title>
<path fill="none" stroke="midnightblue" d="M881.634,-336.474C896.392,-327.733 919.689,-313.54 939,-300 962.098,-283.805 987.47,-263.549 1004,-249.992"/>
<polygon fill="midnightblue" stroke="midnightblue" points="1006.3,-252.635 1011.79,-243.571 1001.85,-247.236 1006.3,-252.635"/>
</g>
<!-- Node6 -->
<g id="node6" class="node"><title>Node6</title>
<g id="a_node6"><a xlink:href="dji__type_8hpp.html" target="_top" xlink:title="Data type and Data Structure definitions for use throughout DJI OSDK. ">
<polygon fill="white" stroke="black" points="473.5,-112.5 473.5,-131.5 542.5,-131.5 542.5,-112.5 473.5,-112.5"/>
<text text-anchor="middle" x="508" y="-119.5" font-family="Helvetica,sans-Serif" font-size="10.00">dji_type.hpp</text>
</a>
</g>
</g>
<!-- Node2&#45;&gt;Node6 -->
<g id="edge58" class="edge"><title>Node2&#45;&gt;Node6</title>
<path fill="none" stroke="midnightblue" d="M826.229,-343.109C733.662,-338.4 513.921,-324.709 492,-300 452.117,-255.045 482.185,-176.037 498.848,-140.816"/>
<polygon fill="midnightblue" stroke="midnightblue" points="502.039,-142.259 503.311,-131.741 495.757,-139.17 502.039,-142.259"/>
</g>
<!-- Node9 -->
<g id="node9" class="node"><title>Node9</title>
<g id="a_node9"><a xlink:href="dji__vehicle__callback_8hpp.html" target="_top" xlink:title="Type definition for new Vehicle&#45;style callbacks. ">
<polygon fill="white" stroke="black" points="1196,-112.5 1196,-131.5 1318,-131.5 1318,-112.5 1196,-112.5"/>
<text text-anchor="middle" x="1257" y="-119.5" font-family="Helvetica,sans-Serif" font-size="10.00">dji_vehicle_callback.hpp</text>
</a>
</g>
</g>
<!-- Node2&#45;&gt;Node9 -->
<g id="edge59" class="edge"><title>Node2&#45;&gt;Node9</title>
<path fill="none" stroke="midnightblue" d="M907.63,-337.468C910.461,-336.964 913.273,-336.471 916,-336 1062.25,-310.767 1152.26,-365.837 1237,-244 1258.51,-213.078 1259.84,-167.11 1258.61,-141.658"/>
<polygon fill="midnightblue" stroke="midnightblue" points="1262.09,-141.277 1257.93,-131.535 1255.11,-141.748 1262.09,-141.277"/>
</g>
<!-- Node10 -->
<g id="node10" class="node"><title>Node10</title>
<polygon fill="white" stroke="#bfbfbf" points="1076.5,-56.5 1076.5,-75.5 1187.5,-75.5 1187.5,-56.5 1076.5,-56.5"/>
<text text-anchor="middle" x="1132" y="-63.5" font-family="Helvetica,sans-Serif" font-size="10.00">dji_open_protocol.hpp</text>
</g>
<!-- Node2&#45;&gt;Node10 -->
<g id="edge50" class="edge"><title>Node2&#45;&gt;Node10</title>
<path fill="none" stroke="midnightblue" d="M900.444,-336.458C964.234,-319.179 1097,-278.045 1097,-235 1097,-235 1097,-235 1097,-177 1097,-143.072 1112.31,-105.911 1122.68,-84.631"/>
<polygon fill="midnightblue" stroke="midnightblue" points="1125.88,-86.0463 1127.28,-75.544 1119.64,-82.8822 1125.88,-86.0463"/>
</g>
<!-- Node11 -->
<g id="node11" class="node"><title>Node11</title>
<g id="a_node11"><a xlink:href="dji__camera_8hpp.html" target="_top" xlink:title="Camera/Gimbal API for DJI onboardSDK library. ">
<polygon fill="white" stroke="black" points="242.5,-168.5 242.5,-187.5 325.5,-187.5 325.5,-168.5 242.5,-168.5"/>
<text text-anchor="middle" x="284" y="-175.5" font-family="Helvetica,sans-Serif" font-size="10.00">dji_camera.hpp</text>
</a>
</g>
</g>
<!-- Node2&#45;&gt;Node11 -->
<g id="edge10" class="edge"><title>Node2&#45;&gt;Node11</title>
<path fill="none" stroke="midnightblue" d="M826.191,-344.259C729.116,-341.97 487.106,-333.023 414,-300 361.742,-276.394 316.803,-223.227 296.129,-195.908"/>
<polygon fill="midnightblue" stroke="midnightblue" points="298.831,-193.675 290.072,-187.714 293.202,-197.836 298.831,-193.675"/>
</g>
<!-- Node12 -->
<g id="node12" class="node"><title>Node12</title>
<g id="a_node12"><a xlink:href="dji__command_8hpp.html" target="_top" xlink:title="All DJI OSDK OpenProtocol Command IDs. ">
<polygon fill="white" stroke="black" points="212.5,-112.5 212.5,-131.5 305.5,-131.5 305.5,-112.5 212.5,-112.5"/>
<text text-anchor="middle" x="259" y="-119.5" font-family="Helvetica,sans-Serif" font-size="10.00">dji_command.hpp</text>
</a>
</g>
</g>
<!-- Node2&#45;&gt;Node12 -->
<g id="edge17" class="edge"><title>Node2&#45;&gt;Node12</title>
<path fill="none" stroke="midnightblue" d="M826.345,-343.614C716.745,-339.564 417.036,-326.339 322,-300 213.586,-269.953 154.398,-283.542 95,-188 68.2281,-144.938 144.676,-130.388 202.032,-125.482"/>
<polygon fill="midnightblue" stroke="midnightblue" points="202.431,-128.962 212.131,-124.699 201.89,-121.983 202.431,-128.962"/>
</g>
<!-- Node14 -->
<g id="node14" class="node"><title>Node14</title>
<polygon fill="white" stroke="#bfbfbf" points="1329,-280.5 1329,-299.5 1441,-299.5 1441,-280.5 1329,-280.5"/>
<text text-anchor="middle" x="1385" y="-287.5" font-family="Helvetica,sans-Serif" font-size="10.00">dji_circular_buffer.hpp</text>
</g>
<!-- Node2&#45;&gt;Node14 -->
<g id="edge16" class="edge"><title>Node2&#45;&gt;Node14</title>
<path fill="none" stroke="midnightblue" d="M907.596,-337.247C910.435,-336.796 913.258,-336.375 916,-336 1092.41,-311.892 1138,-319.356 1315,-300 1316.27,-299.861 1317.55,-299.719 1318.84,-299.574"/>
<polygon fill="midnightblue" stroke="midnightblue" points="1319.33,-303.04 1328.86,-298.408 1318.52,-296.087 1319.33,-303.04"/>
</g>
<!-- Node15 -->
<g id="node15" class="node"><title>Node15</title>
<g id="a_node15"><a xlink:href="dji__control_8hpp.html" target="_top" xlink:title="Control API for DJI OSDK library. ">
<polygon fill="white" stroke="black" points="658,-280.5 658,-299.5 738,-299.5 738,-280.5 658,-280.5"/>
<text text-anchor="middle" x="698" y="-287.5" font-family="Helvetica,sans-Serif" font-size="10.00">dji_control.hpp</text>
</a>
</g>
</g>
<!-- Node2&#45;&gt;Node15 -->
<g id="edge18" class="edge"><title>Node2&#45;&gt;Node15</title>
<path fill="none" stroke="midnightblue" d="M840.221,-336.444C811.667,-327.32 766.267,-312.813 734.463,-302.651"/>
<polygon fill="midnightblue" stroke="midnightblue" points="735.244,-299.226 724.653,-299.516 733.114,-305.894 735.244,-299.226"/>
</g>
<!-- Node18 -->
<g id="node18" class="node"><title>Node18</title>
<g id="a_node18"><a xlink:href="dji__version_8hpp.html" target="_top" xlink:title="Drone/SDK Version definition for DJI onboardSDK library. ">
<polygon fill="white" stroke="black" points="104,-168.5 104,-187.5 186,-187.5 186,-168.5 104,-168.5"/>
<text text-anchor="middle" x="145" y="-175.5" font-family="Helvetica,sans-Serif" font-size="10.00">dji_version.hpp</text>
</a>
</g>
</g>
<!-- Node2&#45;&gt;Node18 -->
<g id="edge60" class="edge"><title>Node2&#45;&gt;Node18</title>
<path fill="none" stroke="midnightblue" d="M826.494,-343.283C724.981,-338.658 461.852,-324.6 378,-300 294.183,-275.41 205.287,-219.83 165.884,-193.437"/>
<polygon fill="midnightblue" stroke="midnightblue" points="167.632,-190.393 157.39,-187.683 163.707,-196.189 167.632,-190.393"/>
</g>
<!-- Node20 -->
<g id="node20" class="node"><title>Node20</title>
<g id="a_node20"><a xlink:href="dji__gimbal_8hpp.html" target="_top" xlink:title="Gimbal API for OSDK library. ">
<polygon fill="white" stroke="black" points="343.5,-168.5 343.5,-187.5 422.5,-187.5 422.5,-168.5 343.5,-168.5"/>
<text text-anchor="middle" x="383" y="-175.5" font-family="Helvetica,sans-Serif" font-size="10.00">dji_gimbal.hpp</text>
</a>
</g>
</g>
<!-- Node2&#45;&gt;Node20 -->
<g id="edge31" class="edge"><title>Node2&#45;&gt;Node20</title>
<path fill="none" stroke="midnightblue" d="M826.217,-345.777C731.189,-346.805 498.438,-344.575 437,-300 403.275,-275.532 390.241,-225.116 385.501,-197.718"/>
<polygon fill="midnightblue" stroke="midnightblue" points="388.914,-196.884 383.942,-187.529 381.995,-197.943 388.914,-196.884"/>
</g>
<!-- Node21 -->
<g id="node21" class="node"><title>Node21</title>
<polygon fill="white" stroke="#bfbfbf" points="1459,-280.5 1459,-299.5 1557,-299.5 1557,-280.5 1459,-280.5"/>
<text text-anchor="middle" x="1508" y="-287.5" font-family="Helvetica,sans-Serif" font-size="10.00">dji_hard_driver.hpp</text>
</g>
<!-- Node2&#45;&gt;Node21 -->
<g id="edge34" class="edge"><title>Node2&#45;&gt;Node21</title>
<path fill="none" stroke="midnightblue" d="M907.587,-337.176C910.428,-336.742 913.254,-336.344 916,-336 1148.8,-306.87 1211.87,-325.73 1449.03,-300.006"/>
<polygon fill="midnightblue" stroke="midnightblue" points="1449.43,-303.482 1458.99,-298.91 1448.67,-296.524 1449.43,-303.482"/>
</g>
<!-- Node22 -->
<g id="node22" class="node"><title>Node22</title>
<g id="a_node22"><a xlink:href="dji__hardware__sync_8hpp.html" target="_top" xlink:title="Hardware Sync API for DJI OSDK. ">
<polygon fill="white" stroke="black" points="501,-280.5 501,-299.5 617,-299.5 617,-280.5 501,-280.5"/>
<text text-anchor="middle" x="559" y="-287.5" font-family="Helvetica,sans-Serif" font-size="10.00">dji_hardware_sync.hpp</text>
</a>
</g>
</g>
<!-- Node2&#45;&gt;Node22 -->
<g id="edge35" class="edge"><title>Node2&#45;&gt;Node22</title>
<path fill="none" stroke="midnightblue" d="M826.418,-337.885C772.956,-328.512 678.575,-311.964 617.431,-301.244"/>
<polygon fill="midnightblue" stroke="midnightblue" points="617.996,-297.79 607.542,-299.511 616.787,-304.685 617.996,-297.79"/>
</g>
<!-- Node23 -->
<g id="node23" class="node"><title>Node23</title>
<g id="a_node23"><a xlink:href="dji__mfio_8hpp.html" target="_top" xlink:title="MFIO API for DJI OSDK library. ">
<polygon fill="white" stroke="black" points="1285.5,-224.5 1285.5,-243.5 1354.5,-243.5 1354.5,-224.5 1285.5,-224.5"/>
<text text-anchor="middle" x="1320" y="-231.5" font-family="Helvetica,sans-Serif" font-size="10.00">dji_mfio.hpp</text>
</a>
</g>
</g>
<!-- Node2&#45;&gt;Node23 -->
<g id="edge37" class="edge"><title>Node2&#45;&gt;Node23</title>
<path fill="none" stroke="midnightblue" d="M907.605,-337.314C910.443,-336.847 913.262,-336.404 916,-336 1058.9,-314.94 1105.6,-355.399 1239,-300 1265.66,-288.929 1290.65,-266.284 1305.64,-250.871"/>
<polygon fill="midnightblue" stroke="midnightblue" points="1308.21,-253.249 1312.52,-243.57 1303.11,-248.448 1308.21,-253.249"/>
</g>
<!-- Node24 -->
<g id="node24" class="node"><title>Node24</title>
<g id="a_node24"><a xlink:href="dji__mission__manager_8hpp.html" target="_top" xlink:title="Mission&#45;Manager API for DJI OSDK library. ">
<polygon fill="white" stroke="black" points="803.5,-280.5 803.5,-299.5 930.5,-299.5 930.5,-280.5 803.5,-280.5"/>
<text text-anchor="middle" x="867" y="-287.5" font-family="Helvetica,sans-Serif" font-size="10.00">dji_mission_manager.hpp</text>
</a>
</g>
</g>
<!-- Node2&#45;&gt;Node24 -->
<g id="edge39" class="edge"><title>Node2&#45;&gt;Node24</title>
<path fill="none" stroke="midnightblue" d="M867,-336.083C867,-329.006 867,-318.861 867,-309.986"/>
<polygon fill="midnightblue" stroke="midnightblue" points="870.5,-309.751 867,-299.751 863.5,-309.751 870.5,-309.751"/>
</g>
<!-- Node28 -->
<g id="node28" class="node"><title>Node28</title>
<g id="a_node28"><a xlink:href="dji__mobile__communication_8hpp.html" target="_top" xlink:title="Implementation of DJI Mobile&#45;Onboard SDK Communication (MOC) ">
<polygon fill="white" stroke="black" points="1372,-224.5 1372,-243.5 1522,-243.5 1522,-224.5 1372,-224.5"/>
<text text-anchor="middle" x="1447" y="-231.5" font-family="Helvetica,sans-Serif" font-size="10.00">dji_mobile_communication.hpp</text>
</a>
</g>
</g>
<!-- Node2&#45;&gt;Node28 -->
<g id="edge48" class="edge"><title>Node2&#45;&gt;Node28</title>
<path fill="none" stroke="midnightblue" d="M907.601,-337.285C910.439,-336.825 913.26,-336.391 916,-336 1071.68,-313.778 1115.05,-336.548 1268,-300 1292.08,-294.245 1296.77,-288.58 1320,-280 1351.19,-268.479 1386.89,-255.88 1412.48,-246.951"/>
<polygon fill="midnightblue" stroke="midnightblue" points="1413.81,-250.194 1422.11,-243.6 1411.51,-243.583 1413.81,-250.194"/>
</g>
<!-- Node29 -->
<g id="node29" class="node"><title>Node29</title>
<g id="a_node29"><a xlink:href="dji__status_8hpp.html" target="_top" xlink:title="Status information for DJI Vehicle. ">
<polygon fill="white" stroke="black" points="29.5,-56.5 29.5,-75.5 106.5,-75.5 106.5,-56.5 29.5,-56.5"/>
<text text-anchor="middle" x="68" y="-63.5" font-family="Helvetica,sans-Serif" font-size="10.00">dji_status.hpp</text>
</a>
</g>
</g>
<!-- Node2&#45;&gt;Node29 -->
<g id="edge51" class="edge"><title>Node2&#45;&gt;Node29</title>
<path fill="none" stroke="midnightblue" d="M826.358,-344.051C696.453,-340.759 292.386,-328.438 165,-300 88.0752,-282.827 0,-313.818 0,-235 0,-235 0,-235 0,-177 0,-138.548 30.4347,-102.313 50.5821,-82.538"/>
<polygon fill="midnightblue" stroke="midnightblue" points="53.0977,-84.9765 57.9664,-75.5666 48.2922,-79.8865 53.0977,-84.9765"/>
</g>
<!-- Node30 -->
<g id="node30" class="node"><title>Node30</title>
<g id="a_node30"><a xlink:href="dji__subscription_8hpp.html" target="_top" xlink:title="Telemetry Subscription API for DJI OSDK library. ">
<polygon fill="white" stroke="black" points="1125.5,-224.5 1125.5,-243.5 1228.5,-243.5 1228.5,-224.5 1125.5,-224.5"/>
<text text-anchor="middle" x="1177" y="-231.5" font-family="Helvetica,sans-Serif" font-size="10.00">dji_subscription.hpp</text>
</a>
</g>
</g>
<!-- Node2&#45;&gt;Node30 -->
<g id="edge53" class="edge"><title>Node2&#45;&gt;Node30</title>
<path fill="none" stroke="midnightblue" d="M907.509,-337.548C976.801,-324.799 1110.72,-300.147 1111,-300 1133.18,-288.451 1152.76,-266.954 1164.72,-251.852"/>
<polygon fill="midnightblue" stroke="midnightblue" points="1167.56,-253.897 1170.85,-243.823 1162,-249.653 1167.56,-253.897"/>
</g>
<!-- Node31 -->
<g id="node31" class="node"><title>Node31</title>
<polygon fill="white" stroke="#bfbfbf" points="1575,-280.5 1575,-299.5 1695,-299.5 1695,-280.5 1575,-280.5"/>
<text text-anchor="middle" x="1635" y="-287.5" font-family="Helvetica,sans-Serif" font-size="10.00">dji_thread_manager.hpp</text>
</g>
<!-- Node2&#45;&gt;Node31 -->
<g id="edge57" class="edge"><title>Node2&#45;&gt;Node31</title>
<path fill="none" stroke="midnightblue" d="M907.582,-337.138C910.425,-336.713 913.252,-336.327 916,-336 1199.94,-302.199 1276.13,-326.153 1564.47,-300.067"/>
<polygon fill="midnightblue" stroke="midnightblue" points="1565.18,-303.517 1574.82,-299.118 1564.54,-296.546 1565.18,-303.517"/>
</g>
<!-- Node5 -->
<g id="node5" class="node"><title>Node5</title>
<g id="a_node5"><a xlink:href="dji__telemetry_8hpp.html" target="_top" xlink:title="Enumeration of all telemetry data types, structures and maps. ">
<polygon fill="white" stroke="black" points="977.5,-168.5 977.5,-187.5 1068.5,-187.5 1068.5,-168.5 977.5,-168.5"/>
<text text-anchor="middle" x="1023" y="-175.5" font-family="Helvetica,sans-Serif" font-size="10.00">dji_telemetry.hpp</text>
</a>
</g>
</g>
<!-- Node4&#45;&gt;Node5 -->
<g id="edge4" class="edge"><title>Node4&#45;&gt;Node5</title>
<path fill="none" stroke="midnightblue" d="M1022.17,-224.083C1022.3,-217.006 1022.48,-206.861 1022.65,-197.986"/>
<polygon fill="midnightblue" stroke="midnightblue" points="1026.15,-197.814 1022.84,-187.751 1019.15,-197.685 1026.15,-197.814"/>
</g>
<!-- Node4&#45;&gt;Node9 -->
<g id="edge8" class="edge"><title>Node4&#45;&gt;Node9</title>
<path fill="none" stroke="midnightblue" d="M1040.44,-224.368C1081.54,-205.131 1180.84,-158.648 1229.37,-135.931"/>
<polygon fill="midnightblue" stroke="midnightblue" points="1231.07,-139.001 1238.65,-131.591 1228.1,-132.661 1231.07,-139.001"/>
</g>
<!-- Node5&#45;&gt;Node6 -->
<g id="edge5" class="edge"><title>Node5&#45;&gt;Node6</title>
<path fill="none" stroke="midnightblue" d="M977.297,-172.208C879.321,-161.935 650.09,-137.899 552.866,-127.704"/>
<polygon fill="midnightblue" stroke="midnightblue" points="553.088,-124.209 542.777,-126.647 552.358,-131.17 553.088,-124.209"/>
</g>
<!-- Node7 -->
<g id="node7" class="node"><title>Node7</title>
<polygon fill="white" stroke="#bfbfbf" points="486.5,-56.5 486.5,-75.5 529.5,-75.5 529.5,-56.5 486.5,-56.5"/>
<text text-anchor="middle" x="508" y="-63.5" font-family="Helvetica,sans-Serif" font-size="10.00">cstdio</text>
</g>
<!-- Node6&#45;&gt;Node7 -->
<g id="edge6" class="edge"><title>Node6&#45;&gt;Node7</title>
<path fill="none" stroke="midnightblue" d="M508,-112.083C508,-105.006 508,-94.8611 508,-85.9865"/>
<polygon fill="midnightblue" stroke="midnightblue" points="511.5,-85.751 508,-75.7511 504.5,-85.7511 511.5,-85.751"/>
</g>
<!-- Node8 -->
<g id="node8" class="node"><title>Node8</title>
<polygon fill="white" stroke="#bfbfbf" points="234.5,-0.5 234.5,-19.5 283.5,-19.5 283.5,-0.5 234.5,-0.5"/>
<text text-anchor="middle" x="259" y="-7.5" font-family="Helvetica,sans-Serif" font-size="10.00">stdint.h</text>
</g>
<!-- Node6&#45;&gt;Node8 -->
<g id="edge7" class="edge"><title>Node6&#45;&gt;Node8</title>
<path fill="none" stroke="midnightblue" d="M488.461,-112.368C444.733,-93.0507 338.814,-46.2592 287.631,-23.6481"/>
<polygon fill="midnightblue" stroke="midnightblue" points="289.009,-20.4309 278.448,-19.5914 286.181,-26.8339 289.009,-20.4309"/>
</g>
<!-- Node9&#45;&gt;Node10 -->
<g id="edge9" class="edge"><title>Node9&#45;&gt;Node10</title>
<path fill="none" stroke="midnightblue" d="M1237.19,-112.444C1216.71,-103.596 1184.52,-89.6875 1161.14,-79.5865"/>
<polygon fill="midnightblue" stroke="midnightblue" points="1162.28,-76.2692 1151.71,-75.5164 1159.51,-82.6953 1162.28,-76.2692"/>
</g>
<!-- Node11&#45;&gt;Node6 -->
<g id="edge15" class="edge"><title>Node11&#45;&gt;Node6</title>
<path fill="none" stroke="midnightblue" d="M319.493,-168.444C358.552,-159.028 421.391,-143.879 463.662,-133.689"/>
<polygon fill="midnightblue" stroke="midnightblue" points="464.507,-137.085 473.409,-131.339 462.867,-130.28 464.507,-137.085"/>
</g>
<!-- Node11&#45;&gt;Node12 -->
<g id="edge11" class="edge"><title>Node11&#45;&gt;Node12</title>
<path fill="none" stroke="midnightblue" d="M279.872,-168.083C276.486,-160.77 271.584,-150.181 267.381,-141.103"/>
<polygon fill="midnightblue" stroke="midnightblue" points="270.429,-139.355 263.051,-131.751 264.077,-142.296 270.429,-139.355"/>
</g>
<!-- Node12&#45;&gt;Node8 -->
<g id="edge14" class="edge"><title>Node12&#45;&gt;Node8</title>
<path fill="none" stroke="midnightblue" d="M262.344,-112.197C265.554,-103.24 270.176,-88.8827 272,-76 274.243,-60.1544 270.213,-42.3436 266.063,-29.3784"/>
<polygon fill="midnightblue" stroke="midnightblue" points="269.306,-28.0481 262.685,-19.7769 262.703,-30.3717 269.306,-28.0481"/>
</g>
<!-- Node13 -->
<g id="node13" class="node"><title>Node13</title>
<g id="a_node13"><a xlink:href="dji__error_8hpp.html" target="_top" xlink:title="All DJI OSDK OpenProtocol ACK Error Codes. ">
<polygon fill="white" stroke="black" points="193,-56.5 193,-75.5 263,-75.5 263,-56.5 193,-56.5"/>
<text text-anchor="middle" x="228" y="-63.5" font-family="Helvetica,sans-Serif" font-size="10.00">dji_error.hpp</text>
</a>
</g>
</g>
<!-- Node12&#45;&gt;Node13 -->
<g id="edge12" class="edge"><title>Node12&#45;&gt;Node13</title>
<path fill="none" stroke="midnightblue" d="M253.881,-112.083C249.592,-104.613 243.342,-93.7244 238.058,-84.5199"/>
<polygon fill="midnightblue" stroke="midnightblue" points="241.038,-82.6811 233.024,-75.7511 234.967,-86.1662 241.038,-82.6811"/>
</g>
<!-- Node13&#45;&gt;Node8 -->
<g id="edge13" class="edge"><title>Node13&#45;&gt;Node8</title>
<path fill="none" stroke="midnightblue" d="M233.119,-56.083C237.408,-48.6127 243.658,-37.7244 248.942,-28.5199"/>
<polygon fill="midnightblue" stroke="midnightblue" points="252.033,-30.1662 253.976,-19.7511 245.962,-26.6811 252.033,-30.1662"/>
</g>
<!-- Node15&#45;&gt;Node6 -->
<g id="edge29" class="edge"><title>Node15&#45;&gt;Node6</title>
<path fill="none" stroke="midnightblue" d="M658.115,-280.497C633.806,-273.758 603.246,-262.348 581,-244 546.899,-215.873 524.639,-167.401 514.444,-141.155"/>
<polygon fill="midnightblue" stroke="midnightblue" points="517.687,-139.834 510.918,-131.683 511.127,-142.276 517.687,-139.834"/>
</g>
<!-- Node15&#45;&gt;Node9 -->
<g id="edge30" class="edge"><title>Node15&#45;&gt;Node9</title>
<path fill="none" stroke="midnightblue" d="M725.474,-280.443C751.297,-272.107 790.83,-258.588 824,-244 824.518,-243.772 967.463,-168.178 968,-168 1039.99,-144.139 1126.35,-132.803 1185.81,-127.499"/>
<polygon fill="midnightblue" stroke="midnightblue" points="1186.19,-130.98 1195.85,-126.638 1185.59,-124.005 1186.19,-130.98"/>
</g>
<!-- Node15&#45;&gt;Node10 -->
<g id="edge28" class="edge"><title>Node15&#45;&gt;Node10</title>
<path fill="none" stroke="midnightblue" d="M698.658,-280.16C700.046,-266.803 704.285,-241.21 717,-224 730.441,-205.807 781.533,-177.63 802,-168 896.496,-123.539 1015.3,-92.8002 1081.5,-77.7091"/>
<polygon fill="midnightblue" stroke="midnightblue" points="1082.28,-81.1207 1091.27,-75.509 1080.74,-74.2917 1082.28,-81.1207"/>
</g>
<!-- Node16 -->
<g id="node16" class="node"><title>Node16</title>
<g id="a_node16"><a xlink:href="dji__ack_8hpp.html" target="_top" xlink:title="All DJI OSDK ACK parsing. ">
<polygon fill="white" stroke="black" points="590,-224.5 590,-243.5 656,-243.5 656,-224.5 590,-224.5"/>
<text text-anchor="middle" x="623" y="-231.5" font-family="Helvetica,sans-Serif" font-size="10.00">dji_ack.hpp</text>
</a>
</g>
</g>
<!-- Node15&#45;&gt;Node16 -->
<g id="edge19" class="edge"><title>Node15&#45;&gt;Node16</title>
<path fill="none" stroke="midnightblue" d="M685.95,-280.324C674.537,-272.107 657.169,-259.602 643.565,-249.807"/>
<polygon fill="midnightblue" stroke="midnightblue" points="645.43,-246.837 635.269,-243.834 641.34,-252.517 645.43,-246.837"/>
</g>
<!-- Node16&#45;&gt;Node6 -->
<g id="edge23" class="edge"><title>Node16&#45;&gt;Node6</title>
<path fill="none" stroke="midnightblue" d="M637.795,-224.355C657.271,-211.879 687.339,-188.115 672,-168 657.539,-149.036 596.02,-136.087 552.594,-129.112"/>
<polygon fill="midnightblue" stroke="midnightblue" points="552.951,-125.626 542.533,-127.55 551.877,-132.543 552.951,-125.626"/>
</g>
<!-- Node16&#45;&gt;Node12 -->
<g id="edge20" class="edge"><title>Node16&#45;&gt;Node12</title>
<path fill="none" stroke="midnightblue" d="M589.82,-231.652C499.888,-227.661 256.61,-214.49 233,-188 220.678,-174.174 232.236,-153.779 243.612,-139.533"/>
<polygon fill="midnightblue" stroke="midnightblue" points="246.591,-141.436 250.456,-131.571 241.283,-136.872 246.591,-141.436"/>
</g>
<!-- Node17 -->
<g id="node17" class="node"><title>Node17</title>
<g id="a_node17"><a xlink:href="dji__mission__type_8hpp_source.html" target="_top" xlink:title="dji_mission_type.hpp">
<polygon fill="white" stroke="black" points="555,-168.5 555,-187.5 663,-187.5 663,-168.5 555,-168.5"/>
<text text-anchor="middle" x="609" y="-175.5" font-family="Helvetica,sans-Serif" font-size="10.00">dji_mission_type.hpp</text>
</a>
</g>
</g>
<!-- Node16&#45;&gt;Node17 -->
<g id="edge21" class="edge"><title>Node16&#45;&gt;Node17</title>
<path fill="none" stroke="midnightblue" d="M620.688,-224.083C618.833,-216.927 616.165,-206.635 613.846,-197.691"/>
<polygon fill="midnightblue" stroke="midnightblue" points="617.166,-196.553 611.269,-187.751 610.391,-198.309 617.166,-196.553"/>
</g>
<!-- Node16&#45;&gt;Node18 -->
<g id="edge24" class="edge"><title>Node16&#45;&gt;Node18</title>
<path fill="none" stroke="midnightblue" d="M589.745,-230.103C518.266,-223.736 344.731,-207.524 200,-188 198.732,-187.829 197.449,-187.652 196.155,-187.469"/>
<polygon fill="midnightblue" stroke="midnightblue" points="196.512,-183.984 186.108,-185.986 195.489,-190.909 196.512,-183.984"/>
</g>
<!-- Node19 -->
<g id="node19" class="node"><title>Node19</title>
<polygon fill="white" stroke="#bfbfbf" points="719.5,-168.5 719.5,-187.5 754.5,-187.5 754.5,-168.5 719.5,-168.5"/>
<text text-anchor="middle" x="737" y="-175.5" font-family="Helvetica,sans-Serif" font-size="10.00">map</text>
</g>
<!-- Node16&#45;&gt;Node19 -->
<g id="edge27" class="edge"><title>Node16&#45;&gt;Node19</title>
<path fill="none" stroke="midnightblue" d="M641.064,-224.444C659.684,-215.624 688.922,-201.774 710.23,-191.68"/>
<polygon fill="midnightblue" stroke="midnightblue" points="711.856,-194.783 719.395,-187.339 708.86,-188.457 711.856,-194.783"/>
</g>
<!-- Node17&#45;&gt;Node6 -->
<g id="edge22" class="edge"><title>Node17&#45;&gt;Node6</title>
<path fill="none" stroke="midnightblue" d="M592.773,-168.324C576.649,-159.703 551.7,-146.364 533.036,-136.386"/>
<polygon fill="midnightblue" stroke="midnightblue" points="534.656,-133.283 524.187,-131.655 531.356,-139.456 534.656,-133.283"/>
</g>
<!-- Node18&#45;&gt;Node3 -->
<g id="edge26" class="edge"><title>Node18&#45;&gt;Node3</title>
<path fill="none" stroke="midnightblue" d="M137.239,-168.083C130.463,-160.298 120.457,-148.801 112.245,-139.367"/>
<polygon fill="midnightblue" stroke="midnightblue" points="114.822,-136.996 105.617,-131.751 109.542,-141.592 114.822,-136.996"/>
</g>
<!-- Node18&#45;&gt;Node12 -->
<g id="edge25" class="edge"><title>Node18&#45;&gt;Node12</title>
<path fill="none" stroke="midnightblue" d="M163.064,-168.444C181.575,-159.675 210.581,-145.935 231.855,-135.858"/>
<polygon fill="midnightblue" stroke="midnightblue" points="233.482,-138.96 241.021,-131.516 230.485,-132.634 233.482,-138.96"/>
</g>
<!-- Node20&#45;&gt;Node6 -->
<g id="edge33" class="edge"><title>Node20&#45;&gt;Node6</title>
<path fill="none" stroke="midnightblue" d="M402.807,-168.444C423.287,-159.596 455.483,-145.687 478.865,-135.586"/>
<polygon fill="midnightblue" stroke="midnightblue" points="480.494,-138.695 488.286,-131.516 477.718,-132.269 480.494,-138.695"/>
</g>
<!-- Node20&#45;&gt;Node12 -->
<g id="edge32" class="edge"><title>Node20&#45;&gt;Node12</title>
<path fill="none" stroke="midnightblue" d="M363.352,-168.444C343.035,-159.596 311.097,-145.687 287.902,-135.586"/>
<polygon fill="midnightblue" stroke="midnightblue" points="289.122,-132.3 278.556,-131.516 286.327,-138.718 289.122,-132.3"/>
</g>
<!-- Node22&#45;&gt;Node6 -->
<g id="edge36" class="edge"><title>Node22&#45;&gt;Node6</title>
<path fill="none" stroke="midnightblue" d="M545.812,-280.435C534.828,-272.469 519.906,-259.514 513,-244 498.089,-210.505 501.172,-166.498 504.654,-141.841"/>
<polygon fill="midnightblue" stroke="midnightblue" points="508.152,-142.127 506.268,-131.701 501.239,-141.027 508.152,-142.127"/>
</g>
<!-- Node23&#45;&gt;Node9 -->
<g id="edge38" class="edge"><title>Node23&#45;&gt;Node9</title>
<path fill="none" stroke="midnightblue" d="M1315.06,-224.368C1304.71,-206.296 1280.58,-164.176 1266.91,-140.307"/>
<polygon fill="midnightblue" stroke="midnightblue" points="1269.93,-138.53 1261.92,-131.591 1263.85,-142.008 1269.93,-138.53"/>
</g>
<!-- Node25 -->
<g id="node25" class="node"><title>Node25</title>
<g id="a_node25"><a xlink:href="dji__hotpoint_8hpp.html" target="_top" xlink:title="Implementation of HotPoint (Point of Interest) Missions for DJI OSDK. ">
<polygon fill="white" stroke="black" points="872.5,-224.5 872.5,-243.5 957.5,-243.5 957.5,-224.5 872.5,-224.5"/>
<text text-anchor="middle" x="915" y="-231.5" font-family="Helvetica,sans-Serif" font-size="10.00">dji_hotpoint.hpp</text>
</a>
</g>
</g>
<!-- Node24&#45;&gt;Node25 -->
<g id="edge40" class="edge"><title>Node24&#45;&gt;Node25</title>
<path fill="none" stroke="midnightblue" d="M874.926,-280.083C881.846,-272.298 892.065,-260.801 900.452,-251.367"/>
<polygon fill="midnightblue" stroke="midnightblue" points="903.194,-253.55 907.221,-243.751 897.962,-248.9 903.194,-253.55"/>
</g>
<!-- Node27 -->
<g id="node27" class="node"><title>Node27</title>
<g id="a_node27"><a xlink:href="dji__waypoint_8hpp.html" target="_top" xlink:title="Implementation of GPS Waypoint Missions for DJI OSDK. ">
<polygon fill="white" stroke="black" points="726.5,-224.5 726.5,-243.5 815.5,-243.5 815.5,-224.5 726.5,-224.5"/>
<text text-anchor="middle" x="771" y="-231.5" font-family="Helvetica,sans-Serif" font-size="10.00">dji_waypoint.hpp</text>
</a>
</g>
</g>
<!-- Node24&#45;&gt;Node27 -->
<g id="edge46" class="edge"><title>Node24&#45;&gt;Node27</title>
<path fill="none" stroke="midnightblue" d="M851.576,-280.324C836.46,-271.822 813.185,-258.729 795.529,-248.797"/>
<polygon fill="midnightblue" stroke="midnightblue" points="796.817,-245.507 786.386,-243.655 793.386,-251.608 796.817,-245.507"/>
</g>
<!-- Node25&#45;&gt;Node5 -->
<g id="edge45" class="edge"><title>Node25&#45;&gt;Node5</title>
<path fill="none" stroke="midnightblue" d="M932.352,-224.324C949.672,-215.664 976.515,-202.242 996.502,-192.249"/>
<polygon fill="midnightblue" stroke="midnightblue" points="998.312,-195.257 1005.69,-187.655 995.181,-188.996 998.312,-195.257"/>
</g>
<!-- Node26 -->
<g id="node26" class="node"><title>Node26</title>
<g id="a_node26"><a xlink:href="dji__mission__base_8hpp.html" target="_top" xlink:title="Mission&#45;Base abstract class for DJI OSDK library. ">
<polygon fill="white" stroke="black" points="811,-168.5 811,-187.5 921,-187.5 921,-168.5 811,-168.5"/>
<text text-anchor="middle" x="866" y="-175.5" font-family="Helvetica,sans-Serif" font-size="10.00">dji_mission_base.hpp</text>
</a>
</g>
</g>
<!-- Node25&#45;&gt;Node26 -->
<g id="edge41" class="edge"><title>Node25&#45;&gt;Node26</title>
<path fill="none" stroke="midnightblue" d="M906.909,-224.083C899.845,-216.298 889.412,-204.801 880.851,-195.367"/>
<polygon fill="midnightblue" stroke="midnightblue" points="883.253,-192.805 873.941,-187.751 878.069,-197.509 883.253,-192.805"/>
</g>
<!-- Node26&#45;&gt;Node6 -->
<g id="edge43" class="edge"><title>Node26&#45;&gt;Node6</title>
<path fill="none" stroke="midnightblue" d="M810.847,-168.681C739.914,-157.981 618.088,-139.605 552.656,-129.736"/>
<polygon fill="midnightblue" stroke="midnightblue" points="553.066,-126.258 542.656,-128.227 552.022,-133.18 553.066,-126.258"/>
</g>
<!-- Node26&#45;&gt;Node9 -->
<g id="edge44" class="edge"><title>Node26&#45;&gt;Node9</title>
<path fill="none" stroke="midnightblue" d="M921.191,-169.378C990.595,-159.793 1109.86,-143.321 1185.99,-132.806"/>
<polygon fill="midnightblue" stroke="midnightblue" points="1186.55,-136.263 1195.98,-131.427 1185.59,-129.329 1186.55,-136.263"/>
</g>
<!-- Node26&#45;&gt;Node12 -->
<g id="edge42" class="edge"><title>Node26&#45;&gt;Node12</title>
<path fill="none" stroke="midnightblue" d="M810.793,-172.089C695.899,-161.867 432.12,-138.401 315.835,-128.056"/>
<polygon fill="midnightblue" stroke="midnightblue" points="315.988,-124.556 305.717,-127.156 315.367,-131.528 315.988,-124.556"/>
</g>
<!-- Node27&#45;&gt;Node26 -->
<g id="edge47" class="edge"><title>Node27&#45;&gt;Node26</title>
<path fill="none" stroke="midnightblue" d="M786.263,-224.324C801.221,-215.822 824.255,-202.729 841.727,-192.797"/>
<polygon fill="midnightblue" stroke="midnightblue" points="843.81,-195.639 850.774,-187.655 840.351,-189.553 843.81,-195.639"/>
</g>
<!-- Node28&#45;&gt;Node9 -->
<g id="edge49" class="edge"><title>Node28&#45;&gt;Node9</title>
<path fill="none" stroke="midnightblue" d="M1432.09,-224.368C1399.21,-205.332 1320.24,-159.615 1280.58,-136.65"/>
<polygon fill="midnightblue" stroke="midnightblue" points="1282.25,-133.573 1271.84,-131.591 1278.74,-139.631 1282.25,-133.573"/>
</g>
<!-- Node29&#45;&gt;Node8 -->
<g id="edge52" class="edge"><title>Node29&#45;&gt;Node8</title>
<path fill="none" stroke="midnightblue" d="M98.2645,-56.4435C132.539,-46.7534 188.287,-30.9921 224.296,-20.8115"/>
<polygon fill="midnightblue" stroke="midnightblue" points="225.673,-24.0596 234.343,-17.971 223.768,-17.3236 225.673,-24.0596"/>
</g>
<!-- Node30&#45;&gt;Node5 -->
<g id="edge55" class="edge"><title>Node30&#45;&gt;Node5</title>
<path fill="none" stroke="midnightblue" d="M1152.6,-224.444C1126.8,-215.399 1085.92,-201.064 1056.98,-190.916"/>
<polygon fill="midnightblue" stroke="midnightblue" points="1057.88,-187.523 1047.29,-187.516 1055.57,-194.128 1057.88,-187.523"/>
</g>
<!-- Node30&#45;&gt;Node9 -->
<g id="edge56" class="edge"><title>Node30&#45;&gt;Node9</title>
<path fill="none" stroke="midnightblue" d="M1183.28,-224.368C1196.48,-206.215 1227.33,-163.802 1244.64,-139.99"/>
<polygon fill="midnightblue" stroke="midnightblue" points="1247.7,-141.737 1250.75,-131.591 1242.04,-137.62 1247.7,-141.737"/>
</g>
<!-- Node30&#45;&gt;Node10 -->
<g id="edge54" class="edge"><title>Node30&#45;&gt;Node10</title>
<path fill="none" stroke="midnightblue" d="M1174.58,-224.075C1167.5,-197.945 1146.7,-121.211 1137.04,-85.577"/>
<polygon fill="midnightblue" stroke="midnightblue" points="1140.32,-84.304 1134.32,-75.5681 1133.56,-86.1355 1140.32,-84.304"/>
</g>
</g>
</svg>
