<?xml version="1.0" encoding="UTF-8" standalone="no"?>
<!DOCTYPE svg PUBLIC "-//W3C//DTD SVG 1.1//EN"
 "http://www.w3.org/Graphics/SVG/1.1/DTD/svg11.dtd">
<!-- Generated by graphviz version 2.38.0 (20140413.2041)
 -->
<!-- Title: osdk&#45;core/api/src/dji_control.cpp Pages: 1 -->
<svg width="1605pt" height="431pt"
 viewBox="0.00 0.00 1605.10 431.00" xmlns="http://www.w3.org/2000/svg" xmlns:xlink="http://www.w3.org/1999/xlink">
<g id="graph0" class="graph" transform="scale(1 1) rotate(0) translate(4 427)">
<title>osdk&#45;core/api/src/dji_control.cpp</title>
<polygon fill="white" stroke="none" points="-4,4 -4,-427 1601.1,-427 1601.1,4 -4,4"/>
<!-- Node1 -->
<g id="node1" class="node"><title>Node1</title>
<polygon fill="#bfbfbf" stroke="black" points="710,-392.5 710,-422.5 814,-422.5 814,-392.5 710,-392.5"/>
<text text-anchor="start" x="718" y="-410.5" font-family="Helvetica,sans-Serif" font-size="10.00">osdk&#45;core/api/src/dji</text>
<text text-anchor="middle" x="762" y="-399.5" font-family="Helvetica,sans-Serif" font-size="10.00">_control.cpp</text>
</g>
<!-- Node2 -->
<g id="node2" class="node"><title>Node2</title>
<g id="a_node2"><a xlink:href="dji__control_8hpp.html" target="_top" xlink:title="Control API for DJI OSDK library. ">
<polygon fill="white" stroke="black" points="186,-280.5 186,-299.5 266,-299.5 266,-280.5 186,-280.5"/>
<text text-anchor="middle" x="226" y="-287.5" font-family="Helvetica,sans-Serif" font-size="10.00">dji_control.hpp</text>
</a>
</g>
</g>
<!-- Node1&#45;&gt;Node2 -->
<g id="edge1" class="edge"><title>Node1&#45;&gt;Node2</title>
<path fill="none" stroke="midnightblue" d="M709.63,-395.215C606.105,-372.907 376.561,-323.444 275.453,-301.656"/>
<polygon fill="midnightblue" stroke="midnightblue" points="276.014,-298.197 265.501,-299.512 274.539,-305.04 276.014,-298.197"/>
</g>
<!-- Node15 -->
<g id="node15" class="node"><title>Node15</title>
<g id="a_node15"><a xlink:href="dji__vehicle_8hpp.html" target="_top" xlink:title="Vehicle API for DJI onboardSDK library. ">
<polygon fill="white" stroke="black" points="914.5,-336.5 914.5,-355.5 995.5,-355.5 995.5,-336.5 914.5,-336.5"/>
<text text-anchor="middle" x="955" y="-343.5" font-family="Helvetica,sans-Serif" font-size="10.00">dji_vehicle.hpp</text>
</a>
</g>
</g>
<!-- Node1&#45;&gt;Node15 -->
<g id="edge20" class="edge"><title>Node1&#45;&gt;Node15</title>
<path fill="none" stroke="midnightblue" d="M807.738,-392.399C841.233,-382.073 886.134,-368.231 917.516,-358.556"/>
<polygon fill="midnightblue" stroke="midnightblue" points="918.673,-361.862 927.199,-355.571 916.611,-355.172 918.673,-361.862"/>
</g>
<!-- Node3 -->
<g id="node3" class="node"><title>Node3</title>
<g id="a_node3"><a xlink:href="dji__ack_8hpp.html" target="_top" xlink:title="All DJI OSDK ACK parsing. ">
<polygon fill="white" stroke="black" points="196,-224.5 196,-243.5 262,-243.5 262,-224.5 196,-224.5"/>
<text text-anchor="middle" x="229" y="-231.5" font-family="Helvetica,sans-Serif" font-size="10.00">dji_ack.hpp</text>
</a>
</g>
</g>
<!-- Node2&#45;&gt;Node3 -->
<g id="edge2" class="edge"><title>Node2&#45;&gt;Node3</title>
<path fill="none" stroke="midnightblue" d="M226.495,-280.083C226.889,-273.006 227.452,-262.861 227.945,-253.986"/>
<polygon fill="midnightblue" stroke="midnightblue" points="231.454,-253.93 228.514,-243.751 224.464,-253.542 231.454,-253.93"/>
</g>
<!-- Node8 -->
<g id="node8" class="node"><title>Node8</title>
<g id="a_node8"><a xlink:href="dji__type_8hpp.html" target="_top" xlink:title="Data type and Data Structure definitions for use throughout DJI OSDK. ">
<polygon fill="white" stroke="black" points="300.5,-112.5 300.5,-131.5 369.5,-131.5 369.5,-112.5 300.5,-112.5"/>
<text text-anchor="middle" x="335" y="-119.5" font-family="Helvetica,sans-Serif" font-size="10.00">dji_type.hpp</text>
</a>
</g>
</g>
<!-- Node2&#45;&gt;Node8 -->
<g id="edge17" class="edge"><title>Node2&#45;&gt;Node8</title>
<path fill="none" stroke="midnightblue" d="M192.606,-280.393C131.455,-263.093 11.7426,-221.172 57,-168 86.3888,-133.472 219.124,-125.354 290.025,-123.503"/>
<polygon fill="midnightblue" stroke="midnightblue" points="290.515,-126.992 300.432,-123.264 290.355,-119.994 290.515,-126.992"/>
</g>
<!-- Node13 -->
<g id="node13" class="node"><title>Node13</title>
<polygon fill="white" stroke="#bfbfbf" points="1086.5,-56.5 1086.5,-75.5 1197.5,-75.5 1197.5,-56.5 1086.5,-56.5"/>
<text text-anchor="middle" x="1142" y="-63.5" font-family="Helvetica,sans-Serif" font-size="10.00">dji_open_protocol.hpp</text>
</g>
<!-- Node2&#45;&gt;Node13 -->
<g id="edge16" class="edge"><title>Node2&#45;&gt;Node13</title>
<path fill="none" stroke="midnightblue" d="M185.717,-287.905C149.525,-284.815 97.1245,-274.819 64,-244 38.4285,-220.208 22.2031,-195.292 44,-168 108.636,-87.0687 848.736,-70.7912 1076.02,-67.6926"/>
<polygon fill="midnightblue" stroke="midnightblue" points="1076.18,-71.1909 1086.13,-67.5588 1076.09,-64.1915 1076.18,-71.1909"/>
</g>
<!-- Node14 -->
<g id="node14" class="node"><title>Node14</title>
<g id="a_node14"><a xlink:href="dji__vehicle__callback_8hpp.html" target="_top" xlink:title="Type definition for new Vehicle&#45;style callbacks. ">
<polygon fill="white" stroke="black" points="1126,-112.5 1126,-131.5 1248,-131.5 1248,-112.5 1126,-112.5"/>
<text text-anchor="middle" x="1187" y="-119.5" font-family="Helvetica,sans-Serif" font-size="10.00">dji_vehicle_callback.hpp</text>
</a>
</g>
</g>
<!-- Node2&#45;&gt;Node14 -->
<g id="edge18" class="edge"><title>Node2&#45;&gt;Node14</title>
<path fill="none" stroke="midnightblue" d="M266.136,-285.149C373.932,-274.782 662.297,-246.866 672,-244 690.682,-238.482 693.063,-231.597 711,-224 756.814,-204.596 771.289,-207.647 817,-188 834.534,-180.464 836.822,-173.815 855,-168 942.079,-140.145 1047.39,-129.531 1115.71,-125.487"/>
<polygon fill="midnightblue" stroke="midnightblue" points="1116.14,-128.969 1125.93,-124.915 1115.75,-121.98 1116.14,-128.969"/>
</g>
<!-- Node4 -->
<g id="node4" class="node"><title>Node4</title>
<g id="a_node4"><a xlink:href="dji__command_8hpp.html" target="_top" xlink:title="All DJI OSDK OpenProtocol Command IDs. ">
<polygon fill="white" stroke="black" points="487.5,-112.5 487.5,-131.5 580.5,-131.5 580.5,-112.5 487.5,-112.5"/>
<text text-anchor="middle" x="534" y="-119.5" font-family="Helvetica,sans-Serif" font-size="10.00">dji_command.hpp</text>
</a>
</g>
</g>
<!-- Node3&#45;&gt;Node4 -->
<g id="edge3" class="edge"><title>Node3&#45;&gt;Node4</title>
<path fill="none" stroke="midnightblue" d="M262.25,-231.139C307.193,-227.566 388.952,-217.274 452,-188 478.098,-175.883 503.291,-153.877 518.71,-138.858"/>
<polygon fill="midnightblue" stroke="midnightblue" points="521.24,-141.277 525.834,-131.73 516.289,-136.329 521.24,-141.277"/>
</g>
<!-- Node7 -->
<g id="node7" class="node"><title>Node7</title>
<g id="a_node7"><a xlink:href="dji__mission__type_8hpp_source.html" target="_top" xlink:title="dji_mission_type.hpp">
<polygon fill="white" stroke="black" points="120,-168.5 120,-187.5 228,-187.5 228,-168.5 120,-168.5"/>
<text text-anchor="middle" x="174" y="-175.5" font-family="Helvetica,sans-Serif" font-size="10.00">dji_mission_type.hpp</text>
</a>
</g>
</g>
<!-- Node3&#45;&gt;Node7 -->
<g id="edge7" class="edge"><title>Node3&#45;&gt;Node7</title>
<path fill="none" stroke="midnightblue" d="M219.918,-224.083C211.829,-216.141 199.805,-204.335 190.09,-194.797"/>
<polygon fill="midnightblue" stroke="midnightblue" points="192.501,-192.26 182.913,-187.751 187.597,-197.254 192.501,-192.26"/>
</g>
<!-- Node3&#45;&gt;Node8 -->
<g id="edge11" class="edge"><title>Node3&#45;&gt;Node8</title>
<path fill="none" stroke="midnightblue" d="M235.038,-224.091C244.058,-211.085 261.931,-186.442 280,-168 290.764,-157.013 304.089,-146.055 314.926,-137.703"/>
<polygon fill="midnightblue" stroke="midnightblue" points="317.119,-140.433 322.989,-131.613 312.899,-134.848 317.119,-140.433"/>
</g>
<!-- Node10 -->
<g id="node10" class="node"><title>Node10</title>
<g id="a_node10"><a xlink:href="dji__version_8hpp.html" target="_top" xlink:title="Drone/SDK Version definition for DJI onboardSDK library. ">
<polygon fill="white" stroke="black" points="726,-168.5 726,-187.5 808,-187.5 808,-168.5 726,-168.5"/>
<text text-anchor="middle" x="767" y="-175.5" font-family="Helvetica,sans-Serif" font-size="10.00">dji_version.hpp</text>
</a>
</g>
</g>
<!-- Node3&#45;&gt;Node10 -->
<g id="edge12" class="edge"><title>Node3&#45;&gt;Node10</title>
<path fill="none" stroke="midnightblue" d="M262.247,-230.926C339.849,-225.874 539.121,-211.675 715.846,-188.048"/>
<polygon fill="midnightblue" stroke="midnightblue" points="716.402,-191.505 725.844,-186.698 715.465,-184.568 716.402,-191.505"/>
</g>
<!-- Node12 -->
<g id="node12" class="node"><title>Node12</title>
<polygon fill="white" stroke="#bfbfbf" points="66.5,-168.5 66.5,-187.5 101.5,-187.5 101.5,-168.5 66.5,-168.5"/>
<text text-anchor="middle" x="84" y="-175.5" font-family="Helvetica,sans-Serif" font-size="10.00">map</text>
</g>
<!-- Node3&#45;&gt;Node12 -->
<g id="edge15" class="edge"><title>Node3&#45;&gt;Node12</title>
<path fill="none" stroke="midnightblue" d="M206.024,-224.444C180.278,-214.855 138.572,-199.323 111.214,-189.135"/>
<polygon fill="midnightblue" stroke="midnightblue" points="112.433,-185.854 101.84,-185.644 109.99,-192.414 112.433,-185.854"/>
</g>
<!-- Node5 -->
<g id="node5" class="node"><title>Node5</title>
<g id="a_node5"><a xlink:href="dji__error_8hpp.html" target="_top" xlink:title="All DJI OSDK OpenProtocol ACK Error Codes. ">
<polygon fill="white" stroke="black" points="496,-56.5 496,-75.5 566,-75.5 566,-56.5 496,-56.5"/>
<text text-anchor="middle" x="531" y="-63.5" font-family="Helvetica,sans-Serif" font-size="10.00">dji_error.hpp</text>
</a>
</g>
</g>
<!-- Node4&#45;&gt;Node5 -->
<g id="edge4" class="edge"><title>Node4&#45;&gt;Node5</title>
<path fill="none" stroke="midnightblue" d="M533.505,-112.083C533.111,-105.006 532.548,-94.8611 532.055,-85.9865"/>
<polygon fill="midnightblue" stroke="midnightblue" points="535.536,-85.5415 531.486,-75.7511 528.546,-85.9299 535.536,-85.5415"/>
</g>
<!-- Node6 -->
<g id="node6" class="node"><title>Node6</title>
<polygon fill="white" stroke="#bfbfbf" points="371.5,-0.5 371.5,-19.5 420.5,-19.5 420.5,-0.5 371.5,-0.5"/>
<text text-anchor="middle" x="396" y="-7.5" font-family="Helvetica,sans-Serif" font-size="10.00">stdint.h</text>
</g>
<!-- Node4&#45;&gt;Node6 -->
<g id="edge6" class="edge"><title>Node4&#45;&gt;Node6</title>
<path fill="none" stroke="midnightblue" d="M523.171,-112.368C499.692,-93.6531 443.862,-49.1509 414.608,-25.8324"/>
<polygon fill="midnightblue" stroke="midnightblue" points="416.78,-23.0877 406.778,-19.5914 412.416,-28.5615 416.78,-23.0877"/>
</g>
<!-- Node5&#45;&gt;Node6 -->
<g id="edge5" class="edge"><title>Node5&#45;&gt;Node6</title>
<path fill="none" stroke="midnightblue" d="M509.609,-56.4435C487.293,-47.5171 452.097,-33.4387 426.792,-23.3168"/>
<polygon fill="midnightblue" stroke="midnightblue" points="427.876,-19.9807 417.291,-19.5164 425.276,-26.4801 427.876,-19.9807"/>
</g>
<!-- Node7&#45;&gt;Node8 -->
<g id="edge8" class="edge"><title>Node7&#45;&gt;Node8</title>
<path fill="none" stroke="midnightblue" d="M199.511,-168.444C226.596,-159.359 269.59,-144.939 299.869,-134.783"/>
<polygon fill="midnightblue" stroke="midnightblue" points="301.24,-138.015 309.608,-131.516 299.014,-131.378 301.24,-138.015"/>
</g>
<!-- Node8&#45;&gt;Node6 -->
<g id="edge10" class="edge"><title>Node8&#45;&gt;Node6</title>
<path fill="none" stroke="midnightblue" d="M336.261,-112.078C338.389,-99.054 343.528,-74.3898 354,-56 360.252,-45.0217 369.686,-34.5864 378.03,-26.5338"/>
<polygon fill="midnightblue" stroke="midnightblue" points="380.571,-28.9518 385.557,-19.6034 375.83,-23.8023 380.571,-28.9518"/>
</g>
<!-- Node9 -->
<g id="node9" class="node"><title>Node9</title>
<polygon fill="white" stroke="#bfbfbf" points="363.5,-56.5 363.5,-75.5 406.5,-75.5 406.5,-56.5 363.5,-56.5"/>
<text text-anchor="middle" x="385" y="-63.5" font-family="Helvetica,sans-Serif" font-size="10.00">cstdio</text>
</g>
<!-- Node8&#45;&gt;Node9 -->
<g id="edge9" class="edge"><title>Node8&#45;&gt;Node9</title>
<path fill="none" stroke="midnightblue" d="M343.256,-112.083C350.465,-104.298 361.11,-92.8015 369.846,-83.3665"/>
<polygon fill="midnightblue" stroke="midnightblue" points="372.671,-85.4666 376.897,-75.7511 367.535,-80.7108 372.671,-85.4666"/>
</g>
<!-- Node10&#45;&gt;Node4 -->
<g id="edge13" class="edge"><title>Node10&#45;&gt;Node4</title>
<path fill="none" stroke="midnightblue" d="M730.08,-168.444C689.605,-159.063 624.579,-143.993 580.616,-133.804"/>
<polygon fill="midnightblue" stroke="midnightblue" points="581.279,-130.365 570.747,-131.516 579.698,-137.184 581.279,-130.365"/>
</g>
<!-- Node11 -->
<g id="node11" class="node"><title>Node11</title>
<polygon fill="white" stroke="#bfbfbf" points="884,-112.5 884,-131.5 930,-131.5 930,-112.5 884,-112.5"/>
<text text-anchor="middle" x="907" y="-119.5" font-family="Helvetica,sans-Serif" font-size="10.00">cstdint</text>
</g>
<!-- Node10&#45;&gt;Node11 -->
<g id="edge14" class="edge"><title>Node10&#45;&gt;Node11</title>
<path fill="none" stroke="midnightblue" d="M789.183,-168.444C812.428,-159.478 849.149,-145.314 875.415,-135.183"/>
<polygon fill="midnightblue" stroke="midnightblue" points="876.85,-138.381 884.92,-131.516 874.331,-131.85 876.85,-138.381"/>
</g>
<!-- Node14&#45;&gt;Node13 -->
<g id="edge19" class="edge"><title>Node14&#45;&gt;Node13</title>
<path fill="none" stroke="midnightblue" d="M1179.57,-112.083C1173.15,-104.377 1163.69,-93.0333 1155.88,-83.6531"/>
<polygon fill="midnightblue" stroke="midnightblue" points="1158.38,-81.1927 1149.29,-75.7511 1153.01,-85.674 1158.38,-81.1927"/>
</g>
<!-- Node15&#45;&gt;Node2 -->
<g id="edge31" class="edge"><title>Node15&#45;&gt;Node2</title>
<path fill="none" stroke="midnightblue" d="M914.166,-343.681C808.837,-339.975 519.445,-327.867 280,-300 278.726,-299.852 277.435,-299.694 276.135,-299.528"/>
<polygon fill="midnightblue" stroke="midnightblue" points="276.429,-296.036 266.042,-298.125 275.465,-302.969 276.429,-296.036"/>
</g>
<!-- Node15&#45;&gt;Node4 -->
<g id="edge30" class="edge"><title>Node15&#45;&gt;Node4</title>
<path fill="none" stroke="midnightblue" d="M959.206,-336.221C972.171,-307.739 1008.07,-216.923 964,-168 939.459,-140.757 701.864,-128.885 590.753,-124.791"/>
<polygon fill="midnightblue" stroke="midnightblue" points="590.847,-121.292 580.727,-124.43 590.595,-128.288 590.847,-121.292"/>
</g>
<!-- Node15&#45;&gt;Node8 -->
<g id="edge59" class="edge"><title>Node15&#45;&gt;Node8</title>
<path fill="none" stroke="midnightblue" d="M914.196,-345.238C780.708,-345.594 363.249,-343.217 323,-300 282.115,-256.1 310.39,-176.542 326.253,-140.997"/>
<polygon fill="midnightblue" stroke="midnightblue" points="329.471,-142.378 330.51,-131.835 323.122,-139.429 329.471,-142.378"/>
</g>
<!-- Node15&#45;&gt;Node10 -->
<g id="edge61" class="edge"><title>Node15&#45;&gt;Node10</title>
<path fill="none" stroke="midnightblue" d="M945.157,-336.309C914.954,-309.64 823.305,-228.716 784.575,-194.519"/>
<polygon fill="midnightblue" stroke="midnightblue" points="786.558,-191.6 776.746,-187.605 781.925,-196.848 786.558,-191.6"/>
</g>
<!-- Node15&#45;&gt;Node11 -->
<g id="edge21" class="edge"><title>Node15&#45;&gt;Node11</title>
<path fill="none" stroke="midnightblue" d="M967.497,-336.302C977.874,-328.251 991.887,-315.245 998,-300 1019.83,-245.547 1028.95,-217.837 998,-168 985.374,-147.671 960.541,-136.247 940.003,-130.001"/>
<polygon fill="midnightblue" stroke="midnightblue" points="940.908,-126.62 930.338,-127.335 939.047,-133.368 940.908,-126.62"/>
</g>
<!-- Node15&#45;&gt;Node13 -->
<g id="edge51" class="edge"><title>Node15&#45;&gt;Node13</title>
<path fill="none" stroke="midnightblue" d="M995.634,-344.707C1126.62,-343.403 1531.88,-336.434 1577,-300 1600.42,-281.091 1596,-265.098 1596,-235 1596,-235 1596,-235 1596,-177 1596,-98.1176 1333.85,-75.6015 1207.95,-69.3366"/>
<polygon fill="midnightblue" stroke="midnightblue" points="1207.82,-65.8265 1197.67,-68.8459 1207.49,-72.8186 1207.82,-65.8265"/>
</g>
<!-- Node15&#45;&gt;Node14 -->
<g id="edge60" class="edge"><title>Node15&#45;&gt;Node14</title>
<path fill="none" stroke="midnightblue" d="M979.209,-336.443C1028.69,-318.458 1138.73,-275.779 1162,-244 1184.42,-213.383 1187.79,-167.299 1187.74,-141.746"/>
<polygon fill="midnightblue" stroke="midnightblue" points="1191.23,-141.504 1187.52,-131.579 1184.23,-141.649 1191.23,-141.504"/>
</g>
<!-- Node16 -->
<g id="node16" class="node"><title>Node16</title>
<g id="a_node16"><a xlink:href="dji__broadcast_8hpp.html" target="_top" xlink:title="Broadcast Telemetry API for DJI onboardSDK library. ">
<polygon fill="white" stroke="black" points="862.5,-224.5 862.5,-243.5 955.5,-243.5 955.5,-224.5 862.5,-224.5"/>
<text text-anchor="middle" x="909" y="-231.5" font-family="Helvetica,sans-Serif" font-size="10.00">dji_broadcast.hpp</text>
</a>
</g>
</g>
<!-- Node15&#45;&gt;Node16 -->
<g id="edge22" class="edge"><title>Node15&#45;&gt;Node16</title>
<path fill="none" stroke="midnightblue" d="M951.39,-336.368C943.9,-318.456 926.532,-276.923 916.506,-252.948"/>
<polygon fill="midnightblue" stroke="midnightblue" points="919.68,-251.467 912.593,-243.591 913.222,-254.168 919.68,-251.467"/>
</g>
<!-- Node18 -->
<g id="node18" class="node"><title>Node18</title>
<g id="a_node18"><a xlink:href="dji__camera_8hpp.html" target="_top" xlink:title="Camera/Gimbal API for DJI onboardSDK library. ">
<polygon fill="white" stroke="black" points="360.5,-168.5 360.5,-187.5 443.5,-187.5 443.5,-168.5 360.5,-168.5"/>
<text text-anchor="middle" x="402" y="-175.5" font-family="Helvetica,sans-Serif" font-size="10.00">dji_camera.hpp</text>
</a>
</g>
</g>
<!-- Node15&#45;&gt;Node18 -->
<g id="edge26" class="edge"><title>Node15&#45;&gt;Node18</title>
<path fill="none" stroke="midnightblue" d="M914.266,-344.94C848.188,-343.702 714.318,-336.42 608,-300 533.439,-274.459 456.069,-220.169 421.14,-193.88"/>
<polygon fill="midnightblue" stroke="midnightblue" points="422.9,-190.821 412.825,-187.544 418.657,-196.389 422.9,-190.821"/>
</g>
<!-- Node19 -->
<g id="node19" class="node"><title>Node19</title>
<polygon fill="white" stroke="#bfbfbf" points="1202,-280.5 1202,-299.5 1314,-299.5 1314,-280.5 1202,-280.5"/>
<text text-anchor="middle" x="1258" y="-287.5" font-family="Helvetica,sans-Serif" font-size="10.00">dji_circular_buffer.hpp</text>
</g>
<!-- Node15&#45;&gt;Node19 -->
<g id="edge29" class="edge"><title>Node15&#45;&gt;Node19</title>
<path fill="none" stroke="midnightblue" d="M995.55,-337.773C1048.14,-328.401 1140.22,-311.99 1200.14,-301.311"/>
<polygon fill="midnightblue" stroke="midnightblue" points="1200.98,-304.718 1210.21,-299.518 1199.75,-297.827 1200.98,-304.718"/>
</g>
<!-- Node20 -->
<g id="node20" class="node"><title>Node20</title>
<g id="a_node20"><a xlink:href="dji__gimbal_8hpp.html" target="_top" xlink:title="Gimbal API for OSDK library. ">
<polygon fill="white" stroke="black" points="500.5,-168.5 500.5,-187.5 579.5,-187.5 579.5,-168.5 500.5,-168.5"/>
<text text-anchor="middle" x="540" y="-175.5" font-family="Helvetica,sans-Serif" font-size="10.00">dji_gimbal.hpp</text>
</a>
</g>
</g>
<!-- Node15&#45;&gt;Node20 -->
<g id="edge32" class="edge"><title>Node15&#45;&gt;Node20</title>
<path fill="none" stroke="midnightblue" d="M914.189,-342.905C857.755,-339.045 753.309,-328.408 669,-300 619.251,-283.237 599.695,-283.398 565,-244 553.399,-230.826 546.915,-211.688 543.476,-197.588"/>
<polygon fill="midnightblue" stroke="midnightblue" points="546.847,-196.616 541.331,-187.571 540.003,-198.082 546.847,-196.616"/>
</g>
<!-- Node21 -->
<g id="node21" class="node"><title>Node21</title>
<polygon fill="white" stroke="#bfbfbf" points="1332,-280.5 1332,-299.5 1430,-299.5 1430,-280.5 1332,-280.5"/>
<text text-anchor="middle" x="1381" y="-287.5" font-family="Helvetica,sans-Serif" font-size="10.00">dji_hard_driver.hpp</text>
</g>
<!-- Node15&#45;&gt;Node21 -->
<g id="edge35" class="edge"><title>Node15&#45;&gt;Node21</title>
<path fill="none" stroke="midnightblue" d="M995.624,-340.466C1061.72,-332.995 1196.89,-317.323 1321.84,-300.123"/>
<polygon fill="midnightblue" stroke="midnightblue" points="1322.54,-303.559 1331.97,-298.722 1321.58,-296.625 1322.54,-303.559"/>
</g>
<!-- Node22 -->
<g id="node22" class="node"><title>Node22</title>
<g id="a_node22"><a xlink:href="dji__hardware__sync_8hpp.html" target="_top" xlink:title="Hardware Sync API for DJI OSDK. ">
<polygon fill="white" stroke="black" points="332,-280.5 332,-299.5 448,-299.5 448,-280.5 332,-280.5"/>
<text text-anchor="middle" x="390" y="-287.5" font-family="Helvetica,sans-Serif" font-size="10.00">dji_hardware_sync.hpp</text>
</a>
</g>
</g>
<!-- Node15&#45;&gt;Node22 -->
<g id="edge36" class="edge"><title>Node15&#45;&gt;Node22</title>
<path fill="none" stroke="midnightblue" d="M914.415,-341.201C832.481,-333.52 641.439,-315.549 481,-300 473.639,-299.287 465.943,-298.535 458.278,-297.782"/>
<polygon fill="midnightblue" stroke="midnightblue" points="458.546,-294.292 448.251,-296.795 457.86,-301.258 458.546,-294.292"/>
</g>
<!-- Node23 -->
<g id="node23" class="node"><title>Node23</title>
<g id="a_node23"><a xlink:href="dji__mfio_8hpp.html" target="_top" xlink:title="MFIO API for DJI OSDK library. ">
<polygon fill="white" stroke="black" points="1210.5,-224.5 1210.5,-243.5 1279.5,-243.5 1279.5,-224.5 1210.5,-224.5"/>
<text text-anchor="middle" x="1245" y="-231.5" font-family="Helvetica,sans-Serif" font-size="10.00">dji_mfio.hpp</text>
</a>
</g>
</g>
<!-- Node15&#45;&gt;Node23 -->
<g id="edge38" class="edge"><title>Node15&#45;&gt;Node23</title>
<path fill="none" stroke="midnightblue" d="M991.444,-336.487C1023.65,-328.51 1071.64,-315.51 1112,-300 1151.31,-284.893 1194.8,-262.492 1221,-248.325"/>
<polygon fill="midnightblue" stroke="midnightblue" points="1222.73,-251.369 1229.83,-243.508 1219.38,-245.224 1222.73,-251.369"/>
</g>
<!-- Node24 -->
<g id="node24" class="node"><title>Node24</title>
<g id="a_node24"><a xlink:href="dji__mission__manager_8hpp.html" target="_top" xlink:title="Mission&#45;Manager API for DJI OSDK library. ">
<polygon fill="white" stroke="black" points="678.5,-280.5 678.5,-299.5 805.5,-299.5 805.5,-280.5 678.5,-280.5"/>
<text text-anchor="middle" x="742" y="-287.5" font-family="Helvetica,sans-Serif" font-size="10.00">dji_mission_manager.hpp</text>
</a>
</g>
</g>
<!-- Node15&#45;&gt;Node24 -->
<g id="edge40" class="edge"><title>Node15&#45;&gt;Node24</title>
<path fill="none" stroke="midnightblue" d="M921.25,-336.444C884.482,-327.122 825.554,-312.183 785.378,-301.997"/>
<polygon fill="midnightblue" stroke="midnightblue" points="786.146,-298.581 775.593,-299.516 784.426,-305.367 786.146,-298.581"/>
</g>
<!-- Node28 -->
<g id="node28" class="node"><title>Node28</title>
<g id="a_node28"><a xlink:href="dji__mobile__communication_8hpp.html" target="_top" xlink:title="Implementation of DJI Mobile&#45;Onboard SDK Communication (MOC) ">
<polygon fill="white" stroke="black" points="1297,-224.5 1297,-243.5 1447,-243.5 1447,-224.5 1297,-224.5"/>
<text text-anchor="middle" x="1372" y="-231.5" font-family="Helvetica,sans-Serif" font-size="10.00">dji_mobile_communication.hpp</text>
</a>
</g>
</g>
<!-- Node15&#45;&gt;Node28 -->
<g id="edge49" class="edge"><title>Node15&#45;&gt;Node28</title>
<path fill="none" stroke="midnightblue" d="M995.781,-337.986C1035.5,-330.587 1097.27,-317.561 1149,-300 1169.34,-293.095 1172.72,-287.092 1193,-280 1234.61,-265.447 1283.19,-253.54 1319.23,-245.638"/>
<polygon fill="midnightblue" stroke="midnightblue" points="1320.01,-249.05 1329.05,-243.516 1318.54,-242.208 1320.01,-249.05"/>
</g>
<!-- Node29 -->
<g id="node29" class="node"><title>Node29</title>
<g id="a_node29"><a xlink:href="dji__status_8hpp.html" target="_top" xlink:title="Status information for DJI Vehicle. ">
<polygon fill="white" stroke="black" points="74.5,-56.5 74.5,-75.5 151.5,-75.5 151.5,-56.5 74.5,-56.5"/>
<text text-anchor="middle" x="113" y="-63.5" font-family="Helvetica,sans-Serif" font-size="10.00">dji_status.hpp</text>
</a>
</g>
</g>
<!-- Node15&#45;&gt;Node29 -->
<g id="edge52" class="edge"><title>Node15&#45;&gt;Node29</title>
<path fill="none" stroke="midnightblue" d="M914.27,-344.658C731.988,-342.6 0,-328.513 0,-235 0,-235 0,-235 0,-177 0,-130.402 49.9475,-97.1433 83.4282,-80.0835"/>
<polygon fill="midnightblue" stroke="midnightblue" points="85.348,-83.0411 92.7979,-75.5078 82.2762,-76.7511 85.348,-83.0411"/>
</g>
<!-- Node30 -->
<g id="node30" class="node"><title>Node30</title>
<g id="a_node30"><a xlink:href="dji__subscription_8hpp.html" target="_top" xlink:title="Telemetry Subscription API for DJI OSDK library. ">
<polygon fill="white" stroke="black" points="1050.5,-224.5 1050.5,-243.5 1153.5,-243.5 1153.5,-224.5 1050.5,-224.5"/>
<text text-anchor="middle" x="1102" y="-231.5" font-family="Helvetica,sans-Serif" font-size="10.00">dji_subscription.hpp</text>
</a>
</g>
</g>
<!-- Node15&#45;&gt;Node30 -->
<g id="edge54" class="edge"><title>Node15&#45;&gt;Node30</title>
<path fill="none" stroke="midnightblue" d="M973.553,-336.49C990.553,-328.285 1016.04,-314.939 1036,-300 1055.41,-285.477 1074.84,-265.525 1087.54,-251.57"/>
<polygon fill="midnightblue" stroke="midnightblue" points="1090.47,-253.547 1094.52,-243.758 1085.25,-248.884 1090.47,-253.547"/>
</g>
<!-- Node31 -->
<g id="node31" class="node"><title>Node31</title>
<polygon fill="white" stroke="#bfbfbf" points="1448,-280.5 1448,-299.5 1568,-299.5 1568,-280.5 1448,-280.5"/>
<text text-anchor="middle" x="1508" y="-287.5" font-family="Helvetica,sans-Serif" font-size="10.00">dji_thread_manager.hpp</text>
</g>
<!-- Node15&#45;&gt;Node31 -->
<g id="edge58" class="edge"><title>Node15&#45;&gt;Node31</title>
<path fill="none" stroke="midnightblue" d="M995.527,-341.742C1077.11,-335.073 1267.21,-318.978 1437.64,-300.115"/>
<polygon fill="midnightblue" stroke="midnightblue" points="1438.25,-303.569 1447.81,-298.985 1437.48,-296.612 1438.25,-303.569"/>
</g>
<!-- Node16&#45;&gt;Node14 -->
<g id="edge25" class="edge"><title>Node16&#45;&gt;Node14</title>
<path fill="none" stroke="midnightblue" d="M930.814,-224.368C979.839,-204.97 1098.88,-157.87 1155.74,-135.367"/>
<polygon fill="midnightblue" stroke="midnightblue" points="1157.28,-138.525 1165.29,-131.591 1154.7,-132.016 1157.28,-138.525"/>
</g>
<!-- Node17 -->
<g id="node17" class="node"><title>Node17</title>
<g id="a_node17"><a xlink:href="dji__telemetry_8hpp.html" target="_top" xlink:title="Enumeration of all telemetry data types, structures and maps. ">
<polygon fill="white" stroke="black" points="864.5,-168.5 864.5,-187.5 955.5,-187.5 955.5,-168.5 864.5,-168.5"/>
<text text-anchor="middle" x="910" y="-175.5" font-family="Helvetica,sans-Serif" font-size="10.00">dji_telemetry.hpp</text>
</a>
</g>
</g>
<!-- Node16&#45;&gt;Node17 -->
<g id="edge23" class="edge"><title>Node16&#45;&gt;Node17</title>
<path fill="none" stroke="midnightblue" d="M909.165,-224.083C909.296,-217.006 909.484,-206.861 909.648,-197.986"/>
<polygon fill="midnightblue" stroke="midnightblue" points="913.152,-197.814 909.838,-187.751 906.153,-197.685 913.152,-197.814"/>
</g>
<!-- Node17&#45;&gt;Node8 -->
<g id="edge24" class="edge"><title>Node17&#45;&gt;Node8</title>
<path fill="none" stroke="midnightblue" d="M864.119,-172.529C849.103,-171.074 832.341,-169.458 817,-168 656.165,-152.71 465.093,-135.009 379.883,-127.139"/>
<polygon fill="midnightblue" stroke="midnightblue" points="380.063,-123.641 369.783,-126.207 379.419,-130.611 380.063,-123.641"/>
</g>
<!-- Node18&#45;&gt;Node4 -->
<g id="edge27" class="edge"><title>Node18&#45;&gt;Node4</title>
<path fill="none" stroke="midnightblue" d="M422.916,-168.444C444.736,-159.517 479.15,-145.439 503.892,-135.317"/>
<polygon fill="midnightblue" stroke="midnightblue" points="505.252,-138.542 513.182,-131.516 502.601,-132.063 505.252,-138.542"/>
</g>
<!-- Node18&#45;&gt;Node8 -->
<g id="edge28" class="edge"><title>Node18&#45;&gt;Node8</title>
<path fill="none" stroke="midnightblue" d="M391.235,-168.324C381.234,-160.263 366.113,-148.077 354.07,-138.369"/>
<polygon fill="midnightblue" stroke="midnightblue" points="355.943,-135.384 345.961,-131.834 351.55,-140.834 355.943,-135.384"/>
</g>
<!-- Node20&#45;&gt;Node4 -->
<g id="edge33" class="edge"><title>Node20&#45;&gt;Node4</title>
<path fill="none" stroke="midnightblue" d="M539.009,-168.083C538.214,-160.927 537.071,-150.635 536.077,-141.691"/>
<polygon fill="midnightblue" stroke="midnightblue" points="539.555,-141.303 534.972,-131.751 532.598,-142.076 539.555,-141.303"/>
</g>
<!-- Node20&#45;&gt;Node8 -->
<g id="edge34" class="edge"><title>Node20&#45;&gt;Node8</title>
<path fill="none" stroke="midnightblue" d="M507.517,-168.444C472.28,-159.162 415.896,-144.309 377.241,-134.127"/>
<polygon fill="midnightblue" stroke="midnightblue" points="377.893,-130.679 367.331,-131.516 376.109,-137.448 377.893,-130.679"/>
</g>
<!-- Node22&#45;&gt;Node8 -->
<g id="edge37" class="edge"><title>Node22&#45;&gt;Node8</title>
<path fill="none" stroke="midnightblue" d="M386.287,-280.484C378.873,-263.264 362.004,-222.962 351,-188 346.143,-172.567 341.836,-154.696 338.918,-141.603"/>
<polygon fill="midnightblue" stroke="midnightblue" points="342.27,-140.542 336.733,-131.509 335.428,-142.023 342.27,-140.542"/>
</g>
<!-- Node23&#45;&gt;Node14 -->
<g id="edge39" class="edge"><title>Node23&#45;&gt;Node14</title>
<path fill="none" stroke="midnightblue" d="M1240.45,-224.368C1230.96,-206.376 1208.91,-164.55 1196.29,-140.627"/>
<polygon fill="midnightblue" stroke="midnightblue" points="1199.29,-138.805 1191.53,-131.591 1193.1,-142.07 1199.29,-138.805"/>
</g>
<!-- Node25 -->
<g id="node25" class="node"><title>Node25</title>
<g id="a_node25"><a xlink:href="dji__hotpoint_8hpp.html" target="_top" xlink:title="Implementation of HotPoint (Point of Interest) Missions for DJI OSDK. ">
<polygon fill="white" stroke="black" points="720.5,-224.5 720.5,-243.5 805.5,-243.5 805.5,-224.5 720.5,-224.5"/>
<text text-anchor="middle" x="763" y="-231.5" font-family="Helvetica,sans-Serif" font-size="10.00">dji_hotpoint.hpp</text>
</a>
</g>
</g>
<!-- Node24&#45;&gt;Node25 -->
<g id="edge41" class="edge"><title>Node24&#45;&gt;Node25</title>
<path fill="none" stroke="midnightblue" d="M745.468,-280.083C748.312,-272.77 752.429,-262.181 755.96,-253.103"/>
<polygon fill="midnightblue" stroke="midnightblue" points="759.234,-254.34 759.597,-243.751 752.71,-251.803 759.234,-254.34"/>
</g>
<!-- Node27 -->
<g id="node27" class="node"><title>Node27</title>
<g id="a_node27"><a xlink:href="dji__waypoint_8hpp.html" target="_top" xlink:title="Implementation of GPS Waypoint Missions for DJI OSDK. ">
<polygon fill="white" stroke="black" points="574.5,-224.5 574.5,-243.5 663.5,-243.5 663.5,-224.5 574.5,-224.5"/>
<text text-anchor="middle" x="619" y="-231.5" font-family="Helvetica,sans-Serif" font-size="10.00">dji_waypoint.hpp</text>
</a>
</g>
</g>
<!-- Node24&#45;&gt;Node27 -->
<g id="edge47" class="edge"><title>Node24&#45;&gt;Node27</title>
<path fill="none" stroke="midnightblue" d="M722.51,-280.444C702.358,-271.596 670.677,-257.687 647.669,-247.586"/>
<polygon fill="midnightblue" stroke="midnightblue" points="648.962,-244.332 638.399,-243.516 646.148,-250.741 648.962,-244.332"/>
</g>
<!-- Node25&#45;&gt;Node17 -->
<g id="edge46" class="edge"><title>Node25&#45;&gt;Node17</title>
<path fill="none" stroke="midnightblue" d="M786.293,-224.444C810.807,-215.438 849.596,-201.189 877.2,-191.049"/>
<polygon fill="midnightblue" stroke="midnightblue" points="878.637,-194.25 886.816,-187.516 876.223,-187.679 878.637,-194.25"/>
</g>
<!-- Node26 -->
<g id="node26" class="node"><title>Node26</title>
<g id="a_node26"><a xlink:href="dji__mission__base_8hpp.html" target="_top" xlink:title="Mission&#45;Base abstract class for DJI OSDK library. ">
<polygon fill="white" stroke="black" points="598,-168.5 598,-187.5 708,-187.5 708,-168.5 598,-168.5"/>
<text text-anchor="middle" x="653" y="-175.5" font-family="Helvetica,sans-Serif" font-size="10.00">dji_mission_base.hpp</text>
</a>
</g>
</g>
<!-- Node25&#45;&gt;Node26 -->
<g id="edge42" class="edge"><title>Node25&#45;&gt;Node26</title>
<path fill="none" stroke="midnightblue" d="M745.327,-224.324C727.606,-215.625 700.097,-202.12 679.712,-192.113"/>
<polygon fill="midnightblue" stroke="midnightblue" points="681.149,-188.919 670.63,-187.655 678.064,-195.203 681.149,-188.919"/>
</g>
<!-- Node26&#45;&gt;Node4 -->
<g id="edge43" class="edge"><title>Node26&#45;&gt;Node4</title>
<path fill="none" stroke="midnightblue" d="M634.144,-168.444C614.734,-159.636 584.27,-145.812 562.035,-135.722"/>
<polygon fill="midnightblue" stroke="midnightblue" points="563.32,-132.462 552.768,-131.516 560.428,-138.836 563.32,-132.462"/>
</g>
<!-- Node26&#45;&gt;Node8 -->
<g id="edge44" class="edge"><title>Node26&#45;&gt;Node8</title>
<path fill="none" stroke="midnightblue" d="M602.612,-168.444C541.318,-158.035 438.776,-140.622 380.018,-130.644"/>
<polygon fill="midnightblue" stroke="midnightblue" points="380.371,-127.154 369.926,-128.931 379.199,-134.056 380.371,-127.154"/>
</g>
<!-- Node26&#45;&gt;Node14 -->
<g id="edge45" class="edge"><title>Node26&#45;&gt;Node14</title>
<path fill="none" stroke="midnightblue" d="M708.138,-169.088C711.134,-168.708 714.103,-168.342 717,-168 858.037,-151.34 1023.45,-136.619 1115.64,-128.843"/>
<polygon fill="midnightblue" stroke="midnightblue" points="1116.02,-132.323 1125.69,-127.998 1115.44,-125.348 1116.02,-132.323"/>
</g>
<!-- Node27&#45;&gt;Node26 -->
<g id="edge48" class="edge"><title>Node27&#45;&gt;Node26</title>
<path fill="none" stroke="midnightblue" d="M624.614,-224.083C629.367,-216.534 636.318,-205.495 642.152,-196.23"/>
<polygon fill="midnightblue" stroke="midnightblue" points="645.124,-198.078 647.49,-187.751 639.2,-194.349 645.124,-198.078"/>
</g>
<!-- Node28&#45;&gt;Node14 -->
<g id="edge50" class="edge"><title>Node28&#45;&gt;Node14</title>
<path fill="none" stroke="midnightblue" d="M1357.48,-224.368C1325.6,-205.412 1249.23,-160.001 1210.45,-136.942"/>
<polygon fill="midnightblue" stroke="midnightblue" points="1211.83,-133.694 1201.45,-131.591 1208.26,-139.711 1211.83,-133.694"/>
</g>
<!-- Node29&#45;&gt;Node6 -->
<g id="edge53" class="edge"><title>Node29&#45;&gt;Node6</title>
<path fill="none" stroke="midnightblue" d="M151.757,-57.6048C207.247,-47.0165 308.474,-27.701 361.505,-17.582"/>
<polygon fill="midnightblue" stroke="midnightblue" points="362.275,-20.9985 371.441,-15.6861 360.962,-14.1225 362.275,-20.9985"/>
</g>
<!-- Node30&#45;&gt;Node13 -->
<g id="edge55" class="edge"><title>Node30&#45;&gt;Node13</title>
<path fill="none" stroke="midnightblue" d="M1101.95,-224.246C1102.09,-203.974 1103.81,-152.451 1117,-112 1120.19,-102.229 1125.55,-92.1554 1130.5,-84.0232"/>
<polygon fill="midnightblue" stroke="midnightblue" points="1133.51,-85.8113 1135.96,-75.5029 1127.62,-82.0355 1133.51,-85.8113"/>
</g>
<!-- Node30&#45;&gt;Node14 -->
<g id="edge57" class="edge"><title>Node30&#45;&gt;Node14</title>
<path fill="none" stroke="midnightblue" d="M1108.67,-224.368C1122.76,-206.135 1155.76,-163.426 1174.11,-139.675"/>
<polygon fill="midnightblue" stroke="midnightblue" points="1177.02,-141.644 1180.36,-131.591 1171.48,-137.364 1177.02,-141.644"/>
</g>
<!-- Node30&#45;&gt;Node17 -->
<g id="edge56" class="edge"><title>Node30&#45;&gt;Node17</title>
<path fill="none" stroke="midnightblue" d="M1071.58,-224.444C1038.72,-215.201 986.215,-200.436 950.026,-190.257"/>
<polygon fill="midnightblue" stroke="midnightblue" points="950.855,-186.855 940.281,-187.516 948.96,-193.593 950.855,-186.855"/>
</g>
</g>
</svg>
